<svg width="340" height="460" viewBox="0 0 340 460" fill="none" xmlns="http://www.w3.org/2000/svg">
<path d="M147.329 108.564C147.329 108.564 148.372 121.705 136.482 127.129C127.095 132.761 124.384 136.516 132.102 148.197C127.304 153.412 127.304 158.209 127.304 158.209C127.304 158.209 128.556 153.62 133.77 152.368C133.77 152.368 138.985 160.294 130.641 166.135C122.297 171.975 108.947 188.246 122.715 202.013C130.433 208.062 134.187 209.314 133.77 214.111C133.353 218.909 110.616 226.627 106.236 210.774C106.236 210.774 106.027 222.455 120.42 223.707C134.813 224.959 141.488 214.112 141.488 214.112C141.488 214.112 139.194 227.462 124.384 227.253C124.384 227.253 148.998 231.842 150.041 207.02C155.464 215.781 151.71 227.253 145.869 229.757C157.967 225.794 160.47 215.781 155.047 201.806C149.624 187.831 154.004 169.266 170.274 168.014C186.544 166.762 205.735 166.137 208.029 156.124C210.324 146.111 187.379 88.9566 147.329 108.564Z" fill="#FAB362"/>
<path d="M145.869 229.991C145.773 229.991 145.684 229.933 145.648 229.838C145.604 229.72 145.66 229.589 145.776 229.539C148.263 228.472 150.433 225.671 151.578 222.043C153.08 217.283 152.572 212.025 150.235 207.814C149.792 214.781 147.404 220.033 143.131 223.434C135.53 229.484 124.452 227.504 124.341 227.484C124.221 227.461 124.138 227.351 124.15 227.229C124.162 227.109 124.264 227.017 124.384 227.017C124.384 227.017 124.386 227.017 124.388 227.017C124.498 227.019 124.611 227.02 124.721 227.02C136.298 227.02 139.985 218.437 140.956 215.246C138.843 217.932 132.122 224.963 120.4 223.941C112.864 223.286 109.348 219.744 107.726 216.887C105.967 213.79 105.999 210.892 106 210.769C106.002 210.652 106.09 210.555 106.206 210.54C106.327 210.523 106.431 210.6 106.462 210.711C109.044 220.056 117.885 220.283 121.57 219.943C127.79 219.373 133.348 216.248 133.535 214.091C133.847 210.506 131.758 208.985 127.183 205.654C125.836 204.674 124.31 203.562 122.568 202.197C118.124 197.755 116.124 192.732 116.605 187.248C117.458 177.513 125.744 169.274 130.505 165.942C138.058 160.654 134.325 153.739 133.66 152.637C128.785 153.896 127.541 158.226 127.53 158.27C127.499 158.383 127.391 158.448 127.272 158.441C127.155 158.424 127.068 158.325 127.068 158.208C127.068 158.01 127.122 153.341 131.804 148.173C128.166 142.633 126.855 138.785 127.553 135.71C128.318 132.336 131.49 129.848 136.359 126.926C147.981 121.624 147.103 108.712 147.093 108.582C147.086 108.485 147.137 108.395 147.224 108.352C160.51 101.849 173.573 103.199 185 112.261C201.29 125.177 209.731 149.745 208.258 156.175C206.092 165.624 189.729 166.821 173.904 167.978C172.689 168.066 171.483 168.155 170.292 168.246C164.417 168.698 159.702 171.492 156.658 176.327C152.431 183.04 151.884 193.007 155.266 201.718C158.441 209.899 158.855 216.573 156.497 221.554C154.651 225.454 151.1 228.288 145.941 229.978C145.918 229.988 145.893 229.991 145.869 229.991ZM150.041 206.785C150.121 206.785 150.197 206.826 150.241 206.896C152.983 211.325 153.651 217.041 152.026 222.187C151.157 224.941 149.706 227.24 147.965 228.712C151.833 227.031 154.555 224.563 156.074 221.355C158.373 216.495 157.955 209.947 154.828 201.891C151.395 193.045 151.958 182.914 156.261 176.079C159.388 171.114 164.227 168.243 170.256 167.78C171.448 167.688 172.655 167.6 173.871 167.511C188.796 166.42 205.713 165.183 207.8 156.072C209.254 149.728 200.865 125.441 184.709 112.632C173.312 103.595 160.819 102.276 147.573 108.709C147.637 110.244 147.766 122.242 136.58 127.344C131.841 130.19 128.742 132.605 128.014 135.816C127.339 138.785 128.662 142.563 132.299 148.069C132.358 148.159 132.349 148.279 132.275 148.358C129.248 151.648 128.156 154.792 127.763 156.61C128.612 155.11 130.375 152.944 133.716 152.142C133.813 152.116 133.914 152.158 133.968 152.241C134.021 152.323 139.21 160.426 130.778 166.331C126.083 169.617 117.914 177.729 117.076 187.292C116.608 192.631 118.562 197.529 122.882 201.849C124.595 203.19 126.118 204.299 127.462 205.276C132.042 208.611 134.34 210.284 134.006 214.134C133.774 216.8 127.752 219.852 121.615 220.414C118.098 220.736 110.035 220.558 106.721 212.875C106.942 213.939 107.36 215.296 108.147 216.676C110.395 220.62 114.647 222.971 120.441 223.475C134.513 224.711 141.223 214.097 141.289 213.991C141.348 213.895 141.468 213.85 141.572 213.895C141.678 213.935 141.74 214.044 141.721 214.154C141.7 214.28 139.578 225.762 127.518 227.319C131.317 227.471 137.852 227.039 142.842 223.068C147.161 219.629 149.504 214.228 149.807 207.013C149.812 206.91 149.882 206.822 149.983 206.795C150.001 206.788 150.02 206.785 150.041 206.785Z" fill="#C97520"/>
<path d="M147.329 108.564C147.329 108.564 148.372 121.705 136.482 127.129C127.095 132.761 124.384 136.516 132.102 148.197C127.304 153.412 127.304 158.209 127.304 158.209C127.304 158.209 128.556 153.62 133.77 152.368C133.77 152.368 138.985 160.294 130.641 166.135C122.297 171.975 108.947 188.246 122.715 202.013C130.433 208.062 134.187 209.314 133.77 214.111C133.353 218.909 110.616 226.627 106.236 210.774C106.236 210.774 106.027 222.455 120.42 223.707C134.813 224.959 141.488 214.112 141.488 214.112C141.488 214.112 139.194 227.462 124.384 227.253C124.384 227.253 148.998 231.842 150.041 207.02C155.464 215.781 151.71 227.253 145.869 229.757C157.967 225.794 160.47 215.781 155.047 201.806C149.624 187.831 154.004 169.266 170.274 168.014C186.544 166.762 205.735 166.137 208.029 156.124C210.324 146.111 187.379 88.9566 147.329 108.564Z" fill="white"/>
<path d="M145.869 229.991C145.773 229.991 145.684 229.933 145.648 229.838C145.604 229.72 145.66 229.589 145.776 229.539C148.263 228.472 150.433 225.671 151.578 222.043C153.08 217.283 152.572 212.025 150.235 207.814C149.792 214.781 147.404 220.033 143.131 223.434C135.53 229.484 124.452 227.504 124.341 227.484C124.221 227.461 124.138 227.351 124.15 227.229C124.162 227.109 124.264 227.017 124.384 227.017C124.384 227.017 124.386 227.017 124.388 227.017C124.498 227.019 124.611 227.02 124.721 227.02C136.298 227.02 139.985 218.437 140.956 215.246C138.843 217.932 132.122 224.963 120.4 223.941C112.864 223.286 109.348 219.744 107.726 216.887C105.967 213.79 105.999 210.892 106 210.769C106.002 210.652 106.09 210.555 106.206 210.54C106.327 210.523 106.431 210.6 106.462 210.711C109.044 220.056 117.885 220.283 121.57 219.943C127.79 219.373 133.348 216.248 133.535 214.091C133.847 210.506 131.758 208.985 127.183 205.654C125.836 204.674 124.31 203.562 122.568 202.197C118.124 197.755 116.124 192.732 116.605 187.248C117.458 177.513 125.744 169.274 130.505 165.942C138.058 160.654 134.325 153.739 133.66 152.637C128.785 153.896 127.541 158.226 127.53 158.27C127.499 158.383 127.391 158.448 127.272 158.441C127.155 158.424 127.068 158.325 127.068 158.208C127.068 158.01 127.122 153.341 131.804 148.173C128.166 142.633 126.855 138.785 127.553 135.71C128.318 132.336 131.49 129.848 136.359 126.926C147.981 121.624 147.103 108.712 147.093 108.582C147.086 108.485 147.137 108.395 147.224 108.352C160.51 101.849 173.573 103.199 185 112.261C201.29 125.177 209.731 149.745 208.258 156.175C206.092 165.624 189.729 166.821 173.904 167.978C172.689 168.066 171.483 168.155 170.292 168.246C164.417 168.698 159.702 171.492 156.658 176.327C152.431 183.04 151.884 193.007 155.266 201.718C158.441 209.899 158.855 216.573 156.497 221.554C154.651 225.454 151.1 228.288 145.941 229.978C145.918 229.988 145.893 229.991 145.869 229.991ZM150.041 206.785C150.121 206.785 150.197 206.826 150.241 206.896C152.983 211.325 153.651 217.041 152.026 222.187C151.157 224.941 149.706 227.24 147.965 228.712C151.833 227.031 154.555 224.563 156.074 221.355C158.373 216.495 157.955 209.947 154.828 201.891C151.395 193.045 151.958 182.914 156.261 176.079C159.388 171.114 164.227 168.243 170.256 167.78C171.448 167.688 172.655 167.6 173.871 167.511C188.796 166.42 205.713 165.183 207.8 156.072C209.254 149.728 200.865 125.441 184.709 112.632C173.312 103.595 160.819 102.276 147.573 108.709C147.637 110.244 147.766 122.242 136.58 127.344C131.841 130.19 128.742 132.605 128.014 135.816C127.339 138.785 128.662 142.563 132.299 148.069C132.358 148.159 132.349 148.279 132.275 148.358C129.248 151.648 128.156 154.792 127.763 156.61C128.612 155.11 130.375 152.944 133.716 152.142C133.813 152.116 133.914 152.158 133.968 152.241C134.021 152.323 139.21 160.426 130.778 166.331C126.083 169.617 117.914 177.729 117.076 187.292C116.608 192.631 118.562 197.529 122.882 201.849C124.595 203.19 126.118 204.299 127.462 205.276C132.042 208.611 134.34 210.284 134.006 214.134C133.774 216.8 127.752 219.852 121.615 220.414C118.098 220.736 110.035 220.558 106.721 212.875C106.942 213.939 107.36 215.296 108.147 216.676C110.395 220.62 114.647 222.971 120.441 223.475C134.513 224.711 141.223 214.097 141.289 213.991C141.348 213.895 141.468 213.85 141.572 213.895C141.678 213.935 141.74 214.044 141.721 214.154C141.7 214.28 139.578 225.762 127.518 227.319C131.317 227.471 137.852 227.039 142.842 223.068C147.161 219.629 149.504 214.228 149.807 207.013C149.812 206.91 149.882 206.822 149.983 206.795C150.001 206.788 150.02 206.785 150.041 206.785Z" fill="black"/>
<path d="M130.197 145.101C130.677 146.425 131.334 147.453 131.782 148.718L131.392 148.659L131.933 148.041L131.91 148.323C131.318 147.368 130.915 146.302 130.197 145.101ZM130.197 145.101C130.749 145.965 131.615 146.961 132.293 148.07C132.349 148.161 132.336 148.275 132.27 148.352L131.745 148.961C131.643 149.101 131.41 149.065 131.355 148.902C130.876 147.703 130.611 146.259 130.197 145.101Z" fill="black"/>
<path d="M215.852 190.176L215.971 199.65L210.325 191.584C210.325 191.584 210.845 189.55 215.852 190.176Z" fill="white"/>
<path d="M215.971 199.885C215.896 199.885 215.823 199.849 215.778 199.785L210.131 191.719C210.091 191.663 210.079 191.592 210.096 191.525C210.119 191.434 210.723 189.292 215.881 189.942C215.998 189.957 216.085 190.055 216.087 190.173L216.206 199.647C216.207 199.75 216.141 199.842 216.043 199.874C216.02 199.882 215.995 199.885 215.971 199.885ZM210.59 191.555L215.726 198.89L215.619 190.385C211.711 189.94 210.776 191.199 210.59 191.555Z" fill="black"/>
<path d="M208.864 169.265C208.864 169.265 216.373 171.56 216.79 191.793C212.41 191.376 210.324 191.584 210.324 191.584C210.324 191.584 199.477 174.688 208.864 169.265Z" fill="white"/>
<path d="M216.79 192.028C216.783 192.028 216.775 192.028 216.768 192.027C212.469 191.617 210.368 191.816 210.346 191.818C210.258 191.824 210.172 191.784 210.126 191.711C209.848 191.28 203.366 181.068 205.093 173.95C205.614 171.805 206.842 170.161 208.745 169.061C208.801 169.03 208.869 169.022 208.932 169.04C209.245 169.136 216.609 171.616 217.025 191.789C217.026 191.856 216.999 191.92 216.95 191.966C216.907 192.006 216.849 192.028 216.79 192.028ZM211.914 191.296C212.944 191.296 214.478 191.345 216.55 191.534C216.112 173.2 209.727 169.882 208.885 169.525C207.153 170.557 206.031 172.083 205.551 174.061C203.968 180.584 209.719 190.163 210.447 191.338C210.674 191.322 211.158 191.296 211.914 191.296Z" fill="black"/>
<path d="M154.393 199.826C154.393 199.826 158.124 213.643 161.723 221.621C158.594 223.185 157.655 223.342 161.879 226.784C173.456 232.729 198.174 238.517 206.935 229.131L204.901 225.22C204.901 225.22 207.959 215.988 208.812 210.358C211.159 194.87 208.03 176.253 203.806 169.37C199.582 162.486 179.401 164.989 170.64 166.085C161.879 167.179 150.661 183.819 154.393 199.826Z" fill="white"/>
<path d="M191.592 234.275C181.173 234.275 168.895 230.651 161.771 226.993C159.46 225.117 158.722 224.241 158.806 223.497C158.89 222.761 159.738 222.341 161.143 221.646L161.416 221.511C157.879 213.575 154.203 200.025 154.166 199.888C154.165 199.885 154.164 199.882 154.164 199.88C152.193 191.427 154.198 181.815 159.527 174.17C162.842 169.414 166.985 166.304 170.61 165.851C179.311 164.762 199.692 162.215 204.006 169.247C208.282 176.215 211.404 194.828 209.045 210.393C208.245 215.674 205.481 224.206 205.156 225.2L207.143 229.022C207.189 229.11 207.174 229.218 207.106 229.291C203.743 232.895 198.021 234.275 191.592 234.275ZM154.62 199.77C154.702 200.069 158.408 213.702 161.936 221.525C161.988 221.64 161.94 221.776 161.827 221.832L161.351 222.068C160.133 222.671 159.328 223.069 159.273 223.549C159.204 224.164 160.324 225.214 162.027 226.602C173.342 232.406 197.893 238.193 206.648 229.09L204.692 225.328C204.663 225.272 204.657 225.206 204.677 225.146C204.707 225.053 207.739 215.868 208.579 210.322C210.922 194.856 207.837 176.391 203.604 169.492C199.447 162.718 179.279 165.239 170.668 166.317C167.173 166.754 163.152 169.79 159.912 174.439C154.66 181.975 152.682 191.445 154.62 199.77Z" fill="black"/>
<path d="M192.668 159.23C192.621 159.228 192.579 159.221 192.531 159.22C192.531 159.22 192.559 159.189 192.599 159.146C192.563 159.149 192.53 159.148 192.494 159.151C192.975 155.499 194.418 152.95 194.418 152.95L173.434 150.684L170.538 158.285C170.538 158.285 170.468 158.28 170.343 158.272L168.182 163.235C169.82 164.782 171.647 166.265 173.413 167.73C177.536 171.151 179.554 171.239 180.694 174.397C180.836 174.791 180.937 175.202 181.006 175.62C182.605 178.113 184.106 182.627 190.298 187.621C193.844 180.32 194.261 177.713 195.513 173.124C195.515 173.124 195.56 162.623 192.668 159.23Z" fill="white"/>
<path d="M190.299 187.856C190.246 187.856 190.193 187.838 190.151 187.804C185.234 183.839 183.277 180.219 181.848 177.575C181.469 176.875 181.142 176.269 180.809 175.748C180.792 175.721 180.78 175.691 180.774 175.659C180.707 175.242 180.606 174.844 180.474 174.476C179.754 172.481 178.661 171.751 176.85 170.54C175.891 169.898 174.696 169.099 173.265 167.911L172.588 167.351C171.049 166.078 169.458 164.761 168.021 163.406C167.949 163.338 167.927 163.232 167.967 163.141L170.128 158.178C170.168 158.087 170.254 158.029 170.358 158.036L170.381 158.038L173.216 150.599C173.254 150.5 173.353 150.43 173.46 150.448L194.444 152.715C194.523 152.724 194.592 152.771 194.629 152.842C194.665 152.913 194.663 152.996 194.624 153.065C194.61 153.09 193.245 155.535 192.753 158.999C192.762 159.008 192.77 159.018 192.776 159.029C192.805 159.042 192.831 159.058 192.847 159.077C195.762 162.497 195.751 172.693 195.75 173.124C195.75 173.144 195.747 173.165 195.742 173.185C195.565 173.836 195.404 174.447 195.249 175.036C194.308 178.613 193.566 181.439 190.512 187.724C190.481 187.788 190.422 187.835 190.352 187.851C190.333 187.854 190.317 187.856 190.299 187.856ZM181.231 175.534C181.565 176.06 181.889 176.66 182.263 177.351C183.65 179.918 185.542 183.419 190.217 187.251C193.141 181.194 193.871 178.418 194.792 174.917C194.945 174.335 195.103 173.733 195.278 173.093C195.277 172.471 195.215 162.731 192.549 159.456C192.464 159.443 192.372 159.388 192.34 159.312C192.338 159.306 192.336 159.301 192.333 159.295C192.291 159.245 192.251 159.183 192.259 159.121C192.649 156.159 193.65 153.939 194.047 153.147L173.588 150.937L170.756 158.368C170.719 158.465 170.614 158.534 170.521 158.519L170.492 158.517L168.463 163.177C169.856 164.482 171.396 165.755 172.886 166.988L173.562 167.549C174.975 168.722 176.159 169.513 177.11 170.149C178.936 171.37 180.141 172.177 180.915 174.318C181.053 174.697 181.158 175.107 181.231 175.534Z" fill="black"/>
<path d="M192.667 159.23C192.53 159.141 192.443 159.238 192.445 159.283L192.749 159.285C192.751 159.332 192.726 159.355 192.696 159.372L192.537 158.993C192.508 159.006 192.477 159.165 192.667 159.23ZM192.667 159.23C192.833 159.411 192.333 159.589 192.305 159.246C192.307 159.171 192.359 159.008 192.447 159.006L192.726 158.993C192.822 159.048 192.76 159.277 192.667 159.23Z" fill="black"/>
<path d="M173.414 167.73C169.937 164.844 166.216 161.895 164.187 158.516C164.04 158.555 163.903 158.598 163.782 158.646C161.972 159.37 159.197 165.644 159.197 165.644C159.197 165.644 168.608 172.642 171.141 179.157C174.398 173.245 179.104 172.883 180.793 175.296C180.865 175.398 180.935 175.51 181.006 175.621C180.938 175.202 180.836 174.791 180.694 174.398C179.555 171.238 177.537 171.151 173.414 167.73Z" fill="white"/>
<path d="M171.142 179.391C171.136 179.391 171.132 179.391 171.126 179.39C171.035 179.384 170.955 179.326 170.922 179.241C168.442 172.865 159.151 165.901 159.057 165.831C158.969 165.766 158.938 165.648 158.982 165.547C159.097 165.288 161.818 159.178 163.694 158.426C163.824 158.376 163.97 158.329 164.126 158.287C164.224 158.259 164.334 158.303 164.388 158.393C166.256 161.504 169.602 164.271 172.838 166.946L173.564 167.548C174.977 168.721 176.161 169.512 177.112 170.148C178.938 171.369 180.143 172.176 180.917 174.317C181.059 174.712 181.167 175.137 181.24 175.583C181.257 175.693 181.196 175.801 181.092 175.84C180.986 175.88 180.87 175.841 180.81 175.747C180.719 175.606 180.661 175.515 180.602 175.429C179.983 174.543 178.922 174.078 177.711 174.138C175.43 174.26 173.052 176.179 171.349 179.27C171.306 179.345 171.228 179.391 171.142 179.391ZM159.489 165.568C160.722 166.505 168.579 172.632 171.176 178.621C172.959 175.592 175.313 173.795 177.684 173.668C178.82 173.606 179.807 173.953 180.526 174.628C180.509 174.576 180.492 174.525 180.474 174.474C179.754 172.479 178.661 171.749 176.85 170.538C175.891 169.897 174.696 169.097 173.265 167.909L172.538 167.308C169.325 164.651 166.004 161.905 164.08 158.789C164.005 158.812 163.935 158.837 163.869 158.863C162.503 159.411 160.317 163.734 159.489 165.568Z" fill="black"/>
<path d="M164.188 158.515C165.187 160.177 166.597 161.735 168.184 163.234L170.345 158.271C169.484 158.218 165.975 158.039 164.188 158.515Z" fill="white"/>
<path d="M168.182 163.47C168.122 163.47 168.064 163.447 168.02 163.406C166.174 161.663 164.892 160.147 163.985 158.637C163.946 158.574 163.941 158.495 163.968 158.427C163.996 158.358 164.053 158.307 164.125 158.288C165.926 157.808 169.351 157.974 170.357 158.036C170.433 158.042 170.503 158.083 170.543 158.148C170.583 158.214 170.589 158.295 170.559 158.365L168.398 163.328C168.367 163.399 168.304 163.449 168.229 163.465C168.214 163.468 168.198 163.47 168.182 163.47ZM164.559 158.669C165.391 159.985 166.527 161.321 168.101 162.831L169.994 158.487C168.918 158.431 166.195 158.336 164.559 158.669Z" fill="black"/>
<path d="M172.507 193.17C172.371 193.212 172.228 193.211 172.105 193.165C171.974 193.117 171.878 193.023 171.841 192.905L170.643 189.148C170.569 188.915 170.736 188.653 171.02 188.554L176.896 186.521C177.177 186.413 177.488 186.527 177.577 186.759L178.959 190.38C179.048 190.614 178.885 190.887 178.596 190.991L172.535 193.16C172.526 193.164 172.517 193.167 172.507 193.17Z" fill="white"/>
<path d="M171.633 189.19L172.617 192.277L177.949 190.368L176.815 187.396L171.633 189.19Z" fill="white"/>
<path d="M192.53 159.22C192.53 159.22 194.996 166.834 194.529 174.615C197.629 167.946 202.408 159.737 192.53 159.22Z" fill="white"/>
<path d="M194.528 174.85C194.509 174.85 194.49 174.847 194.47 174.843C194.361 174.815 194.286 174.713 194.293 174.601C194.754 166.953 192.33 159.367 192.306 159.292C192.282 159.218 192.297 159.138 192.344 159.076C192.391 159.015 192.455 158.976 192.543 158.984C195.412 159.135 197.231 159.921 198.105 161.389C199.76 164.168 197.594 168.714 195.501 173.11C195.243 173.651 194.988 174.188 194.743 174.714C194.702 174.799 194.619 174.85 194.528 174.85ZM192.854 159.475C193.287 160.936 194.966 167.044 194.812 173.46C194.899 173.277 194.987 173.092 195.075 172.908C197.02 168.823 199.225 164.193 197.699 161.63C196.946 160.363 195.359 159.657 192.854 159.475Z" fill="black"/>
<path d="M192.385 159.044C192.385 159.044 198.017 160.713 195.931 161.547C193.845 162.381 194.145 163.932 194.575 167.805C195.044 172.029 194.705 178.57 191.368 184.828C196.374 179.822 197.183 173.854 197.183 173.854C197.183 173.854 199.353 175.13 200.188 177.633C201.857 173.878 203.024 168.431 207.821 168.639C203.649 160.504 200.937 160.087 192.385 159.044Z" fill="white"/>
<path d="M191.37 185.062C191.321 185.062 191.272 185.046 191.23 185.016C191.136 184.946 191.107 184.818 191.162 184.717C194.939 177.634 194.644 170.548 194.343 167.83L194.274 167.219C193.884 163.762 193.705 162.184 195.844 161.327C196.064 161.24 196.162 161.148 196.16 161.1C196.14 160.679 194.158 159.813 192.318 159.268C192.201 159.234 192.13 159.115 192.154 158.995C192.179 158.875 192.283 158.798 192.413 158.809C200.896 159.844 203.753 160.192 208.03 168.53C208.068 168.604 208.064 168.694 208.018 168.764C207.973 168.835 207.904 168.869 207.81 168.872C207.724 168.868 207.638 168.866 207.555 168.866C203.915 168.866 202.544 172.358 201.216 175.737C200.941 176.436 200.682 177.097 200.403 177.725C200.365 177.814 200.274 177.863 200.177 177.865C200.08 177.86 199.996 177.796 199.965 177.704C199.347 175.849 197.955 174.683 197.353 174.247C197.08 175.632 195.832 180.694 191.536 184.99C191.49 185.039 191.43 185.062 191.37 185.062ZM194.552 159.551C195.601 159.986 196.606 160.54 196.63 161.08C196.643 161.368 196.438 161.598 196.019 161.766C194.214 162.489 194.357 163.763 194.742 167.167L194.81 167.78C195.097 170.353 195.376 176.777 192.307 183.466C196.228 178.86 196.943 173.878 196.951 173.824C196.962 173.746 197.011 173.678 197.082 173.644C197.154 173.61 197.236 173.614 197.304 173.652C197.389 173.702 199.249 174.817 200.202 177.01C200.395 176.549 200.583 176.069 200.78 175.569C202.088 172.238 203.566 168.478 207.433 168.4C203.755 161.36 201.085 160.407 194.552 159.551Z" fill="black"/>
<path d="M175.566 200.918C175.517 201.049 175.471 201.175 175.425 201.299C175.474 201.19 175.517 201.081 175.567 200.971C175.567 200.952 175.566 200.936 175.566 200.918Z" fill="#FDD4B5"/>
<path d="M225.33 112.436C232.318 102.25 227.936 94.1967 227.936 94.1967C225.326 88.3517 215.469 78.5287 197.258 78.0527C195.58 82.6637 194.342 87.4157 193.43 92.2577C192.305 98.2347 191.59 104.276 190.785 110.301C190.018 116.04 189.118 121.76 188.569 127.526C188.027 133.217 187.795 138.961 188.283 144.665C188.521 147.445 188.932 150.211 189.569 152.928C189.667 153.346 189.78 153.764 189.888 154.182C196.188 154.258 202.124 153.843 206.144 152.942C215.382 149.626 219.528 143.467 219.528 143.467C219.528 143.467 219.173 145.717 217.633 146.783C229.477 143.467 228.292 133.518 226.753 128.307C225.211 123.095 221.658 117.529 225.33 112.436Z" fill="white"/>
<path d="M191.368 154.426C190.878 154.426 190.383 154.422 189.883 154.417C189.776 154.416 189.684 154.343 189.658 154.24L189.552 153.83C189.477 153.547 189.404 153.264 189.338 152.981C188.731 150.392 188.297 147.601 188.047 144.685C187.61 139.592 187.702 134.133 188.333 127.504C188.732 123.319 189.324 119.09 189.898 115C190.118 113.424 190.34 111.848 190.55 110.27C190.695 109.184 190.838 108.097 190.98 107.01C191.616 102.148 192.274 97.1208 193.197 92.2148C194.166 87.0648 195.423 82.4058 197.035 77.9728C197.069 77.8798 197.158 77.8188 197.256 77.8188C197.258 77.8188 197.26 77.8188 197.262 77.8188C216.162 78.3128 225.73 88.6858 228.148 94.1028C228.184 94.1678 232.51 102.384 225.521 112.571C225.52 112.572 225.519 112.574 225.518 112.576C222.693 116.494 224.279 120.765 225.814 124.894C226.224 125.997 226.647 127.136 226.974 128.241C227.99 131.681 228.72 136.654 226.423 140.806C224.79 143.758 221.853 145.846 217.692 147.011C217.581 147.04 217.465 146.988 217.415 146.884C217.366 146.78 217.399 146.656 217.494 146.591C218.241 146.074 218.696 145.245 218.961 144.566C217.369 146.45 213.23 150.648 206.218 153.165C202.559 153.985 197.335 154.426 191.368 154.426ZM190.068 153.948C196.526 154.022 202.225 153.578 206.09 152.711C215.113 149.47 219.288 143.395 219.33 143.334C219.392 143.244 219.508 143.207 219.611 143.247C219.713 143.287 219.774 143.393 219.757 143.502C219.744 143.58 219.493 145.099 218.534 146.259C222.058 145.089 224.571 143.181 226.013 140.576C228.231 136.565 227.515 131.726 226.524 128.372C226.202 127.281 225.782 126.149 225.375 125.054C223.798 120.81 222.167 116.421 225.136 112.3C231.953 102.362 227.771 94.3878 227.728 94.3078C225.35 88.9858 215.972 78.8358 197.421 78.2918C195.844 82.6538 194.614 87.2378 193.661 92.2998C192.739 97.1928 192.083 102.214 191.447 107.07C191.305 108.157 191.163 109.244 191.018 110.331C190.807 111.91 190.585 113.487 190.365 115.064C189.793 119.148 189.2 123.372 188.803 127.547C188.174 134.148 188.084 139.58 188.517 144.644C188.765 147.538 189.195 150.307 189.797 152.873C189.863 153.152 189.936 153.432 190.008 153.711L190.068 153.948Z" fill="black"/>
<path d="M161.451 136.714C161.416 135.458 161.43 134.199 161.252 132.952C161.07 131.683 160.749 130.435 160.291 129.238C159.833 128.04 159.23 126.902 158.603 125.784C158.28 125.208 157.918 124.667 157.493 124.161C157.145 123.746 156.686 123.438 156.415 122.96C156.339 122.827 156.438 122.644 156.584 122.62C157.339 122.494 158.034 122.666 158.656 123.012C158.646 122.999 158.635 122.986 158.625 122.973C158.582 122.907 158.545 122.837 158.5 122.772C157.174 120.847 155.128 119.272 152.747 119.026C151.731 118.921 150.693 119.049 149.773 119.51C148.926 119.934 148.226 120.6 147.68 121.368C147.107 122.175 146.686 123.08 146.358 124.011C146.016 124.983 145.743 125.997 145.606 127.019C145.269 129.535 145.706 132.158 146.732 134.471C147.792 136.861 149.539 138.883 151.713 140.33C152.723 141.003 153.808 141.57 154.948 141.989C156.041 142.391 157.228 142.689 158.401 142.61C159.515 142.536 160.58 142.084 161.222 141.14C161.463 140.786 161.653 140.391 161.806 139.978C161.552 138.912 161.482 137.812 161.451 136.714Z" fill="#B4715A"/>
<path d="M160.009 141.787C159.049 142.385 157.807 142.327 156.74 142.116C155.641 141.898 154.581 141.485 153.582 140.985C151.318 139.852 149.352 138.136 148.007 135.984C146.725 133.932 146.003 131.504 145.925 129.087C145.858 127.004 146.324 124.888 147.188 122.994C147.947 121.329 149.183 119.768 151.069 119.395C153.355 118.943 155.658 120.15 157.191 121.775C157.196 121.78 157.2 121.786 157.205 121.791C157.175 121.831 157.169 121.877 157.212 121.924C157.718 122.482 158.179 123.074 158.604 123.69C158.722 123.895 158.831 124.104 158.936 124.316C159.072 124.503 159.2 124.697 159.322 124.894C159.827 125.622 160.242 126.413 160.518 127.252C161.535 129.754 162.044 132.473 162.058 135.163C162.065 136.498 161.925 137.826 161.582 139.118C161.314 140.122 160.937 141.209 160.009 141.787Z" fill="white"/>
<path d="M158.106 142.497C157.671 142.497 157.2 142.446 156.694 142.346C155.67 142.143 154.617 141.766 153.475 141.195C151.105 140.009 149.145 138.25 147.807 136.109C146.521 134.051 145.769 131.56 145.69 129.095C145.624 127.028 146.068 124.885 146.974 122.896C147.644 121.427 148.89 119.586 151.022 119.164C153.532 118.668 155.938 120.105 157.361 121.613C157.411 121.667 157.438 121.746 157.433 121.82C157.903 122.343 158.361 122.926 158.798 123.557C158.929 123.783 159.04 123.997 159.146 124.212C159.265 124.371 159.396 124.569 159.521 124.771C160.059 125.545 160.472 126.359 160.741 127.18C161.74 129.634 162.278 132.401 162.292 135.164C162.3 136.589 162.137 137.94 161.808 139.18C161.517 140.277 161.112 141.378 160.133 141.987C159.587 142.326 158.908 142.497 158.106 142.497ZM152.047 119.534C151.738 119.534 151.426 119.563 151.113 119.625C149.175 120.009 148.025 121.722 147.401 123.091C146.524 125.014 146.095 127.084 146.16 129.08C146.236 131.463 146.962 133.872 148.205 135.859C149.498 137.927 151.392 139.626 153.686 140.774C154.79 141.327 155.803 141.69 156.785 141.885C158.1 142.145 159.145 142.047 159.883 141.587C160.723 141.063 161.086 140.062 161.352 139.057C161.67 137.858 161.827 136.548 161.82 135.164C161.806 132.461 161.28 129.755 160.298 127.34C160.037 126.547 159.645 125.773 159.126 125.027C159 124.825 158.875 124.636 158.743 124.453C158.62 124.212 158.512 124.007 158.398 123.806C157.97 123.188 157.508 122.602 157.034 122.081C156.974 122.015 156.944 121.937 156.943 121.858C155.781 120.659 153.977 119.534 152.047 119.534Z" fill="black"/>
<path d="M146.519 129.079C146.619 127.187 147.099 125.229 148.241 123.684C149.567 121.891 151.584 120.561 153.874 120.651C154.96 120.694 155.987 121.027 156.942 121.523C155.415 120.028 153.235 118.965 151.068 119.394C149.183 119.767 147.947 121.328 147.187 122.993C146.323 124.888 145.857 127.004 145.924 129.086C145.98 130.841 146.381 132.601 147.085 134.22C146.639 132.548 146.428 130.806 146.519 129.079Z" fill="#FDD4B5"/>
<path d="M157.075 136.746C157.205 136.434 157.29 136.116 157.264 135.796C157.229 135.679 157.189 135.564 157.141 135.452C157.008 135.144 156.829 134.869 156.632 134.606C156.64 134.597 156.647 134.588 156.655 134.58C156.579 134.484 156.5 134.39 156.421 134.296C156.412 134.298 156.403 134.3 156.394 134.303C156.082 133.919 155.75 133.547 155.488 133.124C155.21 132.676 154.992 132.149 155.325 131.673C155.626 131.242 156.044 130.893 156.38 130.489C157.026 129.711 157.384 128.773 157.353 127.756C157.299 125.95 156.191 124.427 154.612 123.618C153.162 122.875 151.325 122.647 150.038 123.819C149.354 124.442 148.849 125.285 148.534 126.15C148.236 126.969 148.073 127.87 148.305 128.726C148.334 128.832 148.541 128.781 148.523 128.673C148.398 127.937 148.577 127.144 148.831 126.453C149.112 125.688 149.517 124.958 150.069 124.355C150.571 123.806 151.165 123.435 151.921 123.39C152.726 123.343 153.533 123.585 154.247 123.941C155.759 124.695 156.839 126.208 156.828 127.933C156.821 128.934 156.425 129.778 155.766 130.517C155.44 130.883 155.045 131.219 154.791 131.641C154.565 132.018 154.579 132.423 154.74 132.824C155.015 133.51 155.523 134.033 155.996 134.583C155.637 134.804 155.218 134.899 154.791 134.946C154.246 135.007 153.673 135.018 153.129 134.939C151.913 134.763 150.62 134.045 150.21 132.826C150.191 132.77 150.076 132.797 150.091 132.855C150.459 134.214 151.702 135.06 153.042 135.288C153.666 135.394 154.337 135.377 154.962 135.293C155.373 135.238 155.872 135.137 156.264 134.908C156.366 135.037 156.465 135.168 156.555 135.306C156.801 135.683 156.971 136.094 157.048 136.539C157.062 136.607 157.067 136.676 157.075 136.746Z" fill="#080000"/>
<path d="M212.551 91.8157C212.551 91.8157 221.356 109.701 215.165 124.698C212.001 130.889 213.018 133.212 213.927 136.392C215.578 142.17 214.374 153.104 195.216 156.203C185.861 157.716 164.148 153.085 161.234 140.244C157.654 124.469 155.308 101.315 175.489 90.2077C188.787 83.1677 207.404 82.9077 212.551 91.8157Z" fill="white"/>
<path d="M191.325 156.712C186.995 156.712 181.302 155.888 175.728 153.827C170.978 152.071 162.747 147.978 161.004 140.297C155.251 114.942 159.951 98.4908 175.376 90.0018C188.267 83.1788 207.401 82.4338 212.756 91.6988C212.758 91.7038 212.761 91.7078 212.763 91.7128C212.851 91.8928 221.543 109.867 215.383 124.788C212.455 130.521 213.127 132.82 213.98 135.731L214.154 136.328C214.665 138.115 215.539 142.765 212.637 147.332C209.679 151.986 203.832 155.048 195.255 156.436C194.147 156.615 192.818 156.712 191.325 156.712ZM196.16 85.2558C189.271 85.2558 181.831 87.1168 175.599 90.4148C160.388 98.7878 155.762 115.071 161.464 140.192C164.356 152.936 186.298 157.407 195.179 155.97C203.617 154.605 209.357 151.614 212.239 147.078C215.039 142.671 214.194 138.182 213.701 136.455L213.528 135.861C212.681 132.969 211.949 130.471 214.955 124.59C220.982 109.991 212.552 92.3558 212.344 91.9258C209.995 87.8718 204.429 85.4428 197.071 85.2658C196.769 85.2598 196.465 85.2558 196.16 85.2558Z" fill="black"/>
<path d="M192.907 107C192.907 107 193.95 112.215 189.465 111.589C184.98 110.963 178.931 111.902 172.569 114.718C177.158 109.399 190.195 106.687 192.907 107Z" fill="white"/>
<path d="M172.569 114.953C172.496 114.953 172.426 114.919 172.38 114.857C172.315 114.769 172.319 114.647 172.391 114.564C176.969 109.259 189.993 106.429 192.934 106.766C193.036 106.777 193.118 106.853 193.138 106.953C193.16 107.062 193.66 109.653 192.351 111.042C191.695 111.737 190.708 111.997 189.434 111.821C184.73 111.164 178.616 112.299 172.666 114.932C172.633 114.947 172.601 114.953 172.569 114.953ZM192.331 107.207C188.856 107.207 178.308 109.646 173.553 114.043C179.238 111.705 184.999 110.731 189.498 111.355C190.617 111.509 191.463 111.298 192.008 110.72C192.974 109.697 192.788 107.797 192.705 107.217C192.591 107.21 192.466 107.207 192.331 107.207Z" fill="black"/>
<path d="M186.223 125.989C185.953 119.817 180.796 116.543 175.24 119.406C173.687 120.227 172.302 121.383 171.135 122.733C172.151 121.259 173.499 120.004 175.067 119.088C180.671 115.878 186.591 119.54 186.223 125.989Z" fill="black"/>
<path d="M172.243 132.41C172.243 132.41 175.814 135.078 182.466 133.933C189.727 132.683 186.974 120.002 178.388 119.879C173.274 119.805 169.612 123.941 169.661 128.034C169.711 130.175 171.255 131.696 172.243 132.41Z" fill="#080000"/>
<path d="M172.133 122.802C172.133 122.802 169.442 125.877 166.304 122.143C167.708 125.468 171.666 125.734 172.133 122.802Z" fill="#080000"/>
<path d="M171.561 125.355C171.561 125.355 169.527 127.624 166.32 125.277C167.65 127.702 171.404 127.78 171.561 125.355Z" fill="#080000"/>
<path d="M174.682 121.118C174.682 121.118 172.175 121.547 171.062 119.377C171.064 121.354 173.48 122.605 174.682 121.118Z" fill="#080000"/>
<path d="M172.242 133.27C172.242 133.27 175.813 135.938 182.465 134.793C189.726 133.543 186.351 121.419 178.366 121.419C174.069 121.419 169.872 124.893 169.921 128.987C169.97 131.128 171.254 132.556 172.242 133.27Z" fill="white"/>
<path d="M179.203 135.317C174.674 135.317 172.246 133.567 172.103 133.46C171.395 132.947 169.743 131.488 169.686 128.992C169.664 127.188 170.442 125.397 171.877 123.944C173.584 122.217 176.01 121.185 178.366 121.185C183.073 121.185 186.344 125.361 186.673 129.23C186.937 132.317 185.34 134.537 182.504 135.025C181.304 135.231 180.202 135.317 179.203 135.317ZM178.366 121.655C176.133 121.655 173.832 122.634 172.213 124.275C170.867 125.638 170.136 127.31 170.157 128.984C170.21 131.268 171.73 132.609 172.381 133.08L172.384 133.082C172.419 133.108 175.964 135.672 182.427 134.562C185.038 134.113 186.451 132.134 186.206 129.27C185.892 125.607 182.806 121.655 178.366 121.655Z" fill="black"/>
<path d="M173.024 131.712C173.024 131.712 176.126 134.029 181.903 133.035C188.209 131.95 185.278 121.419 178.343 121.419C174.611 121.419 170.965 124.437 171.008 127.992C171.051 129.852 172.167 131.092 173.024 131.712Z" fill="white"/>
<path d="M201.66 125.245C201.695 118.022 210.78 116.158 213.276 122.897C212.665 121.632 211.714 120.528 210.511 119.879C206.15 117.758 202.248 120.7 201.66 125.245Z" fill="black"/>
<path d="M200.439 129.25C200.439 129.25 199.474 134.265 203.718 134.973C207.962 135.68 212.913 134.459 212.977 129.122C212.977 123.785 208.99 121.277 205.004 122.885C201.018 124.492 200.439 129.25 200.439 129.25Z" fill="white"/>
<path d="M205.909 135.396C205.194 135.396 204.447 135.333 203.681 135.206C202.487 135.007 201.574 134.462 200.965 133.586C199.749 131.839 200.173 129.402 200.208 129.214C200.245 128.922 200.893 124.289 204.917 122.667C206.871 121.878 208.89 122.032 210.46 123.092C212.236 124.29 213.214 126.432 213.214 129.121C213.19 131.103 212.518 132.66 211.215 133.749C209.926 134.828 208.058 135.396 205.909 135.396ZM207.382 122.641C206.633 122.641 205.858 122.794 205.092 123.102C201.285 124.637 200.678 129.232 200.672 129.278C200.671 129.284 200.67 129.289 200.669 129.294C200.664 129.318 200.226 131.704 201.351 133.318C201.885 134.084 202.694 134.563 203.757 134.74C206.648 135.223 209.322 134.719 210.912 133.388C212.105 132.39 212.72 130.954 212.742 129.118C212.742 126.592 211.838 124.59 210.195 123.481C209.369 122.924 208.4 122.641 207.382 122.641Z" fill="black"/>
<path d="M201.247 128.239C201.247 128.239 200.432 132.478 204.019 133.076C207.606 133.674 211.79 132.641 211.845 128.13C211.845 123.619 208.476 121.5 205.106 122.859C201.736 124.217 201.247 128.239 201.247 128.239Z" fill="white"/>
<path d="M210.718 127.695C210.718 130.463 208.758 132.706 206.341 132.706C203.923 132.706 201.964 130.463 201.964 127.695C201.964 124.928 203.924 122.684 206.341 122.684C208.758 122.684 210.718 124.928 210.718 127.695Z" fill="black"/>
<path d="M210.416 127.685C210.416 130.261 208.592 132.35 206.341 132.35C204.09 132.35 202.266 130.261 202.266 127.685C202.266 125.109 204.09 123.02 206.341 123.02C208.592 123.021 210.416 125.109 210.416 127.685Z" fill="white"/>
<path d="M209.259 127.695C209.259 129.54 207.953 131.036 206.341 131.036C204.729 131.036 203.423 129.54 203.423 127.695C203.423 125.85 204.729 124.355 206.341 124.355C207.952 124.355 209.259 125.85 209.259 127.695Z" fill="black"/>
<path d="M205.744 125.021C205.694 124.711 205.485 124.494 205.217 124.44C204.567 124.311 203.929 124.996 203.641 125.6C203.469 125.962 203.359 126.619 203.712 126.89C204.022 127.128 204.491 126.942 204.784 126.758C205.312 126.429 205.863 125.77 205.744 125.021Z" fill="white"/>
<path d="M203.942 127.595C203.893 127.505 203.813 127.456 203.726 127.441C203.591 127.369 203.417 127.461 203.31 127.566C203.235 127.639 203.168 127.739 203.142 127.85C203.12 127.947 203.129 128.042 203.166 128.132C203.226 128.276 203.371 128.345 203.504 128.351C203.667 128.358 203.826 128.273 203.923 128.124C204.02 127.976 204.026 127.751 203.942 127.595Z" fill="white"/>
<path d="M201.01 126.935C201.01 126.935 202.715 122.16 207.888 122.501C211.583 122.899 212.833 126.196 213.061 128.185C213.232 123.865 211.071 121.023 207.547 121.023C204.023 121.023 202.033 123.638 201.01 126.935Z" fill="#080000"/>
<path d="M211.394 122.905C211.394 122.905 214.836 125.956 217.808 121.341C216.713 125.252 212.333 126.112 211.394 122.905Z" fill="#080000"/>
<path d="M212.02 124.47C212.02 124.47 214.054 126.738 217.261 124.392C215.931 126.816 212.176 126.894 212.02 124.47Z" fill="#080000"/>
<path d="M210.224 122.055C210.224 122.055 212.508 123.175 214.188 121.409C213.628 123.305 210.956 123.822 210.224 122.055Z" fill="#080000"/>
<path d="M202.428 137.064C202.079 135.925 201.193 135.137 200.124 134.783C200.123 134.778 200.128 134.771 200.125 134.767C198.386 132.009 197.608 128.723 198.527 125.535C198.582 125.346 198.302 125.552 198.271 125.65C197.337 128.605 197.674 132.091 199.521 134.631C199.313 134.596 199.102 134.573 198.889 134.57C197.995 134.555 197.137 134.773 196.332 135.154C196.258 135.189 196.101 135.445 196.264 135.384C197.822 134.804 199.847 134.768 201.114 135.993C202.522 137.355 202.383 139.66 200.836 140.847C200.704 140.949 200.618 141.308 200.878 141.142C202.228 140.283 202.902 138.608 202.428 137.064Z" fill="black"/>
<path d="M200.672 139.115C200.565 139.147 200.487 139.221 200.41 139.297C200.417 139.29 200.417 139.29 200.427 139.28C200.415 139.291 200.403 139.302 200.39 139.314C200.341 139.359 200.292 139.403 200.243 139.447C200.148 139.533 200.053 139.619 199.957 139.704C199.76 139.88 199.57 140.061 199.376 140.24C199.344 140.27 199.297 140.323 199.299 140.371C199.3 140.411 199.334 140.42 199.367 140.403C199.581 140.295 199.794 140.188 200.005 140.074C200.111 140.016 200.218 139.959 200.324 139.902C200.377 139.873 200.431 139.845 200.484 139.817C200.486 139.816 200.488 139.815 200.491 139.814C200.494 139.813 200.492 139.814 200.499 139.811C200.606 139.771 200.7 139.692 200.77 139.604C200.854 139.498 200.948 139.358 200.92 139.215C200.896 139.086 200.775 139.084 200.672 139.115Z" fill="black"/>
<path d="M195.366 140.275C195.366 140.275 193.373 139.257 193.136 139.485C192.63 139.97 194.297 140.414 195.366 140.275Z" fill="black"/>
<path d="M205.079 107.578C205.079 107.578 203.716 109.23 204.294 111.792C204.624 113.073 207.475 111.875 210.532 112.825C213.589 113.775 215.944 115.717 217.018 117.411C214.457 111.874 211.854 109.396 205.079 107.578Z" fill="white"/>
<path d="M217.018 117.646C216.94 117.646 216.864 117.607 216.82 117.537C215.905 116.094 213.691 114.054 210.462 113.049C209.063 112.614 207.701 112.639 206.605 112.664C205.308 112.686 204.288 112.71 204.066 111.851C203.468 109.201 204.839 107.5 204.897 107.429C204.957 107.358 205.051 107.327 205.14 107.352C211.688 109.108 214.512 111.435 217.232 117.312C217.284 117.425 217.24 117.558 217.132 117.618C217.095 117.636 217.057 117.646 217.018 117.646ZM207.401 112.182C208.363 112.182 209.462 112.245 210.602 112.6C212.888 113.31 214.688 114.529 215.905 115.711C213.515 111.323 210.738 109.362 205.174 107.847C204.895 108.26 204.065 109.708 204.523 111.74C204.644 112.209 205.356 112.215 206.594 112.193C206.85 112.188 207.12 112.182 207.401 112.182Z" fill="black"/>
<path d="M131.959 134.912C131.959 134.912 135.349 143.88 144.201 141.939C157.299 139.066 159.699 125.287 158.887 119.278C152.753 118.577 147.33 118.994 147.33 118.994C147.33 118.994 144.951 143.195 131.959 134.912Z" fill="white"/>
<path d="M141.778 142.447C134.645 142.447 131.77 135.078 131.739 134.996C131.703 134.901 131.732 134.794 131.811 134.73C131.888 134.666 131.998 134.659 132.086 134.714C134.872 136.491 137.366 136.866 139.506 135.828C145.666 132.832 147.082 119.109 147.096 118.971C147.107 118.857 147.199 118.768 147.312 118.76C147.366 118.755 152.827 118.347 158.914 119.045C159.021 119.057 159.106 119.141 159.121 119.247C159.962 125.478 157.434 139.279 144.252 142.169C143.376 142.361 142.552 142.447 141.778 142.447ZM132.472 135.498C133.45 137.528 136.919 143.296 144.15 141.709C156.886 138.916 159.426 125.664 158.677 119.491C153.354 118.9 148.555 119.153 147.542 119.215C147.344 121.003 145.765 133.305 139.71 136.25C137.588 137.284 135.157 137.031 132.472 135.498Z" fill="black"/>
<path d="M203.336 90.8336C203.336 90.8336 208.342 98.4996 208.186 103.506C212.41 103.819 213.818 103.819 213.818 103.819C213.818 103.819 214.6 103.037 215.069 100.221C215.382 103.35 214.287 105.853 214.287 105.853C214.287 105.853 220.075 107.105 221.483 106.792C222.891 105.54 224.768 98.4996 224.612 92.7116C225.238 102.724 223.986 107.731 223.986 107.731C223.986 107.731 230.001 99.1926 227.115 90.0526C223.673 79.1536 203.961 68.3066 188.004 73.3136C187.535 70.4976 190.664 69.5586 190.664 69.5586C190.664 69.5586 186.127 67.6816 185.345 73.0006C182.685 68.9326 177.262 71.3836 177.262 71.3836C177.262 71.3836 182.216 70.6536 183.155 73.9386C174.863 73.7826 144.2 80.6136 145.452 116.492C144.409 121.707 140.029 124.419 135.022 126.922C143.574 127.548 149.415 122.959 151.292 118.995C149.832 125.67 147.537 126.922 147.537 126.922C147.537 126.922 166.519 124.21 169.439 107.731C170.273 112.529 170.273 112.529 170.273 112.529C170.273 112.529 170.273 103.977 177.157 98.9706C173.194 107.523 174.028 110.861 174.028 110.861C174.028 110.861 180.911 109.61 184.04 108.358C184.874 102.517 186.543 99.3886 186.543 99.3886C186.543 99.3886 185.183 104.984 185.718 107.998C188.489 107.415 192.135 106.929 192.135 106.929C192.135 106.929 201.022 100.75 203.336 90.8336Z" fill="white"/>
<path d="M136.591 127.214C136.073 127.214 135.544 127.195 135.005 127.155C134.899 127.148 134.812 127.07 134.792 126.967C134.771 126.863 134.822 126.758 134.918 126.711C139.556 124.392 144.174 121.689 145.222 116.446C144.767 103.606 148.354 93.1908 155.877 85.5468C165.429 75.8408 178.237 73.7248 182.825 73.7008C181.737 70.9978 177.344 71.6088 177.296 71.6148C177.18 71.6338 177.07 71.5608 177.036 71.4488C177.004 71.3358 177.058 71.2158 177.166 71.1688C177.22 71.1448 182.379 68.8698 185.211 72.4138C185.518 70.9838 186.153 69.9878 187.102 69.4508C188.733 68.5248 190.672 69.3068 190.753 69.3408C190.845 69.3798 190.903 69.4708 190.898 69.5708C190.892 69.6698 190.825 69.7558 190.731 69.7838C190.615 69.8188 188.003 70.6388 188.202 73.0058C203.833 68.2878 223.766 78.6708 227.338 89.9818C230.227 99.1278 224.238 107.78 224.177 107.866C224.112 107.959 223.989 107.99 223.888 107.945C223.784 107.897 223.73 107.784 223.757 107.674C223.767 107.633 224.574 104.302 224.548 97.7838C223.983 102.05 222.734 105.994 221.638 106.968C221.609 106.995 221.572 107.013 221.533 107.022C220.091 107.346 214.474 106.136 214.235 106.084C214.166 106.069 214.107 106.024 214.075 105.962C214.043 105.899 214.041 105.825 214.068 105.761C214.076 105.742 214.716 104.25 214.858 102.167C214.44 103.512 214.005 103.962 213.981 103.986C213.937 104.03 213.877 104.055 213.815 104.055C213.757 104.055 212.35 104.051 208.166 103.742C208.04 103.733 207.945 103.626 207.948 103.5C208.079 99.3248 204.491 93.1588 203.428 91.4288C200.93 101.006 192.355 107.059 192.267 107.119C192.237 107.14 192.201 107.154 192.164 107.159C192.127 107.164 188.495 107.651 185.764 108.226C185.699 108.236 185.636 108.226 185.584 108.19C185.531 108.154 185.495 108.099 185.484 108.037C185.172 106.28 185.482 103.708 185.809 101.814C185.293 103.318 184.68 105.532 184.271 108.39C184.259 108.474 184.204 108.544 184.126 108.576C181.01 109.822 174.35 111.04 174.068 111.092C173.939 111.114 173.828 111.038 173.798 110.917C173.764 110.782 173.041 107.631 176.547 99.7388C170.584 104.67 170.506 112.448 170.506 112.528C170.506 112.65 170.412 112.752 170.291 112.762C170.162 112.784 170.059 112.689 170.039 112.568L169.417 108.992C165.807 124.371 147.757 127.126 147.571 127.153C147.456 127.17 147.35 127.103 147.315 126.995C147.279 126.887 147.326 126.769 147.425 126.714C147.444 126.704 149.279 125.613 150.671 120.538C148.268 124.05 143.274 127.214 136.591 127.214ZM135.916 126.732C143.666 126.975 149.174 122.916 151.08 118.892C151.13 118.785 151.25 118.728 151.368 118.771C151.481 118.81 151.547 118.927 151.521 119.044C150.53 123.575 149.154 125.65 148.336 126.534C149.916 126.211 153.523 125.313 157.295 123.29C161.906 120.817 167.717 116.102 169.208 107.688C169.228 107.576 169.326 107.494 169.439 107.494C169.554 107.494 169.651 107.577 169.671 107.689L170.201 110.737C170.608 107.921 172.033 102.403 177.018 98.7778C177.104 98.7148 177.222 98.7198 177.306 98.7858C177.389 98.8538 177.414 98.9698 177.369 99.0668C174.053 106.223 174.13 109.715 174.223 110.582C175.443 110.352 181.035 109.267 183.827 108.186C184.663 102.459 186.267 99.4028 186.335 99.2748C186.391 99.1688 186.513 99.1208 186.626 99.1658C186.737 99.2078 186.799 99.3258 186.771 99.4408C186.757 99.4948 185.498 104.733 185.91 107.714C188.431 107.197 191.579 106.763 192.044 106.7C192.73 106.206 200.923 100.128 203.104 90.7798C203.125 90.6878 203.2 90.6178 203.292 90.6018C203.373 90.5808 203.479 90.6258 203.529 90.7048C203.732 91.0158 208.432 98.2698 208.422 103.288C211.795 103.535 213.308 103.576 213.704 103.583C213.885 103.34 214.46 102.422 214.833 100.182C214.852 100.068 214.951 99.9848 215.065 99.9848C215.068 99.9848 215.071 99.9848 215.072 99.9848C215.191 99.9888 215.287 100.08 215.299 100.196C215.559 102.796 214.877 104.947 214.604 105.681C216.625 106.106 220.26 106.771 221.368 106.573C222.657 105.31 224.531 98.5728 224.373 92.7178C224.369 92.5888 224.47 92.4818 224.598 92.4758C224.719 92.4768 224.835 92.5688 224.842 92.6968C225.287 99.8118 224.777 104.451 224.447 106.528C225.907 103.974 229.119 97.1898 226.887 90.1218C223.354 78.9368 203.511 68.6918 188.071 73.5358C188.008 73.5568 187.937 73.5478 187.877 73.5118C187.819 73.4758 187.78 73.4168 187.768 73.3498C187.409 71.1928 189.025 70.0608 189.962 69.5948C189.31 69.4448 188.245 69.3358 187.327 69.8608C186.395 70.3908 185.805 71.4588 185.573 73.0338C185.559 73.1298 185.487 73.2088 185.391 73.2298C185.298 73.2518 185.197 73.2108 185.144 73.1288C183.478 70.5828 180.701 70.6928 178.949 71.0868C180.544 71.1708 182.755 71.6958 183.377 73.8738C183.397 73.9458 183.383 74.0228 183.338 74.0818C183.291 74.1408 183.204 74.1688 183.147 74.1738C178.915 74.0748 165.887 76.0428 156.209 85.8768C148.784 93.4258 145.242 103.723 145.687 116.482C144.654 121.683 140.383 124.444 135.916 126.732Z" fill="black"/>
<path d="M206.864 116.453C204.99 116.307 202.965 116.251 201.352 117.379C199.977 118.341 199.472 119.887 199.172 121.466C199.159 121.535 199.293 121.427 199.304 121.389C199.704 119.861 200.261 118.276 201.76 117.515C203.235 116.766 204.968 116.854 206.574 116.895C206.746 116.9 207.052 116.468 206.864 116.453Z" fill="black"/>
<path d="M182.968 126.957C182.968 129.98 180.79 132.43 178.104 132.43C175.418 132.43 173.24 129.98 173.24 126.957C173.24 123.935 175.418 121.484 178.104 121.484C180.79 121.484 182.968 123.934 182.968 126.957Z" fill="black"/>
<path d="M182.632 126.946C182.632 129.76 180.605 132.041 178.104 132.041C175.603 132.041 173.576 129.76 173.576 126.946C173.576 124.132 175.603 121.851 178.104 121.851C180.605 121.851 182.632 124.132 182.632 126.946Z" fill="white"/>
<path d="M181.346 126.957C181.346 128.972 179.894 130.605 178.103 130.605C176.312 130.605 174.86 128.972 174.86 126.957C174.86 124.942 176.312 123.309 178.103 123.309C179.894 123.309 181.346 124.942 181.346 126.957Z" fill="black"/>
<path d="M177.44 124.037C177.385 123.698 177.152 123.461 176.854 123.403C176.132 123.262 175.422 124.011 175.103 124.67C174.912 125.065 174.79 125.783 175.182 126.079C175.526 126.339 176.047 126.136 176.374 125.934C176.96 125.574 177.573 124.855 177.44 124.037Z" fill="white"/>
<path d="M175.438 126.848C175.384 126.75 175.294 126.696 175.198 126.68C175.048 126.601 174.855 126.702 174.735 126.816C174.652 126.896 174.577 127.005 174.549 127.126C174.524 127.232 174.534 127.336 174.576 127.434C174.643 127.591 174.804 127.667 174.951 127.673C175.132 127.681 175.308 127.588 175.417 127.425C175.524 127.263 175.531 127.019 175.438 126.848Z" fill="white"/>
<path d="M185.711 145.801C185.714 145.652 185.889 145.746 185.907 145.846C185.948 146.076 186.534 146.046 186.69 146.045C186.996 146.042 187.299 146.007 187.603 145.98C188.11 145.935 188.619 145.919 189.126 145.873C189.716 145.819 190.305 145.753 190.893 145.684C192.07 145.545 193.245 145.39 194.426 145.295C195.635 145.197 196.84 145.183 198.05 145.249C198.767 145.288 199.482 145.343 200.199 145.378C200.793 145.407 201.349 145.359 201.911 145.153C201.92 145.15 201.931 145.155 201.94 145.162C201.981 145.146 202.04 145.212 202.021 145.257C201.781 145.837 201.486 146.401 201.203 146.962C200.908 147.547 200.598 148.126 200.244 148.679C199.568 149.736 198.714 150.713 197.577 151.285C196.222 151.966 194.633 151.973 193.161 151.786C191.636 151.593 190.083 151.218 188.868 150.223C188.18 149.66 187.657 148.911 187.215 148.147C186.981 147.743 186.785 147.318 186.537 146.923C186.408 146.717 186.267 146.53 186.089 146.364C185.956 146.24 185.822 146.12 185.725 145.965C185.69 145.925 185.681 145.865 185.703 145.83C185.707 145.821 185.709 145.811 185.711 145.801Z" fill="black"/>
<path d="M186.657 146.35C186.779 146.465 186.88 146.591 186.975 146.728C187.189 147.036 187.353 147.372 187.53 147.7C187.894 148.376 188.313 149.045 188.85 149.599C189.869 150.651 191.293 151.093 192.7 151.316C194.102 151.538 195.628 151.609 196.964 151.046C198.056 150.585 198.895 149.715 199.549 148.748C199.917 148.204 200.236 147.627 200.535 147.042C200.816 146.492 201.061 145.914 201.376 145.382C200.988 145.601 200.591 145.69 200.139 145.683C199.518 145.672 198.897 145.619 198.277 145.582C197.054 145.51 195.839 145.496 194.617 145.589C193.442 145.679 192.273 145.835 191.103 145.975C190.507 146.047 189.91 146.114 189.313 146.167C188.852 146.208 188.388 146.22 187.927 146.266C187.564 146.302 187.199 146.341 186.834 146.309C186.747 146.301 186.653 146.287 186.562 146.263C186.595 146.293 186.627 146.321 186.657 146.35Z" fill="white"/>
<path d="M187.927 146.267C188.387 146.221 188.851 146.209 189.313 146.168C189.911 146.115 190.507 146.047 191.102 145.976C192.272 145.835 193.441 145.68 194.616 145.59C195.839 145.497 197.053 145.51 198.276 145.583C198.896 145.62 199.517 145.673 200.138 145.684C200.228 145.686 200.314 145.682 200.4 145.676C200.2 146.048 200.002 146.425 199.732 146.751C199.497 147.034 199.202 147.26 198.877 147.429C198.318 147.528 197.78 147.73 197.214 147.794C196.901 147.83 196.582 147.819 196.267 147.814C195.94 147.809 195.614 147.805 195.287 147.803C194.626 147.799 193.965 147.782 193.306 147.738C192.649 147.693 192 147.601 191.347 147.518C190.996 147.473 190.643 147.429 190.294 147.368C189.716 147.215 189.153 147.012 188.626 146.725C188.378 146.59 188.143 146.436 187.919 146.269C187.922 146.268 187.924 146.268 187.927 146.267Z" fill="white"/>
<path d="M189.362 149.289C189.869 149.156 190.381 149.114 190.903 149.117C191.417 149.12 191.94 149.159 192.427 149.338C192.74 149.452 193.016 149.649 193.362 149.606C193.571 149.58 193.776 149.532 193.984 149.501C194.19 149.499 194.397 149.506 194.603 149.526C195.236 149.586 195.859 149.77 196.465 149.955C196.823 150.064 197.232 150.206 197.526 150.462C197.582 150.526 197.634 150.594 197.677 150.667C197.452 150.812 197.215 150.942 196.964 151.048C195.629 151.611 194.103 151.54 192.7 151.318C191.293 151.095 189.868 150.653 188.85 149.601C188.815 149.565 188.783 149.528 188.749 149.491C188.95 149.413 189.153 149.344 189.362 149.289Z" fill="white"/>
<path d="M190.879 153.312C191.804 153.644 192.757 153.904 193.743 153.95C194.713 153.995 195.754 153.851 196.575 153.298C197.039 152.986 197.452 152.558 197.698 152.052C197.716 152.015 197.774 152.066 197.759 152.099C197.55 152.577 197.282 153.017 196.868 153.345C196.482 153.651 196.023 153.865 195.549 153.991C194.541 154.258 193.457 154.195 192.446 153.975C191.896 153.856 191.359 153.688 190.857 153.431C190.791 153.397 190.785 153.278 190.879 153.312Z" fill="black"/>
<path d="M188.553 146.783C188.443 146.691 188.337 146.595 188.234 146.496C188.328 146.541 188.423 146.584 188.52 146.622C188.654 146.705 188.792 146.782 188.936 146.848C189.378 147.051 189.879 147.132 190.354 147.226C191.308 147.415 192.275 147.538 193.245 147.608C194.204 147.677 195.165 147.695 196.126 147.681C196.929 147.67 197.781 147.705 198.556 147.458C198.982 147.322 199.388 147.09 199.68 146.746C199.797 146.608 199.887 146.457 199.968 146.3C200.088 146.156 200.196 146.002 200.291 145.841C200.196 146.141 200.069 146.439 199.896 146.693C199.67 147.025 199.355 147.272 198.994 147.443C198.26 147.793 197.422 147.79 196.627 147.808C194.619 147.853 192.606 147.777 190.628 147.412C190.094 147.313 189.526 147.229 189.022 147.021C188.859 146.954 188.704 146.872 188.553 146.783Z" fill="black"/>
<path d="M188.665 149.46C188.948 149.204 189.437 149.146 189.799 149.091C190.31 149.014 190.813 149.019 191.325 149.083C191.927 149.158 192.526 149.303 193.077 149.558C193.512 149.425 194.023 149.442 194.472 149.463C194.947 149.485 195.42 149.554 195.878 149.683C196.302 149.802 196.744 149.94 197.128 150.159C197.311 150.263 197.618 150.442 197.673 150.662C197.68 150.689 197.672 150.711 197.643 150.717C197.633 150.719 197.633 150.721 197.619 150.72C197.609 150.72 197.598 150.71 197.598 150.7C197.596 150.697 197.596 150.697 197.593 150.692C197.583 150.677 197.574 150.661 197.562 150.648C197.517 150.599 197.465 150.558 197.412 150.517C197.305 150.433 197.196 150.361 197.075 150.297C196.686 150.091 196.258 149.952 195.833 149.839C195.398 149.723 194.948 149.66 194.498 149.639C194.098 149.621 193.703 149.665 193.306 149.674C193.42 149.735 193.533 149.8 193.641 149.872C193.884 150.033 194.196 150.278 194.197 150.601C194.197 150.664 194.119 150.625 194.113 150.582C194.063 150.228 193.589 149.988 193.308 149.841C192.917 149.637 192.502 149.487 192.072 149.387C191.483 149.251 190.866 149.174 190.262 149.223C189.983 149.246 189.709 149.297 189.433 149.342C189.204 149.38 188.946 149.415 188.761 149.57C188.707 149.615 188.612 149.508 188.665 149.46Z" fill="black"/>
<path d="M212.699 188.815C212.485 188.272 212.274 187.732 212.065 187.193C212.411 188.154 212.619 188.768 212.619 188.768L212.699 188.815Z" fill="#FDD4B5"/>
</svg>
