<svg width="340" height="460" viewBox="0 0 340 460" fill="none" xmlns="http://www.w3.org/2000/svg">
<path d="M212.551 91.8157C212.551 91.8157 221.356 109.701 215.165 124.698C212.001 130.889 213.018 133.212 213.927 136.392C215.578 142.17 214.374 153.104 195.216 156.203C185.861 157.716 164.148 153.085 161.234 140.244C157.654 124.469 155.308 101.315 175.489 90.2077C188.787 83.1677 207.404 82.9077 212.551 91.8157Z" fill="white"/>
<path d="M192.907 107C192.907 107 193.95 112.215 189.465 111.589C184.98 110.963 178.931 111.902 172.569 114.718C177.158 109.399 190.195 106.687 192.907 107Z" fill="white"/>
<path d="M172.569 114.953C172.496 114.953 172.426 114.919 172.38 114.857C172.315 114.769 172.319 114.647 172.391 114.564C176.969 109.259 189.993 106.429 192.934 106.766C193.036 106.777 193.118 106.853 193.138 106.953C193.16 107.062 193.66 109.653 192.351 111.042C191.695 111.737 190.708 111.997 189.434 111.821C184.73 111.164 178.616 112.299 172.666 114.932C172.633 114.947 172.601 114.953 172.569 114.953ZM192.331 107.207C188.856 107.207 178.308 109.646 173.553 114.043C179.238 111.705 184.999 110.731 189.498 111.355C190.617 111.509 191.463 111.298 192.008 110.72C192.974 109.697 192.788 107.797 192.705 107.217C192.591 107.21 192.466 107.207 192.331 107.207Z" fill="black"/>
<path d="M186.223 125.989C185.953 119.817 180.796 116.543 175.24 119.406C173.687 120.227 172.302 121.383 171.135 122.733C172.151 121.259 173.499 120.004 175.067 119.088C180.671 115.878 186.591 119.54 186.223 125.989Z" fill="black"/>
<path d="M172.243 132.41C172.243 132.41 175.814 135.078 182.466 133.933C189.727 132.683 186.974 120.002 178.388 119.879C173.274 119.805 169.612 123.941 169.661 128.034C169.711 130.175 171.255 131.696 172.243 132.41Z" fill="#080000"/>
<path d="M172.133 122.802C172.133 122.802 169.442 125.877 166.304 122.143C167.708 125.468 171.666 125.734 172.133 122.802Z" fill="#080000"/>
<path d="M171.561 125.355C171.561 125.355 169.527 127.624 166.32 125.277C167.65 127.702 171.404 127.78 171.561 125.355Z" fill="#080000"/>
<path d="M174.682 121.118C174.682 121.118 172.175 121.547 171.062 119.377C171.064 121.354 173.48 122.605 174.682 121.118Z" fill="#080000"/>
<path d="M172.242 133.27C172.242 133.27 175.813 135.938 182.465 134.793C189.726 133.543 186.351 121.419 178.366 121.419C174.069 121.419 169.872 124.893 169.921 128.987C169.97 131.128 171.254 132.556 172.242 133.27Z" fill="white"/>
<path d="M179.203 135.317C174.674 135.317 172.246 133.567 172.103 133.46C171.395 132.947 169.743 131.488 169.686 128.992C169.664 127.188 170.442 125.397 171.877 123.944C173.584 122.217 176.01 121.185 178.366 121.185C183.073 121.185 186.344 125.361 186.673 129.23C186.937 132.317 185.34 134.537 182.504 135.025C181.304 135.231 180.202 135.317 179.203 135.317ZM178.366 121.655C176.133 121.655 173.832 122.634 172.213 124.275C170.867 125.638 170.136 127.31 170.157 128.984C170.21 131.268 171.73 132.609 172.381 133.08L172.384 133.082C172.419 133.108 175.964 135.672 182.427 134.562C185.038 134.113 186.451 132.134 186.206 129.27C185.892 125.607 182.806 121.655 178.366 121.655Z" fill="black"/>
<path d="M173.024 131.712C173.024 131.712 176.126 134.029 181.903 133.035C188.209 131.95 185.278 121.419 178.343 121.419C174.611 121.419 170.965 124.437 171.008 127.992C171.051 129.852 172.167 131.092 173.024 131.712Z" fill="white"/>
<path d="M201.66 125.245C201.695 118.022 210.78 116.158 213.276 122.897C212.665 121.632 211.714 120.528 210.511 119.879C206.15 117.758 202.248 120.7 201.66 125.245Z" fill="black"/>
<path d="M200.439 129.25C200.439 129.25 199.474 134.265 203.718 134.973C207.962 135.68 212.913 134.459 212.977 129.122C212.977 123.785 208.99 121.277 205.004 122.885C201.018 124.492 200.439 129.25 200.439 129.25Z" fill="white"/>
<path d="M205.909 135.396C205.194 135.396 204.447 135.333 203.681 135.206C202.487 135.007 201.574 134.462 200.965 133.586C199.749 131.839 200.173 129.402 200.208 129.214C200.245 128.922 200.893 124.289 204.917 122.667C206.871 121.878 208.89 122.032 210.46 123.092C212.236 124.29 213.214 126.432 213.214 129.121C213.19 131.103 212.518 132.66 211.215 133.749C209.926 134.828 208.058 135.396 205.909 135.396ZM207.382 122.641C206.633 122.641 205.858 122.794 205.092 123.102C201.285 124.637 200.678 129.232 200.672 129.278C200.671 129.284 200.67 129.289 200.669 129.294C200.664 129.318 200.226 131.704 201.351 133.318C201.885 134.084 202.694 134.563 203.757 134.74C206.648 135.223 209.322 134.719 210.912 133.388C212.105 132.39 212.72 130.954 212.742 129.118C212.742 126.592 211.838 124.59 210.195 123.481C209.369 122.924 208.4 122.641 207.382 122.641Z" fill="black"/>
<path d="M201.247 128.239C201.247 128.239 200.432 132.478 204.019 133.076C207.606 133.674 211.79 132.641 211.845 128.13C211.845 123.619 208.476 121.5 205.106 122.859C201.736 124.217 201.247 128.239 201.247 128.239Z" fill="white"/>
<path d="M210.718 127.695C210.718 130.463 208.758 132.706 206.341 132.706C203.923 132.706 201.964 130.463 201.964 127.695C201.964 124.928 203.924 122.684 206.341 122.684C208.758 122.684 210.718 124.928 210.718 127.695Z" fill="black"/>
<path d="M210.416 127.685C210.416 130.261 208.592 132.35 206.341 132.35C204.09 132.35 202.266 130.261 202.266 127.685C202.266 125.109 204.09 123.02 206.341 123.02C208.592 123.021 210.416 125.109 210.416 127.685Z" fill="white"/>
<path d="M209.259 127.695C209.259 129.54 207.953 131.036 206.341 131.036C204.729 131.036 203.423 129.54 203.423 127.695C203.423 125.85 204.729 124.355 206.341 124.355C207.952 124.355 209.259 125.85 209.259 127.695Z" fill="black"/>
<path d="M205.744 125.021C205.694 124.711 205.485 124.494 205.217 124.44C204.567 124.311 203.929 124.996 203.641 125.6C203.469 125.962 203.359 126.619 203.712 126.89C204.022 127.128 204.491 126.942 204.784 126.758C205.312 126.429 205.863 125.77 205.744 125.021Z" fill="white"/>
<path d="M203.942 127.595C203.893 127.505 203.813 127.456 203.726 127.441C203.591 127.369 203.417 127.461 203.31 127.566C203.235 127.639 203.168 127.739 203.142 127.85C203.12 127.947 203.129 128.042 203.166 128.132C203.226 128.276 203.371 128.345 203.504 128.351C203.667 128.358 203.826 128.273 203.923 128.124C204.02 127.976 204.026 127.751 203.942 127.595Z" fill="white"/>
<path d="M201.01 126.935C201.01 126.935 202.715 122.16 207.888 122.501C211.583 122.899 212.833 126.196 213.061 128.185C213.232 123.865 211.071 121.023 207.547 121.023C204.023 121.023 202.033 123.638 201.01 126.935Z" fill="#080000"/>
<path d="M211.394 122.905C211.394 122.905 214.836 125.956 217.808 121.341C216.713 125.252 212.333 126.112 211.394 122.905Z" fill="#080000"/>
<path d="M212.02 124.47C212.02 124.47 214.054 126.738 217.261 124.392C215.931 126.816 212.176 126.894 212.02 124.47Z" fill="#080000"/>
<path d="M210.224 122.055C210.224 122.055 212.508 123.175 214.188 121.409C213.628 123.305 210.956 123.822 210.224 122.055Z" fill="#080000"/>
<path d="M202.428 137.064C202.079 135.925 201.193 135.137 200.124 134.783C200.123 134.778 200.128 134.771 200.125 134.767C198.386 132.009 197.608 128.723 198.527 125.535C198.582 125.346 198.302 125.552 198.271 125.65C197.337 128.605 197.674 132.091 199.521 134.631C199.313 134.596 199.102 134.573 198.889 134.57C197.995 134.555 197.137 134.773 196.332 135.154C196.258 135.189 196.101 135.445 196.264 135.384C197.822 134.804 199.847 134.768 201.114 135.993C202.522 137.355 202.383 139.66 200.836 140.847C200.704 140.949 200.618 141.308 200.878 141.142C202.228 140.283 202.902 138.608 202.428 137.064Z" fill="black"/>
<path d="M200.672 139.115C200.565 139.147 200.487 139.221 200.41 139.297C200.417 139.29 200.417 139.29 200.427 139.28C200.415 139.291 200.403 139.302 200.39 139.314C200.341 139.359 200.292 139.403 200.243 139.447C200.148 139.533 200.053 139.619 199.957 139.704C199.76 139.88 199.57 140.061 199.376 140.24C199.344 140.27 199.297 140.323 199.299 140.371C199.3 140.411 199.334 140.42 199.367 140.403C199.581 140.295 199.794 140.188 200.005 140.074C200.111 140.016 200.218 139.959 200.324 139.902C200.377 139.873 200.431 139.845 200.484 139.817C200.486 139.816 200.488 139.815 200.491 139.814C200.494 139.813 200.492 139.814 200.499 139.811C200.606 139.771 200.7 139.692 200.77 139.604C200.854 139.498 200.948 139.358 200.92 139.215C200.896 139.086 200.775 139.084 200.672 139.115Z" fill="black"/>
<path d="M195.366 140.275C195.366 140.275 193.373 139.257 193.136 139.485C192.63 139.97 194.297 140.414 195.366 140.275Z" fill="black"/>
<path d="M205.079 107.578C205.079 107.578 203.716 109.23 204.294 111.792C204.624 113.073 207.475 111.875 210.532 112.825C213.589 113.775 215.944 115.717 217.018 117.411C214.457 111.874 211.854 109.396 205.079 107.578Z" fill="white"/>
<path d="M217.018 117.646C216.94 117.646 216.864 117.607 216.82 117.537C215.905 116.094 213.691 114.054 210.462 113.049C209.063 112.614 207.701 112.639 206.605 112.664C205.308 112.686 204.288 112.71 204.066 111.851C203.468 109.201 204.839 107.5 204.897 107.429C204.957 107.358 205.051 107.327 205.14 107.352C211.688 109.108 214.512 111.435 217.232 117.312C217.284 117.425 217.24 117.558 217.132 117.618C217.095 117.636 217.057 117.646 217.018 117.646ZM207.401 112.182C208.363 112.182 209.462 112.245 210.602 112.6C212.888 113.31 214.688 114.529 215.905 115.711C213.515 111.323 210.738 109.362 205.174 107.847C204.895 108.26 204.065 109.708 204.523 111.74C204.644 112.209 205.356 112.215 206.594 112.193C206.85 112.188 207.12 112.182 207.401 112.182Z" fill="black"/>
<path d="M206.864 116.453C204.99 116.307 202.965 116.251 201.352 117.379C199.977 118.341 199.472 119.887 199.172 121.466C199.159 121.535 199.293 121.427 199.304 121.389C199.704 119.861 200.261 118.276 201.76 117.515C203.235 116.766 204.968 116.854 206.574 116.895C206.746 116.9 207.052 116.468 206.864 116.453Z" fill="black"/>
<path d="M182.968 126.957C182.968 129.98 180.79 132.43 178.104 132.43C175.418 132.43 173.24 129.98 173.24 126.957C173.24 123.935 175.418 121.484 178.104 121.484C180.79 121.484 182.968 123.934 182.968 126.957Z" fill="black"/>
<path d="M182.632 126.946C182.632 129.76 180.605 132.041 178.104 132.041C175.603 132.041 173.576 129.76 173.576 126.946C173.576 124.132 175.603 121.851 178.104 121.851C180.605 121.851 182.632 124.132 182.632 126.946Z" fill="white"/>
<path d="M181.346 126.957C181.346 128.972 179.894 130.605 178.103 130.605C176.312 130.605 174.86 128.972 174.86 126.957C174.86 124.942 176.312 123.309 178.103 123.309C179.894 123.309 181.346 124.942 181.346 126.957Z" fill="black"/>
<path d="M177.44 124.037C177.385 123.698 177.152 123.461 176.854 123.403C176.132 123.262 175.422 124.011 175.103 124.67C174.912 125.065 174.79 125.783 175.182 126.079C175.526 126.339 176.047 126.136 176.374 125.934C176.96 125.574 177.573 124.855 177.44 124.037Z" fill="white"/>
<path d="M175.438 126.848C175.384 126.75 175.294 126.696 175.198 126.68C175.048 126.601 174.855 126.702 174.735 126.816C174.652 126.896 174.577 127.005 174.549 127.126C174.524 127.232 174.534 127.336 174.576 127.434C174.643 127.591 174.804 127.667 174.951 127.673C175.132 127.681 175.308 127.588 175.417 127.425C175.524 127.263 175.531 127.019 175.438 126.848Z" fill="white"/>
<path d="M185.711 145.801C185.714 145.652 185.889 145.746 185.907 145.846C185.948 146.076 186.534 146.046 186.69 146.045C186.996 146.042 187.299 146.007 187.603 145.98C188.11 145.935 188.619 145.919 189.126 145.873C189.716 145.819 190.305 145.753 190.893 145.684C192.07 145.545 193.245 145.39 194.426 145.295C195.635 145.197 196.84 145.183 198.05 145.249C198.767 145.288 199.482 145.343 200.199 145.378C200.793 145.407 201.349 145.359 201.911 145.153C201.92 145.15 201.931 145.155 201.94 145.162C201.981 145.146 202.04 145.212 202.021 145.257C201.781 145.837 201.486 146.401 201.203 146.962C200.908 147.547 200.598 148.126 200.244 148.679C199.568 149.736 198.714 150.713 197.577 151.285C196.222 151.966 194.633 151.973 193.161 151.786C191.636 151.593 190.083 151.218 188.868 150.223C188.18 149.66 187.657 148.911 187.215 148.147C186.981 147.743 186.785 147.318 186.537 146.923C186.408 146.717 186.267 146.53 186.089 146.364C185.956 146.24 185.822 146.12 185.725 145.965C185.69 145.925 185.681 145.865 185.703 145.83C185.707 145.821 185.709 145.811 185.711 145.801Z" fill="black"/>
<path d="M186.657 146.35C186.779 146.465 186.88 146.591 186.975 146.728C187.189 147.036 187.353 147.372 187.53 147.7C187.894 148.376 188.313 149.045 188.85 149.599C189.869 150.651 191.293 151.093 192.7 151.316C194.102 151.538 195.628 151.609 196.964 151.046C198.056 150.585 198.895 149.715 199.549 148.748C199.917 148.204 200.236 147.627 200.535 147.042C200.816 146.492 201.061 145.914 201.376 145.382C200.988 145.601 200.591 145.69 200.139 145.683C199.518 145.672 198.897 145.619 198.277 145.582C197.054 145.51 195.839 145.496 194.617 145.589C193.442 145.679 192.273 145.835 191.103 145.975C190.507 146.047 189.91 146.114 189.313 146.167C188.852 146.208 188.388 146.22 187.927 146.266C187.564 146.302 187.199 146.341 186.834 146.309C186.747 146.301 186.653 146.287 186.562 146.263C186.595 146.293 186.627 146.321 186.657 146.35Z" fill="white"/>
<path d="M187.927 146.267C188.387 146.221 188.851 146.209 189.313 146.168C189.911 146.115 190.507 146.047 191.102 145.976C192.272 145.835 193.441 145.68 194.616 145.59C195.839 145.497 197.053 145.51 198.276 145.583C198.896 145.62 199.517 145.673 200.138 145.684C200.228 145.686 200.314 145.682 200.4 145.676C200.2 146.048 200.002 146.425 199.732 146.751C199.497 147.034 199.202 147.26 198.877 147.429C198.318 147.528 197.78 147.73 197.214 147.794C196.901 147.83 196.582 147.819 196.267 147.814C195.94 147.809 195.614 147.805 195.287 147.803C194.626 147.799 193.965 147.782 193.306 147.738C192.649 147.693 192 147.601 191.347 147.518C190.996 147.473 190.643 147.429 190.294 147.368C189.716 147.215 189.153 147.012 188.626 146.725C188.378 146.59 188.143 146.436 187.919 146.269C187.922 146.268 187.924 146.268 187.927 146.267Z" fill="white"/>
<path d="M189.362 149.289C189.869 149.156 190.381 149.114 190.903 149.117C191.417 149.12 191.94 149.159 192.427 149.338C192.74 149.452 193.016 149.649 193.362 149.606C193.571 149.58 193.776 149.532 193.984 149.501C194.19 149.499 194.397 149.506 194.603 149.526C195.236 149.586 195.859 149.77 196.465 149.955C196.823 150.064 197.232 150.206 197.526 150.462C197.582 150.526 197.634 150.594 197.677 150.667C197.452 150.812 197.215 150.942 196.964 151.048C195.629 151.611 194.103 151.54 192.7 151.318C191.293 151.095 189.868 150.653 188.85 149.601C188.815 149.565 188.783 149.528 188.749 149.491C188.95 149.413 189.153 149.344 189.362 149.289Z" fill="white"/>
<path d="M190.879 153.312C191.804 153.644 192.757 153.904 193.743 153.95C194.713 153.995 195.754 153.851 196.575 153.298C197.039 152.986 197.452 152.558 197.698 152.052C197.716 152.015 197.774 152.066 197.759 152.099C197.55 152.577 197.282 153.017 196.868 153.345C196.482 153.651 196.023 153.865 195.549 153.991C194.541 154.258 193.457 154.195 192.446 153.975C191.896 153.856 191.359 153.688 190.857 153.431C190.791 153.397 190.785 153.278 190.879 153.312Z" fill="black"/>
<path d="M188.553 146.783C188.443 146.691 188.337 146.595 188.234 146.496C188.328 146.541 188.423 146.584 188.52 146.622C188.654 146.705 188.792 146.782 188.936 146.848C189.378 147.051 189.879 147.132 190.354 147.226C191.308 147.415 192.275 147.538 193.245 147.608C194.204 147.677 195.165 147.695 196.126 147.681C196.929 147.67 197.781 147.705 198.556 147.458C198.982 147.322 199.388 147.09 199.68 146.746C199.797 146.608 199.887 146.457 199.968 146.3C200.088 146.156 200.196 146.002 200.291 145.841C200.196 146.141 200.069 146.439 199.896 146.693C199.67 147.025 199.355 147.272 198.994 147.443C198.26 147.793 197.422 147.79 196.627 147.808C194.619 147.853 192.606 147.777 190.628 147.412C190.094 147.313 189.526 147.229 189.022 147.021C188.859 146.954 188.704 146.872 188.553 146.783Z" fill="black"/>
<path d="M188.665 149.46C188.948 149.204 189.437 149.146 189.799 149.091C190.31 149.014 190.813 149.019 191.325 149.083C191.927 149.158 192.526 149.303 193.077 149.558C193.512 149.425 194.023 149.442 194.472 149.463C194.947 149.485 195.42 149.554 195.878 149.683C196.302 149.802 196.744 149.94 197.128 150.159C197.311 150.263 197.618 150.442 197.673 150.662C197.68 150.689 197.672 150.711 197.643 150.717C197.633 150.719 197.633 150.721 197.619 150.72C197.609 150.72 197.598 150.71 197.598 150.7C197.596 150.697 197.596 150.697 197.593 150.692C197.583 150.677 197.574 150.661 197.562 150.648C197.517 150.599 197.465 150.558 197.412 150.517C197.305 150.433 197.196 150.361 197.075 150.297C196.686 150.091 196.258 149.952 195.833 149.839C195.398 149.723 194.948 149.66 194.498 149.639C194.098 149.621 193.703 149.665 193.306 149.674C193.42 149.735 193.533 149.8 193.641 149.872C193.884 150.033 194.196 150.278 194.197 150.601C194.197 150.664 194.119 150.625 194.113 150.582C194.063 150.228 193.589 149.988 193.308 149.841C192.917 149.637 192.502 149.487 192.072 149.387C191.483 149.251 190.866 149.174 190.262 149.223C189.983 149.246 189.709 149.297 189.433 149.342C189.204 149.38 188.946 149.415 188.761 149.57C188.707 149.615 188.612 149.508 188.665 149.46Z" fill="black"/>
</svg>
