<svg width="340" height="460" viewBox="0 0 340 460" fill="none" xmlns="http://www.w3.org/2000/svg">
<rect width="340" height="460" fill="white"/>
<path d="M196.206 169.513C196.206 169.513 191.386 164.473 190.18 154.504C189.413 147.712 190.947 142.124 196.972 140.59C202.998 139.056 208.804 144.315 210.995 151.107C213.187 157.9 214.064 167.979 196.206 169.513Z" fill="black"/>
<path d="M203.742 142.301C203.742 142.301 206.879 140.341 208 137.875C208.253 140.975 205.249 143.365 205.249 143.365L203.742 142.301Z" fill="black"/>
<path d="M206.516 144.866C206.516 144.866 209.478 143.849 210.872 142.029C210.489 144.634 207.555 146.031 207.555 146.031L206.516 144.866Z" fill="black"/>
<path d="M164.605 177.747C164.605 177.747 152.697 185.613 141.553 180.697C134.779 165.293 140.57 156.225 146.032 154.368C151.495 152.511 160.016 156.116 162.638 163.654C165.26 171.192 164.605 177.747 164.605 177.747Z" fill="black"/>
<path d="M139.543 163.732C139.543 163.732 135.922 164.486 133.407 163.48C135.369 165.894 139.191 165.542 139.191 165.542L139.543 163.732Z" fill="black"/>
<path d="M139.314 167.505C139.314 167.505 136.472 168.819 134.206 168.469C136.285 170.085 139.37 169.065 139.37 169.065L139.314 167.505Z" fill="black"/>
<path d="M136.741 148.373C136.741 148.373 143.318 139.646 148.44 139.583C153.562 139.52 154.448 137.623 153.246 135.978C152.045 134.334 148.819 132.373 143.065 137.306C137.31 142.239 136.741 148.373 136.741 148.373Z" fill="white"/>
<path d="M136.741 148.565C136.718 148.565 136.694 148.56 136.672 148.552C136.592 148.52 136.542 148.44 136.55 148.355C136.556 148.293 137.193 142.087 142.94 137.161C145.663 134.827 148.115 133.77 150.216 134.013C151.957 134.215 152.959 135.261 153.401 135.866C153.937 136.599 154.058 137.352 153.741 137.987C153.345 138.778 152.105 139.731 148.443 139.776C143.473 139.837 136.96 148.403 136.894 148.49C136.857 148.538 136.8 148.565 136.741 148.565ZM149.613 134.362C147.743 134.362 145.586 135.399 143.191 137.452C138.708 141.294 137.4 145.914 137.051 147.668C138.648 145.68 144.01 139.446 148.439 139.391C152.091 139.346 153.113 138.384 153.398 137.814C153.718 137.174 153.408 136.524 153.091 136.092C152.686 135.537 151.768 134.579 150.172 134.394C149.988 134.373 149.801 134.362 149.613 134.362Z" fill="black"/>
<path d="M193.414 127.581C193.414 127.581 197.333 126.372 200.719 127.242C204.105 128.113 204.154 126.274 199.945 124.146C195.736 122.017 191.334 121.05 190.173 123.565C189.011 126.082 190.511 128.307 193.414 127.581Z" fill="white"/>
<path d="M192.352 127.912C191.446 127.912 190.683 127.593 190.178 126.984C189.456 126.112 189.389 124.804 189.998 123.485C190.302 122.824 190.828 122.36 191.56 122.105C193.357 121.48 196.444 122.16 200.031 123.975C202.361 125.153 203.628 126.364 203.338 127.135C203.121 127.712 202.174 127.813 200.671 127.429C197.38 126.581 193.509 127.753 193.47 127.765C193.467 127.766 193.464 127.766 193.46 127.767C193.074 127.864 192.702 127.912 192.352 127.912ZM193.104 122.258C192.566 122.258 192.09 122.327 191.686 122.468C191.057 122.687 190.606 123.083 190.346 123.646C189.801 124.828 189.849 125.984 190.474 126.739C191.075 127.465 192.13 127.703 193.361 127.396C193.585 127.328 197.394 126.188 200.766 127.057C202.143 127.412 202.871 127.285 202.978 127C203.113 126.642 202.385 125.596 199.856 124.317C197.194 122.97 194.83 122.258 193.104 122.258Z" fill="black"/>
<path d="M163.908 177.991C163.908 177.991 152.637 185.436 142.09 180.783C135.679 166.203 141.159 157.621 146.329 155.863C151.499 154.105 159.564 157.517 162.046 164.652C164.529 171.787 163.908 177.991 163.908 177.991Z" fill="white"/>
<path d="M149.539 182.491C147.092 182.491 144.529 182.068 142.013 180.958C141.969 180.938 141.934 180.904 141.915 180.86C138.682 173.507 138.125 166.674 140.349 161.619C141.639 158.685 143.797 156.521 146.268 155.681C151.582 153.874 159.717 157.369 162.228 164.589C164.694 171.681 164.105 177.947 164.099 178.009C164.093 178.067 164.061 178.118 164.014 178.151C163.928 178.209 157.325 182.491 149.539 182.491ZM142.236 180.638C152.09 184.931 162.713 178.517 163.726 177.88C163.788 177.086 164.142 171.259 161.866 164.716C159.425 157.7 151.545 154.296 146.391 156.045C144.022 156.851 141.948 158.939 140.701 161.774C138.528 166.714 139.074 173.411 142.236 180.638Z" fill="black"/>
<path d="M196.48 169.514C196.48 169.514 191.93 164.757 190.793 155.348C190.069 148.937 191.517 143.664 197.204 142.216C202.891 140.768 208.371 145.732 210.439 152.143C212.507 158.553 213.334 168.066 196.48 169.514Z" fill="white"/>
<path d="M196.479 169.705C196.426 169.705 196.377 169.684 196.34 169.646C196.294 169.598 191.733 164.736 190.601 155.37C189.751 147.84 191.956 143.352 197.155 142.029C201.731 140.863 208.009 143.99 210.621 152.082C212.226 157.061 212.07 160.892 210.142 163.793C207.925 167.128 203.334 169.117 196.495 169.704C196.49 169.705 196.484 169.705 196.479 169.705ZM199.085 142.177C198.452 142.177 197.837 142.253 197.25 142.402C192.267 143.67 190.158 148.018 190.982 155.326C192.027 163.965 196.015 168.706 196.557 169.314C203.221 168.728 207.684 166.799 209.823 163.582C211.682 160.784 211.823 157.062 210.256 152.201C208.054 145.379 203.209 142.177 199.085 142.177Z" fill="black"/>
<path d="M203.871 137.828C201.461 135.573 197.494 135.796 194.78 137.335C192.03 138.894 190.151 141.861 189.794 144.98C189.77 145.187 190.136 144.88 190.159 144.773C190.762 141.951 192.38 139.241 195.038 137.936C197.73 136.614 200.755 137.051 203.281 138.508C203.544 138.659 204.103 138.045 203.871 137.828Z" fill="black"/>
<path d="M147.907 151.07C144.113 151.608 140.609 154.226 139.461 157.937C139.402 158.127 139.68 157.902 139.713 157.819C141.225 154 145.097 151.171 149.267 151.314C151.136 151.378 152.969 151.973 154.594 152.884C156.258 153.817 157.477 155.119 158.725 156.531C158.806 156.623 159.066 156.331 159.014 156.236C156.945 152.417 152.079 150.478 147.907 151.07Z" fill="black"/>
<mask id="mask0_675_271" style="mask-type:luminance" maskUnits="userSpaceOnUse" x="139" y="155" width="25" height="28">
<path d="M163.908 177.991C163.908 177.991 152.637 185.436 142.09 180.783C135.679 166.203 141.159 157.621 146.329 155.863C151.499 154.105 159.564 157.517 162.046 164.652C164.529 171.787 163.908 177.991 163.908 177.991Z" fill="white"/>
</mask>
<g mask="url(#mask0_675_271)">
<path d="M165.139 169.385C166.077 175.179 162.059 180.474 156.166 181.213C150.273 181.952 144.735 177.854 143.798 172.06C142.861 166.266 146.878 160.971 152.771 160.232C158.664 159.494 164.201 163.592 165.139 169.385Z" fill="white"/>
<path d="M154.796 181.499C149.347 181.499 144.479 177.522 143.6 172.093C143.141 169.26 143.825 166.451 145.524 164.181C147.252 161.874 149.817 160.401 152.746 160.034C158.742 159.281 164.384 163.465 165.337 169.354C165.795 172.187 165.112 174.997 163.412 177.267C161.684 179.574 159.12 181.047 156.191 181.413C155.723 181.471 155.257 181.499 154.796 181.499ZM154.143 160.347C153.697 160.347 153.248 160.375 152.796 160.431C149.976 160.785 147.507 162.202 145.845 164.421C144.211 166.602 143.555 169.304 143.996 172.028C144.915 177.707 150.369 181.735 156.141 181.014C158.961 180.66 161.429 179.244 163.091 177.025C164.725 174.843 165.381 172.141 164.941 169.417C164.094 164.182 159.398 160.347 154.143 160.347Z" fill="black"/>
<path d="M162.885 169.668C163.625 174.238 160.456 178.415 155.807 178.998C151.159 179.581 146.79 176.348 146.051 171.778C145.311 167.208 148.48 163.031 153.129 162.448C157.778 161.865 162.146 165.098 162.885 169.668Z" fill="black"/>
<path d="M153.66 167.597C152.596 169.543 150.129 170.441 148.149 169.603C146.169 168.765 145.427 166.508 146.49 164.561C147.554 162.615 150.021 161.716 152.001 162.554C153.981 163.393 154.724 165.65 153.66 167.597Z" fill="white"/>
<path d="M162.075 167.25C161.629 168.065 160.596 168.441 159.767 168.09C158.938 167.739 158.627 166.794 159.072 165.978C159.518 165.163 160.551 164.786 161.38 165.138C162.209 165.49 162.52 166.435 162.075 167.25Z" fill="white"/>
</g>
<mask id="mask1_675_271" style="mask-type:luminance" maskUnits="userSpaceOnUse" x="190" y="141" width="22" height="29">
<path d="M196.48 169.514C196.48 169.514 191.93 164.757 190.793 155.348C190.069 148.937 191.517 143.664 197.204 142.216C202.891 140.768 208.371 145.732 210.439 152.143C212.507 158.553 213.334 168.066 196.48 169.514Z" fill="white"/>
</mask>
<g mask="url(#mask1_675_271)">
<path d="M208.915 156.566C209.853 162.36 205.836 167.655 199.942 168.394C194.049 169.133 188.511 165.035 187.573 159.241C186.635 153.447 190.653 148.152 196.546 147.413C202.439 146.675 207.977 150.773 208.915 156.566Z" fill="white"/>
<path d="M198.571 168.68C193.123 168.68 188.254 164.703 187.375 159.274C186.917 156.441 187.6 153.631 189.299 151.362C191.027 149.055 193.592 147.582 196.521 147.215C202.517 146.462 208.159 150.645 209.112 156.534C209.57 159.367 208.887 162.177 207.187 164.447C205.459 166.754 202.895 168.226 199.966 168.593C199.499 168.652 199.032 168.68 198.571 168.68ZM197.918 147.528C197.472 147.528 197.023 147.556 196.571 147.613C193.751 147.967 191.282 149.384 189.62 151.603C187.986 153.785 187.33 156.487 187.771 159.21C188.69 164.889 194.144 168.917 199.916 168.196C202.736 167.842 205.204 166.426 206.866 164.207C208.5 162.025 209.156 159.324 208.716 156.599C207.87 151.363 203.173 147.528 197.918 147.528Z" fill="black"/>
<path d="M206.661 156.848C207.401 161.418 204.232 165.595 199.583 166.178C194.935 166.761 190.566 163.528 189.827 158.958C189.087 154.388 192.256 150.211 196.905 149.628C201.553 149.046 205.921 152.278 206.661 156.848Z" fill="black"/>
<path d="M197.436 154.778C196.372 156.724 193.905 157.623 191.925 156.784C189.945 155.946 189.203 153.688 190.266 151.742C191.33 149.796 193.797 148.897 195.777 149.735C197.757 150.573 198.499 152.831 197.436 154.778Z" fill="white"/>
<path d="M205.85 154.431C205.404 155.246 204.371 155.622 203.542 155.271C202.713 154.92 202.402 153.974 202.847 153.159C203.293 152.344 204.326 151.968 205.155 152.319C205.985 152.671 206.296 153.616 205.85 154.431Z" fill="white"/>
</g>
</svg>
