<svg width="340" height="460" viewBox="0 0 340 460" fill="none" xmlns="http://www.w3.org/2000/svg">
<rect width="340" height="460" fill="white"/>
<path d="M236.431 302.517C235.516 304.767 235.369 307.321 236.018 309.662C236.263 310.545 236.827 311.547 237.743 311.537C238.37 311.53 238.872 311.034 239.272 310.552C241.326 308.079 242.663 305.017 243.082 301.829C243.198 300.945 243.242 300.027 242.96 299.182C241.416 294.558 237.265 300.466 236.431 302.517Z" fill="black"/>
<path d="M228.845 311.025C227.941 310.989 227.058 311.345 226.303 311.843C224.527 313.015 223.339 315.036 223.178 317.158C223.141 317.651 223.178 318.204 223.533 318.549C223.852 318.859 224.338 318.912 224.783 318.902C226.473 318.863 228.136 318.126 229.3 316.901C230.828 315.296 232.399 311.165 228.845 311.025Z" fill="black"/>
<path d="M239.127 326.853C238.363 327.076 237.529 327.614 237.553 328.41C237.569 328.947 237.981 329.383 238.396 329.725C240.463 331.427 243.308 332.142 245.935 331.621C246.516 331.506 247.165 331.262 247.358 330.702C247.914 329.089 244.805 327.876 243.785 327.314C242.368 326.534 240.685 326.399 239.127 326.853Z" fill="black"/>
<path d="M154.283 227.235C154.283 227.235 145.091 232.086 142.027 249.959C138.963 267.832 139.984 285.96 141.772 308.173C143.304 328.088 142.71 335.664 142.71 335.664C142.71 335.664 131.812 337.079 132.52 348.967C133.511 357.883 141.012 360.855 145.257 359.299C150.069 362.696 158.702 360.431 160.117 359.157C170.307 361.421 173.931 354.414 173.128 348.542C179.247 350.211 189.817 348.48 189.817 348.48C189.817 348.48 189.414 362.496 203.623 359.1C203.623 359.1 209.963 362.327 217.21 358.987C221.852 360.402 226.268 358.704 228.306 353.779C230.344 348.854 230.371 337.152 218.37 335.237C217.859 311.875 220.157 287.236 221.179 267.065C222.201 246.894 215.445 234.335 208.259 229.254C208.259 229.254 182.583 246.155 154.283 227.235Z" fill="white"/>
<path d="M152 361.274C149.594 361.274 147.118 360.81 145.229 359.513C143.021 360.284 140.187 359.85 137.806 358.376C134.736 356.475 132.791 353.142 132.33 348.988C131.958 342.749 134.795 339.406 137.24 337.7C139.555 336.084 141.905 335.602 142.529 335.497C142.599 334.332 142.979 326.359 141.581 308.187C139.82 286.301 138.721 268.113 141.838 249.925C144.882 232.164 154.1 227.113 154.193 227.064C154.254 227.03 154.329 227.034 154.389 227.074C168.949 236.808 182.785 236.843 191.832 235.153C201.64 233.323 208.089 229.135 208.152 229.093C208.219 229.05 208.305 229.052 208.369 229.097C211.14 231.056 215.057 234.96 217.975 242.43C220.702 249.412 221.844 257.704 221.37 267.074C221.097 272.455 220.738 278.093 220.358 284.062C219.344 299.971 218.194 317.998 218.558 335.073C222.871 335.797 225.984 337.822 227.814 341.092C230.164 345.292 229.808 350.65 228.484 353.851C226.505 358.634 222.195 360.674 217.225 359.19C210.399 362.302 204.298 359.628 203.603 359.301C199.282 360.321 195.865 359.84 193.442 357.872C189.931 355.018 189.646 349.85 189.627 348.703C188.089 348.934 178.978 350.21 173.355 348.798C173.741 352.199 172.675 355.411 170.475 357.437C168.801 358.978 165.657 360.558 160.17 359.363C159.114 360.214 155.636 361.274 152 361.274ZM145.258 359.107C145.297 359.107 145.336 359.119 145.369 359.142C150.032 362.433 158.632 360.238 159.99 359.014C160.035 358.973 160.095 358.955 160.16 358.969C164.42 359.914 167.897 359.289 170.214 357.156C172.382 355.159 173.401 351.949 172.938 348.568C172.93 348.504 172.954 348.44 173.002 348.398C173.05 348.355 173.117 348.339 173.179 348.357C179.189 349.996 189.681 348.308 189.786 348.29C189.838 348.283 189.899 348.297 189.943 348.335C189.986 348.373 190.01 348.428 190.009 348.485C190.007 348.545 189.885 354.49 193.685 357.576C196.02 359.472 199.35 359.922 203.578 358.912C203.623 358.901 203.669 358.906 203.71 358.928C203.773 358.96 210.056 362.072 217.129 358.812C217.172 358.792 217.218 358.789 217.265 358.802C222.056 360.264 226.221 358.312 228.127 353.704C229.459 350.487 229.663 345.185 227.478 341.279C225.687 338.077 222.612 336.108 218.339 335.426C218.247 335.411 218.179 335.333 218.177 335.241C217.802 318.102 218.956 300.005 219.974 284.037C220.354 278.069 220.713 272.433 220.985 267.054C221.658 253.765 218.661 236.942 208.251 229.484C207.351 230.048 201.09 233.813 191.917 235.527C182.815 237.227 168.908 237.202 154.274 227.459C153.284 228.05 145.056 233.417 142.215 249.989C139.105 268.134 140.203 286.296 141.962 308.155C143.477 327.858 142.906 335.601 142.9 335.677C142.893 335.768 142.824 335.84 142.734 335.852C142.707 335.856 140.014 336.225 137.446 338.021C134.015 340.423 132.422 344.101 132.711 348.954C133.158 352.977 135.039 356.21 138.007 358.047C140.324 359.482 143.075 359.892 145.19 359.117C145.213 359.111 145.235 359.107 145.258 359.107Z" fill="black"/>
<path d="M182.114 227.197C200.762 227.435 205.929 221.911 206.344 220.546C206.76 219.18 206.115 214.568 206.115 214.568C205.715 208.572 205.715 208.572 205.715 208.572C205.715 208.572 196.787 230.158 155.881 211.903V214.302C155.881 214.302 155.881 216.27 155.881 217.577C155.881 218.883 159.546 225.891 182.114 227.197Z" fill="white"/>
<path d="M183.237 227.398C182.864 227.398 182.489 227.395 182.111 227.39C182.108 227.39 182.105 227.39 182.102 227.39C160.172 226.121 155.688 219.327 155.688 217.577V211.904C155.688 211.839 155.721 211.778 155.776 211.743C155.83 211.708 155.898 211.702 155.958 211.729C172.345 219.042 186.046 220.9 195.582 217.105C203.141 214.096 205.514 208.555 205.537 208.5C205.571 208.417 205.655 208.369 205.746 208.384C205.834 208.399 205.9 208.472 205.906 208.561L206.306 214.557C206.331 214.733 206.951 219.213 206.528 220.604C206.309 221.323 204.901 223.095 201.139 224.652C196.789 226.452 190.616 227.398 183.237 227.398ZM182.119 227.006C182.507 227.011 182.89 227.013 183.266 227.013C200.589 227.013 205.731 221.895 206.159 220.49C206.557 219.181 205.93 214.641 205.923 214.595L205.569 209.284C204.693 210.861 201.91 214.994 195.738 217.455C186.016 221.331 172.673 219.563 156.072 212.199V217.577C156.072 218.124 156.909 220.152 160.627 222.22C163.869 224.024 170.23 226.318 182.119 227.006Z" fill="black"/>
<path d="M206.115 214.568C206.115 214.568 206.76 219.18 206.344 220.546C205.928 221.912 200.762 227.435 182.114 227.197C159.546 225.891 155.881 218.883 155.881 217.576C155.881 216.269 155.881 214.301 155.881 214.301C155.881 214.301 152.445 214.569 152.15 221.496C151.883 227.759 151.75 230.69 158.812 234.288C165.874 237.886 185.728 240.95 198.786 237.353C206.248 234.688 209.579 232.423 209.712 227.893C209.846 223.362 211.178 215.901 206.115 214.568Z" fill="white"/>
<path d="M185.031 239.134C174.539 239.134 163.663 236.977 158.724 234.46C151.56 230.811 151.692 227.702 151.956 221.509C152.255 214.471 155.718 214.121 155.865 214.11C155.921 214.105 155.971 214.124 156.011 214.16C156.05 214.197 156.072 214.248 156.072 214.301V217.576C156.072 218.123 156.909 220.151 160.627 222.219C163.87 224.022 170.231 226.317 182.124 227.005C182.512 227.01 182.896 227.012 183.273 227.012C200.587 227.013 205.731 221.894 206.159 220.489C206.557 219.18 205.93 214.64 205.923 214.594C205.915 214.531 205.938 214.467 205.986 214.425C206.033 214.381 206.101 214.368 206.162 214.382C210.646 215.562 210.295 221.229 210.012 225.782C209.966 226.535 209.922 227.246 209.903 227.899C209.761 232.731 205.908 235.013 198.849 237.534C194.759 238.661 189.937 239.133 185.031 239.134ZM155.688 214.537C154.964 214.742 152.582 215.846 152.341 221.505C152.075 227.742 151.954 230.58 158.898 234.118C166.094 237.784 185.992 240.679 198.734 237.168C207.663 233.979 209.414 231.445 209.519 227.887C209.539 227.229 209.583 226.515 209.629 225.759C209.897 221.446 210.227 216.103 206.343 214.836C206.479 215.886 206.893 219.399 206.527 220.602C206.308 221.321 204.9 223.093 201.138 224.65C196.569 226.542 189.979 227.474 182.11 227.389C160.171 226.12 155.687 219.326 155.687 217.576V214.537H155.688Z" fill="black"/>
<path d="M149.284 252.607C148.919 253.65 148.396 254.676 147.545 255.382C146.695 256.088 145.464 256.414 144.452 255.969C143.681 255.629 143.137 254.893 142.864 254.096C142.591 253.299 142.559 252.44 142.581 251.598C142.641 249.274 143.091 246.96 143.906 244.782C144.193 244.016 144.533 243.253 145.076 242.642C145.848 241.772 147.201 241.216 148.262 241.933C149.029 242.452 149.542 243.484 149.775 244.323C150.562 247.157 150.273 249.783 149.284 252.607Z" fill="black"/>
<path d="M163.257 259.533C162.663 260.498 162.507 261.661 162.38 262.786C162.29 263.58 162.208 264.385 162.335 265.174C162.462 265.962 162.823 266.744 163.466 267.217C164.11 267.69 165.064 267.778 165.699 267.295C166.277 266.855 166.473 266.087 166.632 265.378C166.908 264.151 167.185 262.912 167.193 261.655C167.199 260.774 167.067 258.678 166.18 258.161C165.183 257.579 163.739 258.751 163.257 259.533Z" fill="black"/>
<path d="M178.153 254.748C177.428 255.129 176.936 255.838 176.537 256.553C175.723 258.01 175.163 259.637 175.131 261.306C175.113 262.227 175.27 263.186 175.802 263.939C176.334 264.691 177.304 265.181 178.195 264.947C179.173 264.69 179.757 263.707 180.167 262.783C180.72 261.538 181.153 260.224 181.265 258.866C181.408 257.136 180.813 253.35 178.153 254.748Z" fill="black"/>
<path d="M213.516 255.222C212.44 256.989 211.972 259.119 212.208 261.175C212.277 261.778 212.41 262.386 212.715 262.91C213.021 263.434 213.521 263.869 214.117 263.984C215.188 264.191 216.176 263.351 216.813 262.466C218.298 260.401 219.076 257.305 218.316 254.812C217.498 252.129 214.627 253.396 213.516 255.222Z" fill="black"/>
<path d="M145.858 280.832C145.272 282.25 144.959 283.78 144.942 285.314C144.93 286.433 145.194 287.736 146.195 288.237C147.172 288.726 148.358 288.189 149.192 287.483C151.32 285.682 152.615 282.158 151.672 279.427C150.496 276.019 146.76 278.652 145.858 280.832Z" fill="black"/>
<path d="M147.532 301.828C147.146 306.198 148.444 310.695 151.099 314.187C151.995 315.365 153.289 316.525 154.752 316.305C156.379 316.061 157.261 314.268 157.6 312.659C158.427 308.729 157.502 304.521 155.308 301.183C154.455 299.885 152.707 297.327 150.995 297.191C148.651 297.004 147.689 300.046 147.532 301.828Z" fill="black"/>
<path d="M200.496 293.153C200.782 292.985 200.275 305.653 200.054 308.861C195.187 311.295 192.642 308.418 193.527 303.883C194.412 299.347 197.288 295.033 200.496 293.153Z" fill="black"/>
<path d="M199.943 310.299L198.726 319.259C198.726 319.259 195.075 318.153 195.297 314.724C195.518 311.295 198.726 310.188 199.943 310.299Z" fill="black"/>
<path d="M210.803 278.337C209.993 278.902 209.47 279.786 209.032 280.671C206.958 284.864 206.281 289.733 207.131 294.332C207.35 295.518 207.705 296.751 208.583 297.578C209.823 298.747 211.853 298.765 213.353 297.955C214.853 297.146 215.887 295.668 216.594 294.118C218.092 290.837 218.237 287.013 217.19 283.579C216.421 281.061 214.245 275.938 210.803 278.337Z" fill="black"/>
<path d="M198.4 346.158C198.106 347.627 198.513 349.181 199.308 350.451C199.658 351.011 200.093 351.534 200.657 351.876C201.222 352.218 201.933 352.359 202.556 352.14C203.684 351.744 204.136 350.378 204.172 349.183C204.216 347.742 203.875 346.291 203.195 345.02C202.71 344.114 201.64 342.691 200.497 343.211C199.396 343.713 198.629 345.016 198.4 346.158Z" fill="black"/>
<path d="M208.966 338.366C210.702 340.206 213.183 341.323 215.711 341.403C216.384 341.424 217.133 341.341 217.581 340.839C218.081 340.278 218.011 339.409 217.761 338.7C217.148 336.958 215.648 335.612 213.93 334.937C212.571 334.403 210.227 333.879 208.809 334.54C207.171 335.304 208.054 337.4 208.966 338.366Z" fill="black"/>
<path d="M172.486 343.854C171.509 341.367 169.946 339.376 168.343 337.278C164.96 332.849 163.874 327.402 163.315 321.974C162.71 316.099 162.354 310.177 162.194 304.274C162.041 298.635 162.144 292.977 162.789 287.369C163.524 280.988 164.917 274.655 167.435 268.728C167.533 268.498 167.249 268.661 167.197 268.777C162.502 279.212 161.324 290.638 161.427 301.97C161.481 307.93 161.851 313.887 162.329 319.827C162.752 325.073 163.248 330.549 165.791 335.264C167.284 338.033 169.629 340.21 171.035 343.035C172.478 345.934 172.889 348.925 173.09 352.115C173.114 352.489 173.65 351.925 173.675 351.731C174.011 349.104 173.448 346.303 172.486 343.854Z" fill="black"/>
<path d="M200.672 288.18C200.131 282.227 199.055 276.291 197.034 270.655C196.977 270.497 196.63 270.823 196.671 270.966C199.716 281.663 200.817 292.629 200.168 303.727C199.836 309.391 199.104 315.025 198.091 320.606C197.603 323.294 197.055 325.971 196.462 328.638C196.166 329.969 195.865 331.299 195.554 332.628C195.385 333.351 195.223 334.077 195.038 334.797C194.829 335.611 194.401 336.109 193.81 336.676C190.414 339.934 188.703 344.699 189.622 349.367C189.702 349.773 190.571 349.031 190.504 348.636C190.094 346.227 190.304 343.753 191.211 341.476C191.626 340.434 192.185 339.452 192.822 338.53C193.465 337.6 194.405 336.97 195.086 336.087C195.674 335.325 195.813 334.34 196.033 333.427C196.383 331.98 196.726 330.53 197.048 329.076C197.663 326.294 198.228 323.501 198.729 320.697C200.643 309.98 201.66 299.052 200.672 288.18Z" fill="black"/>
<path d="M161.398 337.924C158.239 340.126 156.984 343.891 156.64 347.579C156.278 351.465 156.573 356.187 159.632 358.998C159.959 359.298 160.718 358.414 160.435 358.074C158.062 355.225 157.479 351.519 157.618 347.913C157.752 344.442 158.577 340.589 161.454 338.345C161.641 338.199 161.761 337.67 161.398 337.924Z" fill="black"/>
<path d="M153.167 331.085C147.285 330.315 142.802 335.824 141.548 341C140.787 344.142 140.846 347.504 141.418 350.672C141.907 353.379 142.888 356.859 145.334 358.43C145.603 358.603 146.205 357.987 146.034 357.727C145.324 356.651 144.516 355.639 143.937 354.482C143.354 353.315 142.943 352.062 142.656 350.792C142.039 348.064 141.874 345.139 142.233 342.364C142.589 339.612 143.561 336.877 145.475 334.817C147.407 332.738 150.078 331.481 152.927 331.444C153.046 331.441 153.32 331.105 153.167 331.085Z" fill="black"/>
<path d="M207.666 345.598C206.858 340.324 203.802 334.559 198.023 333.731C197.82 333.702 197.411 334.224 197.655 334.285C202.851 335.585 205.749 340.859 206.568 345.809C207.35 350.534 206.346 355.364 203.084 358.962C202.71 359.374 202.915 359.972 203.45 359.496C207.283 356.087 208.418 350.509 207.666 345.598Z" fill="black"/>
<path d="M221.786 341.39C221.082 338.266 219.623 335.441 216.855 333.699C213.88 331.827 210.221 331.175 206.763 331.634C206.641 331.65 206.374 332.04 206.528 332.04C209.743 332.027 213.102 332.662 215.872 334.363C218.549 336.007 220.003 338.599 220.739 341.592C222.183 347.466 220.55 353.263 217.152 358.118C216.808 358.61 217.311 358.691 217.628 358.35C221.709 353.95 223.083 347.151 221.786 341.39Z" fill="black"/>
<path d="M185.622 241.511C185.463 241.511 185.304 241.506 185.144 241.498L173.711 240.873C168.948 240.612 165.284 236.525 165.545 231.761C165.805 226.998 169.882 223.332 174.657 223.595L186.09 224.221C188.397 224.347 190.518 225.364 192.06 227.085C193.602 228.806 194.382 231.025 194.256 233.332C194.004 237.936 190.178 241.511 185.622 241.511ZM174.18 225.886C170.837 225.886 168.029 228.51 167.844 231.888C167.653 235.383 170.341 238.382 173.837 238.574L185.27 239.199C188.772 239.398 191.765 236.703 191.955 233.207C192.048 231.514 191.476 229.886 190.344 228.623C189.213 227.36 187.657 226.614 185.964 226.521L174.531 225.895C174.413 225.888 174.296 225.886 174.18 225.886Z" fill="white"/>
<path d="M185.622 241.704C185.46 241.704 185.297 241.699 185.134 241.691L173.7 241.066C171.345 240.937 169.179 239.896 167.6 238.135C166.022 236.374 165.223 234.107 165.352 231.752C165.481 229.395 166.52 227.229 168.279 225.651C170.039 224.072 172.301 223.278 174.667 223.404L186.1 224.029C188.458 224.158 190.626 225.198 192.203 226.957C193.779 228.717 194.576 230.985 194.448 233.343C194.191 238.031 190.315 241.704 185.622 241.704ZM174.171 223.775C172.086 223.775 170.101 224.534 168.536 225.937C166.854 227.446 165.86 229.519 165.737 231.773C165.481 236.431 169.064 240.427 173.722 240.682L185.155 241.307C189.83 241.546 193.81 237.963 194.064 233.322C194.188 231.066 193.425 228.897 191.917 227.213C190.409 225.53 188.336 224.535 186.08 224.412L174.647 223.787C174.487 223.779 174.328 223.775 174.171 223.775ZM185.637 239.401C185.511 239.401 185.385 239.397 185.258 239.391L173.826 238.766C172.084 238.671 170.482 237.901 169.314 236.598C168.147 235.296 167.557 233.62 167.652 231.878C167.848 228.292 170.891 225.508 174.541 225.704L185.973 226.329C187.718 226.425 189.321 227.194 190.486 228.495C191.652 229.796 192.241 231.473 192.146 233.217C192.051 234.965 191.278 236.57 189.973 237.738C188.767 238.819 187.24 239.401 185.637 239.401ZM174.18 226.078C170.914 226.078 168.215 228.635 168.036 231.899C167.946 233.538 168.502 235.116 169.601 236.342C170.699 237.568 172.208 238.293 173.847 238.382L185.28 239.007C186.915 239.103 188.492 238.548 189.717 237.453C190.947 236.353 191.673 234.841 191.762 233.196C191.853 231.554 191.298 229.975 190.199 228.751C189.103 227.527 187.594 226.802 185.951 226.712L174.518 226.087C174.405 226.081 174.292 226.078 174.18 226.078Z" fill="black"/>
<path d="M193.038 235.075H188.245C187.609 235.075 187.093 234.559 187.093 233.923C187.093 233.287 187.609 232.771 188.245 232.771H193.038C193.674 232.771 194.19 233.287 194.19 233.923C194.189 234.559 193.673 235.075 193.038 235.075Z" fill="white"/>
<path d="M193.037 235.266H188.244C187.503 235.266 186.9 234.663 186.9 233.922C186.9 233.181 187.503 232.578 188.244 232.578H193.037C193.778 232.578 194.381 233.181 194.381 233.922C194.38 234.663 193.777 235.266 193.037 235.266ZM188.244 232.963C187.715 232.963 187.284 233.393 187.284 233.923C187.284 234.452 187.714 234.883 188.244 234.883H193.037C193.566 234.883 193.997 234.453 193.997 233.923C193.997 233.394 193.567 232.963 193.037 232.963H188.244Z" fill="black"/>
<path d="M124.112 311.306C123.616 311.796 123.343 312.486 123.294 313.182C123.232 314.064 123.523 314.965 124.09 315.644C124.656 316.323 125.491 316.771 126.37 316.868C127.094 316.948 127.884 316.768 128.377 316.231C129.641 314.853 128.317 313.256 127.635 312.014C126.907 310.692 125.312 310.121 124.112 311.306Z" fill="black"/>
<path d="M136.544 321.203C135.816 321.302 135.069 321.484 134.499 321.948C133.929 322.412 133.586 323.221 133.853 323.906C134.043 324.395 134.49 324.729 134.916 325.035C135.427 325.403 135.967 325.783 136.592 325.858C137.335 325.947 138.091 325.565 138.545 324.97C138.999 324.375 139.172 323.597 139.122 322.85C139.031 321.485 137.758 321.039 136.544 321.203Z" fill="black"/>
<path d="M189.856 113.318C189.856 113.318 197.706 101.63 205.557 101.106C213.407 100.583 221.258 117.33 235.388 123.087C249.519 128.844 256.671 131.286 256.846 142.626C257.02 153.966 234.516 180.657 232.771 187.286C227.014 179.087 225.618 169.317 225.618 165.828C225.269 163.386 214.627 160.769 211.836 156.582C209.046 152.395 203.812 122.215 189.856 113.318Z" fill="white"/>
<path d="M232.772 187.477C232.71 187.477 232.651 187.447 232.614 187.395C226.718 178.998 225.427 168.979 225.427 165.827C225.279 164.801 222.745 163.574 220.062 162.274C216.836 160.711 213.179 158.94 211.677 156.687C210.915 155.544 210.014 152.629 208.767 148.596C205.456 137.884 199.915 119.956 189.753 113.478C189.709 113.45 189.679 113.406 189.668 113.355C189.658 113.305 189.668 113.252 189.696 113.209C189.716 113.18 191.703 110.238 194.625 107.272C197.335 104.522 201.428 101.187 205.544 100.914C209.538 100.65 213.544 104.765 218.183 109.533C222.97 114.453 228.396 120.03 235.46 122.908L237.095 123.573C250.261 128.919 256.87 131.602 257.039 142.622C257.15 149.816 248.318 162.974 241.222 173.546C237.13 179.642 233.597 184.906 232.958 187.333C232.938 187.406 232.879 187.46 232.806 187.473C232.795 187.476 232.783 187.477 232.772 187.477ZM190.128 113.262C200.301 119.904 205.827 137.779 209.135 148.483C210.326 152.335 211.266 155.377 211.998 156.475C213.441 158.64 217.049 160.387 220.231 161.929C223.248 163.391 225.631 164.545 225.81 165.8C225.812 168.904 227.058 178.602 232.704 186.849C233.592 184.225 236.994 179.156 240.903 173.332C247.969 162.804 256.764 149.702 256.655 142.627C256.489 131.86 249.96 129.209 236.952 123.927L235.316 123.262C228.178 120.354 222.722 114.746 217.909 109.799C213.472 105.24 209.623 101.283 205.913 101.283C205.798 101.283 205.684 101.287 205.57 101.294C198.404 101.775 191.11 111.857 190.128 113.262Z" fill="black"/>
<path d="M219.164 125.354C212.754 112.667 200.219 115.518 194.688 117.553C205.081 129.346 209.394 152.917 211.837 156.581C214.628 160.768 225.27 163.385 225.619 165.827C225.619 166.34 225.654 167.003 225.724 167.763C225.517 160.964 227.002 140.867 219.164 125.354Z" fill="white"/>
<path d="M225.724 167.955C225.625 167.955 225.542 167.88 225.533 167.78C225.464 167.026 225.427 166.351 225.427 165.827C225.279 164.801 222.745 163.574 220.062 162.274C216.836 160.711 213.179 158.94 211.677 156.687C210.915 155.544 210.014 152.629 208.768 148.597C205.966 139.533 201.732 125.836 194.545 117.68C194.503 117.633 194.487 117.568 194.503 117.506C194.519 117.445 194.563 117.395 194.623 117.373C199.878 115.439 212.803 112.341 219.335 125.267C226.029 138.514 225.945 155.032 225.9 163.907C225.893 165.432 225.886 166.749 225.917 167.757C225.92 167.861 225.84 167.948 225.737 167.955C225.731 167.955 225.728 167.955 225.724 167.955ZM195.018 117.638C202.146 125.878 206.347 139.466 209.135 148.484C210.325 152.335 211.266 155.377 211.997 156.475C213.44 158.64 217.048 160.387 220.23 161.929C222.707 163.129 224.757 164.122 225.511 165.134C225.512 164.743 225.514 164.332 225.516 163.906C225.561 155.064 225.645 138.606 218.993 125.441C212.703 112.996 200.33 115.738 195.018 117.638Z" fill="black"/>
<path d="M126.359 181.194C126.634 182.774 126.935 184.382 126.712 185.97C126.489 187.558 125.637 189.153 124.18 189.824C122.4 190.643 120.204 189.836 118.866 188.404C117.529 186.972 116.872 185.047 116.325 183.166C114.063 175.39 113.049 167.153 114.298 159.152C114.898 155.304 116.042 151.532 117.741 148.025C118.607 146.239 119.616 144.521 120.772 142.907C121.349 142.101 123.287 138.857 124.482 139.045C125.545 139.213 124.621 143.525 124.547 144.538C124.377 146.858 124.26 149.182 124.198 151.507C124.074 156.157 124.166 160.814 124.473 165.456C124.825 170.73 125.453 175.986 126.359 181.194Z" fill="white"/>
<path d="M122.637 190.35C121.127 190.35 119.655 189.528 118.728 188.536C117.336 187.046 116.664 185.011 116.143 183.22C113.642 174.618 112.958 166.511 114.111 159.124C114.728 155.169 115.893 151.407 117.571 147.942C118.457 146.115 119.482 144.383 120.619 142.796C120.703 142.678 120.816 142.509 120.952 142.306C122.124 140.549 123.475 138.69 124.514 138.857C125.465 139.007 125.225 141.173 124.87 143.572C124.809 143.989 124.755 144.35 124.74 144.553C124.571 146.859 124.454 149.2 124.392 151.513C124.268 156.135 124.36 160.822 124.666 165.444C125.015 170.701 125.648 175.989 126.548 181.163L126.58 181.343C126.846 182.867 127.121 184.441 126.903 185.999C126.644 187.836 125.632 189.369 124.261 190C123.731 190.242 123.182 190.35 122.637 190.35ZM124.376 139.229C123.467 139.229 121.936 141.523 121.272 142.518C121.133 142.725 121.018 142.898 120.932 143.018C119.808 144.587 118.793 146.301 117.917 148.108C116.255 151.538 115.102 155.264 114.491 159.18C113.346 166.512 114.026 174.563 116.513 183.111C117.021 184.859 117.675 186.843 119.01 188.271C120.181 189.525 122.275 190.492 124.103 189.648C125.601 188.959 126.336 187.282 126.524 185.942C126.735 184.445 126.465 182.9 126.204 181.406L126.172 181.226C125.27 176.039 124.635 170.737 124.285 165.467C123.978 160.833 123.885 156.134 124.009 151.5C124.071 149.182 124.189 146.834 124.358 144.522C124.374 144.305 124.426 143.955 124.491 143.513C124.66 142.371 125.108 139.337 124.454 139.234C124.429 139.231 124.403 139.229 124.376 139.229Z" fill="black"/>
<path d="M126.131 132.068C126.131 132.068 134.38 116.783 154.032 111.446C173.684 106.108 194.428 106.836 205.467 125.275C213.595 138.74 212.867 147.475 214.201 154.874C215.535 162.274 220.873 168.339 230.456 169.552C227.423 171.857 222.814 170.401 222.814 170.401C222.814 170.401 228.879 174.404 221.843 184.352C214.807 194.3 212.381 195.391 208.984 204.004C205.587 212.617 200.978 221.109 190.06 222.443C179.142 223.777 167.497 217.833 159.975 215.043C152.454 212.253 133.166 208.978 132.559 200.122C131.103 201.699 131.346 203.519 131.346 203.519C131.346 203.519 127.828 202.306 130.497 199.031C128.435 199.395 125.402 199.395 122.855 197.333C126.616 197.333 129.77 189.569 127.101 181.32C124.432 173.071 114.728 152.448 126.131 132.068Z" fill="white"/>
<path d="M186.855 222.825C178.768 222.825 170.467 219.459 164.206 216.92C162.672 216.298 161.222 215.711 159.909 215.223C158.337 214.64 156.285 214.046 153.91 213.358C145.218 210.842 133.382 207.417 132.417 200.592C131.358 201.992 131.536 203.477 131.538 203.494C131.546 203.559 131.52 203.625 131.469 203.667C131.417 203.709 131.347 203.719 131.285 203.7C131.222 203.678 129.754 203.159 129.387 201.87C129.167 201.099 129.392 200.234 130.056 199.294C127.974 199.58 125.156 199.441 122.735 197.481C122.672 197.43 122.647 197.345 122.675 197.268C122.702 197.191 122.775 197.14 122.856 197.14C123.903 197.14 124.918 196.506 125.791 195.304C127.669 192.722 128.823 187.263 126.919 181.378C126.627 180.472 126.253 179.43 125.821 178.224C122.31 168.425 115.777 150.185 125.964 131.976C126.084 131.755 134.521 116.546 153.983 111.26C170.98 106.642 193.739 105.308 205.633 125.176C212.067 135.836 212.985 143.667 213.721 149.959C213.922 151.669 214.111 153.284 214.391 154.84C215.855 162.96 221.72 168.253 230.481 169.361C230.558 169.371 230.622 169.426 230.642 169.502C230.662 169.577 230.635 169.657 230.573 169.704C228.228 171.487 225.027 171.096 223.553 170.784C224.143 171.386 224.978 172.505 225.303 174.23C225.851 177.146 224.741 180.588 222.002 184.461C219.746 187.651 217.93 189.973 216.471 191.839C213.349 195.832 211.464 198.244 209.165 204.072C205.673 212.926 200.945 221.304 190.086 222.631C189.015 222.765 187.936 222.825 186.855 222.825ZM132.56 199.931C132.581 199.931 132.603 199.935 132.624 199.942C132.696 199.967 132.746 200.033 132.751 200.11C133.221 206.972 145.241 210.451 154.016 212.99C156.398 213.68 158.456 214.275 160.041 214.864C161.36 215.354 162.812 215.942 164.349 216.565C171.803 219.586 181.078 223.345 190.037 222.253C200.696 220.95 205.357 212.678 208.805 203.934C211.124 198.054 213.022 195.626 216.166 191.605C217.623 189.742 219.435 187.424 221.686 184.242C224.363 180.458 225.452 177.114 224.924 174.304C224.44 171.731 222.725 170.574 222.708 170.562C222.628 170.509 222.599 170.405 222.64 170.319C222.681 170.232 222.783 170.189 222.871 170.218C222.915 170.231 227.029 171.494 229.939 169.676C221.274 168.41 215.481 163.051 214.012 154.908C213.729 153.342 213.54 151.721 213.339 150.004C212.606 143.748 211.695 135.963 205.303 125.374C193.532 105.713 170.952 107.049 154.083 111.631C134.742 116.884 126.383 132.008 126.3 132.16C126.3 132.161 126.299 132.161 126.298 132.162C116.194 150.22 122.691 168.353 126.181 178.095C126.614 179.304 126.988 180.349 127.284 181.261C129.24 187.307 128.1 192.785 126.101 195.532C125.291 196.645 124.355 197.311 123.367 197.481C125.776 199.205 128.531 199.181 130.465 198.843C130.539 198.827 130.622 198.865 130.664 198.934C130.705 199.004 130.698 199.091 130.647 199.153C129.845 200.138 129.545 201.017 129.756 201.764C129.979 202.552 130.731 203.018 131.139 203.22C131.136 202.607 131.274 201.234 132.42 199.993C132.456 199.952 132.508 199.931 132.56 199.931Z" fill="black"/>
<path d="M196.206 169.513C196.206 169.513 191.386 164.473 190.18 154.504C189.413 147.712 190.947 142.124 196.972 140.59C202.998 139.056 208.804 144.315 210.995 151.107C213.187 157.9 214.064 167.979 196.206 169.513Z" fill="black"/>
<path d="M203.742 142.301C203.742 142.301 206.879 140.341 208 137.875C208.253 140.975 205.249 143.365 205.249 143.365L203.742 142.301Z" fill="black"/>
<path d="M206.517 144.866C206.517 144.866 209.479 143.849 210.873 142.029C210.49 144.634 207.556 146.031 207.556 146.031L206.517 144.866Z" fill="black"/>
<path d="M164.604 177.747C164.604 177.747 152.696 185.613 141.552 180.697C134.778 165.293 140.569 156.225 146.031 154.368C151.494 152.511 160.015 156.116 162.637 163.654C165.259 171.192 164.604 177.747 164.604 177.747Z" fill="black"/>
<path d="M139.542 163.732C139.542 163.732 135.921 164.486 133.406 163.48C135.368 165.894 139.19 165.542 139.19 165.542L139.542 163.732Z" fill="black"/>
<path d="M139.313 167.505C139.313 167.505 136.471 168.819 134.205 168.469C136.284 170.085 139.369 169.065 139.369 169.065L139.313 167.505Z" fill="black"/>
<path d="M117.111 123.932C112.762 123.785 108.395 125.852 105.752 129.31C102.253 133.889 101.982 140.075 100.167 145.546C96.9307 155.304 88.8867 162.526 82.5417 170.615C80.5607 173.141 78.6687 175.926 78.2717 179.112C77.5697 184.734 81.6917 189.847 86.2717 193.181C92.3527 197.608 99.5327 200.204 106.393 203.289C113.253 206.374 120.103 210.187 124.54 216.261C127.904 208.033 126.909 198.659 124.644 190.063C122.379 181.467 118.906 173.179 117.374 164.423C116.479 159.306 116.32 153.781 118.748 149.189C120.547 145.786 123.589 143.228 125.859 140.12C131.556 132.319 126.466 124.249 117.111 123.932Z" fill="white"/>
<path d="M124.541 216.452C124.48 216.452 124.423 216.423 124.386 216.373C119.799 210.094 112.677 206.323 106.315 203.463C104.851 202.805 103.346 202.158 101.892 201.532C96.5166 199.22 90.9596 196.829 86.1596 193.335C83.4426 191.358 77.2176 186.012 78.0816 179.087C78.4856 175.849 80.3916 173.044 82.3916 170.496C84.0386 168.396 85.8276 166.323 87.5576 164.317C92.4946 158.595 97.5986 152.678 99.9846 145.485C100.566 143.733 100.996 141.875 101.411 140.077C102.29 136.27 103.201 132.332 105.599 129.194C108.193 125.799 112.402 123.733 116.67 123.733C116.818 123.733 116.968 123.735 117.117 123.74C121.941 123.903 125.847 126.106 127.565 129.634C129.138 132.865 128.573 136.727 126.014 140.232C125.129 141.443 124.115 142.586 123.135 143.69C121.598 145.422 120.009 147.213 118.917 149.277C116.896 153.1 116.453 158.043 117.563 164.388C118.504 169.764 120.208 175.059 121.857 180.18C122.89 183.386 123.956 186.702 124.829 190.012C127.637 200.669 127.6 209.278 124.717 216.332C124.691 216.396 124.632 216.441 124.563 216.45C124.557 216.451 124.549 216.452 124.541 216.452ZM116.67 124.117C112.52 124.117 108.427 126.125 105.904 129.426C103.556 132.499 102.656 136.395 101.785 140.162C101.367 141.968 100.936 143.837 100.349 145.606C97.9386 152.872 92.8086 158.817 87.8476 164.567C86.1206 166.57 84.3336 168.64 82.6916 170.733C80.7266 173.238 78.8536 175.991 78.4606 179.135C77.6216 185.856 83.7216 191.087 86.3836 193.024C91.1476 196.493 96.6856 198.875 102.041 201.178C103.497 201.805 105.003 202.453 106.47 203.113C112.784 205.952 119.844 209.684 124.489 215.87C127.212 208.955 127.201 200.524 124.457 190.11C123.588 186.81 122.522 183.5 121.491 180.298C119.838 175.165 118.13 169.858 117.185 164.455C116.06 158.023 116.515 152.999 118.578 149.098C119.691 146.993 121.295 145.184 122.847 143.435C123.822 142.337 124.829 141.201 125.703 140.005C128.175 136.62 128.728 132.901 127.218 129.802C125.564 126.405 121.783 124.282 117.102 124.124C116.96 124.119 116.815 124.117 116.67 124.117Z" fill="black"/>
<path d="M188.957 207.961C188.957 207.961 195.847 211.844 199.73 202.602C198.144 202.329 196.066 202 193.933 199.485C194.152 203.094 192.621 205.993 188.957 207.961Z" fill="white"/>
<path d="M192.312 208.966C190.378 208.966 188.942 208.174 188.862 208.129C188.801 208.094 188.764 208.03 188.765 207.959C188.766 207.889 188.805 207.826 188.866 207.792C192.323 205.936 193.963 203.145 193.741 199.498C193.736 199.415 193.785 199.339 193.862 199.308C193.938 199.278 194.027 199.299 194.079 199.362C196.137 201.79 198.111 202.13 199.696 202.402L199.763 202.414C199.82 202.424 199.87 202.46 199.899 202.511C199.927 202.562 199.93 202.623 199.907 202.677C198.58 205.837 196.759 207.832 194.494 208.607C193.73 208.868 192.99 208.966 192.312 208.966ZM189.374 207.949C190.143 208.286 192.181 208.994 194.374 208.242C196.476 207.52 198.185 205.673 199.458 202.75C198.005 202.497 196.093 202.1 194.145 200.012C194.187 203.445 192.585 206.111 189.374 207.949Z" fill="black"/>
<path d="M136.74 148.373C136.74 148.373 143.317 139.646 148.439 139.583C153.561 139.52 154.447 137.623 153.245 135.978C152.044 134.334 148.818 132.373 143.064 137.306C137.309 142.239 136.74 148.373 136.74 148.373Z" fill="white"/>
<path d="M136.741 148.565C136.718 148.565 136.694 148.56 136.672 148.552C136.592 148.52 136.542 148.44 136.55 148.355C136.556 148.293 137.193 142.087 142.94 137.161C145.663 134.827 148.115 133.77 150.216 134.013C151.957 134.215 152.959 135.261 153.401 135.866C153.937 136.599 154.058 137.352 153.741 137.987C153.345 138.778 152.105 139.731 148.443 139.776C143.473 139.837 136.96 148.403 136.894 148.49C136.857 148.538 136.8 148.565 136.741 148.565ZM149.613 134.362C147.743 134.362 145.586 135.399 143.191 137.452C138.708 141.294 137.4 145.914 137.051 147.668C138.648 145.68 144.01 139.446 148.439 139.391C152.091 139.346 153.113 138.384 153.398 137.814C153.718 137.174 153.408 136.524 153.091 136.092C152.686 135.537 151.768 134.579 150.172 134.394C149.988 134.373 149.801 134.362 149.613 134.362Z" fill="black"/>
<path d="M193.414 127.581C193.414 127.581 197.333 126.372 200.719 127.242C204.105 128.113 204.154 126.274 199.945 124.146C195.736 122.017 191.334 121.05 190.173 123.565C189.011 126.082 190.511 128.307 193.414 127.581Z" fill="white"/>
<path d="M192.352 127.912C191.446 127.912 190.683 127.593 190.178 126.984C189.456 126.112 189.389 124.804 189.998 123.485C190.302 122.824 190.828 122.36 191.56 122.105C193.357 121.48 196.444 122.16 200.031 123.975C202.361 125.153 203.628 126.364 203.338 127.135C203.121 127.712 202.174 127.813 200.671 127.429C197.38 126.581 193.509 127.753 193.47 127.765C193.467 127.766 193.464 127.766 193.46 127.767C193.074 127.864 192.702 127.912 192.352 127.912ZM193.104 122.258C192.566 122.258 192.09 122.327 191.686 122.468C191.057 122.687 190.606 123.083 190.346 123.646C189.801 124.828 189.849 125.984 190.474 126.739C191.075 127.465 192.13 127.703 193.361 127.396C193.585 127.328 197.394 126.188 200.766 127.057C202.143 127.412 202.871 127.285 202.978 127C203.113 126.642 202.385 125.596 199.856 124.317C197.194 122.97 194.83 122.258 193.104 122.258Z" fill="black"/>
<path d="M163.907 177.991C163.907 177.991 152.636 185.436 142.089 180.783C135.678 166.203 141.158 157.621 146.328 155.863C151.498 154.105 159.563 157.517 162.045 164.652C164.528 171.787 163.907 177.991 163.907 177.991Z" fill="white"/>
<path d="M149.539 182.491C147.092 182.491 144.529 182.068 142.013 180.958C141.969 180.938 141.934 180.904 141.915 180.86C138.682 173.507 138.125 166.674 140.349 161.619C141.639 158.685 143.797 156.521 146.268 155.681C151.582 153.874 159.717 157.369 162.228 164.589C164.694 171.681 164.105 177.947 164.099 178.009C164.093 178.067 164.061 178.118 164.014 178.151C163.928 178.209 157.325 182.491 149.539 182.491ZM142.236 180.638C152.09 184.931 162.713 178.517 163.726 177.88C163.788 177.086 164.142 171.259 161.866 164.716C159.425 157.7 151.545 154.296 146.391 156.045C144.022 156.851 141.948 158.939 140.701 161.774C138.528 166.714 139.074 173.411 142.236 180.638Z" fill="black"/>
<path d="M196.48 169.514C196.48 169.514 191.93 164.757 190.793 155.348C190.069 148.937 191.517 143.664 197.204 142.216C202.891 140.768 208.371 145.732 210.439 152.143C212.507 158.553 213.334 168.066 196.48 169.514Z" fill="white"/>
<path d="M196.479 169.705C196.426 169.705 196.377 169.684 196.34 169.646C196.294 169.598 191.733 164.736 190.601 155.37C189.751 147.84 191.956 143.352 197.155 142.029C201.731 140.863 208.009 143.99 210.621 152.082C212.226 157.061 212.07 160.892 210.142 163.793C207.925 167.128 203.334 169.117 196.495 169.704C196.49 169.705 196.484 169.705 196.479 169.705ZM199.085 142.177C198.452 142.177 197.837 142.253 197.25 142.402C192.267 143.67 190.158 148.018 190.982 155.326C192.027 163.965 196.015 168.706 196.557 169.314C203.221 168.728 207.684 166.799 209.823 163.582C211.682 160.784 211.823 157.062 210.256 152.201C208.054 145.379 203.209 142.177 199.085 142.177Z" fill="black"/>
<path d="M148.687 116.987C148.687 116.987 143.189 108.548 148.176 101.005C147.793 105.991 149.582 110.211 149.582 110.211C149.582 110.211 153.162 99.7264 161.984 98.1924C156.231 103.945 157.893 108.548 157.893 108.548C157.893 108.548 161.601 98.3194 173.236 102.411C167.482 102.539 163.135 108.292 162.624 110.21C168.633 104.329 174.387 106.502 178.222 109.954C172.852 109.443 166.331 112.639 164.925 115.324" fill="white"/>
<path d="M148.687 117.179C148.625 117.179 148.563 117.148 148.527 117.092C148.471 117.006 143.017 108.46 148.015 100.899C148.064 100.826 148.157 100.794 148.238 100.823C148.321 100.852 148.374 100.932 148.367 101.02C148.065 104.956 149.145 108.448 149.583 109.672C150.423 107.59 154.208 99.3503 161.951 98.0043C162.035 97.9853 162.116 98.0303 162.154 98.1053C162.193 98.1793 162.179 98.2703 162.119 98.3293C157.644 102.805 157.726 106.581 157.949 107.943C158.942 105.863 163.207 98.6803 173.299 102.232C173.387 102.263 173.439 102.351 173.425 102.443C173.41 102.535 173.332 102.603 173.24 102.605C168.332 102.714 164.333 107.135 163.13 109.476C169.609 103.713 175.414 107.17 178.35 109.813C178.412 109.869 178.431 109.957 178.397 110.033C178.364 110.109 178.28 110.155 178.204 110.147C174.312 109.774 166.89 111.989 165.095 115.415C165.046 115.509 164.931 115.547 164.836 115.496C164.742 115.447 164.706 115.33 164.755 115.237C166.189 112.502 172.42 109.472 177.664 109.724C174.609 107.154 168.963 104.276 162.759 110.349C162.697 110.41 162.602 110.422 162.528 110.377C162.453 110.334 162.417 110.245 162.439 110.162C162.893 108.457 166.762 103.003 172.253 102.295C167.907 100.997 164.238 101.598 161.339 104.082C159.018 106.07 158.083 108.59 158.074 108.615C158.046 108.691 157.974 108.742 157.893 108.742C157.812 108.742 157.74 108.691 157.712 108.615C157.645 108.428 156.155 104.065 161.414 98.5033C157.246 99.4523 154.351 102.467 152.631 104.888C150.672 107.647 149.772 110.247 149.763 110.273C149.738 110.348 149.668 110.4 149.588 110.403C149.517 110.396 149.436 110.359 149.404 110.286C149.387 110.245 147.778 106.392 147.941 101.746C143.778 108.932 148.795 116.801 148.848 116.882C148.906 116.971 148.88 117.09 148.792 117.147C148.76 117.169 148.723 117.179 148.687 117.179Z" fill="black"/>
<path d="M214.429 182.809C214.336 182.637 214.221 182.46 214.079 182.323C213.94 182.188 213.744 182.096 213.568 182.02C213.228 181.872 212.829 181.845 212.463 181.873C211.619 181.938 210.845 182.407 210.383 183.116C210.331 183.197 210.233 183.386 210.355 183.451C210.474 183.514 210.652 183.353 210.717 183.274C210.742 183.243 210.768 183.212 210.795 183.183C210.806 183.171 210.805 183.171 210.81 183.166C210.814 183.163 210.817 183.162 210.833 183.148C210.84 183.142 210.882 183.107 210.888 183.101C210.908 183.086 210.928 183.072 210.949 183.058C210.965 183.047 210.981 183.037 210.997 183.027C210.971 183.043 210.97 183.046 210.993 183.036C211.02 183.027 211.047 183.017 211.074 183.009C211.144 182.986 211.212 182.959 211.282 182.935C211.3 182.929 211.302 182.928 211.308 182.926C211.314 182.925 211.315 182.925 211.333 182.921C211.37 182.912 211.407 182.904 211.444 182.897C211.513 182.884 211.582 182.875 211.652 182.87C211.722 182.864 211.769 182.863 211.817 182.864C211.777 188.737 211.397 195.674 206.572 199.742C204.358 201.609 201.332 202.584 198.473 201.848C196.162 201.254 194.195 199.575 193.269 197.379C193.147 196.942 193.008 196.51 192.844 196.087C192.794 195.958 192.515 196.236 192.549 196.352C193.085 198.169 193.264 200.045 193.189 201.926C193.003 202.89 192.718 203.801 192.091 204.689C191.075 206.129 189.536 207.119 187.929 207.785C184.983 209.006 181.669 209.42 178.498 209.311C172.262 209.097 166.092 206.875 161.236 202.78C159.734 201.514 158.343 200.252 157.089 199.896C157.191 199.876 157.293 199.857 157.394 199.837C157.597 199.796 157.772 199.62 157.867 199.444C157.917 199.351 158.028 199.07 157.836 199.044C156.782 198.905 155.608 199.276 154.816 199.989C154.087 200.645 153.502 201.651 153.803 202.654C153.87 202.878 154.289 202.429 154.28 202.284C154.254 201.897 154.336 201.544 154.514 201.201C154.592 201.051 154.664 200.947 154.769 200.83C154.775 200.824 154.817 200.78 154.833 200.762C154.853 200.744 154.891 200.709 154.896 200.704C154.931 200.673 154.968 200.643 155.005 200.614C155.016 200.607 155.046 200.585 155.06 200.575C155.129 200.527 155.206 200.497 155.279 200.457C156.781 200.988 159.01 202.424 159.01 202.424C160.305 203.465 161.465 204.639 162.823 205.606C165.36 207.413 168.235 208.776 171.236 209.605C174.248 210.437 177.408 210.757 180.525 210.534C183.72 210.306 187.108 209.585 189.836 207.837C191.298 206.9 192.553 205.655 193.401 204.133C193.981 203.091 194.557 201.657 194.405 200.39C195.452 201.577 196.902 202.418 198.493 202.756C201.335 203.359 204.319 202.223 206.52 200.449C211.71 196.268 212.323 189.175 212.357 182.96C212.388 182.969 212.421 182.972 212.451 182.983C212.525 183.009 212.596 183.04 212.668 183.073C212.698 183.087 212.728 183.1 212.758 183.114C212.763 183.117 212.818 183.146 212.824 183.149C213.078 183.296 213.333 183.493 213.52 183.72C213.585 183.799 213.757 183.766 213.83 183.736C213.952 183.686 214.055 183.608 214.148 183.515C214.289 183.37 214.549 183.032 214.429 182.809Z" fill="black"/>
<path d="M167.138 152.038C165.944 148.443 164.473 144.974 162.713 141.62C162.642 141.485 162.347 141.783 162.401 141.9C164.955 147.508 166.971 153.377 168.294 159.399C169.659 165.614 170.616 172.358 168.965 178.611C168.115 181.828 166.542 184.866 164.178 187.232C163.883 187.527 163.888 188.14 164.349 187.706C168.649 183.667 170.434 177.793 170.583 172.02C170.755 165.318 169.242 158.371 167.138 152.038Z" fill="black"/>
<path d="M194.102 166.258C192.652 163.48 191.084 160.812 189.874 157.91C188.686 155.062 187.709 152.109 187.039 149.096C185.698 143.064 185.972 136.02 190.912 131.625C191.061 131.493 191.079 131.22 190.844 131.41C185.999 135.317 185.07 141.918 185.983 147.736C186.529 151.219 187.579 154.643 188.87 157.918C190.083 160.996 191.52 164.2 193.487 166.878C193.647 167.097 194.219 166.481 194.102 166.258Z" fill="black"/>
<path d="M203.87 137.828C201.46 135.573 197.493 135.796 194.779 137.335C192.029 138.894 190.15 141.861 189.793 144.98C189.769 145.187 190.135 144.88 190.158 144.773C190.761 141.951 192.379 139.241 195.037 137.936C197.729 136.614 200.754 137.051 203.28 138.508C203.543 138.659 204.102 138.045 203.87 137.828Z" fill="black"/>
<path d="M147.907 151.07C144.113 151.608 140.609 154.226 139.461 157.937C139.402 158.127 139.68 157.902 139.713 157.819C141.225 154 145.097 151.171 149.267 151.314C151.136 151.378 152.969 151.973 154.594 152.884C156.258 153.817 157.477 155.119 158.725 156.531C158.806 156.623 159.066 156.331 159.014 156.236C156.945 152.417 152.079 150.478 147.907 151.07Z" fill="black"/>
<path d="M136.767 193.52C136.777 194.577 137.197 195.608 137.838 196.448C138.551 197.383 139.578 198.118 140.739 198.303C141.9 198.488 143.185 198.053 143.856 197.088C144.382 196.332 144.489 195.343 144.32 194.437C144.151 193.532 143.731 192.693 143.272 191.895C142.737 190.964 141.866 189.768 140.656 189.808C139.444 189.848 138.089 190.353 137.396 191.378C136.974 192.003 136.76 192.767 136.767 193.52Z" fill="black"/>
<mask id="mask0_675_912" style="mask-type:luminance" maskUnits="userSpaceOnUse" x="139" y="155" width="25" height="28">
<path d="M163.907 177.991C163.907 177.991 152.636 185.436 142.089 180.783C135.678 166.203 141.158 157.621 146.328 155.863C151.498 154.105 159.563 157.517 162.045 164.652C164.528 171.787 163.907 177.991 163.907 177.991Z" fill="white"/>
</mask>
<g mask="url(#mask0_675_912)">
<path d="M165.138 169.385C166.076 175.179 162.058 180.474 156.165 181.213C150.272 181.952 144.734 177.854 143.797 172.06C142.86 166.266 146.877 160.971 152.77 160.232C158.663 159.494 164.2 163.592 165.138 169.385Z" fill="white"/>
<path d="M154.795 181.499C149.346 181.499 144.478 177.522 143.599 172.093C143.14 169.26 143.824 166.451 145.523 164.181C147.251 161.874 149.816 160.401 152.745 160.034C158.741 159.281 164.383 163.465 165.336 169.354C165.794 172.187 165.111 174.997 163.411 177.267C161.683 179.574 159.119 181.047 156.19 181.413C155.722 181.471 155.256 181.499 154.795 181.499ZM154.142 160.347C153.696 160.347 153.247 160.375 152.795 160.431C149.975 160.785 147.506 162.202 145.844 164.421C144.21 166.602 143.554 169.304 143.995 172.028C144.914 177.707 150.368 181.735 156.14 181.014C158.96 180.66 161.428 179.244 163.09 177.025C164.724 174.843 165.38 172.141 164.94 169.417C164.093 164.182 159.397 160.347 154.142 160.347Z" fill="black"/>
<path d="M162.885 169.668C163.625 174.238 160.456 178.415 155.807 178.998C151.159 179.581 146.79 176.348 146.051 171.778C145.311 167.208 148.48 163.031 153.129 162.448C157.778 161.865 162.146 165.098 162.885 169.668Z" fill="black"/>
<path d="M153.659 167.597C152.595 169.543 150.128 170.441 148.148 169.603C146.168 168.765 145.426 166.508 146.489 164.561C147.553 162.615 150.02 161.716 152 162.554C153.98 163.393 154.723 165.65 153.659 167.597Z" fill="white"/>
<path d="M162.074 167.25C161.628 168.065 160.595 168.441 159.766 168.09C158.937 167.739 158.626 166.794 159.071 165.978C159.517 165.163 160.55 164.786 161.379 165.138C162.208 165.49 162.519 166.435 162.074 167.25Z" fill="white"/>
</g>
<mask id="mask1_675_912" style="mask-type:luminance" maskUnits="userSpaceOnUse" x="190" y="141" width="22" height="29">
<path d="M196.48 169.514C196.48 169.514 191.93 164.757 190.793 155.348C190.069 148.937 191.517 143.664 197.204 142.216C202.891 140.768 208.371 145.732 210.439 152.143C212.507 158.553 213.334 168.066 196.48 169.514Z" fill="white"/>
</mask>
<g mask="url(#mask1_675_912)">
<path d="M208.914 156.566C209.852 162.36 205.835 167.655 199.941 168.394C194.048 169.133 188.51 165.035 187.572 159.241C186.634 153.447 190.652 148.152 196.545 147.413C202.438 146.675 207.976 150.773 208.914 156.566Z" fill="white"/>
<path d="M198.57 168.68C193.122 168.68 188.253 164.703 187.374 159.274C186.916 156.441 187.599 153.631 189.298 151.362C191.026 149.055 193.591 147.582 196.52 147.215C202.516 146.462 208.158 150.645 209.111 156.534C209.569 159.367 208.886 162.177 207.186 164.447C205.458 166.754 202.894 168.226 199.965 168.593C199.498 168.652 199.031 168.68 198.57 168.68ZM197.917 147.528C197.471 147.528 197.022 147.556 196.57 147.613C193.75 147.967 191.281 149.384 189.619 151.603C187.985 153.785 187.329 156.487 187.77 159.21C188.689 164.889 194.143 168.917 199.915 168.196C202.735 167.842 205.203 166.426 206.865 164.207C208.499 162.025 209.155 159.324 208.715 156.599C207.869 151.363 203.172 147.528 197.917 147.528Z" fill="black"/>
<path d="M206.66 156.848C207.4 161.418 204.231 165.595 199.582 166.178C194.934 166.761 190.565 163.528 189.826 158.958C189.086 154.388 192.255 150.211 196.904 149.628C201.552 149.046 205.92 152.278 206.66 156.848Z" fill="black"/>
<path d="M197.435 154.778C196.371 156.724 193.904 157.623 191.924 156.784C189.944 155.946 189.202 153.688 190.265 151.742C191.329 149.796 193.796 148.897 195.776 149.735C197.756 150.573 198.498 152.831 197.435 154.778Z" fill="white"/>
<path d="M205.85 154.431C205.404 155.246 204.371 155.622 203.542 155.271C202.713 154.92 202.402 153.974 202.847 153.159C203.293 152.344 204.326 151.968 205.155 152.319C205.985 152.671 206.296 153.616 205.85 154.431Z" fill="white"/>
</g>
<path d="M174.114 189.175C175.565 191.361 177.993 193.196 180.302 194.335C182.809 195.572 185.868 196.728 188.613 197.439C195.453 199.211 199.689 194.673 202.431 190.82C204.368 188.098 206.11 183.985 205.308 180.755C204.541 177.664 201.805 175.418 198.435 174.923C192.377 174.032 187.391 175.761 182.01 178.012C179.27 179.158 176.116 181.125 174.339 183.495C172.768 185.589 173.008 187.508 174.114 189.175Z" fill="white"/>
<path d="M191.563 198.024C190.622 198.024 189.624 197.9 188.565 197.626C185.851 196.923 182.809 195.786 180.217 194.508C177.575 193.204 175.293 191.299 173.955 189.282C172.647 187.313 172.725 185.328 174.184 183.38C175.761 181.278 178.659 179.204 181.935 177.835C187.092 175.678 192.237 173.817 198.462 174.733C201.96 175.247 204.72 177.593 205.493 180.708C206.327 184.067 204.449 188.315 202.587 190.931C200.327 194.109 196.849 198.024 191.563 198.024ZM195.219 174.879C190.461 174.879 186.278 176.435 182.084 178.189C178.867 179.533 176.028 181.56 174.491 183.611C173.139 185.413 173.066 187.251 174.274 189.069C175.576 191.032 177.804 192.888 180.386 194.163C182.956 195.431 185.972 196.557 188.661 197.254C195.438 199.009 199.676 194.36 202.274 190.71C204.089 188.159 205.923 184.035 205.122 180.802C204.386 177.838 201.751 175.605 198.407 175.113C197.314 174.952 196.252 174.879 195.219 174.879Z" fill="black"/>
<path d="M205.188 184.937C203.506 184.588 201.487 185.25 200.135 186.101C199.427 186.547 198.736 187.128 198.434 187.883C198.154 188.583 198.135 189.393 198.419 190.085C198.691 190.749 199.274 191.277 200.033 191.451C200.666 191.596 201.355 191.42 201.946 191.19C202.059 191.146 202.161 191.087 202.271 191.04C202.323 190.968 202.379 190.894 202.43 190.822C203.588 189.195 204.671 187.072 205.188 184.937Z" fill="white"/>
<path d="M200.519 191.696C200.333 191.696 200.158 191.676 199.99 191.639C199.2 191.457 198.547 190.904 198.241 190.158C197.943 189.434 197.949 188.578 198.256 187.812C198.528 187.132 199.109 186.519 200.033 185.939C201.282 185.153 203.391 184.368 205.227 184.749C205.278 184.759 205.322 184.79 205.35 184.834C205.378 184.878 205.387 184.931 205.375 184.982C204.9 186.942 203.884 189.111 202.587 190.932L202.427 191.152C202.406 191.18 202.379 191.202 202.347 191.216C202.301 191.236 202.257 191.258 202.213 191.28C202.149 191.312 202.085 191.343 202.017 191.369C201.454 191.588 200.959 191.696 200.519 191.696ZM204.212 185.033C202.742 185.033 201.216 185.648 200.237 186.264C199.385 186.799 198.854 187.353 198.613 187.954C198.342 188.629 198.336 189.379 198.597 190.012C198.856 190.643 199.409 191.111 200.076 191.264C200.563 191.376 201.153 191.293 201.877 191.011C201.934 190.989 201.989 190.962 202.043 190.935C202.077 190.918 202.111 190.901 202.146 190.886L202.273 190.711C203.5 188.989 204.468 186.952 204.951 185.09C204.709 185.051 204.462 185.033 204.212 185.033Z" fill="black"/>
<path d="M187.639 190.857C187.082 190 186.022 189.446 184.974 189.253C183.016 188.892 180.868 189.531 179.276 190.621C178.511 191.145 177.89 191.814 177.427 192.562C178.354 193.256 179.337 193.86 180.302 194.336C181.121 194.74 182.001 195.133 182.907 195.507C184.324 194.801 185.852 194.194 187.054 193.203C187.842 192.553 188.217 191.748 187.639 190.857Z" fill="white"/>
<path d="M182.906 195.698C182.881 195.698 182.857 195.694 182.832 195.684C181.883 195.292 181.002 194.896 180.216 194.508C179.236 194.025 178.231 193.404 177.31 192.714C177.23 192.654 177.21 192.544 177.261 192.459C177.757 191.66 178.398 190.987 179.165 190.461C180.949 189.24 183.13 188.718 185.006 189.063C186.212 189.285 187.255 189.916 187.798 190.75C188.366 191.626 188.144 192.55 187.174 193.35C186.217 194.138 185.055 194.69 183.931 195.224C183.615 195.374 183.3 195.523 182.99 195.678C182.964 195.691 182.935 195.698 182.906 195.698ZM177.684 192.513C178.547 193.147 179.478 193.715 180.386 194.163C181.143 194.536 181.988 194.917 182.899 195.295C183.186 195.153 183.477 195.015 183.769 194.877C184.872 194.354 186.012 193.812 186.932 193.054C187.755 192.375 187.939 191.671 187.478 190.961C186.992 190.213 186.043 189.644 184.939 189.442C183.163 189.114 181.087 189.614 179.385 190.779C178.708 191.241 178.137 191.824 177.684 192.513Z" fill="black"/>
</svg>
