<svg width="340" height="460" viewBox="0 0 340 460" fill="none" xmlns="http://www.w3.org/2000/svg">
<rect width="340" height="460" fill="white"/>
<path d="M189.856 113.318C189.856 113.318 197.706 101.63 205.557 101.106C213.407 100.583 221.258 117.33 235.388 123.087C249.519 128.844 256.671 131.286 256.846 142.626C257.02 153.966 234.516 180.657 232.771 187.286C227.014 179.087 225.618 169.317 225.618 165.828C225.269 163.386 214.627 160.769 211.836 156.582C209.046 152.395 203.812 122.215 189.856 113.318Z" fill="white"/>
<path d="M232.771 187.477C232.709 187.477 232.65 187.447 232.613 187.395C226.717 178.998 225.426 168.979 225.426 165.827C225.278 164.801 222.744 163.574 220.061 162.274C216.835 160.711 213.178 158.94 211.676 156.687C210.914 155.544 210.013 152.629 208.766 148.596C205.455 137.884 199.914 119.956 189.752 113.478C189.708 113.45 189.678 113.406 189.667 113.355C189.657 113.305 189.667 113.252 189.695 113.209C189.715 113.18 191.702 110.238 194.624 107.272C197.334 104.522 201.427 101.187 205.543 100.914C209.537 100.65 213.543 104.765 218.182 109.533C222.969 114.453 228.395 120.03 235.459 122.908L237.094 123.573C250.26 128.919 256.869 131.602 257.038 142.622C257.149 149.816 248.317 162.974 241.221 173.546C237.129 179.642 233.596 184.906 232.957 187.333C232.937 187.406 232.878 187.46 232.805 187.473C232.794 187.476 232.782 187.477 232.771 187.477ZM190.127 113.262C200.3 119.904 205.826 137.779 209.134 148.483C210.325 152.335 211.265 155.377 211.997 156.475C213.44 158.64 217.048 160.387 220.23 161.929C223.247 163.391 225.63 164.545 225.809 165.8C225.811 168.904 227.057 178.602 232.703 186.849C233.591 184.225 236.993 179.156 240.902 173.332C247.968 162.804 256.763 149.702 256.654 142.627C256.488 131.86 249.959 129.209 236.951 123.927L235.315 123.262C228.177 120.354 222.721 114.746 217.908 109.799C213.471 105.24 209.622 101.283 205.912 101.283C205.797 101.283 205.683 101.287 205.569 101.294C198.403 101.775 191.109 111.857 190.127 113.262Z" fill="black"/>
<path d="M219.164 125.354C212.754 112.667 200.219 115.518 194.688 117.553C205.081 129.346 209.394 152.917 211.837 156.581C214.628 160.768 225.27 163.385 225.619 165.827C225.619 166.34 225.654 167.003 225.724 167.763C225.517 160.964 227.002 140.867 219.164 125.354Z" fill="white"/>
<path d="M225.725 167.955C225.626 167.955 225.543 167.88 225.534 167.78C225.465 167.026 225.428 166.351 225.428 165.827C225.28 164.801 222.746 163.574 220.063 162.274C216.837 160.711 213.18 158.94 211.678 156.687C210.916 155.544 210.015 152.629 208.769 148.597C205.967 139.533 201.733 125.836 194.546 117.68C194.504 117.633 194.488 117.568 194.504 117.506C194.52 117.445 194.564 117.395 194.624 117.373C199.879 115.439 212.804 112.341 219.336 125.267C226.03 138.514 225.946 155.032 225.901 163.907C225.894 165.432 225.887 166.749 225.918 167.757C225.921 167.861 225.841 167.948 225.738 167.955C225.732 167.955 225.729 167.955 225.725 167.955ZM195.019 117.638C202.147 125.878 206.348 139.466 209.136 148.484C210.326 152.335 211.267 155.377 211.998 156.475C213.441 158.64 217.049 160.387 220.231 161.929C222.708 163.129 224.758 164.122 225.512 165.134C225.513 164.743 225.515 164.332 225.517 163.906C225.562 155.064 225.646 138.606 218.994 125.441C212.704 112.996 200.331 115.738 195.019 117.638Z" fill="black"/>
<path d="M126.36 181.194C126.635 182.774 126.936 184.382 126.713 185.97C126.49 187.558 125.638 189.153 124.181 189.824C122.401 190.643 120.205 189.836 118.867 188.404C117.53 186.972 116.873 185.047 116.326 183.166C114.064 175.39 113.05 167.153 114.299 159.152C114.899 155.304 116.043 151.532 117.742 148.025C118.608 146.239 119.617 144.521 120.773 142.907C121.35 142.101 123.288 138.857 124.483 139.045C125.546 139.213 124.622 143.525 124.548 144.538C124.378 146.858 124.261 149.182 124.199 151.507C124.075 156.157 124.167 160.814 124.474 165.456C124.826 170.73 125.454 175.986 126.36 181.194Z" fill="white"/>
<path d="M122.637 190.35C121.127 190.35 119.655 189.528 118.728 188.536C117.336 187.046 116.664 185.011 116.143 183.22C113.642 174.618 112.958 166.511 114.111 159.124C114.728 155.169 115.893 151.407 117.571 147.942C118.457 146.115 119.482 144.383 120.619 142.796C120.703 142.678 120.816 142.509 120.952 142.306C122.124 140.549 123.475 138.69 124.514 138.857C125.465 139.007 125.225 141.173 124.87 143.572C124.809 143.989 124.755 144.35 124.74 144.553C124.571 146.859 124.454 149.2 124.392 151.513C124.268 156.135 124.36 160.822 124.666 165.444C125.015 170.701 125.648 175.989 126.548 181.163L126.58 181.343C126.846 182.867 127.121 184.441 126.903 185.999C126.644 187.836 125.632 189.369 124.261 190C123.731 190.242 123.182 190.35 122.637 190.35ZM124.376 139.229C123.467 139.229 121.936 141.523 121.272 142.518C121.133 142.725 121.018 142.898 120.932 143.018C119.808 144.587 118.793 146.301 117.917 148.108C116.255 151.538 115.102 155.264 114.491 159.18C113.346 166.512 114.026 174.563 116.513 183.111C117.021 184.859 117.675 186.843 119.01 188.271C120.181 189.525 122.275 190.492 124.103 189.648C125.601 188.959 126.336 187.282 126.524 185.942C126.735 184.445 126.465 182.9 126.204 181.406L126.172 181.226C125.27 176.039 124.635 170.737 124.285 165.467C123.978 160.833 123.885 156.134 124.009 151.5C124.071 149.182 124.189 146.834 124.358 144.522C124.374 144.305 124.426 143.955 124.491 143.513C124.66 142.371 125.108 139.337 124.454 139.234C124.429 139.231 124.403 139.229 124.376 139.229Z" fill="black"/>
<path d="M126.131 132.068C126.131 132.068 134.38 116.783 154.032 111.446C173.684 106.108 194.428 106.836 205.467 125.275C213.595 138.74 212.867 147.475 214.201 154.874C215.535 162.274 220.873 168.339 230.456 169.552C227.423 171.857 222.814 170.401 222.814 170.401C222.814 170.401 228.879 174.404 221.843 184.352C214.807 194.3 212.381 195.391 208.984 204.004C205.587 212.617 200.978 221.109 190.06 222.443C179.142 223.777 167.497 217.833 159.975 215.043C152.454 212.253 133.166 208.978 132.559 200.122C131.103 201.699 131.346 203.519 131.346 203.519C131.346 203.519 127.828 202.306 130.497 199.031C128.435 199.395 125.402 199.395 122.855 197.333C126.616 197.333 129.77 189.569 127.101 181.32C124.432 173.071 114.728 152.448 126.131 132.068Z" fill="white"/>
<path d="M186.855 222.825C178.768 222.825 170.467 219.459 164.206 216.92C162.672 216.298 161.222 215.711 159.909 215.223C158.337 214.64 156.285 214.046 153.91 213.358C145.218 210.842 133.382 207.417 132.417 200.592C131.358 201.992 131.536 203.477 131.538 203.494C131.546 203.559 131.52 203.625 131.469 203.667C131.417 203.709 131.347 203.719 131.285 203.7C131.222 203.678 129.754 203.159 129.387 201.87C129.167 201.099 129.392 200.234 130.056 199.294C127.974 199.58 125.156 199.441 122.735 197.481C122.672 197.43 122.647 197.345 122.675 197.268C122.702 197.191 122.775 197.14 122.856 197.14C123.903 197.14 124.918 196.506 125.791 195.304C127.669 192.722 128.823 187.263 126.919 181.378C126.627 180.472 126.253 179.43 125.821 178.224C122.31 168.425 115.777 150.185 125.964 131.976C126.084 131.755 134.521 116.546 153.983 111.26C170.98 106.642 193.739 105.308 205.633 125.176C212.067 135.836 212.985 143.667 213.721 149.959C213.922 151.669 214.111 153.284 214.391 154.84C215.855 162.96 221.72 168.253 230.481 169.361C230.558 169.371 230.622 169.426 230.642 169.502C230.662 169.577 230.635 169.657 230.573 169.704C228.228 171.487 225.027 171.096 223.553 170.784C224.143 171.386 224.978 172.505 225.303 174.23C225.851 177.146 224.741 180.588 222.002 184.461C219.746 187.651 217.93 189.973 216.471 191.839C213.349 195.832 211.464 198.244 209.165 204.072C205.673 212.926 200.945 221.304 190.086 222.631C189.015 222.765 187.936 222.825 186.855 222.825ZM132.56 199.931C132.581 199.931 132.603 199.935 132.624 199.942C132.696 199.967 132.746 200.033 132.751 200.11C133.221 206.972 145.241 210.451 154.016 212.99C156.398 213.68 158.456 214.275 160.041 214.864C161.36 215.354 162.812 215.942 164.349 216.565C171.803 219.586 181.078 223.345 190.037 222.253C200.696 220.95 205.357 212.678 208.805 203.934C211.124 198.054 213.022 195.626 216.166 191.605C217.623 189.742 219.435 187.424 221.686 184.242C224.363 180.458 225.452 177.114 224.924 174.304C224.44 171.731 222.725 170.574 222.708 170.562C222.628 170.509 222.599 170.405 222.64 170.319C222.681 170.232 222.783 170.189 222.871 170.218C222.915 170.231 227.029 171.494 229.939 169.676C221.274 168.41 215.481 163.051 214.012 154.908C213.729 153.342 213.54 151.721 213.339 150.004C212.606 143.748 211.695 135.963 205.303 125.374C193.532 105.713 170.952 107.049 154.083 111.631C134.742 116.884 126.383 132.008 126.3 132.16C126.3 132.161 126.299 132.161 126.298 132.162C116.194 150.22 122.691 168.353 126.181 178.095C126.614 179.304 126.988 180.349 127.284 181.261C129.24 187.307 128.1 192.785 126.101 195.532C125.291 196.645 124.355 197.311 123.367 197.481C125.776 199.205 128.531 199.181 130.465 198.843C130.539 198.827 130.622 198.865 130.664 198.934C130.705 199.004 130.698 199.091 130.647 199.153C129.845 200.138 129.545 201.017 129.756 201.764C129.979 202.552 130.731 203.018 131.139 203.22C131.136 202.607 131.274 201.234 132.42 199.993C132.456 199.952 132.508 199.931 132.56 199.931Z" fill="black"/>
<path d="M196.206 169.513C196.206 169.513 191.386 164.473 190.18 154.504C189.413 147.712 190.947 142.124 196.972 140.59C202.998 139.056 208.804 144.315 210.995 151.107C213.187 157.9 214.064 167.979 196.206 169.513Z" fill="black"/>
<path d="M203.742 142.301C203.742 142.301 206.879 140.341 208 137.875C208.253 140.975 205.249 143.365 205.249 143.365L203.742 142.301Z" fill="black"/>
<path d="M206.516 144.866C206.516 144.866 209.478 143.849 210.872 142.029C210.489 144.634 207.555 146.031 207.555 146.031L206.516 144.866Z" fill="black"/>
<path d="M164.605 177.747C164.605 177.747 152.697 185.613 141.553 180.697C134.779 165.293 140.57 156.225 146.032 154.368C151.495 152.511 160.016 156.116 162.638 163.654C165.26 171.192 164.605 177.747 164.605 177.747Z" fill="black"/>
<path d="M139.543 163.732C139.543 163.732 135.922 164.486 133.407 163.48C135.369 165.894 139.191 165.542 139.191 165.542L139.543 163.732Z" fill="black"/>
<path d="M139.314 167.505C139.314 167.505 136.472 168.819 134.206 168.469C136.285 170.085 139.37 169.065 139.37 169.065L139.314 167.505Z" fill="black"/>
<path d="M117.111 123.932C112.762 123.785 108.395 125.852 105.752 129.31C102.253 133.889 101.982 140.075 100.167 145.546C96.9307 155.304 88.8867 162.526 82.5417 170.615C80.5607 173.141 78.6687 175.926 78.2717 179.112C77.5697 184.734 81.6917 189.847 86.2717 193.181C92.3527 197.608 99.5327 200.204 106.393 203.289C113.253 206.374 120.103 210.187 124.54 216.261C127.904 208.033 126.909 198.659 124.644 190.063C122.379 181.467 118.906 173.179 117.374 164.423C116.479 159.306 116.32 153.781 118.748 149.189C120.547 145.786 123.589 143.228 125.859 140.12C131.556 132.319 126.466 124.249 117.111 123.932Z" fill="white"/>
<path d="M124.541 216.452C124.48 216.452 124.423 216.423 124.386 216.373C119.799 210.094 112.677 206.323 106.315 203.463C104.851 202.805 103.346 202.158 101.892 201.532C96.5166 199.22 90.9596 196.829 86.1596 193.335C83.4426 191.358 77.2176 186.012 78.0816 179.087C78.4856 175.849 80.3916 173.044 82.3916 170.496C84.0386 168.396 85.8276 166.323 87.5576 164.317C92.4946 158.595 97.5986 152.678 99.9846 145.485C100.566 143.733 100.996 141.875 101.411 140.077C102.29 136.27 103.201 132.332 105.599 129.194C108.193 125.799 112.402 123.733 116.67 123.733C116.818 123.733 116.968 123.735 117.117 123.74C121.941 123.903 125.847 126.106 127.565 129.634C129.138 132.865 128.573 136.727 126.014 140.232C125.129 141.443 124.115 142.586 123.135 143.69C121.598 145.422 120.009 147.213 118.917 149.277C116.896 153.1 116.453 158.043 117.563 164.388C118.504 169.764 120.208 175.059 121.857 180.18C122.89 183.386 123.956 186.702 124.829 190.012C127.637 200.669 127.6 209.278 124.717 216.332C124.691 216.396 124.632 216.441 124.563 216.45C124.557 216.451 124.549 216.452 124.541 216.452ZM116.67 124.117C112.52 124.117 108.427 126.125 105.904 129.426C103.556 132.499 102.656 136.395 101.785 140.162C101.367 141.968 100.936 143.837 100.349 145.606C97.9386 152.872 92.8086 158.817 87.8476 164.567C86.1206 166.57 84.3336 168.64 82.6916 170.733C80.7266 173.238 78.8536 175.991 78.4606 179.135C77.6216 185.856 83.7216 191.087 86.3836 193.024C91.1476 196.493 96.6856 198.875 102.041 201.178C103.497 201.805 105.003 202.453 106.47 203.113C112.784 205.952 119.844 209.684 124.489 215.87C127.212 208.955 127.201 200.524 124.457 190.11C123.588 186.81 122.522 183.5 121.491 180.298C119.838 175.165 118.13 169.858 117.185 164.455C116.06 158.023 116.515 152.999 118.578 149.098C119.691 146.993 121.295 145.184 122.847 143.435C123.822 142.337 124.829 141.201 125.703 140.005C128.175 136.62 128.728 132.901 127.218 129.802C125.564 126.405 121.783 124.282 117.102 124.124C116.96 124.119 116.815 124.117 116.67 124.117Z" fill="black"/>
<path d="M188.957 207.961C188.957 207.961 195.847 211.844 199.73 202.602C198.144 202.329 196.066 202 193.933 199.485C194.152 203.094 192.621 205.993 188.957 207.961Z" fill="white"/>
<path d="M192.312 208.966C190.378 208.966 188.942 208.174 188.862 208.129C188.801 208.094 188.764 208.03 188.765 207.959C188.766 207.889 188.805 207.826 188.866 207.792C192.323 205.936 193.963 203.145 193.741 199.498C193.736 199.415 193.785 199.339 193.862 199.308C193.938 199.278 194.027 199.299 194.079 199.362C196.137 201.79 198.111 202.13 199.696 202.402L199.763 202.414C199.82 202.424 199.87 202.46 199.899 202.511C199.927 202.562 199.93 202.623 199.907 202.677C198.58 205.837 196.759 207.832 194.494 208.607C193.73 208.868 192.99 208.966 192.312 208.966ZM189.374 207.949C190.143 208.286 192.181 208.994 194.374 208.242C196.476 207.52 198.185 205.673 199.458 202.75C198.005 202.497 196.093 202.1 194.145 200.012C194.187 203.445 192.585 206.111 189.374 207.949Z" fill="black"/>
<path d="M136.741 148.373C136.741 148.373 143.318 139.646 148.44 139.583C153.562 139.52 154.448 137.623 153.246 135.978C152.045 134.334 148.819 132.373 143.065 137.306C137.31 142.239 136.741 148.373 136.741 148.373Z" fill="white"/>
<path d="M136.741 148.565C136.718 148.565 136.694 148.56 136.672 148.552C136.592 148.52 136.542 148.44 136.55 148.355C136.556 148.293 137.193 142.087 142.94 137.161C145.663 134.827 148.115 133.77 150.216 134.013C151.957 134.215 152.959 135.261 153.401 135.866C153.937 136.599 154.058 137.352 153.741 137.987C153.345 138.778 152.105 139.731 148.443 139.776C143.473 139.837 136.96 148.403 136.894 148.49C136.857 148.538 136.8 148.565 136.741 148.565ZM149.613 134.362C147.743 134.362 145.586 135.399 143.191 137.452C138.708 141.294 137.4 145.914 137.051 147.668C138.648 145.68 144.01 139.446 148.439 139.391C152.091 139.346 153.113 138.384 153.398 137.814C153.718 137.174 153.408 136.524 153.091 136.092C152.686 135.537 151.768 134.579 150.172 134.394C149.988 134.373 149.801 134.362 149.613 134.362Z" fill="black"/>
<path d="M193.414 127.581C193.414 127.581 197.333 126.372 200.719 127.242C204.105 128.113 204.154 126.274 199.945 124.146C195.736 122.017 191.334 121.05 190.173 123.565C189.011 126.082 190.511 128.307 193.414 127.581Z" fill="white"/>
<path d="M192.352 127.912C191.446 127.912 190.683 127.593 190.178 126.984C189.456 126.112 189.389 124.804 189.998 123.485C190.302 122.824 190.828 122.36 191.56 122.105C193.357 121.48 196.444 122.16 200.031 123.975C202.361 125.153 203.628 126.364 203.338 127.135C203.121 127.712 202.174 127.813 200.671 127.429C197.38 126.581 193.509 127.753 193.47 127.765C193.467 127.766 193.464 127.766 193.46 127.767C193.074 127.864 192.702 127.912 192.352 127.912ZM193.104 122.258C192.566 122.258 192.09 122.327 191.686 122.468C191.057 122.687 190.606 123.083 190.346 123.646C189.801 124.828 189.849 125.984 190.474 126.739C191.075 127.465 192.13 127.703 193.361 127.396C193.585 127.328 197.394 126.188 200.766 127.057C202.143 127.412 202.871 127.285 202.978 127C203.113 126.642 202.385 125.596 199.856 124.317C197.194 122.97 194.83 122.258 193.104 122.258Z" fill="black"/>
<path d="M163.908 177.991C163.908 177.991 152.637 185.436 142.09 180.783C135.679 166.203 141.159 157.621 146.329 155.863C151.499 154.105 159.564 157.517 162.046 164.652C164.529 171.787 163.908 177.991 163.908 177.991Z" fill="white"/>
<path d="M149.539 182.491C147.092 182.491 144.529 182.068 142.013 180.958C141.969 180.938 141.934 180.904 141.915 180.86C138.682 173.507 138.125 166.674 140.349 161.619C141.639 158.685 143.797 156.521 146.268 155.681C151.582 153.874 159.717 157.369 162.228 164.589C164.694 171.681 164.105 177.947 164.099 178.009C164.093 178.067 164.061 178.118 164.014 178.151C163.928 178.209 157.325 182.491 149.539 182.491ZM142.236 180.638C152.09 184.931 162.713 178.517 163.726 177.88C163.788 177.086 164.142 171.259 161.866 164.716C159.425 157.7 151.545 154.296 146.391 156.045C144.022 156.851 141.948 158.939 140.701 161.774C138.528 166.714 139.074 173.411 142.236 180.638Z" fill="black"/>
<path d="M196.48 169.514C196.48 169.514 191.93 164.757 190.793 155.348C190.069 148.937 191.517 143.664 197.204 142.216C202.891 140.768 208.371 145.732 210.439 152.143C212.507 158.553 213.334 168.066 196.48 169.514Z" fill="white"/>
<path d="M196.479 169.705C196.426 169.705 196.377 169.684 196.34 169.646C196.294 169.598 191.733 164.736 190.601 155.37C189.751 147.84 191.956 143.352 197.155 142.029C201.731 140.863 208.009 143.99 210.621 152.082C212.226 157.061 212.07 160.892 210.142 163.793C207.925 167.128 203.334 169.117 196.495 169.704C196.49 169.705 196.484 169.705 196.479 169.705ZM199.085 142.177C198.452 142.177 197.837 142.253 197.25 142.402C192.267 143.67 190.158 148.018 190.982 155.326C192.027 163.965 196.015 168.706 196.557 169.314C203.221 168.728 207.684 166.799 209.823 163.582C211.682 160.784 211.823 157.062 210.256 152.201C208.054 145.379 203.209 142.177 199.085 142.177Z" fill="black"/>
<path d="M148.687 116.987C148.687 116.987 143.189 108.548 148.176 101.005C147.793 105.991 149.582 110.211 149.582 110.211C149.582 110.211 153.162 99.7264 161.984 98.1924C156.231 103.945 157.893 108.548 157.893 108.548C157.893 108.548 161.601 98.3194 173.236 102.411C167.482 102.539 163.135 108.292 162.624 110.21C168.633 104.329 174.387 106.502 178.222 109.954C172.852 109.443 166.331 112.639 164.925 115.324" fill="white"/>
<path d="M148.687 117.179C148.625 117.179 148.563 117.148 148.527 117.092C148.471 117.006 143.017 108.46 148.015 100.899C148.064 100.826 148.157 100.794 148.238 100.823C148.321 100.852 148.374 100.932 148.367 101.02C148.065 104.956 149.145 108.448 149.583 109.672C150.423 107.59 154.208 99.3503 161.951 98.0043C162.035 97.9853 162.116 98.0303 162.154 98.1053C162.193 98.1793 162.179 98.2703 162.119 98.3293C157.644 102.805 157.726 106.581 157.949 107.943C158.942 105.863 163.207 98.6803 173.299 102.232C173.387 102.263 173.439 102.351 173.425 102.443C173.41 102.535 173.332 102.603 173.24 102.605C168.332 102.714 164.333 107.135 163.13 109.476C169.609 103.713 175.414 107.17 178.35 109.813C178.412 109.869 178.431 109.957 178.397 110.033C178.364 110.109 178.28 110.155 178.204 110.147C174.312 109.774 166.89 111.989 165.095 115.415C165.046 115.509 164.931 115.547 164.836 115.496C164.742 115.447 164.706 115.33 164.755 115.237C166.189 112.502 172.42 109.472 177.664 109.724C174.609 107.154 168.963 104.276 162.759 110.349C162.697 110.41 162.602 110.422 162.528 110.377C162.453 110.334 162.417 110.245 162.439 110.162C162.893 108.457 166.762 103.003 172.253 102.295C167.907 100.997 164.238 101.598 161.339 104.082C159.018 106.07 158.083 108.59 158.074 108.615C158.046 108.691 157.974 108.742 157.893 108.742C157.812 108.742 157.74 108.691 157.712 108.615C157.645 108.428 156.155 104.065 161.414 98.5033C157.246 99.4523 154.351 102.467 152.631 104.888C150.672 107.647 149.772 110.247 149.763 110.273C149.738 110.348 149.668 110.4 149.588 110.403C149.517 110.396 149.436 110.359 149.404 110.286C149.387 110.245 147.778 106.392 147.941 101.746C143.778 108.932 148.795 116.801 148.848 116.882C148.906 116.971 148.88 117.09 148.792 117.147C148.76 117.169 148.723 117.179 148.687 117.179Z" fill="black"/>
<path d="M214.429 182.809C214.336 182.637 214.221 182.46 214.079 182.323C213.94 182.188 213.744 182.096 213.568 182.02C213.228 181.872 212.829 181.845 212.463 181.873C211.619 181.938 210.845 182.407 210.383 183.116C210.331 183.197 210.233 183.386 210.355 183.451C210.474 183.514 210.652 183.353 210.717 183.274C210.742 183.243 210.768 183.212 210.795 183.183C210.806 183.171 210.805 183.171 210.81 183.166C210.814 183.163 210.817 183.162 210.833 183.148C210.84 183.142 210.882 183.107 210.888 183.101C210.908 183.086 210.928 183.072 210.949 183.058C210.965 183.047 210.981 183.037 210.997 183.027C210.971 183.043 210.97 183.046 210.993 183.036C211.02 183.027 211.047 183.017 211.074 183.009C211.144 182.986 211.212 182.959 211.282 182.935C211.3 182.929 211.302 182.928 211.308 182.926C211.314 182.925 211.315 182.925 211.333 182.921C211.37 182.912 211.407 182.904 211.444 182.897C211.513 182.884 211.582 182.875 211.652 182.87C211.722 182.864 211.769 182.863 211.817 182.864C211.777 188.737 211.397 195.674 206.572 199.742C204.358 201.609 201.332 202.584 198.473 201.848C196.162 201.254 194.195 199.575 193.269 197.379C193.147 196.942 193.008 196.51 192.844 196.087C192.794 195.958 192.515 196.236 192.549 196.352C193.085 198.169 193.264 200.045 193.189 201.926C193.003 202.89 192.718 203.801 192.091 204.689C191.075 206.129 189.536 207.119 187.929 207.785C184.983 209.006 181.669 209.42 178.498 209.311C172.262 209.097 166.092 206.875 161.236 202.78C159.734 201.514 158.343 200.252 157.089 199.896C157.191 199.876 157.293 199.857 157.394 199.837C157.597 199.796 157.772 199.62 157.867 199.444C157.917 199.351 158.028 199.07 157.836 199.044C156.782 198.905 155.608 199.276 154.816 199.989C154.087 200.645 153.502 201.651 153.803 202.654C153.87 202.878 154.289 202.429 154.28 202.284C154.254 201.897 154.336 201.544 154.514 201.201C154.592 201.051 154.664 200.947 154.769 200.83C154.775 200.824 154.817 200.78 154.833 200.762C154.853 200.744 154.891 200.709 154.896 200.704C154.931 200.673 154.968 200.643 155.005 200.614C155.016 200.607 155.046 200.585 155.06 200.575C155.129 200.527 155.206 200.497 155.279 200.457C156.781 200.988 159.01 202.424 159.01 202.424C160.305 203.465 161.465 204.639 162.823 205.606C165.36 207.413 168.235 208.776 171.236 209.605C174.248 210.437 177.408 210.757 180.525 210.534C183.72 210.306 187.108 209.585 189.836 207.837C191.298 206.9 192.553 205.655 193.401 204.133C193.981 203.091 194.557 201.657 194.405 200.39C195.452 201.577 196.902 202.418 198.493 202.756C201.335 203.359 204.319 202.223 206.52 200.449C211.71 196.268 212.323 189.175 212.357 182.96C212.388 182.969 212.421 182.972 212.451 182.983C212.525 183.009 212.596 183.04 212.668 183.073C212.698 183.087 212.728 183.1 212.758 183.114C212.763 183.117 212.818 183.146 212.824 183.149C213.078 183.296 213.333 183.493 213.52 183.72C213.585 183.799 213.757 183.766 213.83 183.736C213.952 183.686 214.055 183.608 214.148 183.515C214.289 183.37 214.549 183.032 214.429 182.809Z" fill="black"/>
<path d="M167.139 152.038C165.945 148.443 164.474 144.974 162.714 141.62C162.643 141.485 162.348 141.783 162.402 141.9C164.956 147.508 166.972 153.377 168.295 159.399C169.66 165.614 170.617 172.358 168.966 178.611C168.116 181.828 166.543 184.866 164.179 187.232C163.884 187.527 163.889 188.14 164.35 187.706C168.65 183.667 170.435 177.793 170.584 172.02C170.756 165.318 169.243 158.371 167.139 152.038Z" fill="black"/>
<path d="M194.102 166.258C192.652 163.48 191.084 160.812 189.874 157.91C188.686 155.062 187.709 152.109 187.039 149.096C185.698 143.064 185.972 136.02 190.912 131.625C191.061 131.493 191.079 131.22 190.844 131.41C185.999 135.317 185.07 141.918 185.983 147.736C186.529 151.219 187.579 154.643 188.87 157.918C190.083 160.996 191.52 164.2 193.487 166.878C193.647 167.097 194.219 166.481 194.102 166.258Z" fill="black"/>
<path d="M203.871 137.828C201.461 135.573 197.494 135.796 194.78 137.335C192.03 138.894 190.151 141.861 189.794 144.98C189.77 145.187 190.136 144.88 190.159 144.773C190.762 141.951 192.38 139.241 195.038 137.936C197.73 136.614 200.755 137.051 203.281 138.508C203.544 138.659 204.103 138.045 203.871 137.828Z" fill="black"/>
<path d="M147.907 151.07C144.113 151.608 140.609 154.226 139.461 157.937C139.402 158.127 139.68 157.902 139.713 157.819C141.225 154 145.097 151.171 149.267 151.314C151.136 151.378 152.969 151.973 154.594 152.884C156.258 153.817 157.477 155.119 158.725 156.531C158.806 156.623 159.066 156.331 159.014 156.236C156.945 152.417 152.079 150.478 147.907 151.07Z" fill="black"/>
<path d="M136.767 193.52C136.777 194.577 137.197 195.608 137.838 196.448C138.551 197.383 139.578 198.118 140.739 198.303C141.9 198.488 143.185 198.053 143.856 197.088C144.382 196.332 144.489 195.343 144.32 194.437C144.151 193.532 143.731 192.693 143.272 191.895C142.737 190.964 141.866 189.768 140.656 189.808C139.444 189.848 138.089 190.353 137.396 191.378C136.974 192.003 136.76 192.767 136.767 193.52Z" fill="black"/>
<mask id="mask0_675_393" style="mask-type:luminance" maskUnits="userSpaceOnUse" x="139" y="155" width="25" height="28">
<path d="M163.908 177.991C163.908 177.991 152.637 185.436 142.09 180.783C135.679 166.203 141.159 157.621 146.329 155.863C151.499 154.105 159.564 157.517 162.046 164.652C164.529 171.787 163.908 177.991 163.908 177.991Z" fill="white"/>
</mask>
<g mask="url(#mask0_675_393)">
<path d="M165.139 169.385C166.077 175.179 162.059 180.474 156.166 181.213C150.273 181.952 144.735 177.854 143.798 172.06C142.861 166.266 146.878 160.971 152.771 160.232C158.664 159.494 164.201 163.592 165.139 169.385Z" fill="white"/>
<path d="M154.796 181.499C149.347 181.499 144.479 177.522 143.6 172.093C143.141 169.26 143.825 166.451 145.524 164.181C147.252 161.874 149.817 160.401 152.746 160.034C158.742 159.281 164.384 163.465 165.337 169.354C165.795 172.187 165.112 174.997 163.412 177.267C161.684 179.574 159.12 181.047 156.191 181.413C155.723 181.471 155.257 181.499 154.796 181.499ZM154.143 160.347C153.697 160.347 153.248 160.375 152.796 160.431C149.976 160.785 147.507 162.202 145.845 164.421C144.211 166.602 143.555 169.304 143.996 172.028C144.915 177.707 150.369 181.735 156.141 181.014C158.961 180.66 161.429 179.244 163.091 177.025C164.725 174.843 165.381 172.141 164.941 169.417C164.094 164.182 159.398 160.347 154.143 160.347Z" fill="black"/>
<path d="M162.885 169.668C163.625 174.238 160.456 178.415 155.807 178.998C151.159 179.581 146.79 176.348 146.051 171.778C145.311 167.208 148.48 163.031 153.129 162.448C157.778 161.865 162.146 165.098 162.885 169.668Z" fill="black"/>
<path d="M153.66 167.597C152.596 169.543 150.129 170.441 148.149 169.603C146.169 168.765 145.427 166.508 146.49 164.561C147.554 162.615 150.021 161.716 152.001 162.554C153.981 163.393 154.724 165.65 153.66 167.597Z" fill="white"/>
<path d="M162.075 167.25C161.629 168.065 160.596 168.441 159.767 168.09C158.938 167.739 158.627 166.794 159.072 165.978C159.518 165.163 160.551 164.786 161.38 165.138C162.209 165.49 162.52 166.435 162.075 167.25Z" fill="white"/>
</g>
<mask id="mask1_675_393" style="mask-type:luminance" maskUnits="userSpaceOnUse" x="190" y="141" width="22" height="29">
<path d="M196.48 169.514C196.48 169.514 191.93 164.757 190.793 155.348C190.069 148.937 191.517 143.664 197.204 142.216C202.891 140.768 208.371 145.732 210.439 152.143C212.507 158.553 213.334 168.066 196.48 169.514Z" fill="white"/>
</mask>
<g mask="url(#mask1_675_393)">
<path d="M208.915 156.566C209.853 162.36 205.836 167.655 199.942 168.394C194.049 169.133 188.511 165.035 187.573 159.241C186.635 153.447 190.653 148.152 196.546 147.413C202.439 146.675 207.977 150.773 208.915 156.566Z" fill="white"/>
<path d="M198.571 168.68C193.123 168.68 188.254 164.703 187.375 159.274C186.917 156.441 187.6 153.631 189.299 151.362C191.027 149.055 193.592 147.582 196.521 147.215C202.517 146.462 208.159 150.645 209.112 156.534C209.57 159.367 208.887 162.177 207.187 164.447C205.459 166.754 202.895 168.226 199.966 168.593C199.499 168.652 199.032 168.68 198.571 168.68ZM197.918 147.528C197.472 147.528 197.023 147.556 196.571 147.613C193.751 147.967 191.282 149.384 189.62 151.603C187.986 153.785 187.33 156.487 187.771 159.21C188.69 164.889 194.144 168.917 199.916 168.196C202.736 167.842 205.204 166.426 206.866 164.207C208.5 162.025 209.156 159.324 208.716 156.599C207.87 151.363 203.173 147.528 197.918 147.528Z" fill="black"/>
<path d="M206.661 156.848C207.401 161.418 204.232 165.595 199.583 166.178C194.935 166.761 190.566 163.528 189.827 158.958C189.087 154.388 192.256 150.211 196.905 149.628C201.553 149.046 205.921 152.278 206.661 156.848Z" fill="black"/>
<path d="M197.436 154.778C196.372 156.724 193.905 157.623 191.925 156.784C189.945 155.946 189.203 153.688 190.266 151.742C191.33 149.796 193.797 148.897 195.777 149.735C197.757 150.573 198.499 152.831 197.436 154.778Z" fill="white"/>
<path d="M205.85 154.431C205.404 155.246 204.371 155.622 203.542 155.271C202.713 154.92 202.402 153.974 202.847 153.159C203.293 152.344 204.326 151.968 205.155 152.319C205.985 152.671 206.296 153.616 205.85 154.431Z" fill="white"/>
</g>
<path d="M174.114 189.175C175.565 191.361 177.993 193.196 180.302 194.335C182.809 195.572 185.868 196.728 188.613 197.439C195.453 199.211 199.689 194.673 202.431 190.82C204.368 188.098 206.11 183.985 205.308 180.755C204.541 177.664 201.805 175.418 198.435 174.923C192.377 174.032 187.391 175.761 182.01 178.012C179.27 179.158 176.116 181.125 174.339 183.495C172.768 185.589 173.008 187.508 174.114 189.175Z" fill="white"/>
<path d="M191.563 198.024C190.622 198.024 189.624 197.9 188.565 197.626C185.851 196.923 182.809 195.786 180.217 194.508C177.575 193.204 175.293 191.299 173.955 189.282C172.647 187.313 172.725 185.328 174.184 183.38C175.761 181.278 178.659 179.204 181.935 177.835C187.092 175.678 192.237 173.817 198.462 174.733C201.96 175.247 204.72 177.593 205.493 180.708C206.327 184.067 204.449 188.315 202.587 190.931C200.327 194.109 196.849 198.024 191.563 198.024ZM195.219 174.879C190.461 174.879 186.278 176.435 182.084 178.189C178.867 179.533 176.028 181.56 174.491 183.611C173.139 185.413 173.066 187.251 174.274 189.069C175.576 191.032 177.804 192.888 180.386 194.163C182.956 195.431 185.972 196.557 188.661 197.254C195.438 199.009 199.676 194.36 202.274 190.71C204.089 188.159 205.923 184.035 205.122 180.802C204.386 177.838 201.751 175.605 198.407 175.113C197.314 174.952 196.252 174.879 195.219 174.879Z" fill="black"/>
<path d="M205.188 184.937C203.506 184.588 201.487 185.25 200.135 186.101C199.427 186.547 198.736 187.128 198.434 187.883C198.154 188.583 198.135 189.393 198.419 190.085C198.691 190.749 199.274 191.277 200.033 191.451C200.666 191.596 201.355 191.42 201.946 191.19C202.059 191.146 202.161 191.087 202.271 191.04C202.323 190.968 202.379 190.894 202.43 190.822C203.588 189.195 204.671 187.072 205.188 184.937Z" fill="white"/>
<path d="M200.518 191.696C200.332 191.696 200.157 191.676 199.989 191.639C199.199 191.457 198.546 190.904 198.24 190.158C197.942 189.434 197.948 188.578 198.255 187.812C198.527 187.132 199.108 186.519 200.032 185.939C201.281 185.153 203.39 184.368 205.226 184.749C205.277 184.759 205.321 184.79 205.349 184.834C205.377 184.878 205.386 184.931 205.374 184.982C204.899 186.942 203.883 189.111 202.586 190.932L202.426 191.152C202.405 191.18 202.378 191.202 202.346 191.216C202.3 191.236 202.256 191.258 202.212 191.28C202.148 191.312 202.084 191.343 202.016 191.369C201.453 191.588 200.958 191.696 200.518 191.696ZM204.211 185.033C202.741 185.033 201.215 185.648 200.236 186.264C199.384 186.799 198.853 187.353 198.612 187.954C198.341 188.629 198.335 189.379 198.596 190.012C198.855 190.643 199.408 191.111 200.075 191.264C200.562 191.376 201.152 191.293 201.876 191.011C201.933 190.989 201.988 190.962 202.042 190.935C202.076 190.918 202.11 190.901 202.145 190.886L202.272 190.711C203.499 188.989 204.467 186.952 204.95 185.09C204.708 185.051 204.461 185.033 204.211 185.033Z" fill="black"/>
<path d="M187.638 190.857C187.081 190 186.021 189.446 184.973 189.253C183.015 188.892 180.867 189.531 179.275 190.621C178.51 191.145 177.889 191.814 177.426 192.562C178.353 193.256 179.336 193.86 180.301 194.336C181.12 194.74 182 195.133 182.906 195.507C184.323 194.801 185.851 194.194 187.053 193.203C187.841 192.553 188.216 191.748 187.638 190.857Z" fill="white"/>
<path d="M182.906 195.698C182.881 195.698 182.857 195.694 182.832 195.684C181.883 195.292 181.002 194.896 180.216 194.508C179.236 194.025 178.231 193.404 177.31 192.714C177.23 192.654 177.21 192.544 177.261 192.459C177.757 191.66 178.398 190.987 179.165 190.461C180.949 189.24 183.13 188.718 185.006 189.063C186.212 189.285 187.255 189.916 187.798 190.75C188.366 191.626 188.144 192.55 187.174 193.35C186.217 194.138 185.055 194.69 183.931 195.224C183.615 195.374 183.3 195.523 182.99 195.678C182.964 195.691 182.935 195.698 182.906 195.698ZM177.684 192.513C178.547 193.147 179.478 193.715 180.386 194.163C181.143 194.536 181.988 194.917 182.899 195.295C183.186 195.153 183.477 195.015 183.769 194.877C184.872 194.354 186.012 193.812 186.932 193.054C187.755 192.375 187.939 191.671 187.478 190.961C186.992 190.213 186.043 189.644 184.939 189.442C183.163 189.114 181.087 189.614 179.385 190.779C178.708 191.241 178.137 191.824 177.684 192.513Z" fill="black"/>
</svg>
