<svg width="340" height="460" viewBox="0 0 340 460" fill="none" xmlns="http://www.w3.org/2000/svg">
<path d="M188.257 124.526C190.486 123.543 192.9 122.992 195.345 123.048C197.575 123.1 199.8 123.659 201.881 124.435C203.831 125.163 205.712 126.158 207.267 127.548C208.05 128.249 208.729 129.051 209.271 129.934C208.375 125.17 204.593 121.124 200.068 119.439C195.479 117.73 190.172 118.98 186.448 122.037C184.538 123.604 182.84 125.727 182.437 128.21C182.428 128.224 182.419 128.237 182.41 128.251C184.19 126.773 186.131 125.464 188.257 124.526Z" fill="#231F20"/>
<path d="M138.049 124.526C140.278 123.543 142.692 122.992 145.137 123.048C147.366 123.1 149.591 123.659 151.672 124.435C153.623 125.163 155.503 126.158 157.058 127.548C157.841 128.249 158.52 129.051 159.063 129.934C158.167 125.17 154.385 121.124 149.86 119.439C145.27 117.73 139.963 118.98 136.24 122.037C134.331 123.604 132.633 125.727 132.23 128.21C132.22 128.224 132.211 128.237 132.202 128.251C133.983 126.773 135.923 125.464 138.049 124.526Z" fill="#231F20"/>
<path d="M210.32 153.814C210.078 152.18 209.627 150.567 209.093 149.006C208.84 148.267 208.558 147.526 208.24 146.798C208.126 146.526 208.006 146.257 207.873 145.993C207.861 145.968 207.847 145.945 207.834 145.921C206.992 144.203 205.915 142.601 204.476 141.335C202.234 139.363 199.236 138.306 196.277 138.063C193.301 137.82 190.39 138.547 187.94 140.256C182.951 143.734 180.648 150.244 181.684 156.107C182.186 158.948 183.388 161.879 185.547 163.871C186.608 164.85 187.892 165.583 189.268 166.03C190.902 166.56 192.649 166.692 194.357 166.748C197.686 166.857 201.116 166.78 204.303 165.717C205.61 165.281 206.851 164.637 207.873 163.712C208.959 162.73 209.653 161.427 210.053 160.034C210.27 159.281 210.384 158.513 210.439 157.733C210.448 157.6 210.402 157.519 210.327 157.48C210.375 157.156 210.419 156.831 210.447 156.505C210.524 155.606 210.451 154.703 210.32 153.814ZM205.518 164.493C202.801 165.819 199.617 166.094 196.635 166.133C193.526 166.174 190.156 166.102 187.454 164.388C185.002 162.832 183.599 160.276 182.79 157.567C181.141 152.048 182.582 145.759 186.884 141.791C188.942 139.892 191.614 138.745 194.43 138.666C197.279 138.586 200.214 139.327 202.608 140.882C205.054 142.471 206.638 144.969 207.751 147.601C208.004 148.201 208.232 148.812 208.444 149.427C208.495 149.639 208.544 149.851 208.59 150.064C208.998 151.967 209.261 153.914 209.448 155.85C209.521 156.612 209.552 157.379 209.558 158.146C209.387 159.544 209.066 160.963 208.287 162.16C207.614 163.19 206.617 163.956 205.518 164.493Z" fill="#231F20"/>
<path d="M206.551 140.699C204 137.656 200.189 135.657 196.22 135.285C194.221 135.098 192.189 135.378 190.312 136.081C188.203 136.873 186.131 138.182 184.577 139.807C183.78 140.641 183.048 141.608 182.474 142.606C181.894 143.61 181.458 144.661 181.549 145.835C181.561 145.994 181.803 145.908 181.806 145.782C181.827 144.777 182.393 143.769 182.931 142.947C183.463 142.134 184.06 141.339 184.704 140.609C186.105 139.022 187.99 137.768 189.932 136.93C193.421 135.426 197.48 135.693 200.916 137.203C202.907 138.078 204.678 139.386 206.14 140.983C206.303 141.162 206.706 140.885 206.551 140.699Z" fill="#231F20"/>
<path d="M127.207 156.505C127.235 156.831 127.28 157.156 127.327 157.48C127.252 157.519 127.206 157.6 127.215 157.733C127.27 158.513 127.385 159.281 127.601 160.034C128.001 161.427 128.694 162.73 129.781 163.712C130.804 164.637 132.045 165.281 133.35 165.717C136.538 166.78 139.967 166.856 143.297 166.748C145.005 166.692 146.751 166.56 148.385 166.03C149.762 165.583 151.046 164.85 152.107 163.871C154.266 161.879 155.468 158.948 155.97 156.107C157.006 150.243 154.703 143.734 149.714 140.256C147.262 138.547 144.351 137.82 141.376 138.063C138.418 138.306 135.419 139.362 133.177 141.335C131.739 142.601 130.661 144.203 129.819 145.921C129.807 145.945 129.793 145.968 129.78 145.993C129.646 146.257 129.527 146.526 129.413 146.798C129.095 147.526 128.812 148.267 128.56 149.006C128.025 150.568 127.573 152.181 127.333 153.814C127.203 154.703 127.128 155.606 127.207 156.505ZM129.368 162.161C128.59 160.964 128.269 159.545 128.098 158.147C128.104 157.38 128.133 156.614 128.208 155.851C128.395 153.915 128.659 151.967 129.066 150.065C129.112 149.852 129.161 149.64 129.212 149.428C129.423 148.812 129.651 148.202 129.905 147.602C131.018 144.97 132.602 142.472 135.048 140.883C137.441 139.328 140.376 138.586 143.225 138.667C146.042 138.746 148.714 139.894 150.772 141.792C155.073 145.76 156.514 152.049 154.866 157.568C154.056 160.277 152.652 162.833 150.201 164.389C147.499 166.103 144.128 166.175 141.02 166.134C138.038 166.095 134.853 165.82 132.137 164.494C131.036 163.956 130.038 163.19 129.368 162.161Z" fill="#231F20"/>
<path d="M131.101 140.699C133.651 137.656 137.462 135.657 141.432 135.285C143.431 135.098 145.463 135.378 147.339 136.081C149.449 136.873 151.521 138.182 153.075 139.807C153.872 140.641 154.604 141.608 155.178 142.606C155.757 143.61 156.193 144.661 156.103 145.835C156.09 145.994 155.849 145.908 155.846 145.782C155.825 144.777 155.259 143.769 154.721 142.947C154.188 142.134 153.592 141.339 152.947 140.609C151.546 139.022 149.662 137.768 147.718 136.93C144.23 135.426 140.171 135.693 136.734 137.203C134.744 138.078 132.972 139.386 131.51 140.983C131.349 141.162 130.945 140.885 131.101 140.699Z" fill="#231F20"/>
<path d="M174.874 163.093C173.505 161.916 171.83 161.18 170.128 160.6C168.775 160.138 167.404 159.726 165.977 159.576C163.505 159.317 160.692 159.617 158.595 161.045C157.578 161.737 156.741 162.748 156.419 163.944C156.053 165.304 156.219 166.773 156.576 168.118C156.939 169.483 157.52 170.836 158.336 171.997C159.219 173.255 160.479 174.168 161.901 174.745C165.686 176.279 169.742 175.282 173.41 173.933C173.674 173.836 173.733 173.387 173.369 173.458C171.719 173.776 170.13 174.346 168.468 174.615C166.835 174.88 165.143 174.833 163.541 174.403C162.071 174.008 160.661 173.277 159.639 172.137C158.801 171.202 158.211 170.042 157.789 168.87C156.987 166.651 156.538 163.755 158.52 162.012C160.239 160.501 162.876 160.212 165.074 160.34C166.499 160.423 167.868 160.792 169.232 161.194C171.093 161.741 172.906 162.453 174.623 163.355C174.769 163.43 175.027 163.224 174.874 163.093Z" fill="#231F20"/>
<path d="M178.978 188.684C177.901 189.038 176.877 189.493 175.774 189.77C174.583 190.069 173.374 190.283 172.153 190.414C169.719 190.674 167.299 190.574 164.872 190.299C163.306 190.123 161.743 189.793 160.217 189.406C160.157 189.391 160.042 189.484 160.115 189.535C161.268 190.333 162.609 190.656 163.975 190.902C165.264 191.134 166.574 191.284 167.883 191.337C170.379 191.44 172.963 191.24 175.385 190.608C176.656 190.275 178.104 189.873 179.131 189.019C179.33 188.853 179.26 188.591 178.978 188.684Z" fill="#231F20"/>
<path d="M193.695 177.461C193.688 177.417 193.677 177.376 193.66 177.336C193.632 177.271 193.602 177.201 193.559 177.143C193.397 176.924 193.138 176.811 192.869 176.798C192.686 176.789 192.498 176.834 192.331 176.906C192.189 176.966 192.044 177.094 191.999 177.245C191.971 177.34 191.965 177.441 192.025 177.527C192.081 177.606 192.182 177.644 192.277 177.648C191.859 177.858 191.409 178.017 190.985 178.192C190.331 178.463 189.704 178.76 189.083 179.098C187.601 179.903 186.115 180.665 184.539 181.274C181.381 182.496 177.994 183.219 174.641 183.664C167.846 184.564 160.82 184.033 154.222 182.2C152.335 181.677 150.48 181.047 148.617 180.447C147.717 180.158 146.809 179.884 145.933 179.529C145.213 179.237 144.471 178.626 143.659 178.68C143.381 178.698 143.084 178.889 143.057 179.188C143.049 179.271 143.051 179.352 143.045 179.435C143.014 179.848 143.507 179.792 143.785 179.555C143.971 179.612 144.147 179.705 144.326 179.801C144.687 179.996 145.054 180.168 145.435 180.322C146.233 180.647 147.057 180.901 147.877 181.164C149.537 181.697 151.189 182.257 152.861 182.751C156.235 183.747 159.721 184.392 163.225 184.713C166.674 185.028 170.147 184.992 173.589 184.609C177.046 184.224 180.531 183.523 183.815 182.367C185.601 181.738 187.292 180.919 188.942 180.001C189.67 179.595 190.399 179.225 191.167 178.901C191.659 178.694 192.154 178.455 192.574 178.125C192.58 178.129 192.587 178.133 192.594 178.137C192.684 178.19 192.779 178.236 192.874 178.282C192.935 178.321 193.001 178.34 193.073 178.34C193.156 178.34 193.235 178.324 193.31 178.289C193.459 178.225 193.612 178.092 193.659 177.933C193.707 177.772 193.721 177.626 193.695 177.461Z" fill="#231F20"/>
<path d="M203.12 159.081C207.077 155.153 207.077 148.785 203.12 144.857C199.163 140.929 192.749 140.929 188.792 144.857C184.835 148.785 184.835 155.153 188.792 159.081C192.749 163.009 199.163 163.009 203.12 159.081Z" fill="#231F20"/>
<path d="M195.958 161.458C201.237 161.458 205.517 157.209 205.517 151.968C205.517 146.727 201.237 142.478 195.958 142.478C190.678 142.478 186.398 146.727 186.398 151.968C186.398 157.209 190.678 161.458 195.958 161.458Z" fill="#6B6C6F"/>
<path d="M201.703 151.968C201.703 155.118 199.131 157.671 195.958 157.671C192.786 157.671 190.214 155.118 190.214 151.968C190.214 148.819 192.786 146.266 195.958 146.266C199.131 146.266 201.703 148.819 201.703 151.968Z" fill="black"/>
<path d="M193.882 148.087C193.882 149.093 193.062 149.907 192.049 149.907C191.035 149.907 190.215 149.093 190.215 148.087C190.215 147.081 191.035 146.267 192.049 146.267C193.061 146.266 193.882 147.081 193.882 148.087Z" fill="white"/>
<path d="M150.468 159.08C154.424 155.152 154.424 148.784 150.468 144.856C146.511 140.928 140.096 140.928 136.14 144.856C132.183 148.784 132.183 155.152 136.14 159.08C140.096 163.008 146.511 163.008 150.468 159.08Z" fill="#231F20"/>
<path d="M143.305 161.458C148.585 161.458 152.865 157.209 152.865 151.968C152.865 146.727 148.585 142.478 143.305 142.478C138.026 142.478 133.746 146.727 133.746 151.968C133.746 157.209 138.026 161.458 143.305 161.458Z" fill="#6B6C6F"/>
<path d="M149.05 151.968C149.05 155.118 146.478 157.671 143.305 157.671C140.133 157.671 137.561 155.118 137.561 151.968C137.561 148.819 140.133 146.266 143.305 146.266C146.478 146.266 149.05 148.819 149.05 151.968Z" fill="black"/>
<path d="M139.395 149.907C140.407 149.907 141.228 149.092 141.228 148.087C141.228 147.082 140.407 146.267 139.395 146.267C138.382 146.267 137.561 147.082 137.561 148.087C137.561 149.092 138.382 149.907 139.395 149.907Z" fill="white"/>
<path d="M203.967 172.344C203.954 172.298 203.928 172.26 203.888 172.232C203.886 172.231 203.884 172.23 203.882 172.229C203.881 172.228 203.88 172.228 203.879 172.228C203.857 172.217 203.832 172.206 203.81 172.197C203.808 172.196 203.733 172.185 203.731 172.185C203.667 172.181 203.619 172.202 203.56 172.222C203.559 172.222 203.558 172.223 203.557 172.223C203.555 172.224 203.552 172.225 203.55 172.226C203.518 172.241 203.485 172.257 203.457 172.278C203.397 172.323 203.365 172.354 203.324 172.415C203.309 172.438 203.297 172.464 203.288 172.492C203.288 172.493 203.288 172.493 203.287 172.494C203.287 172.495 203.271 172.567 203.271 172.568C203.267 172.628 203.28 172.655 203.308 172.708C203.31 172.711 203.312 172.714 203.314 172.717C203.332 172.737 203.352 172.758 203.373 172.774C203.387 172.785 203.405 172.794 203.421 172.802C203.44 172.811 203.459 172.82 203.478 172.828C203.513 172.838 203.546 172.84 203.581 172.834C203.606 172.834 203.631 172.829 203.654 172.819C203.695 172.809 203.731 172.791 203.765 172.766C203.786 172.747 203.808 172.729 203.829 172.711C203.845 172.691 203.862 172.67 203.877 172.649C203.89 172.63 203.895 172.608 203.901 172.586C203.924 172.555 203.943 172.523 203.955 172.488C203.975 172.441 203.978 172.394 203.967 172.344Z" fill="#CBCCCE"/>
<path d="M206.184 170.414C206.183 170.412 206.182 170.409 206.181 170.407C206.172 170.386 206.162 170.363 206.152 170.342C206.151 170.341 206.15 170.339 206.149 170.338C206.147 170.335 206.145 170.331 206.143 170.328C206.127 170.31 206.11 170.291 206.09 170.276C206.09 170.276 206.089 170.276 206.089 170.275C206.088 170.275 206.024 170.245 206.023 170.245C205.998 170.241 205.972 170.238 205.947 170.234C205.919 170.237 205.891 170.239 205.863 170.242C205.862 170.242 205.862 170.242 205.861 170.242H205.86C205.858 170.243 205.777 170.268 205.775 170.269C205.774 170.269 205.774 170.27 205.773 170.27C205.743 170.283 205.714 170.299 205.688 170.318C205.688 170.318 205.687 170.318 205.687 170.319C205.685 170.32 205.616 170.379 205.614 170.381C205.572 170.425 205.54 170.474 205.519 170.531C205.51 170.557 205.503 170.587 205.502 170.615C205.502 170.616 205.502 170.617 205.502 170.618C205.502 170.619 205.502 170.619 205.502 170.62C205.504 170.643 205.506 170.667 205.508 170.691C205.517 170.711 205.527 170.732 205.537 170.752C205.553 170.769 205.569 170.785 205.585 170.8L205.586 170.801C205.587 170.801 205.587 170.802 205.588 170.802C205.593 170.805 205.598 170.807 205.602 170.81C205.629 170.829 205.66 170.84 205.693 170.841C205.71 170.845 205.726 170.84 205.741 170.84C205.742 170.84 205.742 170.841 205.743 170.841C205.779 170.852 205.813 170.854 205.849 170.847C205.876 170.847 205.901 170.842 205.924 170.831C205.966 170.821 206.004 170.803 206.039 170.777C206.06 170.758 206.082 170.739 206.104 170.721C206.12 170.7 206.137 170.679 206.154 170.657C206.175 170.626 206.188 170.593 206.193 170.556C206.203 170.524 206.203 170.492 206.194 170.458C206.192 170.445 206.189 170.429 206.184 170.414Z" fill="#CBCCCE"/>
<path d="M210.613 167.261C210.575 167.21 210.527 167.165 210.478 167.125C210.42 167.076 210.358 167.044 210.289 167.013C210.262 167.009 210.233 167.004 210.206 167C210.158 166.998 210.112 167.006 210.069 167.025C209.985 167.052 209.917 167.097 209.852 167.158C209.828 167.181 209.806 167.209 209.783 167.234C209.69 167.185 209.544 167.244 209.485 167.314C209.442 167.363 209.387 167.4 209.344 167.449C209.312 167.488 209.283 167.524 209.265 167.572C209.248 167.615 209.253 167.658 209.264 167.702C209.271 167.729 209.279 167.757 209.288 167.784C209.321 167.879 209.365 167.975 209.428 168.054C209.546 168.198 209.714 168.286 209.903 168.288C210.009 168.289 210.109 168.266 210.207 168.229C210.312 168.189 210.402 168.122 210.486 168.049C210.566 167.977 210.622 167.887 210.667 167.79C210.698 167.722 210.717 167.644 210.714 167.569C210.708 167.456 210.681 167.353 210.613 167.261Z" fill="#CBCCCE"/>
<path d="M210.966 170.424C210.682 170.424 210.416 170.925 210.793 170.925C211.077 170.925 211.342 170.424 210.966 170.424Z" fill="#CBCCCE"/>
<path d="M215.151 170.896C215.146 170.882 215.132 170.848 215.123 170.836C215.116 170.826 215.107 170.817 215.097 170.808C215.046 170.755 214.994 170.709 214.931 170.668C214.89 170.641 214.842 170.624 214.796 170.605C214.752 170.586 214.707 170.588 214.662 170.592C214.606 170.597 214.593 170.597 214.548 170.611C214.507 170.621 214.469 170.639 214.436 170.664C214.413 170.681 214.392 170.7 214.37 170.72C214.344 170.747 214.299 170.808 214.29 170.847C214.295 170.898 214.3 170.948 214.305 170.999C214.303 171.009 214.3 171.019 214.299 171.028C214.294 171.075 214.294 171.12 214.302 171.167C214.309 171.208 214.328 171.25 214.349 171.286C214.355 171.296 214.361 171.305 214.369 171.313C214.389 171.333 214.409 171.357 214.434 171.372C214.458 171.388 214.487 171.399 214.513 171.409C214.525 171.414 214.537 171.416 214.551 171.418C214.572 171.422 214.603 171.427 214.628 171.428C214.642 171.429 214.649 171.427 214.669 171.425C214.708 171.421 214.738 171.414 214.777 171.398C214.813 171.383 214.847 171.362 214.881 171.342C214.927 171.313 214.972 171.277 215.009 171.236C215.034 171.209 215.058 171.179 215.078 171.148C215.099 171.117 215.116 171.08 215.13 171.046C215.133 171.039 215.136 171.032 215.139 171.025C215.156 170.992 215.165 170.934 215.151 170.896Z" fill="#CBCCCE"/>
<path d="M217.775 168.68C217.48 168.68 217.203 169.202 217.595 169.202C217.89 169.202 218.167 168.68 217.775 168.68Z" fill="#CBCCCE"/>
<path d="M219.821 171.911C219.806 171.887 219.785 171.872 219.76 171.864C219.744 171.854 219.727 171.849 219.708 171.849C219.688 171.845 219.668 171.848 219.648 171.85C219.63 171.847 219.611 171.845 219.594 171.842C219.561 171.841 219.531 171.846 219.501 171.858C219.479 171.863 219.458 171.872 219.439 171.885C219.418 171.895 219.398 171.909 219.381 171.926C219.362 171.939 219.347 171.955 219.334 171.974C219.313 171.998 219.298 172.025 219.288 172.055C219.284 172.062 219.282 172.069 219.28 172.076L219.279 172.08L219.273 172.111C219.265 172.138 219.264 172.166 219.272 172.195L219.273 172.197C219.274 172.2 219.275 172.202 219.276 172.204C219.283 172.22 219.292 172.241 219.302 172.258C219.303 172.26 219.304 172.261 219.305 172.263C219.318 172.28 219.332 172.297 219.351 172.307C219.389 172.329 219.42 172.339 219.466 172.34H219.467L219.53 172.334H219.532H219.533C219.54 172.332 219.591 172.316 219.598 172.313L219.601 172.312L219.603 172.311C219.614 172.305 219.656 172.282 219.667 172.275L219.668 172.274C219.67 172.273 219.673 172.27 219.673 172.27C219.69 172.257 219.72 172.234 219.739 172.214L219.742 172.21C219.756 172.192 219.771 172.172 219.785 172.154C219.787 172.151 219.79 172.148 219.792 172.144C219.798 172.136 219.803 172.128 219.808 172.12C219.825 172.095 219.836 172.067 219.839 172.038C219.847 172.012 219.847 171.985 219.84 171.958C219.835 171.942 219.828 171.927 219.821 171.911Z" fill="#CBCCCE"/>
<path d="M201.214 169.66C200.849 169.66 200.508 170.302 200.992 170.302C201.357 170.302 201.698 169.66 201.214 169.66Z" fill="#CBCCCE"/>
<path d="M209.015 174.165C208.65 174.165 208.309 174.807 208.793 174.807C209.157 174.808 209.498 174.165 209.015 174.165Z" fill="#CBCCCE"/>
<path d="M216.333 163.834C216.23 163.766 216.123 163.695 216.004 163.659C215.852 163.612 215.683 163.635 215.54 163.7C215.464 163.736 215.39 163.78 215.323 163.831C215.251 163.884 215.171 163.943 215.127 164.021C215.105 164.06 215.088 164.099 215.079 164.142C215.07 164.189 215.07 164.214 215.078 164.265C215.081 164.282 215.084 164.298 215.088 164.314C215.094 164.337 215.101 164.36 215.11 164.382C215.125 164.419 215.141 164.464 215.168 164.497C215.192 164.525 215.217 164.546 215.242 164.566L215.243 164.568C215.33 164.689 215.461 164.768 215.613 164.768C215.808 164.767 215.975 164.671 216.116 164.543C216.247 164.424 216.339 164.254 216.4 164.09C216.436 164.002 216.417 163.889 216.333 163.834Z" fill="#CBCCCE"/>
<path d="M207.843 179.716C207.887 179.652 207.908 179.548 207.856 179.481C207.848 179.471 207.822 179.446 207.812 179.438L207.808 179.435C207.806 179.433 207.804 179.432 207.802 179.431C207.78 179.417 207.753 179.406 207.728 179.397C207.672 179.377 207.609 179.388 207.553 179.396C207.544 179.397 207.536 179.398 207.528 179.4C207.507 179.404 207.488 179.417 207.468 179.425C207.451 179.419 207.433 179.411 207.414 179.412C207.393 179.414 207.371 179.416 207.35 179.418C207.314 179.425 207.282 179.437 207.252 179.457C207.202 179.485 207.151 179.526 207.122 179.576C207.113 179.595 207.104 179.615 207.094 179.634C207.081 179.67 207.078 179.708 207.087 179.746C207.107 179.793 207.123 179.842 207.151 179.883C207.169 179.906 207.191 179.927 207.214 179.945C207.216 179.946 207.218 179.948 207.22 179.949C207.247 179.977 207.279 179.998 207.317 180.009C207.373 180.024 207.43 180.025 207.487 180.012C207.616 179.986 207.734 179.902 207.803 179.793C207.809 179.783 207.813 179.772 207.819 179.763C207.826 179.752 207.831 179.74 207.836 179.728C207.837 179.725 207.839 179.723 207.84 179.721L207.838 179.724C207.84 179.72 207.842 179.718 207.843 179.716Z" fill="#CBCCCE"/>
<path d="M194.212 170.004C194.146 169.903 193.991 169.875 193.882 169.906C193.793 169.932 193.703 169.958 193.619 169.998C193.499 170.057 193.411 170.119 193.313 170.207C193.178 170.326 193.094 170.487 193.024 170.648C193.002 170.71 192.998 170.773 193.012 170.836C193.029 170.897 193.062 170.945 193.115 170.982C193.118 170.984 193.121 170.985 193.124 170.987C193.141 171.074 193.162 171.16 193.187 171.248C193.228 171.387 193.379 171.429 193.509 171.402C193.856 171.332 194.154 171.107 194.296 170.784C194.409 170.526 194.36 170.235 194.212 170.004Z" fill="#CBCCCE"/>
<path d="M180.118 164.607C180.117 164.603 180.115 164.6 180.114 164.596C180.104 164.57 180.093 164.542 180.077 164.518C180.06 164.492 180.027 164.462 180.007 164.447C179.972 164.416 179.924 164.399 179.881 164.383C179.826 164.361 179.764 164.356 179.707 164.349C179.686 164.346 179.666 164.344 179.647 164.343C179.593 164.34 179.538 164.349 179.484 164.355C179.466 164.357 179.447 164.36 179.428 164.363C179.395 164.319 179.333 164.294 179.279 164.294C179.21 164.295 179.139 164.316 179.083 164.358C179.063 164.374 179.045 164.391 179.026 164.407C178.994 164.439 178.97 164.478 178.954 164.52C178.902 164.641 178.861 164.766 178.839 164.896C178.833 164.932 178.831 164.969 178.833 165.006C178.836 165.054 178.838 165.102 178.857 165.147C178.885 165.217 178.907 165.249 178.964 165.3C178.995 165.329 179.036 165.345 179.075 165.36C179.116 165.376 179.165 165.38 179.209 165.384C179.258 165.388 179.31 165.38 179.358 165.374C179.384 165.37 179.411 165.364 179.436 165.357C179.49 165.341 179.544 165.325 179.596 165.301C179.674 165.266 179.753 165.223 179.822 165.171C179.867 165.137 179.913 165.099 179.951 165.059C179.959 165.051 179.966 165.043 179.974 165.033C179.999 165.002 180.027 164.971 180.049 164.935C180.108 164.84 180.149 164.718 180.118 164.607Z" fill="#CBCCCE"/>
<path d="M183.279 165.829C183.266 165.816 183.252 165.802 183.239 165.789C183.203 165.766 183.165 165.755 183.123 165.755L183.079 165.752C183.04 165.75 183.007 165.749 182.967 165.757C182.911 165.768 182.863 165.795 182.815 165.826C182.81 165.829 182.805 165.833 182.8 165.836C182.789 165.843 182.778 165.85 182.767 165.857C182.741 165.874 182.719 165.896 182.702 165.921C182.683 165.942 182.669 165.965 182.66 165.993C182.657 166.009 182.653 166.025 182.65 166.041C182.647 166.074 182.655 166.103 182.673 166.129C182.68 166.135 182.685 166.142 182.691 166.148C182.694 166.151 182.697 166.155 182.7 166.158L182.704 166.163C182.738 166.2 182.754 166.215 182.803 166.23C182.853 166.245 182.906 166.237 182.957 166.235C182.992 166.236 183.027 166.23 183.059 166.217C183.097 166.208 183.131 166.191 183.162 166.168C183.195 166.146 183.222 166.12 183.244 166.089C183.267 166.062 183.284 166.033 183.296 165.999C183.3 165.979 183.304 165.958 183.308 165.937C183.311 165.899 183.302 165.862 183.279 165.829Z" fill="#CBCCCE"/>
<path d="M189.038 168.437C189.025 168.397 189 168.366 188.964 168.344C188.953 168.337 188.94 168.333 188.928 168.327C188.914 168.3 188.898 168.273 188.884 168.245C188.875 168.224 188.861 168.208 188.846 168.193C188.798 168.144 188.772 168.123 188.708 168.098C188.7 168.095 188.693 168.092 188.684 168.09C188.627 168.078 188.579 168.077 188.521 168.087C188.486 168.093 188.452 168.106 188.419 168.118C188.38 168.132 188.346 168.156 188.31 168.176C188.296 168.184 188.282 168.193 188.267 168.203C188.26 168.208 188.253 168.214 188.246 168.219C188.199 168.257 188.147 168.299 188.119 168.354C188.1 168.389 188.08 168.426 188.07 168.465C188.061 168.5 188.048 168.546 188.051 168.585C188.053 168.626 188.055 168.668 188.067 168.706C188.076 168.735 188.086 168.764 188.101 168.789C188.122 168.822 188.143 168.833 188.172 168.847C188.193 168.858 188.216 168.867 188.239 168.877C188.253 168.891 188.269 168.907 188.284 168.92C188.291 168.926 188.297 168.932 188.304 168.938C188.32 168.95 188.366 168.969 188.385 168.975C188.402 168.98 188.454 168.986 188.485 168.989C188.493 168.99 188.501 168.99 188.509 168.99C188.588 168.991 188.664 168.976 188.737 168.945C188.774 168.929 188.811 168.907 188.846 168.885C188.914 168.843 188.954 168.789 189.001 168.727C189.035 168.674 189.055 168.616 189.061 168.555C189.068 168.512 189.061 168.473 189.038 168.437Z" fill="#CBCCCE"/>
<path d="M186.879 171.566C186.888 171.557 186.897 171.548 186.904 171.539C186.908 171.534 186.911 171.529 186.914 171.524C187.005 171.403 187.035 171.259 186.853 171.214C186.839 171.211 186.824 171.207 186.81 171.204C186.699 171.159 186.599 171.186 186.523 171.25C186.457 171.298 186.414 171.369 186.397 171.443C186.36 171.561 186.384 171.679 186.5 171.708C186.537 171.721 186.586 171.721 186.644 171.704C186.658 171.701 186.674 171.698 186.688 171.695C186.737 171.685 186.796 171.647 186.848 171.598C186.86 171.588 186.869 171.577 186.879 171.566Z" fill="#CBCCCE"/>
<path d="M217.733 160.961C217.733 160.94 217.733 160.918 217.733 160.896C217.732 160.841 217.737 160.775 217.722 160.723C217.708 160.674 217.69 160.628 217.666 160.583C217.665 160.58 217.663 160.577 217.661 160.575L217.66 160.574C217.642 160.555 217.622 160.536 217.602 160.517C217.596 160.513 217.534 160.485 217.527 160.482C217.496 160.471 217.454 160.47 217.414 160.472C217.397 160.471 217.381 160.47 217.365 160.472C217.28 160.479 217.206 160.485 217.128 160.522C217.044 160.562 216.983 160.604 216.917 160.667C216.883 160.698 216.854 160.736 216.831 160.775V160.776C216.783 160.823 216.741 160.877 216.724 160.943C216.716 160.976 216.707 161.012 216.708 161.047C216.71 161.086 216.713 161.127 216.721 161.166C216.738 161.245 216.815 161.288 216.89 161.296C216.913 161.306 216.937 161.313 216.962 161.314C216.989 161.321 217.017 161.322 217.044 161.315C217.049 161.315 217.054 161.312 217.06 161.312C217.144 161.323 217.226 161.336 217.311 161.331L217.313 161.332C217.34 161.329 217.367 161.327 217.394 161.324C217.439 161.316 217.481 161.299 217.519 161.274C217.583 161.238 217.647 161.188 217.684 161.123L217.72 161.05C217.73 161.02 217.733 160.99 217.733 160.961Z" fill="#CBCCCE"/>
<path d="M225.529 162.681C225.519 162.645 225.498 162.616 225.466 162.594C225.44 162.574 225.414 162.555 225.388 162.535C225.382 162.53 225.376 162.526 225.37 162.521C225.33 162.49 225.284 162.476 225.234 162.475C225.195 162.474 225.174 162.479 225.143 162.488C225.135 162.491 225.125 162.493 225.117 162.496C225.073 162.506 225.033 162.524 224.995 162.55C224.967 162.569 224.942 162.592 224.923 162.62C224.901 162.643 224.886 162.669 224.877 162.699C224.865 162.733 224.862 162.768 224.87 162.805C224.871 162.812 224.871 162.819 224.872 162.826C224.874 162.854 224.876 162.866 224.898 162.899C224.932 162.947 224.986 162.963 225.039 162.98C225.072 162.99 225.106 163 225.14 163.009C225.17 163.018 225.201 163.02 225.23 163.014C225.265 163.013 225.297 163.005 225.328 162.99L225.392 162.953C225.424 162.933 225.449 162.908 225.469 162.878C225.486 162.862 225.497 162.844 225.505 162.823C225.521 162.797 225.53 162.767 225.532 162.736C225.532 162.718 225.531 162.7 225.529 162.681Z" fill="#CBCCCE"/>
<path d="M225.883 166.875C225.873 166.852 225.863 166.827 225.854 166.804C225.848 166.79 225.841 166.774 225.833 166.758C225.835 166.751 225.836 166.744 225.838 166.735C225.841 166.705 225.838 166.683 225.827 166.658C225.822 166.645 225.817 166.631 225.813 166.618V166.617C225.814 166.613 225.818 166.611 225.819 166.607C225.842 166.538 225.835 166.461 225.788 166.406C225.786 166.403 225.786 166.4 225.784 166.398C225.765 166.381 225.748 166.363 225.73 166.345C225.707 166.331 225.684 166.32 225.658 166.313C225.631 166.309 225.603 166.305 225.576 166.301C225.483 166.295 225.373 166.338 225.299 166.393C225.269 166.414 225.238 166.441 225.212 166.467C225.172 166.508 225.127 166.576 225.109 166.631C225.089 166.693 225.087 166.719 225.092 166.776C225.096 166.823 225.094 166.819 225.114 166.864C225.126 166.901 225.149 166.932 225.185 166.953C225.196 166.961 225.209 166.967 225.223 166.971C225.241 166.981 225.259 166.988 225.279 166.993C225.309 167.008 225.341 167.023 225.371 167.037C225.4 167.05 225.414 167.055 225.456 167.055C225.465 167.055 225.475 167.053 225.485 167.052C225.503 167.058 225.52 167.064 225.537 167.07C225.564 167.079 225.59 167.088 225.618 167.098L225.657 167.104C225.672 167.103 225.687 167.101 225.701 167.1C225.742 167.092 225.777 167.071 225.809 167.045C225.833 167.024 225.853 167.001 225.866 166.972C225.882 166.945 225.896 166.903 225.883 166.875Z" fill="#CBCCCE"/>
<path d="M198.248 174.426C198.248 174.392 198.244 174.358 198.241 174.323C198.24 174.315 198.239 174.307 198.237 174.3C198.23 174.275 198.216 174.25 198.203 174.227L198.202 174.225C198.173 174.182 198.127 174.154 198.077 174.139C198.05 174.131 198.021 174.129 197.993 174.127C197.929 174.123 197.863 174.143 197.805 174.167L197.802 174.168C197.741 174.196 197.676 174.236 197.631 174.286L197.571 174.363C197.556 174.39 197.541 174.42 197.531 174.446L197.53 174.449C197.521 174.476 197.517 174.506 197.512 174.535C197.511 174.538 197.511 174.542 197.511 174.545C197.511 174.559 197.514 174.576 197.515 174.588C197.516 174.602 197.517 174.618 197.519 174.633C197.52 174.638 197.521 174.642 197.522 174.647C197.523 174.652 197.525 174.658 197.526 174.663C197.535 174.691 197.548 174.727 197.563 174.747C197.59 174.785 197.64 174.823 197.688 174.831C197.691 174.832 197.693 174.832 197.696 174.832C197.699 174.832 197.701 174.833 197.704 174.833C197.728 174.836 197.754 174.84 197.779 174.844C197.793 174.846 197.787 174.844 197.818 174.84C197.859 174.839 197.899 174.829 197.936 174.81C197.962 174.796 197.988 174.781 198.014 174.767C198.048 174.745 198.068 174.722 198.094 174.696C198.119 174.672 198.133 174.658 198.157 174.617C198.163 174.608 198.166 174.597 198.172 174.588C198.182 174.576 198.195 174.567 198.204 174.553C198.23 174.516 198.244 174.473 198.248 174.426Z" fill="#CBCCCE"/>
<path d="M132.14 172.344C132.152 172.298 132.178 172.26 132.218 172.232C132.22 172.231 132.222 172.23 132.224 172.229C132.225 172.228 132.226 172.228 132.227 172.228C132.25 172.217 132.273 172.206 132.297 172.197C132.299 172.196 132.373 172.186 132.375 172.186C132.439 172.182 132.487 172.202 132.546 172.222C132.547 172.222 132.548 172.223 132.549 172.223C132.551 172.224 132.554 172.225 132.556 172.226C132.589 172.241 132.621 172.257 132.65 172.279C132.709 172.323 132.742 172.354 132.782 172.415C132.798 172.438 132.81 172.465 132.819 172.492C132.819 172.493 132.819 172.493 132.82 172.494C132.82 172.495 132.835 172.567 132.835 172.568C132.839 172.628 132.826 172.656 132.799 172.708C132.796 172.711 132.794 172.714 132.792 172.717C132.774 172.738 132.755 172.758 132.733 172.774C132.719 172.785 132.702 172.794 132.686 172.802C132.666 172.811 132.647 172.82 132.628 172.828C132.594 172.839 132.56 172.841 132.526 172.835C132.5 172.835 132.476 172.829 132.452 172.819C132.413 172.809 132.375 172.791 132.341 172.766C132.32 172.748 132.299 172.729 132.277 172.711C132.261 172.691 132.245 172.67 132.229 172.65C132.216 172.63 132.211 172.608 132.205 172.586C132.183 172.556 132.164 172.523 132.151 172.488C132.132 172.441 132.129 172.394 132.14 172.344Z" fill="#CBCCCE"/>
<path d="M129.911 170.46C129.902 170.494 129.903 170.526 129.912 170.558C129.917 170.595 129.93 170.628 129.951 170.659C129.968 170.681 129.985 170.702 130.001 170.723C130.023 170.742 130.045 170.76 130.066 170.779C130.101 170.805 130.139 170.823 130.18 170.833C130.205 170.844 130.23 170.849 130.257 170.849C130.292 170.855 130.328 170.853 130.363 170.843C130.364 170.843 130.364 170.842 130.365 170.842C130.381 170.842 130.397 170.847 130.413 170.843C130.446 170.841 130.477 170.831 130.504 170.812C130.508 170.81 130.513 170.807 130.517 170.804C130.519 170.804 130.519 170.803 130.52 170.803L130.521 170.802C130.537 170.786 130.553 170.771 130.569 170.754C130.579 170.734 130.589 170.713 130.598 170.693C130.6 170.67 130.602 170.646 130.604 170.623C130.604 170.622 130.604 170.621 130.604 170.62C130.604 170.619 130.604 170.618 130.604 170.617C130.603 170.589 130.596 170.56 130.587 170.533C130.566 170.475 130.535 170.427 130.492 170.383C130.49 170.381 130.421 170.323 130.419 170.321C130.419 170.321 130.418 170.321 130.418 170.32C130.392 170.301 130.363 170.285 130.333 170.272C130.332 170.272 130.332 170.271 130.331 170.271C130.329 170.27 130.248 170.244 130.245 170.244C130.244 170.244 130.243 170.244 130.242 170.244C130.214 170.241 130.187 170.239 130.158 170.236C130.133 170.24 130.107 170.243 130.082 170.247C130.081 170.247 130.017 170.277 130.016 170.277C130.016 170.277 130.015 170.277 130.015 170.278C129.995 170.293 129.978 170.312 129.962 170.33C129.959 170.333 129.956 170.336 129.954 170.34C129.953 170.341 129.953 170.343 129.952 170.344C129.942 170.365 129.932 170.388 129.923 170.409C129.922 170.411 129.921 170.414 129.92 170.416C129.917 170.429 129.914 170.445 129.911 170.46Z" fill="#CBCCCE"/>
<path d="M125.393 167.57C125.39 167.644 125.408 167.722 125.44 167.79C125.485 167.887 125.54 167.977 125.62 168.049C125.703 168.123 125.793 168.189 125.899 168.229C125.998 168.265 126.096 168.289 126.202 168.288C126.392 168.286 126.56 168.198 126.678 168.054C126.742 167.976 126.786 167.879 126.817 167.784C126.826 167.757 126.835 167.729 126.842 167.702C126.853 167.659 126.857 167.615 126.841 167.572C126.822 167.524 126.794 167.488 126.761 167.449C126.719 167.4 126.663 167.363 126.621 167.314C126.562 167.244 126.416 167.187 126.322 167.234C126.299 167.209 126.278 167.182 126.253 167.158C126.188 167.098 126.121 167.052 126.036 167.025C125.993 167.007 125.947 167 125.9 167.001C125.872 167.005 125.845 167.009 125.816 167.013C125.747 167.044 125.685 167.076 125.627 167.125C125.578 167.165 125.53 167.211 125.493 167.261C125.424 167.353 125.397 167.456 125.393 167.57Z" fill="#CBCCCE"/>
<path d="M125.142 170.424C125.426 170.424 125.692 170.925 125.315 170.925C125.031 170.925 124.764 170.424 125.142 170.424Z" fill="#CBCCCE"/>
<path d="M120.955 170.896C120.96 170.882 120.974 170.848 120.983 170.836C120.992 170.826 121 170.817 121.009 170.808C121.06 170.755 121.113 170.709 121.175 170.669C121.217 170.641 121.264 170.624 121.309 170.605C121.353 170.587 121.398 170.588 121.444 170.592C121.501 170.597 121.512 170.597 121.558 170.611C121.598 170.621 121.635 170.639 121.67 170.664C121.692 170.682 121.713 170.7 121.734 170.72C121.76 170.747 121.806 170.808 121.814 170.847C121.809 170.898 121.804 170.949 121.799 170.999C121.8 171.009 121.804 171.019 121.805 171.028C121.81 171.075 121.81 171.12 121.802 171.167C121.795 171.208 121.777 171.25 121.755 171.286C121.749 171.296 121.743 171.305 121.735 171.313C121.715 171.334 121.695 171.357 121.671 171.372C121.646 171.388 121.618 171.399 121.591 171.409C121.579 171.414 121.566 171.417 121.554 171.419C121.532 171.423 121.502 171.428 121.476 171.429C121.462 171.43 121.455 171.428 121.435 171.426C121.396 171.422 121.366 171.414 121.328 171.398C121.291 171.383 121.257 171.362 121.224 171.342C121.177 171.313 121.132 171.277 121.095 171.237C121.07 171.209 121.048 171.179 121.026 171.149C121.005 171.117 120.988 171.08 120.974 171.047C120.971 171.039 120.968 171.032 120.965 171.025C120.95 170.992 120.942 170.934 120.955 170.896Z" fill="#CBCCCE"/>
<path d="M118.33 168.68C118.625 168.68 118.902 169.202 118.51 169.202C118.215 169.202 117.938 168.68 118.33 168.68Z" fill="#CBCCCE"/>
<path d="M116.286 171.911C116.301 171.888 116.321 171.872 116.347 171.864C116.362 171.854 116.38 171.849 116.399 171.849C116.418 171.845 116.439 171.848 116.459 171.85C116.477 171.847 116.496 171.845 116.513 171.842C116.545 171.841 116.576 171.846 116.606 171.858C116.628 171.863 116.649 171.872 116.668 171.886C116.689 171.896 116.708 171.909 116.726 171.926C116.745 171.939 116.76 171.955 116.773 171.974C116.794 171.998 116.809 172.025 116.819 172.055C116.821 172.062 116.824 172.069 116.826 172.077C116.826 172.078 116.827 172.08 116.827 172.081L116.834 172.11C116.842 172.137 116.843 172.165 116.835 172.194C116.835 172.195 116.835 172.195 116.834 172.196C116.833 172.199 116.832 172.201 116.831 172.203C116.823 172.219 116.815 172.24 116.805 172.257C116.804 172.259 116.803 172.26 116.802 172.263C116.789 172.279 116.775 172.296 116.756 172.306C116.718 172.328 116.687 172.338 116.641 172.339H116.64C116.639 172.339 116.578 172.333 116.577 172.333C116.576 172.333 116.576 172.333 116.575 172.333C116.568 172.331 116.516 172.315 116.509 172.312C116.508 172.312 116.507 172.311 116.506 172.311C116.505 172.311 116.504 172.31 116.504 172.31C116.493 172.304 116.451 172.281 116.44 172.275C116.44 172.275 116.439 172.275 116.439 172.274C116.437 172.273 116.434 172.271 116.433 172.27C116.418 172.256 116.387 172.233 116.368 172.213C116.367 172.212 116.366 172.21 116.364 172.209C116.35 172.191 116.335 172.172 116.32 172.153C116.318 172.15 116.315 172.147 116.313 172.143C116.308 172.135 116.303 172.127 116.298 172.119C116.281 172.094 116.27 172.066 116.266 172.037C116.258 172.011 116.258 171.985 116.265 171.957C116.272 171.942 116.279 171.927 116.286 171.911Z" fill="#CBCCCE"/>
<path d="M134.892 169.66C135.256 169.66 135.598 170.303 135.114 170.303C134.749 170.303 134.408 169.66 134.892 169.66Z" fill="#CBCCCE"/>
<path d="M127.092 174.165C127.456 174.165 127.797 174.807 127.314 174.807C126.949 174.808 126.608 174.165 127.092 174.165Z" fill="#CBCCCE"/>
<path d="M119.704 164.092C119.765 164.255 119.855 164.425 119.988 164.544C120.128 164.672 120.295 164.769 120.491 164.769C120.643 164.77 120.774 164.69 120.86 164.569L120.861 164.567C120.887 164.547 120.911 164.526 120.936 164.498C120.963 164.465 120.978 164.42 120.995 164.383C121.004 164.36 121.011 164.338 121.016 164.315C121.02 164.299 121.023 164.283 121.026 164.266C121.034 164.215 121.035 164.19 121.025 164.143C121.016 164.1 121 164.06 120.977 164.022C120.934 163.944 120.852 163.886 120.782 163.832C120.715 163.781 120.64 163.737 120.564 163.701C120.421 163.637 120.252 163.613 120.101 163.66C119.982 163.696 119.875 163.767 119.772 163.835C119.689 163.889 119.67 164.002 119.704 164.092Z" fill="#CBCCCE"/>
<path d="M128.268 179.721C128.267 179.72 128.267 179.719 128.266 179.718C128.268 179.72 128.269 179.723 128.27 179.725C128.275 179.737 128.28 179.749 128.286 179.76C128.292 179.77 128.296 179.78 128.303 179.789C128.373 179.899 128.49 179.984 128.618 180.009C128.675 180.021 128.731 180.02 128.788 180.006C128.827 179.995 128.858 179.973 128.886 179.946C128.888 179.945 128.89 179.944 128.892 179.942C128.914 179.925 128.937 179.904 128.954 179.879C128.984 179.839 128.999 179.788 129.019 179.743C129.028 179.705 129.025 179.667 129.012 179.631C129.003 179.612 128.994 179.592 128.985 179.573C128.955 179.523 128.905 179.482 128.854 179.454C128.825 179.435 128.792 179.422 128.757 179.414C128.735 179.412 128.714 179.41 128.692 179.408C128.673 179.407 128.657 179.415 128.64 179.422C128.619 179.414 128.601 179.401 128.579 179.397C128.571 179.395 128.563 179.394 128.555 179.393C128.498 179.385 128.436 179.375 128.38 179.394C128.354 179.403 128.329 179.413 128.306 179.428C128.304 179.429 128.301 179.431 128.299 179.432C128.298 179.433 128.296 179.434 128.295 179.435C128.285 179.443 128.26 179.468 128.252 179.478C128.2 179.545 128.221 179.648 128.265 179.713C128.265 179.718 128.266 179.72 128.268 179.721Z" fill="#CBCCCE"/>
<path d="M141.895 170.004C141.96 169.903 142.116 169.875 142.225 169.906C142.313 169.932 142.404 169.958 142.487 169.998C142.607 170.057 142.695 170.119 142.794 170.207C142.928 170.326 143.013 170.487 143.082 170.648C143.104 170.71 143.108 170.773 143.094 170.836C143.078 170.897 143.044 170.945 142.991 170.982C142.989 170.984 142.985 170.985 142.982 170.987C142.966 171.074 142.944 171.16 142.919 171.248C142.878 171.387 142.728 171.429 142.597 171.402C142.25 171.332 141.953 171.107 141.81 170.784C141.698 170.526 141.746 170.235 141.895 170.004Z" fill="#CBCCCE"/>
<path d="M156.058 164.935C156.08 164.969 156.107 165.001 156.134 165.033C156.141 165.042 156.148 165.05 156.156 165.058C156.196 165.099 156.24 165.136 156.285 165.17C156.354 165.223 156.432 165.266 156.511 165.3C156.562 165.324 156.617 165.34 156.671 165.356C156.697 165.364 156.723 165.37 156.75 165.373C156.797 165.379 156.849 165.387 156.898 165.383C156.942 165.38 156.991 165.376 157.033 165.359C157.071 165.344 157.112 165.328 157.144 165.299C157.2 165.248 157.222 165.217 157.25 165.146C157.269 165.101 157.271 165.053 157.274 165.005C157.277 164.969 157.274 164.931 157.268 164.895C157.247 164.764 157.207 164.639 157.154 164.519C157.138 164.477 157.114 164.438 157.082 164.406C157.063 164.39 157.045 164.374 157.025 164.357C156.969 164.316 156.898 164.294 156.829 164.293C156.775 164.292 156.713 164.318 156.68 164.362C156.662 164.359 156.644 164.357 156.624 164.354C156.57 164.348 156.516 164.339 156.461 164.342C156.441 164.343 156.421 164.345 156.401 164.348C156.344 164.356 156.282 164.361 156.227 164.382C156.184 164.398 156.136 164.416 156.101 164.446C156.083 164.463 156.048 164.491 156.032 164.517C156.017 164.541 156.005 164.569 155.995 164.595C155.993 164.599 155.992 164.602 155.991 164.606C155.958 164.718 155.999 164.841 156.058 164.935Z" fill="#CBCCCE"/>
<path d="M152.828 165.829C152.841 165.816 152.855 165.802 152.868 165.788C152.904 165.766 152.942 165.755 152.985 165.755L153.029 165.752C153.068 165.75 153.101 165.749 153.141 165.757C153.197 165.768 153.245 165.795 153.293 165.826C153.298 165.829 153.303 165.833 153.308 165.836C153.318 165.843 153.33 165.85 153.341 165.857C153.367 165.874 153.389 165.896 153.406 165.921C153.425 165.942 153.439 165.965 153.448 165.993C153.451 166.009 153.455 166.025 153.458 166.041C153.461 166.074 153.453 166.103 153.435 166.129C153.428 166.135 153.423 166.142 153.417 166.148C153.414 166.151 153.411 166.155 153.408 166.158L153.404 166.162C153.37 166.2 153.354 166.215 153.305 166.23C153.255 166.245 153.202 166.237 153.152 166.235C153.116 166.236 153.081 166.23 153.049 166.217C153.011 166.208 152.977 166.191 152.946 166.168C152.913 166.146 152.886 166.12 152.864 166.089C152.841 166.062 152.824 166.033 152.812 165.999C152.808 165.979 152.804 165.958 152.8 165.937C152.796 165.899 152.805 165.862 152.828 165.829Z" fill="#CBCCCE"/>
<path d="M147.044 168.556C147.05 168.618 147.069 168.675 147.103 168.728C147.151 168.79 147.191 168.844 147.259 168.886C147.293 168.908 147.33 168.93 147.368 168.946C147.441 168.977 147.516 168.993 147.596 168.992C147.604 168.992 147.612 168.991 147.619 168.991C147.651 168.988 147.703 168.983 147.719 168.976C147.738 168.97 147.784 168.951 147.8 168.939C147.808 168.934 147.815 168.928 147.821 168.921C147.835 168.908 147.852 168.893 147.866 168.878C147.888 168.868 147.91 168.859 147.933 168.848C147.961 168.834 147.983 168.823 148.003 168.79C148.018 168.765 148.029 168.736 148.038 168.708C148.05 168.668 148.053 168.627 148.054 168.586C148.056 168.547 148.044 168.501 148.035 168.466C148.024 168.427 148.004 168.39 147.986 168.355C147.957 168.3 147.906 168.257 147.858 168.22C147.851 168.214 147.844 168.209 147.837 168.204C147.824 168.194 147.81 168.185 147.794 168.177C147.759 168.157 147.724 168.133 147.685 168.119C147.653 168.107 147.618 168.094 147.584 168.088C147.526 168.078 147.478 168.079 147.421 168.091C147.413 168.093 147.404 168.095 147.396 168.099C147.332 168.124 147.307 168.146 147.259 168.194C147.244 168.21 147.229 168.226 147.22 168.246C147.207 168.274 147.191 168.301 147.176 168.329C147.165 168.334 147.153 168.338 147.141 168.345C147.104 168.367 147.079 168.398 147.066 168.438C147.047 168.473 147.039 168.513 147.044 168.556Z" fill="#CBCCCE"/>
<path d="M149.226 171.566C149.218 171.557 149.209 171.548 149.202 171.539C149.198 171.534 149.195 171.529 149.192 171.524C149.101 171.403 149.071 171.259 149.252 171.214C149.266 171.211 149.28 171.207 149.295 171.204C149.406 171.159 149.505 171.186 149.582 171.25C149.648 171.298 149.691 171.369 149.708 171.443C149.745 171.561 149.721 171.679 149.605 171.708C149.568 171.721 149.519 171.721 149.461 171.704C149.446 171.701 149.431 171.698 149.417 171.695C149.368 171.685 149.309 171.647 149.257 171.598C149.246 171.588 149.237 171.577 149.226 171.566Z" fill="#CBCCCE"/>
<path d="M118.386 161.048L118.422 161.121C118.458 161.186 118.523 161.237 118.588 161.272C118.625 161.297 118.667 161.314 118.712 161.322C118.739 161.325 118.766 161.327 118.793 161.33L118.795 161.329C118.88 161.334 118.962 161.321 119.046 161.31C119.051 161.31 119.056 161.313 119.062 161.313C119.089 161.319 119.117 161.319 119.144 161.312C119.17 161.311 119.193 161.304 119.216 161.294C119.291 161.286 119.368 161.244 119.385 161.164C119.393 161.125 119.397 161.084 119.398 161.045C119.399 161.01 119.391 160.975 119.383 160.941C119.366 160.875 119.324 160.822 119.276 160.774V160.773C119.253 160.734 119.224 160.696 119.19 160.665C119.124 160.602 119.063 160.56 118.98 160.52C118.901 160.483 118.827 160.477 118.742 160.47C118.726 160.469 118.71 160.47 118.693 160.47C118.653 160.468 118.611 160.47 118.58 160.48C118.573 160.483 118.511 160.511 118.505 160.515C118.486 160.534 118.466 160.553 118.447 160.572L118.446 160.573C118.444 160.576 118.443 160.578 118.441 160.581C118.417 160.626 118.398 160.672 118.385 160.721C118.37 160.772 118.375 160.839 118.374 160.894C118.374 160.916 118.374 160.938 118.374 160.959C118.373 160.99 118.376 161.02 118.386 161.048Z" fill="#CBCCCE"/>
<path d="M110.578 162.682C110.588 162.645 110.608 162.616 110.64 162.595C110.666 162.574 110.692 162.555 110.718 162.535C110.724 162.53 110.73 162.526 110.737 162.521C110.776 162.491 110.822 162.476 110.872 162.475C110.912 162.474 110.932 162.479 110.964 162.488C110.972 162.492 110.981 162.494 110.989 162.497C111.033 162.507 111.074 162.524 111.111 162.55C111.14 162.569 111.164 162.593 111.184 162.62C111.205 162.643 111.22 162.669 111.229 162.699C111.242 162.733 111.245 162.768 111.237 162.805C111.235 162.812 111.235 162.819 111.234 162.826C111.231 162.854 111.23 162.867 111.208 162.899C111.173 162.947 111.12 162.964 111.067 162.98C111.034 162.99 111 163 110.967 163.009C110.936 163.018 110.907 163.02 110.876 163.014C110.841 163.013 110.809 163.005 110.778 162.99L110.714 162.953C110.683 162.933 110.657 162.908 110.637 162.879C110.622 162.862 110.609 162.844 110.601 162.823C110.586 162.797 110.577 162.767 110.575 162.736C110.575 162.718 110.577 162.7 110.578 162.682Z" fill="#CBCCCE"/>
<path d="M110.237 166.971C110.251 167 110.269 167.023 110.294 167.044C110.324 167.07 110.361 167.09 110.402 167.099C110.416 167.1 110.43 167.102 110.445 167.103L110.485 167.097C110.512 167.088 110.538 167.079 110.566 167.069C110.582 167.063 110.6 167.057 110.618 167.051C110.628 167.052 110.638 167.054 110.647 167.054C110.689 167.054 110.703 167.049 110.732 167.036C110.762 167.022 110.794 167.007 110.824 166.992C110.844 166.987 110.862 166.98 110.88 166.97C110.894 166.966 110.907 166.96 110.918 166.952C110.954 166.931 110.977 166.9 110.989 166.863C111.01 166.819 111.006 166.824 111.012 166.775C111.017 166.718 111.015 166.692 110.995 166.63C110.977 166.575 110.933 166.506 110.891 166.466C110.866 166.44 110.834 166.413 110.805 166.392C110.731 166.337 110.621 166.294 110.528 166.3C110.5 166.304 110.473 166.308 110.445 166.312C110.42 166.319 110.397 166.33 110.374 166.344C110.356 166.362 110.339 166.38 110.32 166.397C110.318 166.4 110.318 166.403 110.316 166.405C110.268 166.46 110.261 166.537 110.285 166.606C110.286 166.61 110.29 166.613 110.292 166.616C110.288 166.629 110.283 166.644 110.277 166.657C110.267 166.682 110.264 166.704 110.267 166.735C110.268 166.742 110.27 166.75 110.271 166.757C110.265 166.773 110.257 166.788 110.251 166.803C110.241 166.827 110.231 166.851 110.221 166.874C110.21 166.903 110.224 166.945 110.237 166.971Z" fill="#CBCCCE"/>
<path d="M137.903 174.556C137.911 174.57 137.924 174.579 137.936 174.591C137.941 174.601 137.944 174.611 137.95 174.621C137.974 174.66 137.989 174.675 138.013 174.699C138.039 174.725 138.058 174.747 138.092 174.77C138.118 174.784 138.144 174.799 138.17 174.814C138.208 174.832 138.246 174.842 138.288 174.843C138.32 174.846 138.313 174.848 138.328 174.847C138.352 174.844 138.379 174.84 138.402 174.836C138.405 174.836 138.407 174.835 138.41 174.835C138.413 174.835 138.415 174.834 138.418 174.834C138.466 174.827 138.517 174.788 138.544 174.75C138.558 174.73 138.571 174.694 138.58 174.666C138.582 174.661 138.583 174.655 138.585 174.65C138.586 174.645 138.587 174.641 138.588 174.636C138.59 174.621 138.591 174.604 138.592 174.591C138.593 174.579 138.595 174.562 138.596 174.548C138.596 174.545 138.596 174.541 138.595 174.538C138.591 174.509 138.586 174.48 138.577 174.452L138.576 174.449C138.565 174.423 138.551 174.393 138.536 174.366L138.476 174.289C138.432 174.238 138.366 174.199 138.305 174.171L138.302 174.17C138.244 174.147 138.178 174.126 138.114 174.13C138.086 174.132 138.057 174.134 138.03 174.142C137.982 174.158 137.935 174.185 137.906 174.228L137.905 174.23C137.892 174.254 137.88 174.278 137.872 174.303C137.87 174.31 137.868 174.319 137.867 174.326C137.863 174.361 137.86 174.395 137.86 174.43C137.862 174.473 137.877 174.516 137.903 174.556Z" fill="#CBCCCE"/>
</svg>
