<svg width="340" height="460" viewBox="0 0 340 460" fill="none" xmlns="http://www.w3.org/2000/svg">
<path d="M230.593 153.12C229.355 146.324 229.572 139.418 229.278 132.548C229.009 126.274 228.131 119.988 226.195 113.994C224.474 108.67 221.801 103.665 218.204 99.3514C214.95 95.4489 210.963 92.6389 206.505 90.2414C206.347 90.1565 206.271 90.3698 206.41 90.4486C207.703 91.1845 208.935 91.984 210.111 92.8391C207.529 91.1592 204.765 89.7451 201.873 88.5858C195.362 85.975 188.457 84.4569 181.504 83.5957C168.393 81.9724 154.272 81.7975 141.571 85.8466C136.942 87.3224 132.269 89.448 128.307 92.4115C125.328 94.333 122.625 96.5627 120.299 99.3524C116.702 103.665 114.029 108.671 112.309 113.995C110.371 119.989 109.495 126.275 109.226 132.549C108.932 139.419 109.148 146.325 107.91 153.121C106.707 159.726 105.22 166.377 105.704 173.134C106.094 178.578 107.828 183.753 111.078 188.174C117.484 196.889 128.146 202.15 138.286 205.261C145.083 207.346 152.165 208.666 159.216 209.56C160.24 209.691 161.265 209.804 162.292 209.902C164.605 210.169 166.927 210.28 169.253 210.268C171.578 210.28 173.901 210.169 176.214 209.902C177.24 209.804 178.265 209.69 179.29 209.56C186.34 208.666 193.423 207.346 200.22 205.261C210.359 202.15 221.021 196.889 227.428 188.174C230.678 183.753 232.411 178.578 232.801 173.134C233.283 166.375 231.797 159.725 230.593 153.12Z" fill="#231F20"/>
<path d="M231.198 177.539C230.096 182.483 227.571 186.906 224.086 190.58C216.537 198.537 205.631 203.049 195.155 205.688C189.081 207.218 182.832 208.322 176.601 208.969C174.168 209.222 171.711 209.391 169.252 209.437C166.792 209.391 164.335 209.222 161.903 208.969C155.671 208.322 149.421 207.218 143.348 205.688C132.871 203.049 121.966 198.537 114.417 190.58C110.932 186.907 108.407 182.484 107.305 177.539C105.855 171.026 106.739 164.337 107.917 157.857C108.503 154.635 109.185 151.437 109.509 148.175C109.831 144.922 109.917 141.654 109.989 138.388C110.131 132.037 110.379 125.727 111.731 119.497C113.603 110.868 117.571 102.972 123.657 96.884C123.698 96.9143 123.76 96.9184 123.822 96.8678C128.714 92.8208 133.895 89.5267 139.92 87.3768C145.941 85.2279 152.337 84.196 158.708 83.8159C172.027 83.0225 186.13 84.0888 198.765 88.5422C202.406 89.8259 206.077 91.3622 209.298 93.502C212.469 95.6084 215.039 98.4952 218.157 100.634C222.396 106.072 225.266 112.547 226.773 119.497C228.124 125.728 228.373 132.038 228.515 138.388C228.588 141.654 228.673 144.922 228.995 148.175C229.319 151.437 230.001 154.636 230.587 157.857C231.763 164.337 232.649 171.026 231.198 177.539Z" fill="white"/>
<path d="M188.257 124.526C190.486 123.543 192.9 122.992 195.346 123.048C197.575 123.1 199.8 123.659 201.881 124.435C203.832 125.163 205.712 126.158 207.267 127.548C208.05 128.249 208.729 129.051 209.272 129.934C208.376 125.17 204.594 121.124 200.069 119.439C195.479 117.73 190.173 118.98 186.448 122.037C184.538 123.604 182.841 125.727 182.438 128.21C182.428 128.224 182.419 128.237 182.41 128.251C184.191 126.773 186.131 125.464 188.257 124.526Z" fill="#231F20"/>
<path d="M138.049 124.526C140.278 123.543 142.692 122.992 145.137 123.048C147.366 123.1 149.591 123.659 151.672 124.435C153.623 125.163 155.503 126.158 157.058 127.548C157.841 128.249 158.52 129.051 159.063 129.934C158.167 125.17 154.385 121.124 149.86 119.439C145.27 117.73 139.963 118.98 136.24 122.037C134.331 123.604 132.633 125.727 132.23 128.21C132.22 128.224 132.211 128.237 132.202 128.251C133.983 126.773 135.923 125.464 138.049 124.526Z" fill="#231F20"/>
<path d="M210.32 153.814C210.078 152.18 209.627 150.567 209.093 149.006C208.84 148.267 208.558 147.526 208.24 146.798C208.126 146.526 208.006 146.257 207.873 145.993C207.861 145.968 207.847 145.945 207.834 145.921C206.992 144.203 205.915 142.601 204.476 141.335C202.234 139.363 199.236 138.306 196.277 138.063C193.301 137.82 190.39 138.546 187.94 140.256C182.951 143.734 180.648 150.244 181.684 156.107C182.186 158.948 183.388 161.879 185.547 163.871C186.608 164.85 187.892 165.583 189.268 166.03C190.902 166.56 192.649 166.692 194.357 166.748C197.686 166.857 201.116 166.78 204.303 165.717C205.61 165.281 206.851 164.637 207.873 163.712C208.959 162.73 209.653 161.427 210.053 160.034C210.27 159.281 210.384 158.513 210.439 157.733C210.448 157.6 210.402 157.519 210.327 157.48C210.375 157.156 210.419 156.831 210.447 156.505C210.524 155.606 210.451 154.703 210.32 153.814ZM205.518 164.493C202.801 165.819 199.617 166.094 196.635 166.133C193.526 166.173 190.156 166.102 187.454 164.387C185.002 162.832 183.599 160.276 182.79 157.567C181.141 152.048 182.582 145.759 186.884 141.791C188.942 139.892 191.614 138.745 194.43 138.666C197.279 138.586 200.214 139.327 202.608 140.882C205.054 142.471 206.638 144.969 207.751 147.601C208.004 148.201 208.232 148.812 208.444 149.427C208.495 149.639 208.544 149.851 208.59 150.064C208.998 151.967 209.261 153.914 209.448 155.85C209.521 156.612 209.552 157.379 209.558 158.146C209.387 159.544 209.066 160.963 208.287 162.16C207.614 163.19 206.617 163.956 205.518 164.493Z" fill="#231F20"/>
<path d="M206.551 140.699C204 137.656 200.189 135.657 196.22 135.285C194.221 135.098 192.189 135.378 190.312 136.081C188.203 136.873 186.131 138.182 184.577 139.807C183.78 140.641 183.048 141.608 182.474 142.606C181.894 143.61 181.458 144.661 181.549 145.835C181.561 145.994 181.803 145.908 181.806 145.781C181.827 144.777 182.393 143.769 182.931 142.947C183.463 142.134 184.06 141.339 184.704 140.609C186.105 139.022 187.99 137.768 189.932 136.93C193.421 135.426 197.48 135.693 200.916 137.203C202.907 138.077 204.678 139.386 206.14 140.983C206.303 141.162 206.706 140.885 206.551 140.699Z" fill="#231F20"/>
<path d="M127.207 156.505C127.235 156.831 127.28 157.156 127.327 157.48C127.252 157.519 127.206 157.6 127.215 157.733C127.27 158.513 127.385 159.281 127.601 160.034C128.001 161.427 128.694 162.73 129.781 163.712C130.804 164.637 132.045 165.281 133.35 165.717C136.538 166.78 139.967 166.856 143.297 166.748C145.005 166.692 146.751 166.56 148.385 166.03C149.762 165.583 151.046 164.85 152.107 163.871C154.266 161.879 155.468 158.948 155.97 156.107C157.006 150.243 154.703 143.734 149.714 140.256C147.262 138.546 144.351 137.82 141.376 138.063C138.418 138.306 135.419 139.362 133.177 141.335C131.739 142.601 130.661 144.203 129.819 145.921C129.807 145.945 129.793 145.968 129.78 145.993C129.646 146.257 129.527 146.526 129.413 146.798C129.095 147.526 128.812 148.267 128.56 149.006C128.025 150.568 127.573 152.181 127.333 153.814C127.203 154.703 127.128 155.606 127.207 156.505ZM129.368 162.161C128.59 160.964 128.269 159.545 128.098 158.147C128.104 157.38 128.133 156.614 128.208 155.851C128.395 153.915 128.659 151.967 129.066 150.065C129.112 149.852 129.161 149.64 129.212 149.428C129.423 148.812 129.651 148.202 129.905 147.602C131.018 144.97 132.602 142.472 135.048 140.883C137.441 139.328 140.376 138.586 143.225 138.667C146.042 138.746 148.714 139.894 150.772 141.792C155.073 145.76 156.514 152.049 154.866 157.568C154.056 160.277 152.652 162.833 150.201 164.388C147.499 166.103 144.128 166.175 141.02 166.134C138.038 166.095 134.853 165.82 132.137 164.494C131.036 163.956 130.038 163.19 129.368 162.161Z" fill="#231F20"/>
<path d="M131.101 140.699C133.652 137.656 137.463 135.657 141.433 135.285C143.431 135.098 145.463 135.378 147.34 136.081C149.45 136.873 151.521 138.182 153.075 139.807C153.872 140.641 154.604 141.608 155.179 142.606C155.758 143.61 156.194 144.661 156.103 145.835C156.091 145.994 155.85 145.908 155.847 145.781C155.825 144.777 155.259 143.769 154.721 142.947C154.189 142.134 153.592 141.339 152.948 140.609C151.547 139.022 149.662 137.768 147.719 136.93C144.23 135.426 140.171 135.693 136.735 137.203C134.744 138.077 132.973 139.386 131.511 140.983C131.35 141.162 130.946 140.885 131.101 140.699Z" fill="#231F20"/>
<path d="M174.875 163.093C173.506 161.916 171.831 161.18 170.128 160.6C168.775 160.138 167.405 159.726 165.977 159.576C163.505 159.316 160.692 159.617 158.596 161.045C157.579 161.737 156.742 162.748 156.42 163.944C156.053 165.304 156.219 166.773 156.577 168.118C156.939 169.483 157.521 170.836 158.336 171.996C159.22 173.255 160.479 174.168 161.902 174.745C165.686 176.279 169.742 175.282 173.411 173.933C173.675 173.836 173.734 173.387 173.369 173.458C171.72 173.776 170.13 174.345 168.469 174.615C166.836 174.88 165.143 174.833 163.542 174.403C162.072 174.008 160.662 173.277 159.639 172.137C158.801 171.202 158.212 170.042 157.789 168.87C156.987 166.651 156.538 163.755 158.52 162.012C160.239 160.501 162.876 160.212 165.074 160.34C166.5 160.423 167.868 160.792 169.232 161.193C171.094 161.741 172.907 162.453 174.623 163.354C174.769 163.43 175.028 163.224 174.875 163.093Z" fill="#231F20"/>
<path d="M245.165 151.339C241.203 149.129 236.766 148.792 232.86 151.295C231.73 152.02 230.809 152.909 230.025 153.903C229.915 153.891 229.783 153.923 229.702 154.005C229.05 154.659 228.446 155.372 227.889 156.131C228.737 158.123 229.601 160.109 230.363 162.137C231.148 164.227 231.827 166.365 232.239 168.56C232.654 170.761 232.794 173.016 232.532 175.244C232.413 176.256 232.206 177.254 231.964 178.243C231.732 179.193 231.464 180.135 231.147 181.06C230.694 182.378 230.142 183.697 229.388 184.884C232.293 186.117 235.793 185.262 238.621 184.092C245.258 181.348 250.075 175.16 251.486 168.21C252.761 161.935 251.151 154.677 245.165 151.339Z" fill="#231F20"/>
<path d="M244.095 151.947C240.286 149.958 236.056 149.782 232.541 152.491C231.563 153.245 230.712 154.145 229.954 155.127C229.358 155.754 228.825 156.442 228.325 157.15C229.031 158.801 229.732 160.455 230.364 162.136C231.149 164.226 231.828 166.364 232.24 168.559C232.654 170.76 232.795 173.015 232.533 175.243C232.414 176.255 232.206 177.253 231.965 178.242C231.733 179.192 231.465 180.134 231.148 181.059C230.806 182.051 230.407 183.042 229.91 183.979C233.192 185.474 237.361 184.018 240.326 182.399C246.1 179.249 249.945 173.154 250.732 166.708C251.434 160.956 249.529 154.785 244.095 151.947Z" fill="white"/>
<path d="M235.619 180.514C234.044 180.876 232.648 180.158 231.771 178.997C231.673 179.363 231.568 179.726 231.458 180.089C232.458 181.155 233.904 181.644 235.652 180.889C235.847 180.805 235.912 180.447 235.619 180.514Z" fill="#231F20"/>
<path d="M239.574 173.246C238.466 174.508 236.894 175.489 235.16 175.423C233.871 175.375 233.333 174.665 232.635 173.995C232.614 174.412 232.583 174.829 232.534 175.244C232.52 175.367 232.5 175.491 232.482 175.614C233.259 176.201 234.281 176.449 235.401 176.324C237.398 176.1 238.69 174.904 239.815 173.357C239.933 173.193 239.676 173.13 239.574 173.246Z" fill="#231F20"/>
<path d="M243.482 155.009C240.157 153.789 237.056 156.149 235.376 158.84C234.48 160.272 233.929 161.923 234.449 163.592C234.696 164.387 235.12 165.117 235.621 165.778C235.858 166.092 236.115 166.378 236.39 166.658C236.479 166.749 237.24 167.534 237.477 167.758C237.429 167.803 237.362 167.89 237.29 167.915C237.031 168.003 236.737 168.179 236.467 168.282C236.074 168.432 235.667 168.534 235.285 168.714C234.407 169.126 233.597 169.729 232.867 170.359C232.756 170.455 232.649 170.556 232.542 170.656C232.576 170.981 232.602 171.306 232.622 171.633C232.93 171.289 233.265 170.968 233.623 170.676C234.445 170.006 235.309 169.491 236.308 169.136C236.935 168.913 237.658 168.66 238.143 168.172C238.927 167.383 237.64 166.611 237.068 166.034C235.22 164.173 234.496 161.917 235.888 159.541C236.881 157.845 238.511 156.101 240.547 155.745C244.753 155.006 245.692 159.492 246.196 162.564C246.239 162.823 246.701 162.598 246.663 162.361C246.215 159.633 246.694 156.187 243.482 155.009Z" fill="#231F20"/>
<path d="M107.497 180.907C106.478 177.986 105.792 174.934 105.644 171.841C105.511 169.046 105.813 166.195 106.763 163.551C106.462 163.55 106.16 163.544 105.859 163.533C104.76 163.492 103.65 163.406 102.563 163.231C101.724 163.096 100.906 162.856 100.128 162.518C98.6485 161.874 97.3493 160.859 96.3332 159.617C95.312 158.368 94.5688 156.909 94.1106 155.368C93.6596 153.853 93.4875 152.258 93.5883 150.683C93.0181 150.916 92.4541 151.187 91.9002 151.496C85.9135 154.835 84.3038 162.092 85.5785 168.369C86.9897 175.319 91.8066 181.506 98.4439 184.251C101.688 185.592 105.813 186.52 108.912 184.359C108.386 183.231 107.908 182.082 107.497 180.907Z" fill="#231F20"/>
<path d="M107.497 180.907C106.478 177.986 105.792 174.934 105.644 171.841C105.511 169.045 105.813 166.194 106.763 163.551C106.462 163.55 106.161 163.546 105.859 163.534C104.761 163.493 103.65 163.407 102.563 163.232C101.724 163.097 100.906 162.857 100.128 162.519C98.6486 161.875 97.3495 160.86 96.3333 159.618C95.3121 158.369 94.5689 156.91 94.1107 155.37C93.7676 154.216 93.5854 153.017 93.5619 151.814C93.3634 151.907 93.1659 152.003 92.9704 152.105C87.5366 154.943 85.6316 161.113 86.3341 166.868C87.1211 173.314 90.9657 179.408 96.7406 182.559C99.8388 184.249 104.252 185.766 107.593 183.921C107.9 183.753 108.185 183.56 108.456 183.353C108.108 182.549 107.786 181.734 107.497 180.907Z" fill="white"/>
<path d="M94.1117 155.368C94.0781 155.256 94.0496 155.142 94.0191 155.028C93.8745 155.068 93.7299 155.112 93.5843 155.165C90.3721 156.344 90.8516 159.789 90.4046 162.514C90.366 162.751 90.8282 162.976 90.871 162.718C91.2721 160.271 91.9512 156.931 94.3357 156.044C94.2553 155.821 94.1789 155.596 94.1117 155.368Z" fill="#231F20"/>
<path d="M106.257 176.496C106.248 176.636 106.236 176.776 106.218 176.918C105.917 179.185 103.896 181.235 101.446 180.672C101.153 180.604 101.218 180.963 101.413 181.047C103.996 182.164 105.922 180.561 106.72 178.396C106.548 177.766 106.391 177.133 106.257 176.496Z" fill="#231F20"/>
<path d="M105.828 173.972C105.83 173.977 105.831 173.981 105.833 173.987C105.754 173.354 105.696 172.718 105.66 172.08C105.236 171.508 104.743 170.983 104.199 170.515C103.468 169.885 102.659 169.281 101.781 168.869C101.399 168.69 100.992 168.587 100.599 168.437C100.329 168.334 100.035 168.16 99.7764 168.071C99.7042 168.046 99.637 167.958 99.5891 167.913C99.8274 167.69 100.587 166.904 100.676 166.813C100.951 166.533 101.208 166.247 101.445 165.934C101.946 165.273 102.37 164.542 102.617 163.748C102.668 163.583 102.707 163.418 102.737 163.254C102.679 163.245 102.62 163.239 102.563 163.23C102.311 163.19 102.061 163.136 101.814 163.076C101.586 164.192 100.939 165.241 99.9994 166.188C99.4272 166.764 98.1403 167.536 98.9243 168.325C99.4089 168.813 100.132 169.067 100.759 169.29C101.758 169.644 102.623 170.16 103.444 170.829C104.304 171.53 105.04 172.393 105.545 173.36C105.513 173.363 105.48 173.369 105.452 173.384C104.052 174.114 103.733 175.511 101.907 175.578C100.174 175.643 98.6015 174.664 97.4938 173.401C97.3919 173.285 97.1343 173.349 97.2535 173.512C98.3785 175.06 99.6706 176.256 101.667 176.479C103.597 176.696 105.24 175.812 105.828 173.972Z" fill="#231F20"/>
<path d="M178.978 188.684C177.901 189.038 176.877 189.493 175.774 189.77C174.583 190.069 173.374 190.283 172.153 190.414C169.719 190.674 167.299 190.574 164.872 190.299C163.306 190.122 161.743 189.793 160.217 189.406C160.157 189.391 160.042 189.484 160.115 189.535C161.268 190.333 162.609 190.656 163.975 190.902C165.264 191.134 166.574 191.284 167.883 191.337C170.379 191.44 172.963 191.24 175.385 190.608C176.656 190.275 178.104 189.873 179.131 189.019C179.33 188.853 179.26 188.591 178.978 188.684Z" fill="#231F20"/>
<path d="M193.695 177.461C193.688 177.417 193.677 177.376 193.66 177.336C193.632 177.271 193.602 177.201 193.559 177.143C193.397 176.924 193.138 176.811 192.869 176.798C192.686 176.788 192.498 176.834 192.331 176.906C192.189 176.966 192.044 177.094 191.999 177.245C191.971 177.34 191.965 177.441 192.025 177.527C192.081 177.606 192.182 177.644 192.277 177.648C191.859 177.858 191.409 178.017 190.985 178.192C190.331 178.463 189.704 178.76 189.083 179.098C187.601 179.903 186.115 180.665 184.539 181.274C181.381 182.496 177.994 183.219 174.641 183.664C167.846 184.564 160.82 184.033 154.222 182.2C152.335 181.676 150.48 181.047 148.617 180.447C147.717 180.158 146.809 179.884 145.933 179.529C145.213 179.236 144.471 178.626 143.659 178.68C143.381 178.698 143.084 178.889 143.057 179.188C143.049 179.271 143.051 179.352 143.045 179.435C143.014 179.848 143.507 179.792 143.785 179.555C143.971 179.611 144.147 179.704 144.326 179.8C144.687 179.996 145.054 180.168 145.435 180.322C146.233 180.647 147.057 180.901 147.877 181.164C149.537 181.697 151.189 182.257 152.861 182.751C156.235 183.747 159.721 184.392 163.225 184.713C166.674 185.028 170.147 184.992 173.589 184.609C177.046 184.224 180.531 183.523 183.815 182.367C185.601 181.738 187.292 180.919 188.942 180.001C189.67 179.595 190.399 179.225 191.167 178.901C191.659 178.694 192.154 178.455 192.574 178.125C192.58 178.129 192.587 178.133 192.594 178.137C192.684 178.19 192.779 178.236 192.874 178.282C192.935 178.321 193.001 178.34 193.073 178.34C193.156 178.34 193.235 178.324 193.31 178.289C193.459 178.225 193.612 178.092 193.659 177.933C193.707 177.772 193.721 177.626 193.695 177.461Z" fill="#231F20"/>
<path d="M203.12 159.081C207.077 155.153 207.077 148.785 203.12 144.857C199.163 140.929 192.749 140.929 188.792 144.857C184.835 148.785 184.835 155.153 188.792 159.081C192.749 163.009 199.163 163.009 203.12 159.081Z" fill="#231F20"/>
<path d="M195.958 161.458C201.237 161.458 205.517 157.209 205.517 151.968C205.517 146.727 201.237 142.478 195.958 142.478C190.678 142.478 186.398 146.727 186.398 151.968C186.398 157.209 190.678 161.458 195.958 161.458Z" fill="#6B6C6F"/>
<path d="M201.703 151.968C201.703 155.118 199.131 157.671 195.958 157.671C192.786 157.671 190.214 155.118 190.214 151.968C190.214 148.819 192.786 146.266 195.958 146.266C199.131 146.266 201.703 148.819 201.703 151.968Z" fill="black"/>
<path d="M193.882 148.087C193.882 149.093 193.062 149.907 192.049 149.907C191.035 149.907 190.215 149.093 190.215 148.087C190.215 147.081 191.035 146.267 192.049 146.267C193.061 146.266 193.882 147.081 193.882 148.087Z" fill="white"/>
<path d="M150.468 159.08C154.424 155.152 154.424 148.784 150.468 144.856C146.511 140.928 140.096 140.928 136.14 144.856C132.183 148.784 132.183 155.152 136.14 159.08C140.096 163.008 146.511 163.008 150.468 159.08Z" fill="#231F20"/>
<path d="M143.305 161.458C148.585 161.458 152.865 157.209 152.865 151.968C152.865 146.727 148.585 142.478 143.305 142.478C138.026 142.478 133.746 146.727 133.746 151.968C133.746 157.209 138.026 161.458 143.305 161.458Z" fill="#6B6C6F"/>
<path d="M149.05 151.968C149.05 155.118 146.478 157.671 143.306 157.671C140.133 157.671 137.562 155.118 137.562 151.968C137.562 148.819 140.133 146.266 143.306 146.266C146.478 146.266 149.05 148.819 149.05 151.968Z" fill="black"/>
<path d="M139.395 149.907C140.408 149.907 141.229 149.092 141.229 148.087C141.229 147.082 140.408 146.267 139.395 146.267C138.382 146.267 137.562 147.082 137.562 148.087C137.562 149.092 138.382 149.907 139.395 149.907Z" fill="white"/>
<path d="M203.968 172.344C203.955 172.298 203.929 172.26 203.889 172.232C203.887 172.231 203.885 172.23 203.883 172.229C203.882 172.228 203.881 172.228 203.88 172.228C203.858 172.217 203.833 172.206 203.811 172.197C203.809 172.196 203.734 172.185 203.732 172.185C203.668 172.181 203.62 172.202 203.561 172.222C203.56 172.222 203.559 172.223 203.558 172.223C203.556 172.224 203.553 172.225 203.551 172.226C203.519 172.241 203.486 172.257 203.458 172.278C203.398 172.323 203.366 172.354 203.325 172.415C203.31 172.438 203.298 172.464 203.289 172.492C203.289 172.493 203.288 172.493 203.287 172.494C203.287 172.495 203.272 172.567 203.272 172.568C203.268 172.628 203.281 172.655 203.309 172.708C203.311 172.711 203.313 172.714 203.315 172.717C203.333 172.737 203.353 172.758 203.374 172.774C203.388 172.785 203.406 172.794 203.422 172.802C203.441 172.811 203.46 172.82 203.479 172.828C203.514 172.838 203.547 172.84 203.582 172.834C203.607 172.834 203.632 172.829 203.655 172.819C203.696 172.809 203.732 172.791 203.766 172.766C203.787 172.747 203.809 172.729 203.83 172.711C203.846 172.691 203.863 172.67 203.878 172.649C203.891 172.63 203.896 172.608 203.902 172.586C203.925 172.555 203.944 172.523 203.956 172.488C203.976 172.441 203.979 172.394 203.968 172.344Z" fill="#CBCCCE"/>
<path d="M206.185 170.414C206.184 170.412 206.183 170.409 206.182 170.407C206.173 170.386 206.163 170.363 206.153 170.342C206.151 170.341 206.151 170.339 206.15 170.338C206.148 170.335 206.146 170.331 206.144 170.328C206.128 170.31 206.111 170.291 206.091 170.276C206.091 170.276 206.09 170.276 206.09 170.275C206.089 170.275 206.025 170.245 206.024 170.245C205.999 170.241 205.973 170.238 205.948 170.234C205.92 170.237 205.892 170.239 205.864 170.242C205.863 170.242 205.863 170.242 205.862 170.242H205.861C205.859 170.243 205.778 170.268 205.776 170.269C205.775 170.269 205.775 170.27 205.774 170.27C205.744 170.283 205.715 170.299 205.689 170.318C205.689 170.318 205.688 170.318 205.688 170.319C205.686 170.32 205.617 170.379 205.615 170.381C205.573 170.425 205.541 170.474 205.52 170.531C205.511 170.557 205.504 170.587 205.503 170.615C205.503 170.616 205.503 170.617 205.503 170.618C205.503 170.619 205.503 170.619 205.503 170.62C205.505 170.643 205.507 170.667 205.509 170.691C205.518 170.711 205.528 170.732 205.538 170.752C205.554 170.769 205.57 170.785 205.586 170.8L205.587 170.801C205.588 170.801 205.588 170.802 205.589 170.802C205.594 170.805 205.599 170.807 205.603 170.81C205.63 170.829 205.661 170.84 205.694 170.841C205.711 170.845 205.727 170.84 205.742 170.84C205.743 170.84 205.743 170.841 205.744 170.841C205.78 170.852 205.814 170.854 205.85 170.847C205.877 170.847 205.902 170.842 205.925 170.831C205.967 170.821 206.005 170.803 206.039 170.777C206.061 170.758 206.083 170.739 206.105 170.721C206.121 170.7 206.138 170.679 206.155 170.657C206.176 170.626 206.189 170.593 206.194 170.556C206.204 170.524 206.204 170.492 206.195 170.458C206.193 170.445 206.19 170.429 206.185 170.414Z" fill="#CBCCCE"/>
<path d="M210.614 167.261C210.576 167.21 210.528 167.165 210.479 167.125C210.421 167.076 210.359 167.044 210.29 167.013C210.262 167.009 210.234 167.004 210.206 167C210.159 166.998 210.113 167.006 210.07 167.025C209.986 167.052 209.918 167.097 209.853 167.158C209.829 167.181 209.807 167.209 209.784 167.234C209.691 167.185 209.545 167.244 209.486 167.314C209.443 167.363 209.388 167.4 209.345 167.449C209.313 167.488 209.284 167.524 209.266 167.572C209.249 167.615 209.254 167.658 209.265 167.702C209.272 167.729 209.28 167.757 209.289 167.784C209.322 167.879 209.366 167.975 209.429 168.054C209.547 168.198 209.715 168.286 209.904 168.288C210.01 168.289 210.11 168.266 210.208 168.229C210.313 168.189 210.403 168.122 210.486 168.049C210.567 167.977 210.623 167.887 210.668 167.79C210.699 167.722 210.718 167.644 210.715 167.569C210.709 167.456 210.682 167.353 210.614 167.261Z" fill="#CBCCCE"/>
<path d="M210.967 170.424C210.683 170.424 210.417 170.925 210.794 170.925C211.078 170.925 211.343 170.424 210.967 170.424Z" fill="#CBCCCE"/>
<path d="M215.151 170.896C215.146 170.882 215.132 170.848 215.123 170.836C215.116 170.826 215.107 170.817 215.097 170.808C215.046 170.755 214.994 170.709 214.931 170.668C214.89 170.641 214.842 170.624 214.796 170.605C214.752 170.586 214.707 170.588 214.662 170.592C214.606 170.597 214.593 170.597 214.548 170.611C214.507 170.621 214.469 170.639 214.436 170.664C214.413 170.681 214.392 170.7 214.37 170.72C214.344 170.747 214.299 170.808 214.29 170.847C214.295 170.898 214.3 170.948 214.305 170.999C214.303 171.009 214.3 171.019 214.299 171.028C214.294 171.075 214.294 171.12 214.302 171.167C214.309 171.208 214.328 171.25 214.349 171.286C214.355 171.296 214.361 171.305 214.369 171.313C214.389 171.333 214.409 171.357 214.434 171.372C214.458 171.388 214.487 171.399 214.513 171.409C214.525 171.414 214.537 171.416 214.551 171.418C214.572 171.422 214.603 171.427 214.628 171.428C214.642 171.429 214.649 171.427 214.669 171.425C214.708 171.421 214.738 171.414 214.777 171.398C214.813 171.383 214.847 171.362 214.881 171.342C214.927 171.313 214.972 171.277 215.009 171.236C215.034 171.209 215.058 171.179 215.078 171.148C215.099 171.117 215.116 171.08 215.13 171.046C215.133 171.039 215.136 171.032 215.139 171.025C215.156 170.992 215.165 170.934 215.151 170.896Z" fill="#CBCCCE"/>
<path d="M217.776 168.68C217.481 168.68 217.204 169.202 217.596 169.202C217.891 169.202 218.168 168.68 217.776 168.68Z" fill="#CBCCCE"/>
<path d="M219.821 171.911C219.806 171.887 219.785 171.872 219.76 171.864C219.744 171.854 219.727 171.849 219.708 171.849C219.688 171.845 219.668 171.848 219.648 171.85C219.63 171.847 219.611 171.845 219.594 171.842C219.561 171.841 219.531 171.846 219.501 171.858C219.479 171.863 219.458 171.872 219.439 171.885C219.418 171.895 219.398 171.909 219.381 171.926C219.362 171.939 219.347 171.955 219.334 171.974C219.313 171.998 219.298 172.025 219.288 172.055C219.284 172.062 219.282 172.069 219.28 172.076L219.279 172.08L219.273 172.111C219.265 172.138 219.264 172.166 219.272 172.195L219.273 172.197C219.274 172.2 219.275 172.202 219.276 172.204C219.283 172.22 219.292 172.241 219.302 172.258C219.303 172.26 219.304 172.261 219.305 172.263C219.318 172.28 219.332 172.297 219.351 172.307C219.389 172.329 219.42 172.339 219.466 172.34H219.467L219.53 172.334H219.532H219.533C219.54 172.332 219.591 172.316 219.598 172.313L219.601 172.312L219.603 172.311C219.614 172.305 219.656 172.282 219.667 172.275L219.668 172.274C219.67 172.273 219.673 172.27 219.673 172.27C219.69 172.257 219.72 172.234 219.739 172.214L219.742 172.21C219.756 172.192 219.771 172.172 219.785 172.154C219.787 172.151 219.79 172.148 219.792 172.144C219.798 172.136 219.803 172.128 219.808 172.12C219.825 172.095 219.836 172.067 219.839 172.038C219.847 172.012 219.847 171.985 219.84 171.958C219.835 171.942 219.828 171.927 219.821 171.911Z" fill="#CBCCCE"/>
<path d="M201.215 169.66C200.85 169.66 200.509 170.302 200.993 170.302C201.358 170.302 201.699 169.66 201.215 169.66Z" fill="#CBCCCE"/>
<path d="M209.015 174.165C208.65 174.165 208.309 174.807 208.793 174.807C209.157 174.808 209.498 174.165 209.015 174.165Z" fill="#CBCCCE"/>
<path d="M216.333 163.834C216.23 163.766 216.123 163.695 216.004 163.659C215.852 163.612 215.683 163.635 215.54 163.7C215.464 163.736 215.39 163.78 215.323 163.831C215.251 163.884 215.171 163.943 215.127 164.021C215.105 164.06 215.088 164.099 215.079 164.142C215.07 164.189 215.07 164.214 215.078 164.265C215.081 164.282 215.084 164.298 215.088 164.314C215.094 164.337 215.101 164.36 215.11 164.382C215.125 164.419 215.141 164.464 215.168 164.497C215.192 164.525 215.217 164.546 215.242 164.566L215.243 164.568C215.33 164.689 215.461 164.768 215.613 164.768C215.808 164.767 215.975 164.671 216.116 164.543C216.247 164.424 216.339 164.254 216.4 164.09C216.436 164.002 216.417 163.889 216.333 163.834Z" fill="#CBCCCE"/>
<path d="M207.843 179.716C207.887 179.652 207.908 179.548 207.856 179.481C207.848 179.471 207.822 179.446 207.812 179.438L207.808 179.435C207.806 179.433 207.804 179.432 207.802 179.431C207.78 179.417 207.753 179.406 207.728 179.397C207.672 179.377 207.609 179.388 207.553 179.396C207.544 179.397 207.536 179.398 207.528 179.4C207.507 179.404 207.488 179.417 207.468 179.425C207.451 179.419 207.433 179.411 207.414 179.412C207.393 179.414 207.371 179.416 207.35 179.418C207.314 179.425 207.282 179.437 207.252 179.457C207.202 179.485 207.151 179.526 207.122 179.576C207.113 179.595 207.104 179.615 207.094 179.634C207.081 179.67 207.078 179.708 207.087 179.746C207.107 179.793 207.123 179.842 207.151 179.883C207.169 179.906 207.191 179.927 207.214 179.945C207.216 179.946 207.218 179.948 207.22 179.949C207.247 179.977 207.279 179.998 207.317 180.009C207.373 180.024 207.43 180.025 207.487 180.012C207.616 179.986 207.734 179.902 207.803 179.793C207.809 179.783 207.813 179.772 207.819 179.763C207.826 179.752 207.831 179.74 207.836 179.728C207.837 179.725 207.839 179.723 207.84 179.721L207.838 179.724C207.84 179.72 207.842 179.718 207.843 179.716Z" fill="#CBCCCE"/>
<path d="M194.213 170.004C194.147 169.903 193.992 169.875 193.883 169.906C193.794 169.932 193.704 169.958 193.62 169.998C193.5 170.057 193.412 170.119 193.314 170.207C193.179 170.326 193.095 170.487 193.025 170.648C193.003 170.71 192.999 170.773 193.013 170.836C193.029 170.897 193.063 170.945 193.116 170.982C193.119 170.984 193.122 170.985 193.125 170.987C193.141 171.074 193.163 171.16 193.188 171.248C193.229 171.387 193.38 171.429 193.51 171.402C193.857 171.332 194.155 171.107 194.297 170.784C194.41 170.526 194.361 170.235 194.213 170.004Z" fill="#CBCCCE"/>
<path d="M180.119 164.607C180.118 164.603 180.116 164.6 180.115 164.596C180.104 164.57 180.093 164.542 180.078 164.518C180.061 164.492 180.027 164.462 180.008 164.447C179.972 164.416 179.924 164.399 179.881 164.383C179.826 164.361 179.764 164.356 179.707 164.349C179.687 164.346 179.667 164.344 179.647 164.343C179.593 164.34 179.538 164.349 179.484 164.355C179.466 164.357 179.448 164.36 179.428 164.363C179.396 164.319 179.334 164.294 179.28 164.294C179.21 164.295 179.139 164.316 179.083 164.358C179.064 164.374 179.046 164.391 179.026 164.407C178.995 164.439 178.97 164.478 178.955 164.52C178.902 164.641 178.861 164.766 178.84 164.896C178.834 164.932 178.832 164.969 178.834 165.006C178.837 165.054 178.839 165.102 178.857 165.147C178.886 165.217 178.907 165.249 178.964 165.3C178.996 165.329 179.036 165.345 179.075 165.36C179.117 165.376 179.166 165.38 179.209 165.384C179.258 165.388 179.31 165.38 179.358 165.374C179.385 165.37 179.411 165.364 179.437 165.357C179.49 165.341 179.544 165.325 179.596 165.301C179.675 165.266 179.753 165.223 179.822 165.171C179.867 165.137 179.913 165.099 179.952 165.059C179.96 165.051 179.967 165.043 179.974 165.033C180 165.002 180.027 164.971 180.049 164.935C180.108 164.84 180.149 164.718 180.119 164.607Z" fill="#CBCCCE"/>
<path d="M183.28 165.829C183.267 165.816 183.253 165.802 183.24 165.789C183.204 165.766 183.166 165.755 183.124 165.755L183.08 165.752C183.041 165.75 183.008 165.749 182.968 165.757C182.912 165.768 182.864 165.795 182.816 165.826C182.811 165.829 182.806 165.833 182.801 165.836C182.789 165.843 182.779 165.85 182.768 165.857C182.742 165.874 182.72 165.896 182.703 165.921C182.684 165.942 182.67 165.965 182.661 165.993C182.658 166.009 182.654 166.025 182.651 166.041C182.648 166.074 182.656 166.103 182.674 166.129C182.681 166.135 182.686 166.142 182.692 166.148C182.695 166.151 182.698 166.155 182.701 166.158L182.705 166.163C182.739 166.2 182.755 166.215 182.804 166.23C182.854 166.245 182.907 166.237 182.957 166.235C182.993 166.236 183.028 166.23 183.06 166.217C183.098 166.208 183.132 166.191 183.163 166.168C183.196 166.146 183.223 166.12 183.245 166.089C183.268 166.062 183.285 166.033 183.297 165.999C183.301 165.979 183.305 165.958 183.309 165.937C183.312 165.899 183.303 165.862 183.28 165.829Z" fill="#CBCCCE"/>
<path d="M189.039 168.437C189.025 168.397 189.001 168.366 188.964 168.344C188.953 168.337 188.941 168.333 188.929 168.327C188.914 168.3 188.898 168.273 188.885 168.245C188.876 168.224 188.861 168.208 188.846 168.193C188.798 168.144 188.773 168.123 188.709 168.098C188.701 168.095 188.693 168.092 188.684 168.09C188.627 168.078 188.579 168.077 188.521 168.087C188.487 168.093 188.452 168.106 188.42 168.118C188.381 168.132 188.346 168.156 188.311 168.176C188.296 168.184 188.282 168.193 188.268 168.203C188.261 168.208 188.254 168.214 188.246 168.219C188.2 168.257 188.148 168.299 188.119 168.354C188.101 168.389 188.081 168.426 188.07 168.465C188.061 168.5 188.049 168.546 188.051 168.585C188.053 168.626 188.055 168.668 188.067 168.706C188.076 168.735 188.087 168.764 188.102 168.789C188.122 168.822 188.144 168.833 188.172 168.847C188.194 168.858 188.217 168.867 188.239 168.877C188.254 168.891 188.27 168.907 188.284 168.92C188.291 168.926 188.297 168.932 188.305 168.938C188.321 168.95 188.367 168.969 188.386 168.975C188.402 168.98 188.454 168.986 188.486 168.989C188.494 168.99 188.501 168.99 188.509 168.99C188.589 168.991 188.665 168.976 188.737 168.945C188.775 168.929 188.812 168.907 188.846 168.885C188.914 168.843 188.954 168.789 189.002 168.727C189.036 168.674 189.056 168.616 189.061 168.555C189.068 168.512 189.061 168.473 189.039 168.437Z" fill="#CBCCCE"/>
<path d="M186.88 171.566C186.889 171.557 186.898 171.548 186.905 171.539C186.909 171.534 186.912 171.529 186.915 171.524C187.006 171.403 187.036 171.259 186.854 171.214C186.84 171.211 186.825 171.207 186.811 171.204C186.7 171.159 186.6 171.186 186.524 171.25C186.458 171.298 186.415 171.369 186.398 171.443C186.361 171.561 186.385 171.679 186.501 171.708C186.538 171.721 186.587 171.721 186.645 171.704C186.659 171.701 186.675 171.698 186.689 171.695C186.738 171.685 186.797 171.647 186.849 171.598C186.861 171.588 186.87 171.577 186.88 171.566Z" fill="#CBCCCE"/>
<path d="M217.733 160.961C217.733 160.94 217.733 160.918 217.733 160.896C217.732 160.841 217.737 160.775 217.722 160.723C217.708 160.674 217.69 160.628 217.666 160.583C217.665 160.58 217.663 160.577 217.661 160.575L217.66 160.574C217.642 160.555 217.622 160.536 217.602 160.517C217.596 160.513 217.534 160.485 217.527 160.482C217.496 160.471 217.454 160.47 217.414 160.472C217.397 160.471 217.381 160.47 217.365 160.472C217.28 160.479 217.206 160.485 217.128 160.522C217.044 160.562 216.983 160.604 216.917 160.667C216.883 160.698 216.854 160.736 216.831 160.775V160.776C216.783 160.823 216.741 160.877 216.724 160.943C216.716 160.976 216.707 161.012 216.708 161.047C216.71 161.086 216.713 161.127 216.721 161.166C216.738 161.245 216.815 161.288 216.89 161.296C216.913 161.306 216.937 161.313 216.962 161.314C216.989 161.321 217.017 161.322 217.044 161.315C217.049 161.315 217.054 161.312 217.06 161.312C217.144 161.323 217.226 161.336 217.311 161.331L217.313 161.332C217.34 161.329 217.367 161.327 217.394 161.324C217.439 161.316 217.481 161.299 217.519 161.274C217.583 161.238 217.647 161.188 217.684 161.123L217.72 161.05C217.73 161.02 217.733 160.99 217.733 160.961Z" fill="#CBCCCE"/>
<path d="M225.53 162.681C225.52 162.645 225.499 162.616 225.467 162.594C225.441 162.574 225.415 162.555 225.389 162.535C225.383 162.53 225.377 162.526 225.371 162.521C225.331 162.49 225.285 162.476 225.235 162.475C225.196 162.474 225.175 162.479 225.144 162.488C225.135 162.491 225.126 162.493 225.118 162.496C225.074 162.506 225.034 162.524 224.996 162.55C224.967 162.569 224.943 162.592 224.924 162.62C224.902 162.643 224.887 162.669 224.878 162.699C224.866 162.733 224.863 162.768 224.871 162.805C224.872 162.812 224.872 162.819 224.873 162.826C224.875 162.854 224.877 162.866 224.899 162.899C224.933 162.947 224.987 162.963 225.04 162.98C225.073 162.99 225.107 163 225.141 163.009C225.171 163.018 225.202 163.02 225.231 163.014C225.266 163.013 225.298 163.005 225.329 162.99L225.393 162.953C225.425 162.933 225.45 162.908 225.47 162.878C225.487 162.862 225.498 162.844 225.506 162.823C225.522 162.797 225.531 162.767 225.533 162.736C225.533 162.718 225.532 162.7 225.53 162.681Z" fill="#CBCCCE"/>
<path d="M225.884 166.875C225.874 166.852 225.864 166.827 225.855 166.804C225.849 166.79 225.842 166.774 225.834 166.758C225.836 166.751 225.837 166.744 225.838 166.735C225.842 166.705 225.838 166.683 225.828 166.658C225.823 166.645 225.818 166.631 225.814 166.618V166.617C225.815 166.613 225.819 166.611 225.82 166.607C225.843 166.538 225.836 166.461 225.789 166.406C225.787 166.403 225.787 166.4 225.785 166.398C225.766 166.381 225.749 166.363 225.731 166.345C225.708 166.331 225.685 166.32 225.659 166.313C225.632 166.309 225.604 166.305 225.577 166.301C225.484 166.295 225.374 166.338 225.3 166.393C225.27 166.414 225.239 166.441 225.213 166.467C225.173 166.508 225.128 166.576 225.109 166.631C225.09 166.693 225.088 166.719 225.093 166.776C225.097 166.823 225.095 166.819 225.115 166.864C225.127 166.901 225.15 166.932 225.186 166.953C225.197 166.961 225.21 166.967 225.224 166.971C225.242 166.981 225.26 166.988 225.28 166.993C225.31 167.008 225.342 167.023 225.372 167.037C225.401 167.05 225.415 167.055 225.457 167.055C225.466 167.055 225.476 167.053 225.486 167.052C225.504 167.058 225.521 167.064 225.538 167.07C225.565 167.079 225.591 167.088 225.619 167.098L225.658 167.104C225.673 167.103 225.688 167.101 225.702 167.1C225.743 167.092 225.778 167.071 225.81 167.045C225.834 167.024 225.854 167.001 225.867 166.972C225.883 166.945 225.897 166.903 225.884 166.875Z" fill="#CBCCCE"/>
<path d="M198.249 174.426C198.249 174.392 198.245 174.358 198.242 174.323C198.241 174.315 198.24 174.307 198.238 174.3C198.231 174.275 198.217 174.25 198.204 174.227L198.203 174.225C198.173 174.182 198.128 174.154 198.078 174.139C198.051 174.131 198.022 174.129 197.994 174.127C197.93 174.123 197.864 174.143 197.806 174.167L197.803 174.168C197.742 174.196 197.677 174.236 197.632 174.286L197.572 174.363C197.557 174.39 197.542 174.42 197.532 174.446L197.531 174.449C197.522 174.476 197.518 174.506 197.513 174.535C197.512 174.538 197.512 174.542 197.512 174.545C197.512 174.559 197.515 174.576 197.516 174.588C197.517 174.602 197.518 174.618 197.52 174.633C197.521 174.638 197.522 174.642 197.523 174.647C197.524 174.652 197.526 174.658 197.527 174.663C197.536 174.691 197.549 174.727 197.564 174.747C197.591 174.785 197.641 174.823 197.689 174.831C197.692 174.832 197.694 174.832 197.697 174.832C197.7 174.832 197.702 174.833 197.705 174.833C197.729 174.836 197.755 174.84 197.779 174.844C197.794 174.846 197.788 174.844 197.819 174.84C197.86 174.839 197.9 174.829 197.937 174.81C197.963 174.796 197.989 174.781 198.015 174.767C198.049 174.745 198.069 174.722 198.095 174.696C198.12 174.672 198.134 174.658 198.158 174.617C198.164 174.608 198.167 174.597 198.172 174.588C198.183 174.576 198.196 174.567 198.205 174.553C198.231 174.516 198.245 174.473 198.249 174.426Z" fill="#CBCCCE"/>
<path d="M132.14 172.344C132.152 172.298 132.179 172.26 132.219 172.232C132.221 172.231 132.223 172.23 132.225 172.229C132.226 172.228 132.227 172.228 132.228 172.228C132.25 172.217 132.274 172.206 132.297 172.197C132.299 172.196 132.373 172.186 132.375 172.186C132.44 172.182 132.487 172.202 132.547 172.222C132.548 172.222 132.549 172.223 132.55 172.223C132.552 172.224 132.555 172.225 132.557 172.226C132.589 172.241 132.622 172.257 132.65 172.279C132.709 172.323 132.742 172.354 132.783 172.415C132.798 172.438 132.81 172.465 132.819 172.492C132.819 172.493 132.819 172.493 132.82 172.494C132.82 172.495 132.836 172.567 132.836 172.568C132.84 172.628 132.827 172.656 132.799 172.708C132.797 172.711 132.795 172.714 132.793 172.717C132.775 172.738 132.755 172.758 132.734 172.774C132.72 172.785 132.702 172.794 132.686 172.802C132.667 172.811 132.647 172.82 132.629 172.828C132.594 172.839 132.561 172.841 132.526 172.835C132.501 172.835 132.476 172.829 132.453 172.819C132.413 172.809 132.375 172.791 132.342 172.766C132.32 172.748 132.299 172.729 132.278 172.711C132.261 172.691 132.245 172.67 132.23 172.65C132.217 172.63 132.212 172.608 132.205 172.586C132.183 172.556 132.165 172.523 132.151 172.488C132.132 172.441 132.129 172.394 132.14 172.344Z" fill="#CBCCCE"/>
<path d="M129.911 170.46C129.902 170.494 129.903 170.526 129.912 170.558C129.917 170.595 129.93 170.628 129.951 170.659C129.968 170.681 129.985 170.702 130.001 170.723C130.023 170.742 130.045 170.76 130.066 170.779C130.101 170.805 130.139 170.823 130.18 170.833C130.205 170.844 130.23 170.849 130.257 170.849C130.292 170.855 130.328 170.853 130.363 170.843C130.364 170.843 130.364 170.842 130.365 170.842C130.381 170.842 130.397 170.847 130.413 170.843C130.446 170.841 130.477 170.831 130.504 170.812C130.508 170.81 130.513 170.807 130.517 170.804C130.519 170.804 130.519 170.803 130.52 170.803L130.521 170.802C130.537 170.786 130.553 170.771 130.569 170.754C130.579 170.734 130.589 170.713 130.598 170.693C130.6 170.67 130.602 170.646 130.604 170.623C130.604 170.622 130.604 170.621 130.604 170.62C130.604 170.619 130.604 170.618 130.604 170.617C130.603 170.589 130.596 170.56 130.587 170.533C130.566 170.475 130.535 170.427 130.492 170.383C130.49 170.381 130.421 170.323 130.419 170.321C130.419 170.321 130.418 170.321 130.418 170.32C130.392 170.301 130.363 170.285 130.333 170.272C130.332 170.272 130.332 170.271 130.331 170.271C130.329 170.27 130.248 170.244 130.245 170.244C130.244 170.244 130.243 170.244 130.242 170.244C130.214 170.241 130.187 170.239 130.158 170.236C130.133 170.24 130.107 170.243 130.082 170.247C130.081 170.247 130.017 170.277 130.016 170.277C130.016 170.277 130.015 170.277 130.015 170.278C129.995 170.293 129.978 170.312 129.962 170.33C129.959 170.333 129.956 170.336 129.954 170.34C129.953 170.341 129.953 170.343 129.952 170.344C129.942 170.365 129.932 170.388 129.923 170.409C129.922 170.411 129.921 170.414 129.92 170.416C129.917 170.429 129.914 170.445 129.911 170.46Z" fill="#CBCCCE"/>
<path d="M125.394 167.57C125.391 167.644 125.409 167.722 125.441 167.79C125.486 167.887 125.54 167.977 125.621 168.049C125.704 168.123 125.794 168.189 125.9 168.229C125.999 168.265 126.097 168.289 126.203 168.288C126.393 168.286 126.561 168.198 126.679 168.054C126.743 167.976 126.787 167.879 126.818 167.784C126.827 167.757 126.836 167.729 126.843 167.702C126.854 167.659 126.858 167.615 126.842 167.572C126.823 167.524 126.795 167.488 126.762 167.449C126.72 167.4 126.664 167.363 126.622 167.314C126.563 167.244 126.417 167.187 126.323 167.234C126.3 167.209 126.279 167.182 126.254 167.158C126.189 167.098 126.122 167.052 126.037 167.025C125.994 167.007 125.948 167 125.901 167.001C125.873 167.005 125.846 167.009 125.817 167.013C125.748 167.044 125.686 167.076 125.628 167.125C125.579 167.165 125.531 167.211 125.494 167.261C125.425 167.353 125.398 167.456 125.394 167.57Z" fill="#CBCCCE"/>
<path d="M125.142 170.424C125.426 170.424 125.692 170.925 125.315 170.925C125.031 170.925 124.764 170.424 125.142 170.424Z" fill="#CBCCCE"/>
<path d="M120.956 170.896C120.961 170.882 120.975 170.848 120.984 170.836C120.993 170.826 121.001 170.817 121.01 170.808C121.061 170.755 121.114 170.709 121.176 170.669C121.218 170.641 121.265 170.624 121.31 170.605C121.354 170.587 121.399 170.588 121.445 170.592C121.502 170.597 121.513 170.597 121.559 170.611C121.599 170.621 121.636 170.639 121.671 170.664C121.693 170.682 121.714 170.7 121.735 170.72C121.761 170.747 121.807 170.808 121.815 170.847C121.81 170.898 121.805 170.949 121.8 170.999C121.801 171.009 121.805 171.019 121.806 171.028C121.811 171.075 121.811 171.12 121.803 171.167C121.796 171.208 121.778 171.25 121.756 171.286C121.75 171.296 121.744 171.305 121.736 171.313C121.716 171.334 121.696 171.357 121.672 171.372C121.647 171.388 121.619 171.399 121.592 171.409C121.58 171.414 121.567 171.417 121.555 171.419C121.533 171.423 121.503 171.428 121.477 171.429C121.463 171.43 121.456 171.428 121.436 171.426C121.397 171.422 121.367 171.414 121.329 171.398C121.292 171.383 121.258 171.362 121.225 171.342C121.178 171.313 121.133 171.277 121.096 171.237C121.071 171.209 121.049 171.179 121.027 171.149C121.006 171.117 120.989 171.08 120.975 171.047C120.972 171.039 120.969 171.032 120.966 171.025C120.951 170.992 120.943 170.934 120.956 170.896Z" fill="#CBCCCE"/>
<path d="M118.33 168.68C118.626 168.68 118.903 169.202 118.511 169.202C118.215 169.202 117.938 168.68 118.33 168.68Z" fill="#CBCCCE"/>
<path d="M116.286 171.911C116.302 171.888 116.322 171.872 116.347 171.864C116.363 171.854 116.38 171.849 116.399 171.849C116.419 171.845 116.439 171.848 116.459 171.85C116.478 171.847 116.496 171.845 116.513 171.842C116.546 171.841 116.576 171.846 116.606 171.858C116.628 171.863 116.65 171.872 116.668 171.886C116.69 171.896 116.709 171.909 116.726 171.926C116.746 171.939 116.761 171.955 116.773 171.974C116.794 171.998 116.81 172.025 116.82 172.055C116.822 172.062 116.825 172.069 116.827 172.077C116.827 172.078 116.828 172.08 116.828 172.081L116.834 172.11C116.842 172.137 116.843 172.165 116.835 172.194C116.835 172.195 116.835 172.195 116.834 172.196C116.833 172.199 116.832 172.201 116.831 172.203C116.824 172.219 116.816 172.24 116.806 172.257C116.805 172.259 116.804 172.26 116.803 172.263C116.789 172.279 116.775 172.296 116.757 172.306C116.718 172.328 116.687 172.338 116.642 172.339H116.641C116.64 172.339 116.579 172.333 116.578 172.333C116.576 172.333 116.577 172.333 116.575 172.333C116.568 172.331 116.516 172.315 116.509 172.312C116.508 172.312 116.507 172.311 116.506 172.311C116.505 172.311 116.504 172.31 116.504 172.31C116.493 172.304 116.451 172.281 116.44 172.275C116.44 172.275 116.439 172.275 116.439 172.274C116.437 172.273 116.435 172.271 116.434 172.27C116.419 172.256 116.387 172.233 116.369 172.213C116.368 172.212 116.367 172.21 116.365 172.209C116.35 172.191 116.335 172.172 116.321 172.153C116.319 172.15 116.316 172.147 116.314 172.143C116.309 172.135 116.304 172.127 116.299 172.119C116.281 172.094 116.27 172.066 116.267 172.037C116.259 172.011 116.259 171.985 116.266 171.957C116.272 171.942 116.279 171.927 116.286 171.911Z" fill="#CBCCCE"/>
<path d="M134.892 169.66C135.257 169.66 135.598 170.303 135.114 170.303C134.75 170.303 134.409 169.66 134.892 169.66Z" fill="#CBCCCE"/>
<path d="M127.093 174.165C127.457 174.165 127.798 174.807 127.315 174.807C126.95 174.808 126.609 174.165 127.093 174.165Z" fill="#CBCCCE"/>
<path d="M119.704 164.092C119.765 164.255 119.856 164.425 119.988 164.544C120.129 164.672 120.296 164.769 120.491 164.769C120.644 164.77 120.774 164.69 120.861 164.569L120.862 164.567C120.887 164.547 120.912 164.526 120.936 164.498C120.964 164.465 120.979 164.42 120.995 164.383C121.004 164.36 121.011 164.338 121.017 164.315C121.021 164.299 121.024 164.283 121.027 164.266C121.035 164.215 121.036 164.19 121.026 164.143C121.017 164.1 121 164.06 120.978 164.022C120.934 163.944 120.853 163.886 120.782 163.832C120.715 163.781 120.641 163.737 120.564 163.701C120.422 163.637 120.253 163.613 120.101 163.66C119.982 163.696 119.875 163.767 119.772 163.835C119.69 163.889 119.671 164.002 119.704 164.092Z" fill="#CBCCCE"/>
<path d="M128.268 179.721C128.267 179.72 128.267 179.719 128.266 179.718C128.268 179.72 128.269 179.723 128.27 179.725C128.276 179.737 128.281 179.749 128.287 179.76C128.293 179.77 128.297 179.78 128.303 179.789C128.373 179.899 128.49 179.984 128.619 180.009C128.676 180.021 128.732 180.02 128.789 180.006C128.827 179.995 128.859 179.973 128.886 179.946C128.888 179.945 128.89 179.944 128.893 179.942C128.915 179.925 128.937 179.904 128.955 179.879C128.984 179.839 128.999 179.788 129.02 179.743C129.029 179.705 129.026 179.667 129.013 179.631C129.003 179.612 128.994 179.592 128.985 179.573C128.956 179.523 128.906 179.482 128.855 179.454C128.825 179.435 128.793 179.422 128.757 179.414C128.736 179.412 128.714 179.41 128.693 179.408C128.674 179.407 128.657 179.415 128.64 179.422C128.62 179.414 128.601 179.401 128.58 179.397C128.572 179.395 128.564 179.394 128.556 179.393C128.498 179.385 128.436 179.375 128.38 179.394C128.355 179.403 128.329 179.413 128.306 179.428C128.304 179.429 128.302 179.431 128.3 179.432C128.299 179.433 128.297 179.434 128.296 179.435C128.286 179.443 128.26 179.468 128.252 179.478C128.2 179.545 128.222 179.648 128.265 179.713C128.265 179.718 128.266 179.72 128.268 179.721Z" fill="#CBCCCE"/>
<path d="M141.895 170.004C141.96 169.903 142.116 169.875 142.225 169.906C142.314 169.932 142.404 169.958 142.488 169.998C142.608 170.057 142.695 170.119 142.794 170.207C142.929 170.326 143.013 170.487 143.082 170.648C143.105 170.71 143.109 170.773 143.095 170.836C143.078 170.897 143.045 170.945 142.992 170.982C142.99 170.984 142.986 170.985 142.983 170.987C142.966 171.074 142.945 171.16 142.919 171.248C142.879 171.387 142.728 171.429 142.598 171.402C142.251 171.332 141.953 171.107 141.811 170.784C141.699 170.526 141.747 170.235 141.895 170.004Z" fill="#CBCCCE"/>
<path d="M156.058 164.935C156.08 164.969 156.107 165.001 156.134 165.033C156.141 165.042 156.148 165.05 156.156 165.058C156.196 165.099 156.24 165.136 156.285 165.17C156.354 165.223 156.432 165.266 156.511 165.3C156.562 165.324 156.617 165.34 156.671 165.356C156.697 165.364 156.723 165.37 156.75 165.373C156.797 165.379 156.849 165.387 156.898 165.383C156.942 165.38 156.991 165.376 157.033 165.359C157.071 165.344 157.112 165.328 157.144 165.299C157.2 165.248 157.222 165.217 157.25 165.146C157.269 165.101 157.271 165.053 157.274 165.005C157.277 164.969 157.274 164.931 157.268 164.895C157.247 164.764 157.207 164.639 157.154 164.519C157.138 164.477 157.114 164.438 157.082 164.406C157.063 164.39 157.045 164.374 157.025 164.357C156.969 164.316 156.898 164.294 156.829 164.293C156.775 164.292 156.713 164.318 156.68 164.362C156.662 164.359 156.644 164.357 156.624 164.354C156.57 164.348 156.516 164.339 156.461 164.342C156.441 164.343 156.421 164.345 156.401 164.348C156.344 164.356 156.282 164.361 156.227 164.382C156.184 164.398 156.136 164.416 156.101 164.446C156.083 164.463 156.048 164.491 156.032 164.517C156.017 164.541 156.005 164.569 155.995 164.595C155.993 164.599 155.992 164.602 155.991 164.606C155.958 164.718 155.999 164.841 156.058 164.935Z" fill="#CBCCCE"/>
<path d="M152.828 165.829C152.841 165.816 152.856 165.802 152.869 165.788C152.905 165.766 152.942 165.755 152.985 165.755L153.03 165.752C153.069 165.75 153.101 165.749 153.142 165.757C153.198 165.768 153.246 165.795 153.294 165.826C153.299 165.829 153.304 165.833 153.309 165.836C153.319 165.843 153.33 165.85 153.341 165.857C153.368 165.874 153.389 165.896 153.407 165.921C153.426 165.942 153.439 165.965 153.448 165.993C153.451 166.009 153.455 166.025 153.458 166.041C153.462 166.074 153.453 166.103 153.435 166.129C153.429 166.135 153.424 166.142 153.418 166.148C153.415 166.151 153.412 166.155 153.409 166.158L153.405 166.162C153.371 166.2 153.355 166.215 153.306 166.23C153.256 166.245 153.203 166.237 153.152 166.235C153.116 166.236 153.082 166.23 153.049 166.217C153.012 166.208 152.978 166.191 152.946 166.168C152.914 166.146 152.886 166.12 152.865 166.089C152.841 166.062 152.824 166.033 152.813 165.999C152.809 165.979 152.805 165.958 152.801 165.937C152.797 165.899 152.806 165.862 152.828 165.829Z" fill="#CBCCCE"/>
<path d="M147.044 168.556C147.051 168.618 147.07 168.675 147.104 168.728C147.151 168.79 147.191 168.844 147.259 168.886C147.294 168.908 147.331 168.93 147.368 168.946C147.442 168.977 147.517 168.993 147.596 168.992C147.604 168.992 147.613 168.991 147.62 168.991C147.651 168.988 147.703 168.983 147.719 168.976C147.739 168.97 147.785 168.951 147.801 168.939C147.808 168.934 147.815 168.928 147.821 168.921C147.836 168.908 147.853 168.893 147.866 168.878C147.888 168.868 147.911 168.859 147.933 168.848C147.962 168.834 147.983 168.823 148.004 168.79C148.019 168.765 148.029 168.736 148.038 168.708C148.05 168.668 148.053 168.627 148.054 168.586C148.056 168.547 148.044 168.501 148.035 168.466C148.025 168.427 148.005 168.39 147.986 168.355C147.958 168.3 147.907 168.257 147.859 168.22C147.852 168.214 147.845 168.209 147.838 168.204C147.824 168.194 147.81 168.185 147.795 168.177C147.759 168.157 147.725 168.133 147.686 168.119C147.653 168.107 147.619 168.094 147.584 168.088C147.526 168.078 147.478 168.079 147.421 168.091C147.413 168.093 147.405 168.095 147.397 168.099C147.333 168.124 147.307 168.146 147.259 168.194C147.244 168.21 147.23 168.226 147.221 168.246C147.207 168.274 147.191 168.301 147.177 168.329C147.166 168.334 147.153 168.338 147.141 168.345C147.105 168.367 147.079 168.398 147.067 168.438C147.048 168.473 147.039 168.513 147.044 168.556Z" fill="#CBCCCE"/>
<path d="M149.227 171.566C149.219 171.557 149.21 171.548 149.203 171.539C149.198 171.534 149.195 171.529 149.192 171.524C149.102 171.403 149.071 171.259 149.252 171.214C149.267 171.211 149.281 171.207 149.295 171.204C149.406 171.159 149.506 171.186 149.582 171.25C149.648 171.298 149.691 171.369 149.709 171.443C149.745 171.561 149.722 171.679 149.606 171.708C149.568 171.721 149.519 171.721 149.461 171.704C149.447 171.701 149.432 171.698 149.417 171.695C149.368 171.685 149.309 171.647 149.257 171.598C149.246 171.588 149.237 171.577 149.227 171.566Z" fill="#CBCCCE"/>
<path d="M118.386 161.048L118.422 161.121C118.459 161.186 118.524 161.237 118.588 161.272C118.626 161.297 118.667 161.314 118.712 161.322C118.74 161.325 118.766 161.327 118.794 161.33L118.796 161.329C118.88 161.334 118.963 161.321 119.046 161.31C119.051 161.31 119.056 161.313 119.062 161.313C119.09 161.319 119.117 161.319 119.145 161.312C119.17 161.311 119.194 161.304 119.216 161.294C119.292 161.286 119.369 161.244 119.385 161.164C119.393 161.125 119.397 161.084 119.398 161.045C119.399 161.01 119.391 160.975 119.383 160.941C119.367 160.875 119.324 160.822 119.276 160.774V160.773C119.254 160.734 119.224 160.696 119.191 160.665C119.125 160.602 119.063 160.56 118.98 160.52C118.902 160.483 118.827 160.477 118.743 160.47C118.726 160.469 118.71 160.47 118.694 160.47C118.653 160.468 118.611 160.47 118.581 160.48C118.574 160.483 118.512 160.511 118.506 160.515C118.486 160.534 118.467 160.553 118.448 160.572L118.446 160.573C118.444 160.576 118.443 160.578 118.441 160.581C118.418 160.626 118.399 160.672 118.385 160.721C118.37 160.772 118.375 160.839 118.374 160.894C118.374 160.916 118.374 160.938 118.374 160.959C118.373 160.99 118.376 161.02 118.386 161.048Z" fill="#CBCCCE"/>
<path d="M110.578 162.682C110.588 162.645 110.609 162.616 110.64 162.595C110.667 162.574 110.692 162.555 110.719 162.535C110.725 162.53 110.731 162.526 110.737 162.521C110.777 162.491 110.823 162.476 110.872 162.475C110.912 162.474 110.933 162.479 110.964 162.488C110.972 162.492 110.981 162.494 110.99 162.497C111.033 162.507 111.074 162.524 111.112 162.55C111.14 162.569 111.165 162.593 111.184 162.62C111.205 162.643 111.221 162.669 111.23 162.699C111.242 162.733 111.245 162.768 111.237 162.805C111.236 162.812 111.236 162.819 111.235 162.826C111.232 162.854 111.231 162.867 111.208 162.899C111.174 162.947 111.121 162.964 111.068 162.98C111.034 162.99 111.001 163 110.967 163.009C110.937 163.018 110.907 163.02 110.877 163.014C110.842 163.013 110.809 163.005 110.779 162.99L110.715 162.953C110.683 162.933 110.658 162.908 110.637 162.879C110.622 162.862 110.61 162.844 110.602 162.823C110.586 162.797 110.577 162.767 110.575 162.736C110.575 162.718 110.577 162.7 110.578 162.682Z" fill="#CBCCCE"/>
<path d="M110.237 166.971C110.252 167 110.27 167.023 110.294 167.044C110.325 167.07 110.361 167.09 110.402 167.099C110.416 167.1 110.431 167.102 110.446 167.103L110.486 167.097C110.512 167.088 110.539 167.079 110.566 167.069C110.582 167.063 110.601 167.057 110.618 167.051C110.628 167.052 110.638 167.054 110.648 167.054C110.689 167.054 110.704 167.049 110.732 167.036C110.763 167.022 110.794 167.007 110.825 166.992C110.844 166.987 110.862 166.98 110.881 166.97C110.895 166.966 110.907 166.96 110.918 166.952C110.954 166.931 110.977 166.9 110.99 166.863C111.01 166.819 111.007 166.824 111.012 166.775C111.017 166.718 111.015 166.692 110.996 166.63C110.977 166.575 110.934 166.506 110.892 166.466C110.866 166.44 110.835 166.413 110.805 166.392C110.731 166.337 110.621 166.294 110.528 166.3C110.501 166.304 110.473 166.308 110.446 166.312C110.421 166.319 110.397 166.33 110.375 166.344C110.356 166.362 110.339 166.38 110.321 166.397C110.319 166.4 110.319 166.403 110.317 166.405C110.269 166.46 110.262 166.537 110.285 166.606C110.286 166.61 110.29 166.613 110.292 166.616C110.288 166.629 110.283 166.644 110.278 166.657C110.268 166.682 110.265 166.704 110.268 166.735C110.269 166.742 110.271 166.75 110.272 166.757C110.266 166.773 110.258 166.788 110.252 166.803C110.241 166.827 110.231 166.851 110.222 166.874C110.211 166.903 110.224 166.945 110.237 166.971Z" fill="#CBCCCE"/>
<path d="M137.903 174.556C137.911 174.57 137.924 174.579 137.936 174.591C137.941 174.601 137.944 174.611 137.95 174.621C137.974 174.66 137.989 174.675 138.013 174.699C138.039 174.725 138.058 174.747 138.092 174.77C138.118 174.784 138.144 174.799 138.17 174.814C138.208 174.832 138.246 174.842 138.288 174.843C138.32 174.846 138.313 174.848 138.328 174.847C138.352 174.844 138.379 174.84 138.402 174.836C138.405 174.836 138.407 174.835 138.41 174.835C138.413 174.835 138.415 174.834 138.418 174.834C138.466 174.827 138.517 174.788 138.544 174.75C138.558 174.73 138.571 174.694 138.58 174.666C138.582 174.661 138.583 174.655 138.585 174.65C138.586 174.645 138.587 174.641 138.588 174.636C138.59 174.621 138.591 174.604 138.592 174.591C138.593 174.579 138.595 174.562 138.596 174.548C138.596 174.545 138.596 174.541 138.595 174.538C138.591 174.509 138.586 174.48 138.577 174.452L138.576 174.449C138.565 174.423 138.551 174.393 138.536 174.366L138.476 174.289C138.432 174.238 138.366 174.199 138.305 174.171L138.302 174.17C138.244 174.147 138.178 174.126 138.114 174.13C138.086 174.132 138.057 174.134 138.03 174.142C137.982 174.158 137.935 174.185 137.906 174.228L137.905 174.23C137.892 174.254 137.88 174.278 137.872 174.303C137.87 174.31 137.868 174.319 137.867 174.326C137.863 174.361 137.86 174.395 137.86 174.43C137.862 174.473 137.877 174.516 137.903 174.556Z" fill="#CBCCCE"/>
</svg>
