<svg width="58" height="76" viewBox="0 0 58 76" fill="none" xmlns="http://www.w3.org/2000/svg">
<path d="M33.7173 69.127C36.7452 71.8636 43.7802 72.3159 46.6949 68.9122C48.7853 66.4711 48.8878 62.3416 47.2193 58.9493C45.3065 55.0604 43.0105 50.9325 44.3988 47.5911C45.1689 45.7375 47.1049 44.871 48.6393 45.4635C49.3246 45.7281 50.2021 46.514 49.5454 49.2013C48.8819 51.9166 50.0486 52.8401 50.4965 53.0688C52.6667 54.177 55.9879 52.4581 56.5489 48.3404C57.0705 44.5107 54.7631 39.9739 49.6666 39.3929C42.8165 38.612 39.2223 44.357 39.4186 48.7673C39.735 55.8793 45.7278 60.8945 43.6293 64.777C42.2139 67.3957 37.0547 66.7974 34.8496 64.1287" fill="white"/>
<path d="M33.717 69.1272C36.7452 71.8638 43.7805 72.3162 46.6954 68.9119C48.7851 66.4711 48.8883 62.3413 47.2189 58.9497C45.3068 55.0605 43.0106 50.9324 44.3992 47.5915C45.1691 45.7378 47.1039 44.8711 48.6383 45.4637H48.6392C49.3249 45.7279 50.2027 46.514 49.5459 49.2009C48.882 51.9167 50.0486 52.8404 50.497 53.0684C52.6664 54.1766 55.988 52.4577 56.5487 48.3406C57.0704 44.5111 54.7634 39.9741 49.6664 39.3933C49.3448 39.3563 49.0296 39.3336 48.7217 39.3255C42.487 39.1491 39.2315 44.5644 39.419 48.7676C39.7352 55.8792 45.728 60.8947 43.6292 64.7766C42.2143 67.3957 37.0549 66.7977 34.8493 64.1289L33.717 69.1272Z" fill="white"/>
<path d="M33.7168 69.1269C36.7454 71.8639 43.7807 72.3166 46.6952 68.9121C48.785 66.471 48.8886 62.341 47.219 58.9498C46.1883 56.8537 45.0461 54.688 44.4295 52.6131V52.6123C44.4277 52.606 44.425 52.6007 44.4241 52.5945C43.9012 50.8271 43.7611 49.1266 44.3991 47.592C45.1692 45.7382 47.1038 44.871 48.6378 45.4637H48.6396C49.3249 45.7275 50.203 46.5145 49.5462 49.2006C48.8823 51.9171 50.0486 52.8405 50.4966 53.0686C51.9761 53.8235 53.991 53.2656 55.301 51.5286C55.9122 50.7184 56.37 49.6507 56.5485 48.3406C57.0705 44.5109 54.7629 39.9746 49.6667 39.3935C49.3445 39.356 49.0295 39.3338 48.7217 39.3257C42.4868 39.1493 39.2315 44.5644 39.4189 48.7675C39.7348 55.8795 45.7278 60.8945 43.629 64.7768C42.2146 67.3961 37.0551 66.7981 34.8492 64.1288L33.7168 69.1269Z" fill="white"/>
<path d="M33.7168 69.1269C36.7454 71.8639 43.7807 72.3166 46.6952 68.9121C47.9266 67.4736 48.4683 65.4496 48.363 63.3347C48.363 63.3347 48.363 63.3338 48.363 63.3329C48.2907 61.8597 47.9043 60.342 47.219 58.9498C46.1883 56.8537 45.0461 54.688 44.4295 52.6131V52.6123C44.4277 52.606 44.425 52.6007 44.4241 52.5945C43.9012 50.8271 43.7611 49.1266 44.3991 47.592C45.1692 45.7382 47.1039 44.871 48.6378 45.4637H48.6396C49.3249 45.7275 50.203 46.5145 49.5462 49.2006C48.8823 51.9171 50.0486 52.8405 50.4966 53.0686C51.9761 53.8235 53.991 53.2656 55.301 51.5286C55.9122 50.7184 56.37 49.6507 56.5485 48.3406C57.0705 44.5109 54.7629 39.9746 49.6667 39.3935C49.3446 39.356 49.0296 39.3338 48.7217 39.3257C42.4868 39.1493 39.2315 44.5644 39.4189 48.7675C39.7348 55.8795 45.7278 60.8945 43.629 64.7768C42.958 66.0191 41.4446 66.5379 39.8035 66.4541C37.9849 66.3623 36.0092 65.5325 34.8492 64.1288L33.7168 69.1269Z" fill="white"/>
<path d="M33.7168 69.1269C36.7454 71.8639 43.7807 72.3166 46.6952 68.9121C47.9266 67.4736 48.4683 65.4496 48.363 63.3347C48.3335 63.5941 47.6375 69.1964 42.5814 69.0226C40.2024 68.9406 39.7482 67.602 39.8035 66.454C37.9849 66.3623 36.0093 65.5325 34.8492 64.1288L33.7168 69.1269Z" fill="#DFE8F4"/>
<path d="M44.4242 52.5944C43.9012 50.8271 43.7611 49.1266 44.3992 47.5919C45.1693 45.7382 47.1039 44.871 48.6379 45.4637H48.6396C49.325 45.7275 50.203 46.5144 49.5463 49.2006C48.8823 51.9171 50.0487 52.8405 50.4966 53.0686C51.9761 53.8235 53.9911 53.2656 55.301 51.5285C54.6808 51.9554 53.7822 52.3708 52.6293 52.3708C50.1887 52.3708 50.2896 49.935 50.6572 48.2639C50.9749 46.8228 51.0588 43.7186 48.3371 43.429C45.6181 43.1393 42.32 46.3549 44.4242 52.5944Z" fill="#EFEFEF"/>
<path d="M48.6377 45.4637H48.6395C49.3248 45.7275 50.2029 46.5145 49.5461 49.2006C48.8822 51.9171 50.0485 52.8405 50.4964 53.0686C51.976 53.8235 53.9909 53.2656 55.3009 51.5285C54.6807 51.9554 53.7821 52.3708 52.6292 52.3708C50.1886 52.3708 50.2894 49.935 50.6571 48.2639C50.9355 47.0002 51.0345 44.4575 49.2195 43.6562C49.3435 43.9726 49.4515 44.2819 49.3381 44.5519C49.2115 44.8585 48.884 45.0822 48.6377 45.4637Z" fill="#FF9343"/>
<path d="M48.6382 45.4636H48.6391C49.3248 45.7278 50.2025 46.514 49.5458 49.2009C48.8818 51.9167 50.0485 52.8403 50.4969 53.0683C52.6663 54.1766 55.9879 52.4577 56.5485 48.3405C57.0703 44.511 54.7632 39.9741 49.6663 39.3933C49.3447 39.3562 49.0295 39.3336 48.7215 39.3254C48.9552 40.0456 49.5005 40.345 49.6128 40.7051C49.8493 41.4668 49.063 42.1553 49.0005 42.7614C48.9389 43.3521 49.5594 44.0252 49.3384 44.5517C49.2115 44.8584 48.8836 45.0819 48.6382 45.4636Z" fill="#FFAD40"/>
<path d="M48.6377 45.4637H48.6395C49.3248 45.7275 50.2029 46.5145 49.5461 49.2006C48.8822 51.9171 50.0485 52.8405 50.4964 53.0686C51.976 53.8235 53.9909 53.2656 55.3009 51.5285C54.6807 51.9554 53.7821 52.3708 52.6292 52.3708C50.1886 52.3708 50.2894 49.935 50.6571 48.2639C50.9355 47.0002 51.0345 44.4575 49.2195 43.6562C49.3435 43.9726 49.4515 44.2819 49.3381 44.5519C49.2115 44.8585 48.884 45.0822 48.6377 45.4637Z" fill="#FF9343"/>
<g opacity="0.5">
<path d="M41.5186 42.5788C43.0819 40.9478 45.3244 39.8391 48.2014 39.9202C48.5092 39.9282 48.8242 39.9505 49.1464 39.9879C49.7326 40.0548 50.2823 40.1742 50.7945 40.3391C50.5946 40.4014 50.4349 40.5129 50.3368 40.6751C50.0128 41.208 50.4804 42.0823 51.3799 42.6269C52.2803 43.1714 53.2717 43.1803 53.5947 42.6474C53.7009 42.4727 53.7223 42.2606 53.6697 42.0351C55.5668 43.8425 56.3566 46.5278 56.0282 48.935C55.8497 50.2434 55.3928 51.3102 54.7834 52.1194C54.9654 51.9412 55.1385 51.7442 55.3009 51.5286C55.9122 50.7184 56.3699 49.6507 56.5484 48.3406C57.0704 44.5109 54.7628 39.9746 49.6666 39.3935C49.3445 39.356 49.0295 39.3338 48.7216 39.3257C45.5073 39.2348 43.0855 40.6296 41.5186 42.5788Z" fill="white"/>
</g>
<path d="M40.3896 71.7246C37.6915 71.7246 35.0314 70.8562 33.4475 69.4245L33.9871 68.8289C35.5723 70.2617 38.3748 71.0738 41.127 70.898C43.4042 70.7525 45.2731 69.9545 46.3894 68.6509C48.3168 66.4001 48.5096 62.4834 46.8584 59.1261C46.7164 58.8376 46.5724 58.5475 46.4279 58.2568C44.5814 54.541 42.6722 50.6988 44.0274 47.4369C44.8535 45.4483 46.9874 44.395 48.7844 45.0887C49.6931 45.4395 50.6306 46.4543 49.9361 49.2963C49.3085 51.8644 50.4454 52.5913 50.6796 52.711C51.5021 53.1311 52.5199 53.0869 53.4719 52.5902C54.9033 51.8434 55.8795 50.2746 56.1504 48.2861C56.4268 46.2573 55.8516 44.0955 54.6118 42.5032C53.4142 40.9651 51.6884 40.0274 49.6211 39.7917C46.1891 39.4003 43.9485 40.7351 42.6731 41.9237C40.8036 43.6659 39.7105 46.2812 39.8203 48.7492C39.9655 52.0123 41.3453 54.8414 42.5626 57.3376C43.9736 60.2313 45.1924 62.7303 43.9832 64.9675C43.4119 66.0247 42.2708 66.6876 40.7704 66.8342C38.4786 67.058 35.9164 66.0504 34.5394 64.384L35.1598 63.8727C36.357 65.3218 38.6839 66.2314 40.6921 66.0347C41.9178 65.9151 42.8353 65.4005 43.2755 64.586C44.2886 62.7115 43.2078 60.4952 41.8395 57.6893C40.588 55.123 39.1695 52.2142 39.0168 48.7849C38.8969 46.0885 40.0876 43.2345 42.1244 41.3364C43.5235 40.0325 45.9759 38.5683 49.7123 38.9936C51.9994 39.2544 53.9132 40.2975 55.2467 42.0101C56.6165 43.7694 57.2523 46.1559 56.9474 48.3943C56.6409 50.6443 55.5099 52.4331 53.8444 53.3022C52.6582 53.9212 51.3713 53.9665 50.3135 53.4262C49.8516 53.1904 48.4031 52.1816 49.1548 49.1059C49.6012 47.279 49.3791 46.1794 48.4944 45.8379C47.1012 45.2998 45.4305 46.1554 44.7702 47.7448C43.5553 50.6691 45.3819 54.3448 47.1483 57.8997C47.2933 58.1914 47.4379 58.4824 47.5802 58.772C49.3689 62.4087 49.1306 66.6857 47.0006 69.1729C45.7419 70.6429 43.6742 71.5402 41.1784 71.6997C40.9159 71.7164 40.6523 71.7246 40.3896 71.7246Z" fill="#000072"/>
<path d="M6.76514 67.2946C6.94443 69.5366 7.28048 71.5943 7.90441 71.668C9.66357 71.8768 19.368 70.7113 26.4374 71.6967C26.4374 71.6967 20.994 65.2348 18.4193 61.6052C16.61 62.2192 15.3816 62.5763 15.3385 62.3788C16.2258 65.8876 10.8315 65.8262 10.1431 64.2688C9.89616 63.7101 8.42899 65.1877 6.76514 67.2946Z" fill="#EFEFEF"/>
<path d="M6.76514 67.2945C6.94443 69.5365 7.28048 71.5942 7.90441 71.6679C8.58781 71.7487 10.4719 71.6229 12.9339 71.496C13.6583 71.4581 14.4328 71.4213 15.2422 71.3885C18.7585 71.2484 22.9232 71.2064 26.4374 71.6966C26.4374 71.6966 20.994 65.2346 18.4193 61.6051C16.61 62.2191 15.3816 62.5762 15.3385 62.3787C16.2258 65.8875 10.8315 65.8261 10.1431 64.2687C9.89616 63.71 8.42899 65.1876 6.76514 67.2945Z" fill="#EFEFEF"/>
<path d="M7.9048 71.6679C9.66335 71.8768 19.3681 70.7111 26.4374 71.6961C26.4374 71.6961 17.0911 60.6031 17.0998 59.3207C17.1084 58.0382 6.55974 61.533 6.55974 61.533C6.55974 61.533 6.51479 71.5027 7.9048 71.6679Z" fill="white"/>
<path d="M6.76515 67.2943C6.94445 69.5363 7.2805 71.5941 7.90443 71.6678C9.66358 71.8765 19.3681 70.711 26.4374 71.6964C26.4374 71.6964 20.9941 65.2345 18.4194 61.605C17.6202 60.4784 17.0977 59.625 17.0997 59.321C17.1079 58.0379 6.55924 61.5333 6.55924 61.5333C6.55924 61.5333 6.54591 64.552 6.76515 67.2943Z" fill="white"/>
<path d="M6.76518 67.2943C6.94447 69.5363 7.28052 71.594 7.90445 71.6677C9.66361 71.8765 19.3681 70.711 26.4375 71.6964C26.4375 71.6964 20.9941 65.2344 18.4194 61.6049C17.6202 60.4783 17.0977 59.6249 17.0998 59.321C17.1049 58.486 12.6399 59.674 9.52018 60.6062C8.55711 60.8948 7.72212 61.1577 7.18627 61.3297C6.7908 61.4566 6.55924 61.5333 6.55924 61.5333C6.55924 61.5333 6.54594 64.5519 6.76518 67.2943Z" fill="white"/>
<path d="M6.76518 67.2943C6.94447 69.5363 7.28052 71.5941 7.90445 71.6677C9.66361 71.8765 19.3681 70.711 26.4375 71.6964C26.4375 71.6964 20.9941 65.2345 18.4194 61.6049C17.6202 60.4783 17.0977 59.6249 17.0998 59.321C17.1029 58.8994 15.9656 58.9936 14.437 59.3098C13.5804 59.4878 12.601 59.7344 11.6307 60.0005C10.9033 60.199 10.182 60.4088 9.52018 60.6062C8.55711 60.8948 7.72212 61.1578 7.18627 61.3297C6.7908 61.4566 6.55924 61.5333 6.55924 61.5333C6.55924 61.5333 6.54594 64.552 6.76518 67.2943Z" fill="white"/>
<path d="M26.4376 72.1054C26.4188 72.1054 26.3999 72.1041 26.3809 72.1015C21.6161 71.4375 15.6591 71.758 11.7173 71.97C9.82356 72.0718 8.45518 72.1455 7.85652 72.0742C7.22944 71.9998 6.60712 71.2808 6.30215 66.5649C6.1406 64.0667 6.14991 61.5563 6.15004 61.5312C6.15084 61.3555 6.26381 61.1998 6.43081 61.1445C6.45445 61.1367 8.82604 60.3525 11.2921 59.6697C16.4522 58.2407 16.992 58.6326 17.2512 58.8209C17.4193 58.9429 17.5111 59.1213 17.5097 59.3235C17.615 60.2322 22.9772 66.9535 26.7511 71.4325C26.8604 71.5622 26.8783 71.7458 26.7962 71.8941C26.7234 72.0257 26.5852 72.1054 26.4376 72.1054ZM7.97574 71.2639C8.52088 71.3221 9.9148 71.2472 11.6733 71.1525C15.3675 70.9539 20.8177 70.6606 25.4575 71.1629C24.5938 70.1259 23.012 68.2128 21.4447 66.2441C17.2837 61.0176 16.7626 59.8708 16.6987 59.4599C15.8072 59.2371 11.1017 60.4741 6.96992 61.8289C6.97255 62.5291 6.99087 64.3771 7.10457 66.2638C7.36507 70.5869 7.88036 71.1887 7.97574 71.2639Z" fill="#000072"/>
<path d="M10.4679 69.3999C9.95865 70.6642 9.10183 71.8637 6.9336 71.6412C3.77808 71.3173 0.991143 66.1497 1.72259 62.1535C2.26537 59.1881 5.66153 58.5305 7.88688 60.2763C8.93594 61.0993 9.93137 63.0159 10.4679 65.5483V69.3999Z" fill="#777782"/>
<path d="M2.64181 67.8306C3.63468 69.8809 5.23023 71.4666 6.93311 71.6409C9.10222 71.8631 9.95871 70.6638 10.4674 69.3996V65.5481C10.4395 65.4174 10.4104 65.2879 10.3813 65.1606L10.3802 65.1595C9.82898 62.82 8.88082 61.0567 7.88684 60.2761C5.66179 58.5307 2.26498 59.1884 1.72268 62.1533C1.38617 63.9936 1.79542 66.0807 2.64181 67.8306Z" fill="white"/>
<path d="M7.14218 69.5392C8.22735 69.2163 8.72283 67.6633 8.24886 66.0704C7.7749 64.4775 6.51098 63.4479 5.42581 63.7708C4.34064 64.0937 3.84516 65.6468 4.31912 67.2397C4.79309 68.8326 6.05701 69.8621 7.14218 69.5392Z" fill="#FFABAB"/>
<path d="M3.71275 64.5725C4.10458 64.4559 4.28349 63.8952 4.11235 63.32C3.94121 62.7449 3.48484 62.3731 3.09301 62.4897C2.70118 62.6063 2.52228 63.1671 2.69342 63.7422C2.86455 64.3174 3.32092 64.6891 3.71275 64.5725Z" fill="#FFABAB"/>
<path d="M7.57363 63.7942C7.97223 63.6756 8.15423 63.1052 7.98013 62.5201C7.80604 61.935 7.34177 61.5568 6.94317 61.6754C6.54457 61.794 6.36257 62.3645 6.53666 62.9496C6.71076 63.5347 7.17503 63.9128 7.57363 63.7942Z" fill="#FFABAB"/>
<path d="M5.4959 63.3718C5.93067 63.2424 6.12918 62.6202 5.93929 61.982C5.74939 61.3438 5.243 60.9313 4.80822 61.0607C4.37345 61.1901 4.17494 61.8123 4.36483 62.4505C4.55473 63.0887 5.06112 63.5012 5.4959 63.3718Z" fill="#FFABAB"/>
<g opacity="0.3">
<path d="M1.6187 63.9657C1.63436 63.6631 1.66902 63.3638 1.72267 63.0712C2.26496 60.1063 5.66178 59.4486 7.88682 61.194C8.8808 61.9746 9.91619 63.2086 10.4674 65.5481C10.4395 65.4174 10.4104 65.2879 10.3813 65.1606L10.3802 65.1595C9.82896 62.82 8.8808 61.0567 7.88682 60.2761C5.66178 58.5307 2.26496 59.1884 1.72267 62.1533C1.61534 62.7384 1.58405 63.3493 1.6187 63.9657Z" fill="white"/>
</g>
<path d="M2.64185 67.8306C3.63472 69.8809 5.23027 71.4666 6.93315 71.6409C9.10226 71.8631 9.95875 70.6637 10.4675 69.3996C10.4675 69.3996 10.6933 68.4717 10.6618 67.4841C10.6248 66.3219 10.4675 65.5481 10.4675 65.5481C10.4395 65.4174 10.4105 65.2879 10.3814 65.1606L10.1455 64.5229C10.3318 65.4941 9.18762 70.1106 6.26003 70.255C4.86862 70.3236 3.61796 69.1897 2.64185 67.8306Z" fill="#DFE8F4"/>
<path d="M10.4679 69.3998C10.3967 70.4246 9.78647 71.4409 8.8021 71.8398C7.81394 72.2324 6.67563 72.2029 5.70493 71.7815C3.84114 70.9253 2.69647 69.1057 1.95111 67.2821C1.0763 65.0595 0.514407 61.4071 2.64229 59.7131C4.04008 58.5841 6.10103 58.6419 7.58248 59.5568C9.52214 60.6948 10.3096 63.4434 10.468 65.5482C9.76901 63.7397 8.87886 61.2584 7.15183 60.2941C5.95386 59.613 4.31477 59.5516 3.209 60.4236C2.28543 61.1214 2.03528 62.347 2.02996 63.4575C2.01751 66.2656 3.4707 69.6608 6.07812 70.9344C7.07401 71.3646 8.32773 71.3563 9.22061 70.7078C9.67764 70.3923 10.0546 69.9092 10.4679 69.3998Z" fill="#000072"/>
<path d="M18.3384 67.537C20.115 69.2684 21.5258 72.4579 25.6168 73.0964C25.792 73.1241 25.9897 73.1312 26.2049 73.12C26.2192 73.12 26.2336 73.1189 26.2479 73.1179C26.2971 73.1149 26.3473 73.1107 26.3985 73.1067C26.4139 73.1046 26.4282 73.1036 26.4436 73.1016C26.4713 73.0995 26.4989 73.0964 26.5276 73.0923C26.5614 73.0883 26.5952 73.0842 26.63 73.0801C26.6782 73.0729 26.7264 73.0657 26.7755 73.0576C26.8042 73.0535 26.8329 73.0484 26.8616 73.0432C26.9528 73.0279 27.047 73.0095 27.1423 72.989C27.1782 72.9819 27.213 72.9747 27.2489 72.9665C27.2509 72.9655 27.254 72.9655 27.2571 72.9644C27.3206 72.9501 27.3851 72.9348 27.4507 72.9184C27.465 72.9153 27.4783 72.9123 27.4917 72.9082C27.5316 72.899 27.5716 72.8887 27.6116 72.8775C27.6925 72.857 27.7745 72.8345 27.8574 72.811C27.92 72.7936 27.9835 72.7741 28.047 72.7557C28.0972 72.7404 28.1474 72.725 28.1986 72.7086C28.3831 72.6513 28.5716 72.5889 28.7642 72.5214C28.796 72.5112 28.8288 72.4999 28.8605 72.4876C28.8738 72.4835 28.8861 72.4784 28.8995 72.4743C28.9445 72.4579 28.9906 72.4416 29.0357 72.4252C29.4015 72.2912 29.7795 72.1428 30.1658 71.9801C30.2631 71.9402 30.3605 71.8982 30.4578 71.8563C31.093 71.583 31.7477 71.2771 32.4034 70.9527C32.4854 70.9118 32.5663 70.8719 32.6483 70.8309C32.678 70.8156 32.7077 70.8003 32.7384 70.7849C32.8767 70.7153 33.014 70.6457 33.1523 70.5741C33.2107 70.5444 33.2681 70.5137 33.3265 70.4841C33.4218 70.435 33.5181 70.3848 33.6134 70.3337C33.6236 70.3275 33.6349 70.3224 33.6461 70.3163C33.7353 70.2692 33.8244 70.2221 33.9136 70.174C34.2476 69.995 34.5785 69.8138 34.9033 69.6307C35.0068 69.5724 35.1092 69.5151 35.2106 69.4567C38.0989 67.8134 40.4696 66.1383 40.5362 65.6768C40.8282 63.6466 40.9255 61.3023 39.3826 57.856C38.1173 55.2303 35.4002 52.3887 33.7015 49.2288C33.6728 49.1746 33.6431 49.1203 33.6154 49.0661C33.5765 48.9914 33.5376 48.9167 33.4997 48.841C33.4249 48.6936 33.3532 48.5463 33.2835 48.3979C33.2446 48.3161 33.2077 48.2342 33.1708 48.1513C33.1062 48.006 33.0448 47.8597 32.9853 47.7134C32.9515 47.6305 32.9187 47.5476 32.888 47.4647C32.8358 47.3266 32.7855 47.1874 32.7384 47.0483C32.7302 47.0247 32.722 47.0012 32.7148 46.9776C32.6913 46.905 32.6688 46.8334 32.6462 46.7607C32.598 46.6031 32.553 46.4456 32.512 46.2859C32.4946 46.2184 32.4782 46.1498 32.4618 46.0823C32.4567 46.0639 32.4525 46.0444 32.4485 46.025C32.4147 45.8725 32.3829 45.719 32.3563 45.5655C32.1944 44.6466 32.1739 43.7032 32.3409 42.73C32.4321 42.2051 32.5776 41.6709 32.7855 41.1296C32.8112 41.0621 32.8388 40.9936 32.8665 40.926C32.8931 40.8615 32.9157 40.7981 32.9351 40.7367C33.1769 39.9928 32.9577 39.4279 32.4177 39.0146C29.7283 36.9588 19.1017 38.682 18.0946 40.8032L14.6009 50.3646C14.5497 50.5938 14.5005 50.823 14.4554 51.0523C14.1747 52.45 13.9954 53.855 13.9421 55.2425C13.7608 59.8318 14.9451 64.2288 18.3384 67.537Z" fill="white"/>
<path d="M18.3384 67.537C20.115 69.2684 21.5258 72.4579 25.6168 73.0964C25.792 73.1241 25.9897 73.1312 26.2049 73.12C26.2192 73.12 26.2335 73.1189 26.2479 73.1179C26.2971 73.1149 26.3473 73.1107 26.3985 73.1067C26.4139 73.1046 26.4282 73.1036 26.4436 73.1016C26.4713 73.0995 26.4989 73.0964 26.5276 73.0923C26.5614 73.0883 26.5952 73.0842 26.63 73.0801C26.6782 73.0729 26.7264 73.0657 26.7755 73.0576C26.8042 73.0535 26.8329 73.0484 26.8616 73.0432C26.9528 73.0279 27.047 73.0095 27.1423 72.989C27.1781 72.9819 27.213 72.9747 27.2488 72.9665C27.2509 72.9655 27.2539 72.9655 27.257 72.9644C27.3206 72.9501 27.3851 72.9348 27.4507 72.9184C27.465 72.9153 27.4783 72.9123 27.4917 72.9082C27.5316 72.899 27.5716 72.8887 27.6115 72.8775C27.6925 72.857 27.7744 72.8345 27.8574 72.811C27.9199 72.7936 27.9835 72.7741 28.047 72.7557C28.0972 72.7404 28.1474 72.725 28.1986 72.7086C28.3831 72.6513 28.5716 72.5889 28.7642 72.5214C28.796 72.5112 28.8287 72.4999 28.8605 72.4876C28.8738 72.4835 28.8861 72.4784 28.8994 72.4743C28.9445 72.4579 28.9906 72.4416 29.0357 72.4252C29.4014 72.2912 29.7795 72.1428 30.1658 71.9801C30.2631 71.9402 30.3604 71.8982 30.4578 71.8563C31.093 71.583 31.7477 71.2771 32.4034 70.9527C32.4854 70.9118 32.5663 70.8719 32.6483 70.8309C32.6779 70.8156 32.7077 70.8003 32.7384 70.7849C32.8767 70.7153 33.014 70.6457 33.1523 70.5741C33.2107 70.5444 33.2681 70.5137 33.3265 70.4841C33.4218 70.435 33.5181 70.3848 33.6134 70.3337C33.6236 70.3275 33.6349 70.3224 33.6461 70.3163C33.7353 70.2692 33.8244 70.2221 33.9135 70.174C34.2475 69.995 34.5785 69.8138 34.9032 69.6307C35.0068 69.5724 35.1092 69.5151 35.2106 69.4567C38.0988 67.8134 40.4696 66.1383 40.5362 65.6768C40.8282 63.6466 40.9255 61.3023 39.3826 57.856C39.2279 57.5347 39.0517 57.2103 38.857 56.8828C38.3068 55.9496 37.6163 54.9888 36.8899 53.9962C36.3848 53.3045 35.8622 52.5984 35.3572 51.874C34.7609 51.0165 34.1892 50.1365 33.7015 49.2288C33.6728 49.1746 33.6431 49.1204 33.6154 49.0661C33.5919 49.0211 33.5683 48.9761 33.5458 48.93C33.5294 48.9004 33.515 48.8707 33.4997 48.841C33.4249 48.6936 33.3532 48.5463 33.2835 48.3979C33.2446 48.3161 33.2077 48.2342 33.1708 48.1513C33.1062 48.006 33.0448 47.8597 32.9853 47.7134C32.9515 47.6305 32.9187 47.5476 32.888 47.4647C32.8358 47.3266 32.7855 47.1874 32.7384 47.0483C32.7302 47.0247 32.722 47.0012 32.7149 46.9776C32.6913 46.905 32.6688 46.8334 32.6462 46.7607C32.598 46.6031 32.553 46.4456 32.512 46.2859C32.4946 46.2184 32.4782 46.1498 32.4618 46.0823C32.4567 46.0639 32.4526 46.0444 32.4485 46.025C32.4147 45.8725 32.3829 45.719 32.3563 45.5655C32.1944 44.6466 32.1739 43.7032 32.3409 42.73C32.4321 42.2051 32.5776 41.6709 32.7855 41.1296C32.8112 41.0621 32.8388 40.9936 32.8665 40.926C32.8932 40.8615 32.9157 40.7981 32.9351 40.7367C33.1769 39.9928 32.9577 39.4279 32.4178 39.0146C29.7283 36.9588 19.1017 38.682 18.0946 40.8032L14.6009 50.3646C14.5497 50.5938 14.5005 50.823 14.4554 51.0523C14.1747 52.45 13.9954 53.855 13.9421 55.2425C13.7607 59.8318 14.9451 64.2288 18.3384 67.537Z" fill="white"/>
<path d="M18.2835 69.6564C17.4661 71.0836 16.6354 72.1455 15.8963 72.7195C14.682 73.6632 10.8346 73.6766 8.75158 73.0345C7.55969 72.6671 6.83737 72.1143 6.8396 70.8289C6.84073 69.806 7.17952 69.0891 7.75868 68.5631C8.03486 68.313 8.36469 68.1053 8.73813 67.9277C11.2203 64.5273 13.6276 56.5819 13.9776 52.8666L22.5266 51.6125C22.7961 58.6881 20.5924 65.6273 18.2835 69.6564Z" fill="white"/>
<path d="M22.549 52.8722C22.5334 59.5032 20.4548 65.8674 18.2835 69.6564C17.4661 71.0836 16.6354 72.1455 15.8963 72.7195C14.682 73.6631 10.8346 73.6765 8.75158 73.0345C7.55969 72.6671 6.83737 72.1143 6.8396 70.8289C6.84073 70.4526 6.88656 70.1176 6.97378 69.8183C7.36288 70.3688 8.20259 70.8982 9.91552 71.1394C14.2482 71.748 15.4926 70.5944 14.6943 68.9082C16.2139 68.6312 22.3042 61.5892 22.549 52.8722Z" fill="#DFE8F4"/>
<path d="M18.2835 69.6564C17.4661 71.0836 16.6354 72.1456 15.8963 72.7196C14.682 73.6632 10.8346 73.6766 8.75158 73.0345C7.55969 72.6671 6.83737 72.1143 6.8396 70.829C6.84073 69.806 7.17952 69.0891 7.75868 68.5632C9.16525 68.0886 11.6911 67.6374 14.6943 68.9082C16.2742 69.5771 17.4382 69.7324 18.2835 69.6564Z" fill="white"/>
<path d="M18.2835 69.6564C17.4661 71.0836 16.6354 72.1455 15.8963 72.7195C14.682 73.6632 10.8346 73.6766 8.75158 73.0345C7.55969 72.6671 6.83737 72.1143 6.8396 70.8289C6.84073 70.4526 6.88656 70.1176 6.97378 69.8183C7.274 70.6782 8.1455 71.2132 9.85961 71.4459C14.4858 72.0741 15.4926 70.5944 14.6943 68.9082C16.2742 69.5771 17.4382 69.7323 18.2835 69.6564Z" fill="#DFE8F4"/>
<path d="M11.5777 73.7183C10.4091 73.7185 9.32709 73.6063 8.64033 73.3945C7.56191 73.0623 6.45978 72.4975 6.46216 70.8282C6.46424 69.3542 7.12558 68.3082 8.48294 67.6336C10.0462 65.3181 11.1593 62.8924 11.792 60.422C12.0621 59.3674 12.187 58.5404 12.3315 57.5828C12.4704 56.6625 12.6278 55.6196 12.9479 54.1487C13.4057 52.0443 14.0021 49.9594 14.7205 47.9518C14.7907 47.7561 15.0067 47.6538 15.2024 47.7241C15.3986 47.7941 15.5007 48.0095 15.4306 48.2054C14.7231 50.1823 14.1356 52.2358 13.6846 54.3085C13.3698 55.7557 13.2143 56.786 13.0771 57.695C12.9295 58.6728 12.802 59.5173 12.5225 60.6086C11.8605 63.1933 10.6923 65.727 9.05028 68.1399C9.01254 68.1953 8.96065 68.2397 8.9 68.2684C7.73721 68.8189 7.21788 69.6087 7.21617 70.8292C7.21477 71.8045 7.66101 72.3046 8.86256 72.6749C10.3224 73.1248 13.999 73.0558 15.7592 72.3688C17.7139 71.6061 19.4448 69.1971 20.6332 65.5858C21.8943 61.7537 22.4329 56.7988 22.1498 51.6336C22.1385 51.426 22.2978 51.2485 22.5057 51.2371C22.7143 51.2281 22.8913 51.3848 22.9028 51.5925C23.4871 62.2562 20.5982 71.2889 16.0337 73.0703C14.8997 73.5129 13.1594 73.7183 11.5777 73.7183Z" fill="#000072"/>
<path d="M14.0819 68.7268C12.4936 68.4603 10.9673 68.1519 9.34839 68.2371C10.766 67.433 12.8051 67.7923 14.0819 68.7268Z" fill="#000072"/>
<path d="M9.83586 68.4951C8.54304 69.6702 8.20021 71.4038 9.20714 72.8715L8.48492 73.2587C7.64878 71.4675 8.19218 69.5752 9.83586 68.4951Z" fill="#000072"/>
<path d="M12.4748 68.8717C11.1819 70.0467 10.8391 71.7804 11.846 73.2481L11.1238 73.6352C10.2877 71.8441 10.8311 69.9519 12.4748 68.8717Z" fill="#000072"/>
<path d="M40.5358 65.6764C40.4691 66.1383 38.0991 67.8138 35.2112 69.4567C35.1094 69.5145 35.0064 69.5722 34.9034 69.6312C34.5791 69.8132 34.2474 69.9952 33.9131 70.1734C33.8252 70.2223 33.7359 70.2688 33.6467 70.3165C33.6354 70.3227 33.6241 70.3278 33.614 70.334C33.5185 70.3842 33.4218 70.4344 33.3263 70.4834C33.2685 70.5135 33.2107 70.5449 33.1528 70.5737C33.0146 70.6453 32.8764 70.7156 32.7381 70.7846C32.708 70.7997 32.6778 70.816 32.6489 70.8311C32.566 70.8712 32.4856 70.9114 32.4039 70.9528C31.7479 71.2766 31.0932 71.5829 30.4573 71.8565C30.3605 71.8979 30.2638 71.9406 30.1658 71.9795C29.7799 72.1426 29.4017 72.2907 29.036 72.425C28.9908 72.4414 28.9443 72.4577 28.899 72.474C28.8865 72.4778 28.8739 72.484 28.8601 72.4878C28.8287 72.5003 28.796 72.5116 28.7646 72.5217C28.5723 72.5895 28.3838 72.651 28.1991 72.7087C28.1475 72.725 28.0973 72.7401 28.047 72.7551C27.9842 72.774 27.9201 72.7941 27.8573 72.8104C27.7743 72.8342 27.6926 72.8568 27.6122 72.8769C27.572 72.8882 27.5318 72.8995 27.4916 72.9083C27.479 72.912 27.4652 72.9158 27.4514 72.9183C27.3848 72.9346 27.3207 72.9497 27.2578 72.9648C27.2541 72.966 27.2516 72.966 27.2491 72.966C27.2126 72.9748 27.1787 72.9823 27.1422 72.9886C27.0467 73.0099 26.9525 73.0275 26.862 73.0438C26.8331 73.0488 26.8042 73.0539 26.7753 73.0576C26.7263 73.0652 26.6785 73.0727 26.6308 73.0802C26.5956 73.084 26.5616 73.0878 26.5277 73.0928C26.4988 73.0965 26.4712 73.0991 26.4435 73.1016C26.4285 73.1041 26.4146 73.1041 26.3983 73.1066C26.348 73.1104 26.2977 73.1154 26.2475 73.1179C26.2337 73.1191 26.2198 73.1204 26.2047 73.1204C25.9898 73.1317 25.7926 73.1241 25.6166 73.0965C23.812 72.8154 22.529 72.0373 21.5061 71.1072C20.2104 69.9287 19.3308 68.5054 18.338 67.5365C14.3418 63.6406 13.765 57.6199 13.9422 55.2428C13.9723 54.8361 14.0515 54.5136 14.2589 52.7853C14.3079 52.3824 14.3707 51.8352 14.5944 51.1512C14.6082 51.111 14.622 51.0696 14.6359 51.0282C14.7276 50.7633 14.8206 50.5475 14.8872 50.4006C15.9566 47.2014 17.0261 44.0021 18.0942 40.8029C19.1021 38.6818 29.7284 36.9585 32.4177 39.0144C32.958 39.4285 33.1767 39.9933 32.9354 40.7364C32.9153 40.7979 32.8927 40.8619 32.8663 40.9259C32.8387 40.9937 32.811 41.0627 32.7859 41.1292C32.757 41.2045 32.7293 41.2798 32.7029 41.3551C32.6816 41.4141 32.6615 41.4744 32.6414 41.5346C32.6238 41.5861 32.6074 41.6375 32.5924 41.689C32.5622 41.7831 32.5358 41.876 32.5107 41.9702C32.4981 42.0141 32.4868 42.058 32.4755 42.1019C32.468 42.1283 32.4617 42.1547 32.4554 42.1823C32.4277 42.299 32.4013 42.4145 32.3775 42.5299C32.3649 42.5965 32.3523 42.663 32.341 42.7295C32.1726 43.7035 32.194 44.6473 32.3561 45.566C32.3825 45.7192 32.4152 45.8723 32.4491 46.0254C32.4529 46.0442 32.4566 46.0643 32.4617 46.0819C32.478 46.1496 32.4943 46.2187 32.5119 46.2864C32.5534 46.4458 32.5986 46.6027 32.6464 46.7609C32.669 46.8337 32.6916 46.9052 32.7155 46.978C32.7218 47.0006 32.7306 47.0245 32.7381 47.0483C32.7859 47.1876 32.8349 47.3269 32.8877 47.465C32.9191 47.5478 32.9518 47.6307 32.9857 47.7135C33.0435 47.8591 33.1063 48.0059 33.1704 48.1515C33.2081 48.2344 33.2446 48.3159 33.2835 48.3975C33.3526 48.5469 33.4255 48.6937 33.4997 48.8406C33.5147 48.8707 33.5298 48.9008 33.5462 48.9297C33.5688 48.9761 33.5914 49.0213 33.6153 49.0665C33.6429 49.1205 33.6731 49.1744 33.702 49.2284C34.1896 50.1371 34.7613 51.0169 35.357 51.8741C35.8622 52.5983 36.385 53.3049 36.8902 53.9965C37.6165 54.9893 38.3064 55.9494 38.8568 56.8832C39.0516 57.2108 39.2275 57.5346 39.3821 57.8559C40.9253 61.3024 40.8286 63.6469 40.5358 65.6764Z" fill="white"/>
<path d="M18.3385 67.537C20.115 69.2684 21.5258 72.4579 25.6168 73.0964C25.792 73.1241 25.9897 73.1312 26.2049 73.12C26.2193 73.12 26.2336 73.1189 26.2479 73.1179C26.2971 73.1149 26.3473 73.1107 26.3985 73.1067C26.4139 73.1046 26.4282 73.1036 26.4436 73.1016C26.4713 73.0995 26.499 73.0964 26.5276 73.0923C26.5614 73.0883 26.5952 73.0842 26.6301 73.0801C26.6782 73.0729 26.7264 73.0657 26.7756 73.0576C26.8042 73.0535 26.8329 73.0484 26.8616 73.0432C26.9528 73.0279 27.047 73.0095 27.1423 72.989C27.1782 72.9819 27.213 72.9747 27.2489 72.9665C27.2509 72.9655 27.254 72.9655 27.2571 72.9644C27.3206 72.9501 27.3852 72.9348 27.4507 72.9184C27.4651 72.9153 27.4784 72.9123 27.4917 72.9082C27.5317 72.899 27.5716 72.8887 27.6116 72.8775C27.6925 72.857 27.7745 72.8345 27.8575 72.811C27.92 72.7926 27.9835 72.7741 28.047 72.7557C28.0972 72.7404 28.1474 72.725 28.1987 72.7086C28.3831 72.6513 28.5716 72.5889 28.7642 72.5214C28.796 72.5112 28.8288 72.4999 28.8605 72.4876C28.8739 72.4835 28.8861 72.4784 28.8995 72.4743C28.9445 72.4579 28.9906 72.4416 29.0357 72.4252C29.4015 72.2912 29.7796 72.1428 30.1658 71.9801C30.2631 71.9402 30.3605 71.8982 30.4578 71.8563C31.093 71.583 31.7477 71.2771 32.4034 70.9527C32.4854 70.9118 32.5663 70.8719 32.6483 70.8309C32.678 70.8156 32.7077 70.8003 32.7384 70.7849C32.8768 70.7153 33.014 70.6457 33.1524 70.5741C33.2107 70.5444 33.2681 70.5137 33.3265 70.4841C33.4218 70.4339 33.5181 70.3838 33.6134 70.3337C33.6237 70.3275 33.6349 70.3224 33.6462 70.3163C33.7353 70.2692 33.8245 70.2211 33.9136 70.174C34.2476 69.995 34.5785 69.8128 34.9033 69.6307C35.0068 69.5724 35.1093 69.5151 35.2107 69.4567C35.1584 67.0214 34.7886 60.6444 32.219 60.3742C30.6279 60.2074 30.7518 56.0161 30.7518 56.0161L26.1516 58.0637C26.7274 57.6554 26.6158 57.0793 22.1641 56.8603C17.4327 59.8575 14.6726 58.1241 13.9421 55.2426C13.7608 59.8318 14.9452 64.2288 18.3385 67.537Z" fill="#EFEFEF"/>
<path d="M18.3385 67.5371C18.5331 67.7264 18.7227 67.9331 18.9122 68.1521C18.9553 68.2022 18.9993 68.2534 19.0434 68.3046C19.2155 68.5092 19.3896 68.7241 19.5669 68.9431C19.5946 68.9769 19.6222 69.0116 19.6499 69.0464C19.8722 69.3227 20.1017 69.6061 20.3435 69.8886C20.3947 69.9489 20.447 70.0093 20.5002 70.0697C20.5115 70.083 20.5228 70.0963 20.5351 70.1096C20.5637 70.1413 20.5914 70.174 20.6201 70.2058C20.8957 70.5138 21.1887 70.8177 21.5064 71.1073C22.829 69.1999 23.4304 61.112 22.9919 57.856C22.9469 57.5204 22.8905 57.2011 22.8219 56.8972C22.6139 56.8839 22.3946 56.8716 22.1641 56.8603C17.4327 59.8575 14.6726 58.1241 13.9421 55.2426C13.7608 59.8319 14.9452 64.2289 18.3385 67.5371Z" fill="#D7DAE2"/>
<path d="M33.7019 49.2284C31.8609 50.9416 25.7359 53.0439 20.4352 52.8305C19.5254 52.1364 18.4497 51.7662 17.3225 51.6381C16.7645 51.5741 16.2392 51.6344 15.7743 51.8277C15.3545 51.6344 14.96 51.4097 14.5942 51.1512C14.6081 51.111 14.6219 51.0696 14.6357 51.0282C14.7275 50.7633 14.8204 50.5475 14.8871 50.4006C15.9565 47.2014 17.0259 44.0021 18.0941 40.8029C19.1019 38.6818 29.7283 36.9585 32.4175 39.0144C32.9428 39.4612 33.159 40.031 32.9353 40.7364C32.9152 40.7979 32.8926 40.8619 32.8662 40.9259C32.8385 40.9937 32.8109 41.0627 32.7857 41.1292C32.7568 41.2045 32.7292 41.2798 32.7028 41.3551C32.6814 41.4154 32.6601 41.4756 32.6412 41.5346C32.6236 41.5861 32.6073 41.6375 32.5922 41.689C32.562 41.7831 32.5356 41.876 32.5105 41.9702C32.498 42.0141 32.4867 42.058 32.4753 42.1019C32.4678 42.1283 32.4615 42.1547 32.4552 42.1823C32.4427 42.2312 32.4314 42.2814 32.4201 42.3304C32.405 42.3969 32.3912 42.4634 32.3773 42.5299C32.3648 42.5964 32.3522 42.663 32.3409 42.7295C32.1725 43.7034 32.1939 44.6473 32.356 45.566C32.3824 45.7191 32.4138 45.8723 32.449 46.0254C32.4527 46.0442 32.4565 46.0643 32.4615 46.0818C32.4766 46.1509 32.493 46.2186 32.5118 46.2864C32.5294 46.3555 32.5483 46.4245 32.5671 46.4935C32.5922 46.5826 32.6186 46.6717 32.6463 46.7609C32.6676 46.8337 32.6903 46.9065 32.7154 46.978C32.7217 47.0006 32.7305 47.0245 32.738 47.0483C32.7858 47.1876 32.8348 47.3269 32.8876 47.465C32.919 47.5478 32.9516 47.6307 32.9856 47.7135C33.0434 47.8591 33.1062 48.0059 33.1703 48.1515C33.208 48.2344 33.2444 48.3159 33.2834 48.3975C33.3525 48.5469 33.4254 48.6937 33.4995 48.8406C33.536 48.9159 33.5749 48.9912 33.6151 49.0665C33.6428 49.1204 33.673 49.1744 33.7019 49.2284Z" fill="#DFE8F4"/>
<path d="M15.772 51.8268C17.1315 52.4572 18.7421 52.7621 20.4367 52.8296C19.5269 52.1359 18.4512 51.7654 17.3232 51.6375C16.7637 51.5741 16.2361 51.6345 15.772 51.8268Z" fill="#D7DAE2"/>
<path d="M20.4354 52.8304C18.7427 52.7627 17.1329 52.4577 15.7744 51.8276C16.2394 51.6343 16.7647 51.5741 17.3226 51.6381C18.4498 51.7661 19.5255 52.1364 20.4354 52.8304Z" fill="#DFE8F4"/>
<path d="M15.772 51.8268C17.1315 52.4572 18.7421 52.7621 20.4367 52.8296C19.5269 52.1359 18.4512 51.7654 17.3232 51.6375C16.7637 51.5741 16.2361 51.6345 15.772 51.8268Z" fill="#DFE8F4"/>
<path d="M18.3385 67.5371C18.5331 67.7264 18.7227 67.9331 18.9122 68.1521C18.9553 68.2022 18.9993 68.2534 19.0434 68.3046C19.2155 68.5092 19.3896 68.7241 19.5669 68.9431C19.5946 68.9769 19.6222 69.0116 19.6499 69.0464C19.8722 69.3227 20.1017 69.6061 20.3435 69.8886C20.3947 69.9489 20.447 70.0093 20.5002 70.0697C20.5115 70.083 20.5228 70.0963 20.5351 70.1096C20.5637 70.1413 20.5914 70.174 20.6201 70.2058C20.8957 70.5138 21.1887 70.8177 21.5064 71.1073C22.829 69.1999 23.4304 61.112 22.9919 57.856C22.9469 57.5204 22.8905 57.2011 22.8219 56.8972C22.6139 56.8839 22.3946 56.8716 22.1641 56.8603C17.4327 59.8575 14.6726 58.1241 13.9421 55.2426C13.7608 59.8319 14.9452 64.2289 18.3385 67.5371Z" fill="#DFE8F4"/>
<path d="M17.7241 40.6279C18.4696 39.224 21.4281 38.5547 22.8886 38.2285C25.4728 37.7103 30.3002 37.1426 32.5776 38.6259C33.3411 39.131 33.6272 40.023 33.3191 40.8789C33.0863 41.485 32.8583 42.143 32.7516 42.7774C32.2662 45.411 33.3614 48.0082 34.7477 50.2096C36.2807 52.7164 38.352 54.9459 39.7132 57.5952C40.4002 59.0836 40.8976 60.6565 41.0696 62.2953C41.184 63.4031 41.1293 64.5241 40.9738 65.6228C40.962 65.7221 40.9617 65.7572 40.9141 65.8949C40.7818 66.1879 40.5702 66.3537 40.3574 66.5585C39.9942 66.88 39.6238 67.1568 39.2478 67.4283C38.4956 67.9671 37.7248 68.4646 36.9441 68.946C34.2378 70.5772 29.0524 73.527 25.959 73.586C25.6591 73.5951 25.316 73.5014 25.0231 73.4476C24.6718 73.369 24.3173 73.2659 23.9829 73.1339C21.7311 72.2948 20.1017 70.4578 18.6543 68.6382C17.8175 67.5892 16.8681 66.4693 16.192 65.3074C13.747 61.3794 13.0362 56.3288 14.4472 51.9695C14.0477 54.6616 14.1307 57.3747 14.8243 59.987C15.4878 62.5765 16.7672 64.9738 18.4864 67.0193C20.4861 69.4491 22.4831 72.215 25.8323 72.6561C28.921 72.7479 36.0922 68.5996 38.7461 66.7274C39.2358 66.364 39.7525 66.0275 40.1265 65.568C40.1146 65.5817 40.1116 65.6418 40.1181 65.5889C40.2074 64.9608 40.2738 64.3228 40.2844 63.6916C40.3265 61.7082 39.791 59.7465 38.9671 57.9509C37.6208 55.331 35.5979 53.1744 34.0516 50.6417C32.5636 48.2905 31.4175 45.4687 31.9443 42.6362C32.0312 42.1671 32.1489 41.7038 32.3078 41.256C32.5813 40.5279 32.9238 39.8598 32.1059 39.2955C29.6332 37.7502 23.1693 38.737 20.484 39.7377C20.0726 39.8905 19.6674 40.0602 19.3 40.2667C18.9806 40.4363 18.6125 40.6977 18.4582 40.9918C18.205 41.4734 17.4949 41.1165 17.7241 40.6279Z" fill="#000072"/>
<path d="M24.1802 69.5087C24.1802 69.5087 24.1827 69.5125 24.1866 69.5215C24.1827 69.5138 24.1802 69.5087 24.1802 69.5087Z" fill="#F9D3B7"/>
<path d="M39.3825 57.8558C41.6905 62.3542 42.2763 70.705 36.5654 73.1251C33.1839 74.558 30.1336 73.9784 28.7344 74.2721C28.3411 74.3547 27.0935 65.5799 27.0935 65.5799C27.0935 65.5799 29.0557 63.3829 33.6565 61.9568L34.3393 60.6736L39.3825 57.8558Z" fill="white"/>
<path d="M27.094 65.5802C27.094 65.5802 28.3407 74.3553 28.7343 74.2726C30.1341 73.9789 33.1843 74.5585 36.5655 73.1247C38.5468 72.2849 39.77 70.7327 40.4252 68.8733C41.6629 65.3747 40.8904 60.7939 39.382 57.8558L34.8738 60.3751L34.3393 60.6733L33.6562 61.9564C29.0552 63.3825 27.094 65.5802 27.094 65.5802Z" fill="white"/>
<path d="M27.9218 64.8375C27.8366 65.7379 27.701 67.1926 27.5698 68.7435C27.2996 67.0291 27.0933 65.58 27.0933 65.58C27.0933 65.58 27.359 65.2832 27.9218 64.8375Z" fill="#DFE8F4"/>
<path d="M40.4249 68.8723C39.77 70.7323 38.5468 72.2844 36.5656 73.1243C35.2548 73.6798 33.9945 73.9328 32.8599 74.0515C33.5909 73.626 34.295 73.0818 34.9028 72.3897L35.1113 69.2967C36.6452 69.3325 36.727 68.0246 37.9256 67.4344C38.5244 67.141 39.9147 68.0828 40.5583 66.3795C40.8128 67.4445 40.5134 68.3683 40.4249 68.8723Z" fill="#DFE8F4"/>
<path d="M38.6675 69.0279C39.2279 68.9992 39.819 68.9378 40.4338 68.8263C40.4901 68.5275 40.6069 68.0967 40.6448 67.5851C40.1193 68.1479 39.4687 68.6483 38.6675 69.0279Z" fill="#EFEFEF"/>
<path d="M32.9924 74.0369C33.9514 73.9284 34.9975 73.7206 36.0845 73.3154C37.025 71.9831 37.2586 69.7084 37.0312 68.1561C36.8693 68.3383 36.7208 68.5235 36.5599 68.6903C36.2484 70.4319 35.3386 72.7465 32.9924 74.0369Z" fill="#DFE8F4"/>
<path d="M27.2748 75.5597C27.6863 75.6133 32.2325 75.4324 34.9026 72.3893C34.9026 72.3893 37.586 70.3748 37.9259 67.4345C37.2249 67.497 36.8335 67.2413 36.8335 67.2413C36.8335 67.2413 36.6446 69.3396 35.1005 69.2972C33.9455 69.2659 34.1434 63.6019 29.1555 64.2217C28.7172 64.2764 28.3113 64.4339 27.9368 64.6751C27.6896 67.2614 26.9293 75.515 27.2748 75.5597Z" fill="#5D5D6D"/>
<path d="M39.7472 57.6692C41.8547 61.9087 42.5199 68.6152 38.8024 72.1634C36.5795 74.1814 33.3819 74.5548 30.5101 74.5736C29.9394 74.5871 29.377 74.5698 28.8265 74.6713C28.7672 74.6839 28.6509 74.6866 28.5884 74.6586C28.4003 74.6051 28.2854 74.3981 28.2296 74.2464C28.0797 73.8373 27.9975 73.4214 27.9089 73.0227C27.6889 71.972 27.51 70.9155 27.335 69.8591C27.1048 68.453 26.8909 67.0477 26.6879 65.6376C26.6637 65.5345 26.6901 65.4314 26.7506 65.3541C27.6032 64.3217 28.7808 63.6073 29.9741 63.0394C31.1454 62.5052 32.3816 62.1262 33.6566 61.9567C32.5458 62.5383 31.4194 63.0946 30.352 63.7496C29.3171 64.3866 28.3182 65.062 27.3994 65.8523L27.4994 65.5223C27.8048 67.6239 28.1238 69.7295 28.5067 71.8177C28.6366 72.5102 28.8073 73.4178 29.0036 73.9851C28.9602 73.9385 28.9197 73.9065 28.8492 73.8825C28.798 73.867 28.6983 73.8541 28.651 73.8714L28.6604 73.8696C29.2687 73.7529 29.8955 73.7682 30.4994 73.755C32.5773 73.7549 34.6843 73.5359 36.5842 72.6681C39.1558 71.5415 40.3977 68.7805 40.5848 66.0905C40.7907 63.3519 40.2409 60.4976 39.0164 58.0397C38.783 57.5598 39.4863 57.1891 39.7472 57.6692Z" fill="#000072"/>
<path d="M34.9023 72.3898C32.2328 75.4329 27.6861 75.6129 27.2754 75.5594C26.8647 75.5059 28.011 63.9089 28.011 63.9089C28.011 63.9089 30.7933 58.8218 35.7006 60.575C35.7006 60.575 38.0981 63.0187 37.9584 67.0079C37.8473 70.1777 34.9023 72.3898 34.9023 72.3898Z" fill="white"/>
<path d="M27.2756 75.5594C27.6865 75.6126 32.2324 75.4325 34.9024 72.3894C34.9024 72.3894 37.8469 70.1781 37.9586 67.008C38.0979 63.0183 35.7005 60.5747 35.7005 60.5747C34.7056 60.2196 33.7989 60.145 32.9834 60.2534C31.9865 60.3844 31.1279 60.7886 30.4189 61.2828C29.8882 61.6512 29.4426 62.0707 29.083 62.4647C28.3791 63.2362 28.0113 63.9085 28.0113 63.9085C28.0113 63.9085 28.0072 63.9464 28.001 64.019C27.8852 65.2019 26.8884 75.5093 27.2756 75.5594Z" fill="white"/>
<path d="M27.2756 75.5594C27.4416 75.5809 28.2848 75.5646 29.4067 75.3353C31.0255 75.0048 33.2242 74.2323 34.8081 72.4948C34.8399 72.46 34.8716 72.4252 34.9024 72.3894C34.9024 72.3894 37.8469 70.1781 37.9586 67.008C38.0979 63.0183 35.7005 60.5747 35.7005 60.5747C34.7056 60.2196 33.7989 60.145 32.9834 60.2534C31.9865 60.3844 31.1279 60.7886 30.4189 61.2828C29.8882 61.6512 29.4426 62.0707 29.083 62.4647C28.3791 63.2362 28.0113 63.9085 28.0113 63.9085C28.0113 63.9085 28.0072 63.9464 28.001 64.019C27.8852 65.2019 26.8884 75.5093 27.2756 75.5594Z" fill="white"/>
<path d="M35.0354 72.2829C35.3878 71.9913 36.3683 71.1144 37.0978 69.8445C37.1613 68.6769 37.0066 67.581 36.6993 66.9794C36.7341 68.0405 36.4872 70.396 35.0354 72.2829Z" fill="white"/>
<path d="M27.2748 75.5597C27.6863 75.6133 32.2325 75.4324 34.9026 72.3894C34.9026 72.3894 37.586 70.3748 37.9259 67.4345C37.5775 67.657 36.3022 69.651 35.0093 69.5763C33.8376 69.5087 34.3525 66.3658 33.3042 65.5981C32.2849 64.8515 31.1706 63.9713 29.1555 64.2217C28.7172 64.2764 28.3113 64.4339 27.9368 64.6751C27.6896 67.2614 26.9293 75.515 27.2748 75.5597Z" fill="#DFE8F4"/>
<path d="M35.1113 69.2966L34.9027 72.3896C34.295 73.0817 33.5909 73.626 32.8598 74.0515C31.0681 74.2396 29.5914 74.0929 28.7337 74.2721C28.5004 74.3214 27.9656 71.2485 27.5698 68.7435C27.701 67.1925 27.8367 65.7378 27.9219 64.8374C28.1035 64.693 28.3155 64.534 28.5587 64.3649C28.7505 64.2954 28.95 64.2473 29.1552 64.2215C34.1436 63.6022 33.9452 69.2653 35.1001 69.2966H35.1113Z" fill="#DFE8F4"/>
<path d="M28.7335 74.2722C29.5913 74.093 31.068 74.2397 32.8597 74.0516C30.3784 75.5018 27.5933 75.6003 27.2748 75.5589C27.0472 75.5298 27.2995 71.9328 27.5697 68.7435C27.9655 71.2486 28.5003 74.3215 28.7335 74.2722Z" fill="white"/>
<path d="M35.7011 60.5754L35.1113 69.2968H35.1001C33.9452 69.2654 34.1436 63.6023 29.1552 64.2216C28.95 64.2474 28.7505 64.2955 28.5587 64.365C28.3154 64.5341 28.1035 64.6931 27.9219 64.8376C27.9768 64.2586 28.0116 63.9092 28.0116 63.9092C28.0116 63.9092 30.7934 58.8217 35.7011 60.5754Z" fill="white"/>
<path d="M34.9023 72.3898C33.5077 74.6531 30.7551 75.6123 28.2305 75.9442C27.9606 75.9778 27.6724 75.9967 27.3933 76.0002C27.3538 76.001 27.2599 75.9925 27.221 75.9914C27.0296 75.9697 26.872 75.8163 26.8193 75.6379C26.6899 75.0785 26.7551 74.4935 26.7538 73.9513C26.8095 72.2575 26.9412 70.58 27.0853 68.8955C27.2308 67.2166 27.3986 65.5419 27.6032 63.8686C27.6081 63.8141 27.6248 63.7576 27.6515 63.7124C28.4216 62.2989 29.6183 61.107 31.0845 60.4254C32.5374 59.7337 34.3128 59.7478 35.7006 60.575C34.5653 60.4013 33.4878 60.3881 32.4208 60.7295C30.8678 61.2125 29.6248 62.3846 28.6712 63.6708C28.5678 63.8146 28.4555 63.9702 28.3707 64.105L28.4189 63.9491C28.2417 66.3672 28.0111 69.0523 27.8233 71.4838C27.7473 72.7564 27.5946 74.068 27.6455 75.3295L27.6513 75.3691C27.652 75.3743 27.6519 75.3713 27.6502 75.368C27.6121 75.2427 27.4502 75.1365 27.3356 75.1275C27.3791 75.1317 27.5025 75.1323 27.5486 75.1315C30.226 75.0502 32.7815 74.0251 34.9023 72.3898Z" fill="#000072"/>
<path d="M26.9544 70.7862C26.137 72.2133 25.3063 73.2753 24.5672 73.8493C23.3529 74.7929 19.5055 74.8063 17.4225 74.1642C16.2306 73.7968 15.5083 73.244 15.5105 71.9587C15.5116 70.9358 15.8504 70.2189 16.4296 69.6929C16.7058 69.4427 17.0356 69.235 17.409 69.0575C19.8912 65.6571 22.2985 57.7117 22.6485 53.9964L31.1975 52.7423C31.467 59.8178 29.2632 66.7571 26.9544 70.7862Z" fill="white"/>
<path d="M31.2199 54.0021C31.2043 60.6331 29.1257 66.9972 26.9544 70.7862C26.137 72.2134 25.3063 73.2754 24.5672 73.8494C23.3529 74.793 19.5055 74.8064 17.4225 74.1643C16.2306 73.7969 15.5083 73.2441 15.5105 71.9588C15.5116 71.5825 15.5575 71.2474 15.6447 70.9482C16.0338 71.4987 16.8735 72.028 18.5864 72.2693C22.9191 72.8778 24.1635 71.7243 23.3652 70.038C24.8848 69.7611 30.9751 62.7191 31.2199 54.0021Z" fill="#EFEFEF"/>
<path d="M26.9544 70.7862C26.137 72.2133 25.3063 73.2753 24.5672 73.8493C23.3529 74.7929 19.5055 74.8064 17.4225 74.1642C16.2306 73.7969 15.5083 73.2441 15.5105 71.9587C15.5116 70.9358 15.8504 70.2189 16.4296 69.6929C17.8361 69.2183 20.362 68.7672 23.3652 70.038C24.9451 70.7069 26.1091 70.8621 26.9544 70.7862Z" fill="white"/>
<path d="M26.9544 70.7862C26.137 72.2133 25.3063 73.2753 24.5672 73.8493C23.3529 74.7929 19.5055 74.8063 17.4225 74.1642C16.2306 73.7968 15.5083 73.244 15.5105 71.9587C15.5116 71.5824 15.5575 71.2473 15.6447 70.9481C15.9449 71.8079 16.8164 72.3429 18.5305 72.5757C23.1567 73.2038 24.1635 71.7242 23.3652 70.038C24.9451 70.7069 26.1091 70.8621 26.9544 70.7862Z" fill="#DFE8F4"/>
<path d="M22.649 53.9961C22.5812 56.0134 22.1698 58.0106 21.6818 59.9659C21.1801 61.9292 20.5596 63.8634 19.7561 65.7264C19.1985 66.9855 18.5799 68.2214 17.7249 69.3191C17.6869 69.3677 17.6374 69.4045 17.5848 69.428C17.2653 69.5839 16.97 69.7692 16.7262 69.9936C16.0027 70.6297 15.7758 71.8083 16.0794 72.6859C16.544 73.8112 18.657 73.9694 19.7551 74.0802C20.4964 74.1342 21.2447 74.13 21.9794 74.073C22.6791 74.0082 23.4008 73.9122 24.0304 73.6097C25.9688 72.392 27.7835 68.3109 28.5918 66.1512C30.1698 61.8505 31.0351 57.3425 31.1973 52.7429C31.6082 56.5753 31.137 60.5044 30.1037 64.2239C29.2305 67.2114 28.0978 70.1725 26.2646 72.724C25.7644 73.376 25.2146 74.0747 24.4758 74.4781C22.499 75.444 18.0256 75.2709 16.1489 74.0959C14.9027 73.3369 14.8541 71.6402 15.3726 70.4285C15.7221 69.622 16.4614 69.0342 17.2337 68.6883C17.2346 68.6874 17.0782 68.8171 17.0782 68.817C17.7852 67.7411 18.3756 66.5585 18.9177 65.356C19.7342 63.5479 20.4447 61.675 21.0795 59.7895C21.7059 57.8871 22.2886 55.9737 22.649 53.9961Z" fill="#000072"/>
<path d="M22.7529 69.8568C21.1648 69.5902 19.6384 69.2818 18.0195 69.367C19.437 68.5629 21.4762 68.9222 22.7529 69.8568Z" fill="#000072"/>
<path d="M18.5068 69.625C17.2139 70.8 16.8711 72.5336 17.878 74.0014L17.1558 74.3885C16.3197 72.5974 16.8631 70.7051 18.5068 69.625Z" fill="#000072"/>
<path d="M21.1457 70.0015C19.8528 71.1765 19.51 72.9101 20.5169 74.3779L19.7947 74.765C18.9586 72.9739 19.502 71.0816 21.1457 70.0015Z" fill="#000072"/>
<path d="M26.5126 75.3847C22.3372 74.1441 23.9033 66.6776 24.9279 64.7492C26.2842 61.8964 29.4355 61.4324 31.3787 62.5959C32.1678 63.0683 34.4183 64.9682 33.7657 68.8016C33.0783 72.8393 30.0381 76.41 26.5126 75.3847Z" fill="white"/>
<g opacity="0.3">
<path d="M24.1531 67.0659C24.3253 66.4852 24.5131 66.0039 24.6853 65.6801C26.0415 62.8269 29.1935 62.3623 31.1368 63.5259C31.9262 63.9983 34.1758 65.899 33.5239 69.7326C33.5005 69.8722 33.4736 70.0107 33.4434 70.1492C33.5798 69.7103 33.6872 69.2591 33.7655 68.8013C34.4184 64.9676 32.1677 63.0681 31.3783 62.5957C29.4362 61.4321 26.2842 61.8967 24.9279 64.7487C24.6708 65.2334 24.3789 66.0676 24.1531 67.0659Z" fill="white"/>
</g>
<path d="M26.5123 75.3844C29.4026 76.2253 31.9687 73.9762 33.1763 70.912C31.7473 73.3029 29.4431 74.732 26.9311 73.9316C24.4013 73.1255 23.8076 70.0086 24.1375 67.1353C23.4778 70.1046 23.4107 74.4631 26.5123 75.3844Z" fill="#DFE8F4"/>
<path d="M27.7331 75.971C27.289 75.971 26.8422 75.9069 26.398 75.7776C26.3972 75.7775 26.3965 75.7773 26.3958 75.777C25.2455 75.4352 24.4063 74.6518 23.9013 73.4484C22.7271 70.6502 23.7056 66.1852 24.5616 64.5655C25.2126 63.2015 26.3248 62.2229 27.6941 61.8091C29.0126 61.4109 30.4688 61.5738 31.5895 62.2446C31.9339 62.451 34.9325 64.3891 34.1697 68.8702C33.7077 71.5842 32.2484 74.0035 30.3612 75.1839C29.5259 75.7064 28.6349 75.971 27.7331 75.971ZM26.6286 74.9921C27.7591 75.3204 28.8687 75.1515 29.9262 74.4901C31.6213 73.4299 32.9377 71.2238 33.3617 68.7329C34.0333 64.7881 31.4632 63.1235 31.168 62.9468C30.2423 62.3924 29.0326 62.2605 27.9314 62.5927C27.1193 62.838 26.0032 63.4418 25.2982 64.9248C25.2955 64.9303 25.2928 64.9357 25.29 64.941C24.5182 66.3935 23.5953 70.6012 24.6572 73.1319C25.0625 74.0978 25.7258 74.7236 26.6286 74.9921Z" fill="#000072"/>
<path d="M30.6705 70.8437C31.0468 69.1377 30.2362 67.5086 28.8599 67.205C27.4836 66.9014 26.0628 68.0383 25.6865 69.7443C25.3102 71.4503 26.1208 73.0794 27.4971 73.3829C28.8734 73.6865 30.2942 72.5497 30.6705 70.8437Z" fill="#FFABAB"/>
<path d="M27.656 65.9506C27.7942 65.3239 27.4964 64.7255 26.9909 64.614C26.4853 64.5025 25.9635 64.9201 25.8252 65.5467C25.687 66.1734 25.9848 66.7718 26.4903 66.8833C26.9959 66.9948 27.5177 66.5772 27.656 65.9506Z" fill="#FFABAB"/>
<path d="M32.3715 67.4662C32.5098 66.8395 32.212 66.2411 31.7065 66.1296C31.2009 66.0181 30.679 66.4357 30.5408 67.0624C30.4026 67.689 30.7003 68.2874 31.2059 68.3989C31.7114 68.5105 32.2333 68.0928 32.3715 67.4662Z" fill="#FFABAB"/>
<path d="M30.4688 65.7301C30.6222 65.0347 30.2918 64.3707 29.7308 64.247C29.1699 64.1233 28.5908 64.5866 28.4374 65.282C28.284 65.9773 28.6144 66.6413 29.1754 66.7651C29.7363 66.8888 30.3154 66.4254 30.4688 65.7301Z" fill="#FFABAB"/>
<g opacity="0.8">
<path d="M34.6151 50.0614C33.4671 50.4106 33.2702 51.9494 34.6021 52.6486C33.423 54.6347 34.8285 55.5118 36.3079 55.3589C36.4732 56.6649 38.6402 56.5612 38.395 55.1633C39.6598 54.3912 39.3117 52.4403 37.7267 52.441C38.3224 51.3622 37.574 50.1907 36.5979 50.1171C37.2798 47.8366 33.8975 48.0258 34.6151 50.0614Z" fill="white"/>
</g>
<path d="M37.4145 56.5585C37.2231 56.5585 37.029 56.5232 36.8478 56.4503C36.4746 56.3007 36.2075 56.0179 36.0878 55.6553C35.2144 55.6816 34.4728 55.3732 34.1172 54.8181C33.8689 54.4308 33.7004 53.7656 34.2255 52.7488C33.6551 52.3553 33.3446 51.76 33.403 51.142C33.4548 50.594 33.7813 50.1356 34.2755 49.8943C34.1481 49.3121 34.3089 48.8067 34.7341 48.4822C35.2195 48.1115 35.9297 48.0895 36.4227 48.4294C36.6418 48.5806 37.0944 49.0086 36.9391 49.8959C37.3766 50.0233 37.765 50.3369 37.9963 50.7641C38.2394 51.2131 38.285 51.72 38.1341 52.2012C38.7465 52.328 39.2076 52.7447 39.3787 53.3514C39.5843 54.0802 39.3101 54.8419 38.6933 55.3006C38.7147 55.6958 38.5721 56.0353 38.2822 56.2701C38.0485 56.4593 37.7351 56.5585 37.4145 56.5585ZM36.3082 55.0785C36.4481 55.0785 36.5688 55.1824 36.5867 55.3239C36.6351 55.7061 36.9022 55.8675 37.0572 55.9296C37.3539 56.0485 37.7121 56.0092 37.9284 55.8341C38.1022 55.6935 38.166 55.4842 38.1183 55.212C38.0983 55.0985 38.15 54.9843 38.2485 54.9241C38.8319 54.568 38.9649 53.954 38.8379 53.5036C38.6998 53.0141 38.2847 52.7219 37.7276 52.7219C37.7273 52.7219 37.7271 52.7217 37.7267 52.7219C37.6273 52.7219 37.5353 52.6695 37.4848 52.584C37.4342 52.4985 37.4326 52.3927 37.4807 52.3058C37.709 51.8923 37.7168 51.4276 37.502 51.031C37.3056 50.6683 36.951 50.4254 36.5767 50.3972C36.4919 50.3907 36.4146 50.3464 36.3664 50.2764C36.3182 50.2065 36.3043 50.1185 36.3286 50.0371C36.487 49.5076 36.407 49.1007 36.1035 48.8913C35.8148 48.6924 35.3631 48.7083 35.0754 48.9281C34.7898 49.1461 34.7205 49.5155 34.8802 49.9683C34.9056 50.0405 34.9004 50.1199 34.8658 50.1882C34.8313 50.2565 34.7703 50.3078 34.697 50.33C34.2824 50.4561 34.001 50.7875 33.9625 51.1947C33.9172 51.6726 34.2053 52.1234 34.7329 52.4003C34.8011 52.4362 34.8516 52.4984 34.8725 52.5724C34.8935 52.6463 34.8831 52.7257 34.8438 52.7919C34.4166 53.5115 34.329 54.1076 34.5904 54.5156C34.8602 54.9366 35.5231 55.1583 36.279 55.08C36.2888 55.079 36.2986 55.0785 36.3082 55.0785Z" fill="#39D4FF"/>
<path d="M35.3521 52.0691C35.6171 51.9753 35.7248 51.5966 35.5926 51.2234C35.4605 50.8502 35.1385 50.6238 34.8734 50.7176C34.6084 50.8115 34.5007 51.1901 34.6329 51.5633C34.765 51.9365 35.087 52.163 35.3521 52.0691Z" fill="white"/>
<g opacity="0.8">
<path d="M20.9362 59.7835C19.7549 59.0925 18.3111 60.1183 18.7547 61.7744C16.1755 62.324 16.5269 64.1792 17.7998 65.2995C16.8318 66.4484 18.5954 68.1823 19.5789 66.8955C21.2055 67.3569 22.5735 65.5561 21.3465 64.2297C22.713 63.8937 23.117 62.3607 22.4235 61.4865C24.8652 60.293 22.0894 57.6077 20.9362 59.7835Z" fill="white"/>
</g>
<path d="M18.7516 67.6712C18.6894 67.6712 18.6265 67.6667 18.5629 67.6575C18.0204 67.5787 17.5135 67.1522 17.3017 66.596C17.1386 66.1678 17.1693 65.7255 17.381 65.3446C16.6814 64.6352 16.3682 63.7745 16.5588 63.0472C16.6919 62.5396 17.1198 61.8839 18.3793 61.5367C18.2683 60.7548 18.5277 60.0341 19.0916 59.6049C19.5917 59.2244 20.2289 59.143 20.8138 59.37C21.2039 58.8128 21.7527 58.5565 22.3539 58.6613C23.0404 58.781 23.6085 59.3585 23.7047 60.0342C23.7474 60.3345 23.7381 61.0447 22.8734 61.6011C23.105 62.0659 23.1423 62.6338 22.9628 63.158C22.7741 63.7089 22.3838 64.1393 21.8632 64.3853C22.2306 64.9961 22.2377 65.7048 21.8609 66.3173C21.4082 67.0533 20.5567 67.4127 19.6946 67.2515C19.4271 67.5263 19.1016 67.6712 18.7516 67.6712ZM20.1539 59.8864C19.9136 59.8864 19.6791 59.9627 19.4802 60.1141C19.0441 60.446 18.8886 61.0359 19.0644 61.692C19.0871 61.7768 19.074 61.8671 19.0281 61.9419C18.9822 62.0168 18.9076 62.0695 18.8216 62.0877C17.8871 62.2868 17.3191 62.6746 17.179 63.2093C17.0343 63.7608 17.3612 64.4871 18.0117 65.0596C18.1424 65.1746 18.1572 65.3728 18.0451 65.5059C17.7618 65.842 17.8331 66.1905 17.9009 66.3684C18.0304 66.7087 18.3406 66.9782 18.6551 67.0238C18.9076 67.0604 19.1326 66.952 19.3241 66.7015C19.4041 66.597 19.5398 66.5514 19.6665 66.5878C20.4166 66.8008 21.035 66.437 21.3147 65.9821C21.6189 65.4875 21.5428 64.9137 21.1111 64.4471C21.0342 64.3639 21.007 64.2462 21.0396 64.1378C21.0722 64.0293 21.1599 63.9461 21.2699 63.919C21.7936 63.7903 22.1896 63.4373 22.3563 62.9507C22.5088 62.5055 22.4382 62.0208 22.1723 61.6856C22.1121 61.6096 22.0895 61.5105 22.1109 61.416C22.1324 61.3215 22.1955 61.2417 22.2826 61.1992C22.8496 60.9221 23.1292 60.5403 23.07 60.1242C23.0137 59.7286 22.6507 59.3629 22.2437 59.2919C21.8396 59.2221 21.476 59.4493 21.2195 59.9334C21.1787 60.0105 21.108 60.0677 21.0239 60.0916C20.9399 60.1157 20.8497 60.104 20.7743 60.0599C20.576 59.944 20.3628 59.8864 20.1539 59.8864Z" fill="#39D4FF"/>
<path d="M20.7226 61.5078C20.9343 61.1088 20.8763 60.6634 20.5929 60.5131C20.3096 60.3628 19.9083 60.5644 19.6966 60.9635C19.4849 61.3625 19.5429 61.8079 19.8262 61.9582C20.1095 62.1085 20.5108 61.9069 20.7226 61.5078Z" fill="white"/>
<path d="M4.21799 25.6501C1.88654 22.0874 0.309518 11.4114 3.07651 9.68645C5.9378 7.9027 13.8157 12.4865 15.811 14.5053L4.21799 25.6501Z" fill="#FAA625"/>
<path d="M15.811 14.5055L13.5901 16.6409L4.21782 25.6504C2.38251 22.8445 1.01461 15.6311 1.86585 11.8476C2.09566 10.8253 2.48757 10.0538 3.07619 9.68628C5.93799 7.90271 13.8161 12.4861 15.811 14.5055Z" fill="#F9A528"/>
<g opacity="0.5">
<path d="M15.8109 14.5055L15.4086 14.8924C12.9615 12.7464 5.74915 8.72327 3.03804 10.4124C2.44942 10.7799 2.05751 11.5514 1.8277 12.5737C1.72587 13.0266 1.65534 13.5281 1.61426 14.0648C1.63857 13.2511 1.71872 12.4982 1.86577 11.8476C2.09558 10.8253 2.48749 10.0538 3.07611 9.68628C5.9379 7.90271 13.816 12.4861 15.8109 14.5055Z" fill="white"/>
</g>
<path d="M13.5901 16.6409L4.21782 25.6504C2.38251 22.8446 1.01461 15.6312 1.86585 11.8477C2.27247 11.2174 2.79218 10.8722 3.46401 10.8756C6.69862 10.8921 12.5079 15.5049 13.5901 16.6409Z" fill="#F47E1E"/>
<path d="M3.89451 25.8612C2.09304 23.1084 0.599376 15.7933 1.48151 11.7958C1.74813 10.5877 2.21588 9.76781 2.87195 9.35883C4.60197 8.28046 7.66459 9.28566 9.92926 10.3186C12.6636 11.566 15.0964 13.2323 16.0863 14.2339L15.536 14.7765C13.4583 12.6744 5.83023 8.4251 3.2813 10.014C2.81491 10.3048 2.45364 10.9783 2.23658 11.962C1.39048 15.7962 2.81792 22.8046 4.54167 25.4388L3.89451 25.8612Z" fill="#000072"/>
<path d="M3.83205 11.556C4.73338 10.7947 10.1624 12.7487 10.6117 14.5468C11.0354 16.2423 8.86839 18.7212 8.50135 18.9977C8.13431 19.2742 5.68769 21.6812 4.79295 20.8404C3.30832 19.4452 2.62309 12.5772 3.83205 11.556Z" fill="#FF8080"/>
<path d="M8.50112 18.9973C8.1341 19.2745 5.68803 21.6814 4.79307 20.8403C4.20312 20.2863 3.73924 18.8673 3.47099 17.2948C3.19225 15.6654 3.12305 13.8706 3.3391 12.7004C3.43975 12.1584 3.60161 11.7503 3.83181 11.5557C4.73315 10.7943 10.1622 12.7483 10.612 14.547C11.035 16.2426 8.86824 18.7211 8.50112 18.9973Z" fill="#FFA9A9"/>
<path d="M8.50113 18.9974C8.13411 19.2745 5.68804 21.6814 4.79308 20.8403C4.20313 20.2863 3.73925 18.8673 3.471 17.2948C3.94191 18.0011 4.58192 18.5939 5.1731 17.9368C6.13772 16.862 7.57844 15.5865 7.16593 14.0683C6.88927 13.051 4.35324 11.942 3.33911 12.7004C3.43976 12.1584 3.60162 11.7503 3.83182 11.5557C4.73316 10.7943 10.1622 12.7483 10.612 14.547C11.035 16.2426 8.86825 18.7211 8.50113 18.9974Z" fill="#F28686"/>
<path d="M5.26971 21.4046C4.99315 21.4046 4.74013 21.321 4.52817 21.1218C3.32674 19.9927 2.76984 16.2581 2.82981 13.9964C2.8676 12.5715 3.12082 11.6514 3.58249 11.2613C4.20737 10.7332 5.77296 11.1288 6.65076 11.4117C8.09529 11.8771 10.6341 13.0415 10.9869 14.4533C11.4675 16.3767 9.16691 18.9801 8.73432 19.3061C8.69347 19.3368 8.59673 19.4213 8.48474 19.5192C7.72985 20.1791 6.32803 21.4046 5.26971 21.4046ZM4.52069 11.7724C4.27563 11.7724 4.13179 11.8087 4.0818 11.8509C3.87333 12.0271 3.63795 12.6885 3.60279 14.0168C3.53394 16.6121 4.24115 19.7918 5.05799 20.5593C5.2492 20.7389 5.88272 20.7676 7.97554 18.9382C8.11393 18.8172 8.2054 18.7373 8.26869 18.6896C8.67676 18.3821 10.5886 16.0485 10.2366 14.6403C10.0412 13.858 8.39752 12.786 6.41337 12.1467C5.52217 11.8595 4.90015 11.7724 4.52069 11.7724Z" fill="#000072"/>
<path d="M38.292 26.7787C40.912 23.4219 43.3724 12.9138 40.7586 10.9651C38.0557 8.94986 29.8234 12.8635 27.667 14.7096L38.292 26.7787Z" fill="#FAA625"/>
<path d="M27.667 14.7098L29.7024 17.0222L38.2921 26.7789C40.3547 24.1352 42.3184 17.0604 41.7851 13.2193C41.6412 12.1814 41.3149 11.38 40.7589 10.9649C38.0555 8.94984 29.8231 12.8631 27.667 14.7098Z" fill="white"/>
<g opacity="0.5">
<path d="M27.667 14.7098L28.0357 15.1288C30.653 13.1935 38.1753 9.78325 40.7364 11.6917C41.2924 12.1068 41.6187 12.9082 41.7626 13.9461C41.8264 14.4058 41.8549 14.9114 41.8511 15.4497C41.8947 14.6367 41.8775 13.8798 41.7851 13.2193C41.6412 12.1814 41.3148 11.38 40.7589 10.9649C38.0555 8.94984 29.8231 12.8631 27.667 14.7098Z" fill="white"/>
</g>
<path d="M29.7024 17.0223L38.2922 26.779C40.3547 24.1352 42.3185 17.0604 41.7851 13.2193C41.4324 12.5575 40.9433 12.1703 40.2735 12.1179C37.0487 11.8658 30.8755 15.9801 29.7024 17.0223Z" fill="#DFE8F4"/>
<path d="M38.5968 27.0159L37.987 26.5411C39.9241 24.0592 41.9302 17.1936 41.4062 13.3024C41.2717 12.3041 40.9678 11.6029 40.5272 11.2743C38.1191 9.47932 30.1639 13.0803 27.9185 15.0027L27.4153 14.4163C28.4851 13.5006 31.0481 12.0418 33.877 11.0259C36.2198 10.1843 39.3558 9.43713 40.9898 10.6556C41.6094 11.1176 42.0074 11.9734 42.1725 13.1994C42.7188 17.2563 40.6212 24.4222 38.5968 27.0159Z" fill="#000072"/>
<path d="M39.8502 12.7654C39.0153 11.9318 33.4425 13.4282 32.845 15.1828C32.2816 16.8372 34.2347 19.4875 34.5775 19.7936C34.9202 20.0996 37.158 22.7015 38.1196 21.9379C39.7153 20.6708 40.9699 13.8835 39.8502 12.7654Z" fill="#FF8080"/>
<path d="M34.5776 19.7932C34.9203 20.0998 37.1575 22.7016 38.1194 21.9377C38.7534 21.4346 39.3339 20.059 39.7321 18.5143C40.1455 16.9136 40.3639 15.1308 40.246 13.9468C40.1909 13.3982 40.0635 12.9781 39.8503 12.7651C39.0155 11.9315 33.4426 13.4278 32.8446 15.183C32.2819 16.8376 34.2348 19.4874 34.5776 19.7932Z" fill="#FFA9A9"/>
<path d="M34.5776 19.7932C34.9203 20.0998 37.1575 22.7016 38.1194 21.9377C38.7534 21.4346 39.3339 20.059 39.7321 18.5143C39.204 19.1789 38.5169 19.7166 37.9824 19.0126C37.1106 17.8615 35.7811 16.4707 36.3186 14.9921C36.679 14.0012 39.2985 13.1067 40.246 13.9468C40.1909 13.3982 40.0635 12.9781 39.8503 12.7651C39.0155 11.9315 33.4426 13.4278 32.8446 15.183C32.2819 16.8376 34.2348 19.4874 34.5776 19.7932Z" fill="#F28686"/>
<path d="M37.7052 22.465C36.6323 22.465 35.2718 21.0596 34.5505 20.3146C34.4471 20.2077 34.3578 20.1155 34.3197 20.0814C33.9157 19.7207 31.8398 16.9354 32.4789 15.0585C32.948 13.681 35.5748 12.7315 37.0529 12.3877C37.9512 12.1785 39.5444 11.9144 40.1235 12.4925C40.5511 12.9194 40.7268 13.8574 40.6458 15.2804C40.5172 17.5395 39.6515 21.2148 38.3601 22.2402C38.1623 22.3973 37.9406 22.465 37.7052 22.465ZM38.8853 12.9138C38.5021 12.9138 37.956 12.9705 37.2283 13.1397C35.198 13.612 33.4709 14.5439 33.2109 15.3071C32.743 16.6813 34.454 19.1654 34.8351 19.5058C34.8941 19.5585 34.9786 19.6458 35.1064 19.7777C37.0396 21.7749 37.6734 21.7991 37.879 21.6357C38.7569 20.9386 39.7264 17.8287 39.8738 15.2366C39.9493 13.9101 39.7699 13.2314 39.5768 13.0385C39.516 12.9778 39.2927 12.9138 38.8853 12.9138Z" fill="#000072"/>
<path d="M2.18831 32.6206C2.23541 31.0965 2.35987 29.6608 2.55944 28.3125C3.9083 19.1433 8.66237 14.0043 15.5087 12.2562C16.7084 11.9494 17.9294 11.7669 19.1561 11.6997C21.2718 11.5843 23.4033 11.815 25.4698 12.3526C37.6622 15.5228 41.8321 25.0191 40.3105 36.876C46.7016 56.5852 -10.2575 51.8819 2.18831 32.6206Z" fill="white"/>
<path d="M0.503955 36.7156C0.733811 38.0538 1.35724 39.2744 2.29122 40.3719C2.79577 42.1591 4.35431 43.3921 6.07093 43.3652C13.0137 47.2858 24.8259 48.3406 32.7229 45.8792C32.7229 45.8792 32.724 45.8792 32.7251 45.8792C32.8226 45.8871 32.9224 45.8905 33.0222 45.8905C34.176 45.8905 35.2109 45.3787 35.9184 44.5679H35.9195C38.5309 43.1715 40.3171 41.2039 40.7229 38.6216C43.0719 54.9119 -1.95827 51.9286 0.503955 36.7156Z" fill="#DFE8F4"/>
<path d="M40.5872 31.2224C40.5472 32.2996 40.4544 33.4012 40.3103 34.524C40.3791 34.7362 40.4379 34.9445 40.4922 35.1509C40.6032 33.805 40.6357 32.4936 40.5872 31.2224Z" fill="#DFE8F4"/>
<path d="M12.9903 24.738C9.56374 27.3182 5.71338 28.5366 2.55933 28.3126C3.90818 19.1433 8.66225 14.0043 15.5086 12.2563C16.7083 11.9494 17.9293 11.7669 19.1559 11.6997C20.4555 15.5184 18.0011 20.9642 12.9903 24.738Z" fill="#FFAD40"/>
<path d="M15.0945 30.5732C15.2148 27.9888 13.5973 25.8139 11.4816 25.7154C9.36587 25.6169 7.55323 27.6321 7.43292 30.2165C7.31262 32.8009 8.9302 34.9758 11.0459 35.0743C13.1616 35.1728 14.9742 33.1576 15.0945 30.5732Z" fill="#000072"/>
<path d="M13.6472 29.9714C13.6901 29.0477 13.1657 28.2729 12.4759 28.2408C11.7861 28.2088 11.1921 28.9316 11.1492 29.8553C11.1063 30.779 11.6307 31.5538 12.3205 31.5858C13.0103 31.6179 13.6043 30.8951 13.6472 29.9714Z" fill="white"/>
<g opacity="0.2">
<path d="M10.5617 31.8585C10.5907 31.2334 10.3044 30.7123 9.9224 30.6946C9.54036 30.6769 9.20717 31.1693 9.1782 31.7944C9.14922 32.4195 9.43544 32.9406 9.81748 32.9583C10.1995 32.976 10.5327 32.4836 10.5617 31.8585Z" fill="white"/>
</g>
<path d="M32.7956 32.6805C33.0538 30.0317 31.5052 27.7131 29.3369 27.5018C27.1685 27.2905 25.2014 29.2664 24.9432 31.9152C24.6851 34.564 26.2336 36.8826 28.402 37.0939C30.5704 37.3053 32.5375 35.3293 32.7956 32.6805Z" fill="#000072"/>
<path d="M29.0629 31.7668C29.1549 30.82 28.6564 29.9968 27.9495 29.9281C27.2425 29.8593 26.5947 30.571 26.5027 31.5178C26.4106 32.4645 26.9091 33.2877 27.616 33.3564C28.323 33.4252 28.9708 32.7135 29.0629 31.7668Z" fill="white"/>
<g opacity="0.2">
<path d="M30.7815 34.0279C30.8437 33.3872 30.5767 32.837 30.1851 32.799C29.7936 32.761 29.4258 33.2496 29.3636 33.8903C29.3014 34.531 29.5684 35.0812 29.96 35.1192C30.3515 35.1572 30.7194 34.6686 30.7815 34.0279Z" fill="white"/>
</g>
<path d="M10.147 19.8625C10.147 19.8625 11.7614 17.4195 12.8617 17.8419C13.9619 18.2643 13.8332 19.47 13.1876 19.8397C12.2497 20.3767 10.147 19.8625 10.147 19.8625Z" fill="#000072"/>
<path d="M32.4265 22.4416C32.4265 22.4416 31.3598 19.7152 30.1954 19.8982C29.031 20.0813 28.9041 21.2872 29.458 21.7837C30.2626 22.5048 32.4265 22.4416 32.4265 22.4416Z" fill="#000072"/>
<path d="M22.8308 37.9481C22.7652 38.6907 22.1089 39.1809 21.6266 39.2974C20.2095 39.6397 19.3632 38.5386 19.1632 37.9535C19.1265 37.846 18.9389 37.8407 18.8803 37.9379C18.628 38.3561 17.5216 39.3612 16.4316 38.7556C15.7802 38.3937 15.7034 37.4903 15.7034 37.4903C15.7034 37.4903 15.5019 35.1305 19.169 35.3206C22.8362 35.5107 22.8308 37.9481 22.8308 37.9481Z" fill="white"/>
<path d="M22.8309 37.9481C22.9857 38.613 22.4656 39.3264 21.8323 39.5754C21.597 39.6636 21.3818 39.6982 21.139 39.7189C20.1685 39.7731 19.3042 39.0947 18.9186 38.24C18.8924 38.1886 18.8674 38.1119 18.8479 38.0645C18.8658 38.1283 18.9429 38.1952 18.9986 38.1997C19.0408 38.2158 19.1394 38.1696 19.1659 38.1122C19.0162 38.3503 18.8175 38.5533 18.6143 38.7266C18.0855 39.1885 17.2929 39.4656 16.6098 39.176C16.1594 39.0162 15.8043 38.5873 15.7192 38.131C15.6731 37.9157 15.6626 37.6988 15.7034 37.4902C15.9005 37.9156 16.1213 38.2655 16.4671 38.4541C17.0319 38.7459 17.6903 38.5434 18.178 38.1794C18.3334 38.0618 18.4785 37.932 18.5813 37.7823C18.6858 37.5935 18.9283 37.5057 19.1095 37.5433C19.2434 37.5607 19.4039 37.664 19.4623 37.8037C19.4858 37.8564 19.5019 37.9078 19.5285 37.9606C20.1809 39.3204 22.1944 39.3783 22.8309 37.9481Z" fill="#000072"/>
<path d="M19.1688 38.2891C19.0588 38.2891 18.9502 38.235 18.8854 38.1372C18.8378 38.0653 18.4273 37.3802 18.6699 35.4606C18.6929 35.2783 18.8595 35.1486 19.0421 35.1722C19.2247 35.1952 19.354 35.3616 19.331 35.5441C19.1217 37.2007 19.4427 37.772 19.446 37.7776C19.5476 37.9309 19.5031 38.1334 19.3496 38.2349C19.2941 38.2717 19.2312 38.2891 19.1688 38.2891Z" fill="#000072"/>
<path d="M20.8285 35.4812C20.7575 36.2016 19.497 37.1268 19.0174 37.069C18.4676 37.0028 17.1025 36.4136 17.1805 35.492C17.2172 35.0579 17.7711 34.6481 18.9016 34.6192C19.9642 34.592 20.8878 34.8799 20.8285 35.4812Z" fill="#000072"/>
<g opacity="0.5">
<path d="M19.1114 35.1415C19.1011 35.2583 18.7055 35.4596 18.5216 35.4532C18.3885 35.4485 18.032 35.3861 17.988 35.2343C17.9623 35.1456 18.121 35.0021 18.5151 34.9708C18.9114 34.9393 19.1214 35.0274 19.1114 35.1415Z" fill="white"/>
</g>
<path d="M8.6792 15.7568C11.0686 13.0959 14.6232 11.7536 18.1183 11.3346C21.6618 10.9096 25.2584 11.6029 28.5375 12.9508C30.1748 13.6114 31.7328 14.4913 33.093 15.6176C33.5413 15.9967 33.971 16.3956 34.3634 16.8285C32.449 15.4948 30.4153 14.4334 28.2681 13.6418C21.5809 11.1467 14.6228 11.6807 8.6792 15.7568Z" fill="#000072"/>
<path d="M6.43877 18.178C3.89416 22.5546 2.73499 27.6005 2.60443 32.6329C2.60413 32.633 2.60034 32.7496 2.60011 32.7498L2.53805 32.8462C-1.51169 39.0347 2.08421 43.6441 8.03319 46.3188C10.7148 47.5447 13.605 48.2419 16.4898 48.8126C17.0718 48.9213 17.6522 49.0313 18.2219 49.2839C17.6096 49.4024 17.0106 49.3552 16.4169 49.2828C13.4359 48.9372 10.5074 48.1392 7.75174 46.9462C1.28915 44.1325 -2.45616 39.0225 1.83824 32.3951L1.77187 32.6077C1.79129 31.9648 1.82096 31.3216 1.8726 30.6794C2.25688 26.2337 3.28752 21.5249 6.43877 18.178Z" fill="#000072"/>
<path d="M36.626 19.2284C38.469 20.9914 39.6731 23.3854 40.2443 25.8627C40.7591 27.953 41.0121 30.1133 41.0195 32.2613C41.0292 33.8238 40.9241 35.3835 40.7328 36.93L40.7156 36.7449C41.0125 37.6646 41.2113 38.6289 41.2405 39.6142C41.3771 43.9239 38.0403 46.6928 34.3174 48.1037C32.3239 48.8918 30.2144 49.3145 28.0808 49.4494C27.3725 49.5006 26.6694 49.5525 25.9585 49.4485C26.6428 49.2303 27.3303 49.1583 28.023 49.0143C30.929 48.3994 33.9075 47.6918 36.4549 46.1217C39.8669 44.012 41.1689 40.8545 39.9052 37.007L39.876 36.9152L39.888 36.8219C40.0821 35.3088 40.1915 33.7858 40.1891 32.2645C40.1826 30.1767 39.9758 28.0857 39.4541 26.0652C38.7617 23.6786 37.8533 21.4261 36.626 19.2284Z" fill="#000072"/>
<path d="M20.25 15.7169C19.2206 15.6325 18.2187 15.3219 17.3514 14.7608C16.2295 14.0353 15.8446 13.2614 15.8421 12.5029C15.8382 11.5265 16.4672 10.5742 16.9767 9.77887C17.1412 9.52228 17.2932 9.28196 17.4074 9.06282C17.5577 8.77294 17.6426 8.51955 17.6057 8.31127L23.9612 8.93301C24.8705 7.65487 26.2517 7.2938 26.8211 6.59583C27.3968 7.40457 27.5795 8.4793 27.5479 9.70053C27.6517 9.89882 27.7416 10.0915 27.8175 10.2809C29.3356 14.0582 25.352 16.138 20.25 15.7169Z" fill="#FEDA24"/>
<path d="M16.8262 10.1017C17.0627 9.84215 17.4547 9.78815 17.8033 9.83246C18.8907 9.97068 19.7614 10.868 20.8455 11.0294C21.5467 11.1337 22.269 10.9105 22.8637 10.5252C23.4583 10.1398 23.9386 9.60195 24.3639 9.03559C24.0677 9.41975 23.6145 9.66293 23.1418 9.77359C22.6691 9.88426 22.1756 9.87176 21.6932 9.81653C20.9189 9.72787 20.1616 9.53162 19.4072 9.33594C19.1043 9.25734 18.8013 9.17875 18.4984 9.10016C18.2023 9.02335 17.9034 8.94551 17.6314 8.80579C17.283 9.16475 17.0179 9.60371 16.8624 10.0789L16.8262 10.1017Z" fill="#FCAA27"/>
<path d="M20.25 15.7169C19.2206 15.6325 18.2187 15.3219 17.3514 14.7608C16.2295 14.0353 15.8446 13.2614 15.842 12.5028C15.9164 12.4467 15.9854 12.4217 16.041 12.4361C16.2528 12.4926 16.0837 13.0697 16.4752 13.6072C16.5479 13.7056 16.7433 13.9467 17.4981 14.2496C17.7091 14.3338 18.4916 14.6353 19.893 14.7547C20.1865 14.7792 20.8311 14.8239 21.6594 14.7802C22.0632 14.7597 22.7484 14.7198 23.6189 14.5281C24.3789 14.3606 24.8718 14.2514 25.4592 13.9314C25.8448 13.7219 26.5652 13.3174 27.0938 12.4793C27.7246 11.4774 27.704 10.4528 27.6717 10.0381C27.7223 10.1171 27.7716 10.1984 27.8176 10.2809C29.3356 14.0582 25.352 16.138 20.25 15.7169Z" fill="#FCAA27"/>
<path d="M21.5332 16.0593C21.1089 16.0593 20.6726 16.0411 20.2263 16.0043C19.1134 15.9124 18.0651 15.5663 17.1948 15.0033C14.4317 13.2154 15.79 11.0958 16.6888 9.69332C17.0236 9.17102 17.3696 8.63086 17.3217 8.36188C17.3059 8.27303 17.3326 8.18199 17.3939 8.11566C17.4551 8.04959 17.544 8.01617 17.6339 8.0245L23.8267 8.63026C24.3824 7.91118 25.0804 7.47799 25.6477 7.12602C26.0484 6.87737 26.3945 6.6626 26.5975 6.41379C26.6544 6.34403 26.74 6.30439 26.8307 6.30782C26.9207 6.31089 27.0042 6.35568 27.0564 6.42898C27.6083 7.20482 27.8642 8.25345 27.8381 9.6331C28.8152 11.5335 28.4088 12.8605 27.8914 13.6421C26.877 15.1746 24.5016 16.0593 21.5332 16.0593ZM17.8811 8.62782C17.8012 9.02676 17.5151 9.47307 17.1749 10.0041C16.2619 11.4287 15.2272 13.0433 17.5087 14.5194C18.2993 15.0311 19.2555 15.3458 20.2738 15.4299C23.6326 15.7072 26.3668 14.9003 27.4101 13.3243C28.0465 12.3629 28.007 11.1889 27.2928 9.83492C27.2697 9.79123 27.2583 9.7424 27.2596 9.69309C27.2886 8.57962 27.1276 7.71211 26.7687 7.05531C26.5338 7.25478 26.2488 7.43161 25.9524 7.61555C25.365 7.97998 24.6994 8.39312 24.1964 9.09996C24.1365 9.18415 24.0358 9.22894 23.9331 9.21988L17.8811 8.62782Z" fill="#000072"/>
<path d="M21.1603 10.0591C24.9605 10.5045 26.429 6.62678 25.3085 3.54858C24.3375 0.881161 21.3163 -0.404858 18.8043 0.796847C15.3795 2.43518 14.951 7.73812 18.7962 9.39337L21.1603 10.0591Z" fill="#FEDA24"/>
<path d="M25.3086 3.54859C24.9871 2.66563 24.4402 1.93526 23.7624 1.39514C24.1169 1.81942 24.4072 2.31181 24.6085 2.86459C25.6064 5.60611 24.5507 8.98185 21.6232 9.37278C21.0745 9.44606 20.5161 9.39077 19.9832 9.24072L18.0962 8.70938C17.7022 8.53975 17.3554 8.33014 17.0498 8.09178C17.4817 8.62494 18.06 9.0764 18.7963 9.39338L21.1605 10.0591C24.9606 10.5046 26.4291 6.6268 25.3086 3.54859Z" fill="#FCAA27"/>
<path d="M18.7963 9.39343C17.5501 9.22809 16.5841 8.1924 16.1355 7.06214C14.9223 4.01204 16.9121 0.430844 20.2201 0.035545C22.1817 -0.208791 24.2122 0.826342 25.1964 2.53097C26.0935 4.07024 26.2478 6.01825 25.6177 7.68449C25.0781 9.1497 23.6758 10.3762 22.0478 10.2392C21.7423 10.2241 21.4437 10.1568 21.1604 10.0591C21.7567 9.9828 22.3195 9.8999 22.8317 9.69716C25.6114 8.72986 25.9647 4.90653 24.5013 2.70788C23.9099 1.79107 22.9572 1.12669 21.9111 0.846844C18.3581 -0.116974 15.4162 3.52508 16.6484 6.86079C17.0575 7.94573 17.8978 8.66032 18.7963 9.39343Z" fill="#000072"/>
<path d="M19.5329 6.08795C19.5757 7.8721 16.8672 8.55098 16.0328 7.00266C15.6938 6.92914 15.4512 6.80731 15.2798 6.64897C15.1562 6.53505 15.092 6.3686 15.1075 6.20125C15.1241 6.02813 15.1686 5.87895 15.2387 5.75019C15.622 5.0266 16.7439 4.90818 17.6486 4.46703C17.8862 4.3503 18.1755 4.41281 18.3314 4.62783C18.4756 4.82685 18.6497 5.01975 18.8549 5.20657C18.9715 5.31364 19.0985 5.41831 19.2347 5.52056C19.4139 5.65582 19.527 5.86437 19.5329 6.08795Z" fill="#FF8D06"/>
<path d="M19.5329 6.08805C19.5757 7.8722 16.8672 8.55108 16.0328 7.00276C15.6938 6.92924 15.4512 6.80741 15.2798 6.64907C15.1562 6.53514 15.092 6.3687 15.1075 6.20135C15.1241 6.02823 15.1686 5.87905 15.2387 5.75029L15.4102 5.70229C15.3071 5.77491 15.2811 5.92504 15.3239 6.04333C15.3679 6.16044 15.467 6.25043 15.574 6.31728C16.0679 6.6231 16.7037 6.49851 17.269 6.36433C17.4935 6.31113 17.7168 6.25796 17.9402 6.20476C18.2049 6.1419 18.4847 6.07079 18.6765 5.87847C18.8682 5.68497 18.9197 5.32704 18.7089 5.15527C18.7587 5.1697 18.8073 5.18762 18.8549 5.20669C18.9715 5.31376 19.0985 5.41843 19.2347 5.52068C19.4139 5.65591 19.527 5.86447 19.5329 6.08805Z" fill="#FF6008"/>
<path d="M17.5703 8.1515C16.9199 8.1515 16.2462 7.89269 15.8457 7.25426C15.5295 7.17054 15.2794 7.04108 15.0841 6.86059C14.8953 6.68584 14.7967 6.42958 14.8204 6.17481C14.9153 5.15505 15.8017 4.84583 16.659 4.54674C16.9499 4.44528 17.2507 4.34042 17.5217 4.208C17.8906 4.02775 18.3295 4.13347 18.5653 4.45923C18.7733 4.74658 19.057 5.0262 19.4084 5.29041C19.6596 5.47924 19.814 5.77501 19.8214 6.08143C19.8475 7.15195 19.0271 7.85133 18.2025 8.06952C18.0017 8.12262 17.7873 8.1515 17.5703 8.1515ZM17.8967 4.69725C17.8562 4.69725 17.8146 4.70656 17.7752 4.72575C17.4734 4.8732 17.1561 4.98384 16.8492 5.09092C15.9851 5.39231 15.4526 5.60854 15.395 6.22813C15.3878 6.30559 15.4181 6.38391 15.4761 6.43751C15.6169 6.56759 15.8247 6.66305 16.0939 6.72117C16.1765 6.73903 16.2471 6.79203 16.2871 6.86631C16.6499 7.53974 17.4365 7.67605 18.0546 7.51232C18.6158 7.36386 19.2642 6.90362 19.2444 6.09533C19.2412 5.96342 19.1728 5.83469 19.0613 5.75085C18.6636 5.45188 18.3394 5.13101 18.0976 4.79694C18.0508 4.73225 17.9757 4.69725 17.8967 4.69725Z" fill="#000072"/>
<path d="M15.651 6.60136C16.5706 6.97271 17.591 6.74956 18.449 6.28442C18.0449 6.58703 17.5957 6.84617 17.0945 6.9951C16.5958 7.14586 16.0424 7.1703 15.5158 7.04227C15.3891 7.01445 15.3095 6.88752 15.3404 6.76158C15.3723 6.62597 15.5219 6.54914 15.651 6.60136Z" fill="#000072"/>
<path d="M22.8901 5.23696C22.9988 4.59606 22.6365 4.00013 22.0808 3.90589C21.5252 3.81166 20.9866 4.25482 20.878 4.89571C20.7693 5.5366 21.1316 6.13254 21.6872 6.22678C22.2429 6.32101 22.7814 5.87785 22.8901 5.23696Z" fill="#000072"/>
<path d="M21.9644 4.97828C21.9259 5.20741 21.7477 5.36846 21.5665 5.33803C21.3852 5.30759 21.2696 5.09718 21.3082 4.86807C21.3468 4.63894 21.525 4.47789 21.7062 4.50833C21.8874 4.53875 22.003 4.74915 21.9644 4.97828Z" fill="white"/>
<g opacity="0.2">
<path d="M22.3727 5.64894C22.3988 5.49389 22.3387 5.35447 22.2383 5.33754C22.138 5.32062 22.0354 5.4326 22.0093 5.58766C21.9831 5.74271 22.0433 5.88213 22.1436 5.89905C22.244 5.91597 22.3465 5.804 22.3727 5.64894Z" fill="white"/>
</g>
<path d="M17.7667 3.76149C17.9429 3.20792 17.7703 2.65876 17.3812 2.53491C16.9921 2.41105 16.5338 2.75941 16.3576 3.31298C16.1814 3.86655 16.354 4.41571 16.7431 4.53956C17.1322 4.66341 17.5905 4.31506 17.7667 3.76149Z" fill="#000072"/>
<path d="M17.1313 3.46547C17.0685 3.66336 16.9147 3.79121 16.7878 3.75102C16.6608 3.71082 16.6089 3.51782 16.6717 3.31991C16.7345 3.122 16.8884 2.99417 17.0153 3.03437C17.1422 3.07457 17.1942 3.26756 17.1313 3.46547Z" fill="white"/>
<g opacity="0.2">
<path d="M17.3256 4.08525C17.2831 4.21917 17.1916 4.30971 17.1213 4.28743C17.0511 4.26517 17.0285 4.13855 17.0711 4.00462C17.1136 3.8707 17.205 3.78016 17.2753 3.80244C17.3456 3.8247 17.3681 3.95132 17.3256 4.08525Z" fill="white"/>
</g>
<path d="M27.7629 9.19798C27.6463 9.90266 27.2513 10.6537 26.522 10.8647C26.8263 10.6886 27.0494 10.417 27.1634 10.1141C27.2806 9.81074 27.3071 9.48267 27.2945 9.15756C27.2894 9.02699 27.3912 8.91703 27.5219 8.91194C27.6741 8.90388 27.7964 9.04998 27.7629 9.19798Z" fill="#000072"/>
<path d="M6.07098 43.3655C4.35435 43.3924 2.79582 42.1595 2.29126 40.3722C3.2533 41.5043 4.54386 42.5044 6.07098 43.3655Z" fill="#F28686"/>
<path d="M6.57441 43.3218C6.4051 43.3487 6.23692 43.3632 6.07098 43.3655C4.54384 42.5043 3.2533 41.5043 2.29126 40.3721C2.24306 40.2053 2.20494 40.035 2.17691 39.8592C1.81813 37.6151 3.20397 35.5288 5.27265 35.1984C7.34247 34.867 9.31026 36.418 9.67017 38.661C10.0301 40.9041 8.64422 42.9914 6.57441 43.3218Z" fill="#FF999E"/>
<path d="M35.9184 44.5682C35.2109 45.379 34.176 45.8908 33.0222 45.8908C32.9224 45.8908 32.8227 45.8874 32.7251 45.8796C33.8833 45.519 34.9564 45.0822 35.9184 44.5682Z" fill="#F28686"/>
<path d="M36.8906 41.9713C36.8906 42.9669 36.524 43.8773 35.9197 44.5682H35.9185C34.9565 45.0822 33.8835 45.519 32.7252 45.8796C32.7241 45.8796 32.723 45.8796 32.723 45.8796C30.7272 45.7239 29.1541 44.0341 29.1541 41.9713C29.1541 39.8067 30.8864 38.0519 33.0223 38.0519C35.1583 38.0519 36.8906 39.8067 36.8906 41.9713Z" fill="#FF999E"/>
</svg>
