<svg width="340" height="460" viewBox="0 0 340 460" fill="none" xmlns="http://www.w3.org/2000/svg">
<path d="M126.035 110.48C115.377 86.2567 95.9024 84.5127 95.9024 84.5127C95.9024 84.5127 92.4924 120.776 108.861 132.388C108.861 132.388 113.897 127.142 115.227 125.183C115.227 125.183 112.219 124.903 109.771 121.685C109.771 121.685 113.199 117.628 118.235 117.908C118.235 117.908 113.618 117.278 110.26 113.221C110.26 113.221 113.758 115.39 119.983 114.9C119.983 114.9 115.996 113.431 114.107 111.053C114.107 111.053 121.172 109.794 124.39 112.802C124.39 112.802 121.382 106.017 114.527 103.009C114.527 103.009 120.893 102.519 125.02 109.655L126.035 110.48Z" fill="white"/>
<path d="M125.973 110.398C124.547 107.778 123.168 105.131 121.492 102.659C119.331 99.4577 116.796 96.5097 113.939 93.9257C108.826 89.3987 102.586 86.0467 95.8929 84.6147C95.8909 84.6147 96.0039 84.5217 96.0039 84.5217C95.9639 88.8097 96.0979 93.0877 96.4119 97.3387C97.3699 109.129 99.6409 124.067 108.92 132.304C108.92 132.304 108.781 132.319 108.787 132.316C110.966 129.983 113.233 127.689 115.141 125.126C115.139 125.126 115.223 125.291 115.214 125.286C112.933 125.102 110.897 123.62 109.678 121.735C109.653 121.698 109.659 121.649 109.69 121.62C110.124 120.914 110.703 120.327 111.336 119.806C113.246 118.279 115.798 117.412 118.239 117.806L118.219 118.011C116.195 117.903 114.339 116.952 112.714 115.81C111.754 115.095 110.893 114.246 110.18 113.289C110.11 113.202 110.218 113.079 110.313 113.135C112.975 114.247 115.874 114.52 118.725 114.696C119.138 114.722 119.553 114.743 119.974 114.799L119.946 114.998C117.709 114.223 115.496 113.017 114.025 111.118C113.973 111.06 114.011 110.962 114.088 110.952C115.858 110.564 117.683 110.442 119.489 110.624C121.286 110.804 123.195 111.357 124.459 112.727L124.295 112.844C122.929 110.255 121.072 107.926 118.887 105.981C117.566 104.836 116.068 103.838 114.508 103.044C114.473 103.03 114.485 102.97 114.523 102.97C115.618 102.886 116.719 103.049 117.773 103.357C119.232 103.768 120.582 104.52 121.773 105.454C122.261 105.871 122.827 106.406 123.253 106.893C123.409 107.054 123.646 107.343 123.775 107.531C124.266 108.158 124.728 108.911 125.108 109.605C125.263 109.711 125.715 110.134 125.973 110.398ZM126.098 110.562C125.732 110.303 125.282 110.03 124.929 109.703C124.41 108.944 123.835 108.147 123.24 107.444C121.734 105.747 119.856 104.351 117.687 103.632C116.674 103.289 115.607 103.064 114.53 103.047C114.533 103.048 114.539 102.964 114.546 102.973C118.972 104.745 122.513 108.454 124.485 112.759C124.527 112.86 124.398 112.95 124.318 112.874C121.373 110.832 117.561 110.917 114.126 111.153C114.128 111.155 114.187 110.978 114.19 110.99C115.778 112.726 117.917 113.809 120.019 114.803C120.111 114.841 120.092 114.991 119.991 115.002C117.509 115.597 114.871 115.28 112.477 114.455C111.681 114.159 110.903 113.812 110.205 113.308L110.339 113.155C112.456 115.463 115.274 116.922 118.248 117.805C118.355 117.832 118.339 118.004 118.228 118.01C117.437 118.096 116.662 118.165 115.917 118.392C113.632 118.983 111.728 120.322 109.848 121.751C109.847 121.753 109.851 121.623 109.851 121.623C110.594 122.424 111.385 123.164 112.294 123.764C113.193 124.353 114.191 124.834 115.238 125.081C115.313 125.086 115.354 125.182 115.31 125.241C113.39 127.823 111.124 130.112 108.934 132.46C108.902 132.5 108.84 132.506 108.8 132.473C106.923 131.384 105.262 129.91 103.838 128.244C94.7859 117.402 94.0069 97.9767 95.7979 84.5037C95.8059 84.4487 95.8559 84.4087 95.9099 84.4107C99.4049 84.6517 102.776 85.8187 105.901 87.3567C115.275 92.1307 122.385 100.807 126.098 110.562Z" fill="#231F20"/>
<path d="M95.9755 84.5845C93.8195 86.5455 90.4445 84.2865 88.7435 82.6795C88.6525 82.5975 88.7705 82.4475 88.8715 82.5185C90.8705 83.7245 93.4675 85.5785 95.8465 84.4295C95.9405 84.3675 96.0535 84.5035 95.9755 84.5845Z" fill="#231F20"/>
<path d="M213.083 126.62C216.79 130.963 224.099 135.094 224.099 135.094C243.482 113.38 235.75 87.3237 235.75 87.3237C207.363 96.3267 202.915 116.876 202.915 116.876C202.915 116.876 206.749 107.423 216.393 107.789C216.393 107.789 210.523 109.414 205.386 119.215C205.386 119.215 209.789 112.681 222.42 114.131C222.42 114.131 216.812 119.477 210.418 120.106C210.418 120.106 216.917 118.219 220.796 121.521C220.796 121.521 218.49 120.316 212.2 123.251C212.2 123.251 219.38 126.396 225.722 123.775C225.722 123.775 218.856 130.117 213.877 126.605L213.083 126.62Z" fill="white"/>
<path d="M213.176 126.662C213.645 127.04 214.013 127.345 214.437 127.729C217.467 130.434 220.969 132.485 224.149 135.004C224.151 135.005 224.022 135.025 224.022 135.025C232.021 124.658 236.704 113.172 236.843 99.9867C236.899 95.7607 236.58 91.4957 235.652 87.3527C235.652 87.3527 235.784 87.4217 235.781 87.4217C225.122 91.5047 214.854 97.2567 208.16 106.763C205.986 109.867 204.093 113.242 203.016 116.897L202.82 116.836C203.714 114.03 205.762 111.708 208.108 109.989C210.491 108.273 213.477 107.457 216.397 107.686C216.506 107.691 216.531 107.845 216.431 107.884C215.819 108.129 215.223 108.454 214.664 108.819C210.699 111.367 207.945 115.333 205.478 119.263L205.301 119.158C206.184 117.838 207.444 116.845 208.783 116.029C212.184 114.037 216.245 113.521 220.12 113.759C220.895 113.844 221.669 113.93 222.439 114.03C222.494 114.037 222.533 114.088 222.526 114.143C220.935 115.804 218.971 117.107 216.957 118.217C214.932 119.278 212.718 120.047 210.428 120.209C210.305 120.229 210.262 120.035 210.389 120.007C213.803 118.923 218.088 118.877 220.862 121.443C220.959 121.517 220.854 121.678 220.747 121.613C219.34 121.275 217.844 121.623 216.455 121.949C215.04 122.306 213.615 122.843 212.243 123.345L212.241 123.157C214.389 123.932 216.661 124.413 218.939 124.565C220.922 124.705 222.96 124.523 224.863 123.945L225.68 123.681C225.778 123.635 225.873 123.779 225.791 123.851C222.822 126.713 217.613 129.758 213.82 126.693C213.803 126.685 213.88 126.71 213.878 126.709C213.645 126.717 213.432 126.688 213.176 126.662ZM212.989 126.578C213.279 126.557 213.637 126.463 213.94 126.523C217.915 128.705 222.425 126.149 225.652 123.699L225.761 123.87C223.62 124.808 221.24 125.14 218.913 124.983C216.589 124.818 214.29 124.295 212.158 123.345C212.081 123.312 212.077 123.198 212.151 123.16C212.481 122.976 212.819 122.809 213.154 122.633C215.448 121.607 218.357 120.448 220.843 121.429L220.728 121.599C219.992 121.096 219.218 120.68 218.37 120.4C215.814 119.603 213.056 119.734 210.446 120.204L210.407 120.002C210.96 119.886 211.52 119.833 212.06 119.667C214.792 118.996 217.323 117.657 219.648 116.092C220.579 115.459 221.488 114.781 222.348 114.056C222.349 114.052 222.408 114.232 222.408 114.232C217.156 113.878 211.466 114.485 207.145 117.739C206.543 118.196 205.959 118.7 205.471 119.272C205.405 119.37 205.236 119.274 205.294 119.166C206.965 115.457 209.427 111.997 212.727 109.57C213.839 108.776 215.027 108.062 216.364 107.689C216.364 107.689 216.389 107.892 216.387 107.891C210.13 107.847 205.966 111.771 203.01 116.912C202.976 117.032 202.778 116.974 202.813 116.853C203.706 113.091 205.488 109.594 207.629 106.395C214.159 96.8287 224.537 90.0337 235.717 87.2247C235.771 87.2037 235.834 87.2357 235.848 87.2937C236.487 89.3437 236.882 91.4527 237.187 93.5727C239.272 108.365 235.092 124.614 224.174 135.161C224.139 135.195 224.087 135.201 224.046 135.182C221.846 134.326 219.901 132.998 218.025 131.591C216.184 130.137 214.276 128.557 212.989 126.578Z" fill="#231F20"/>
<path d="M229.745 89.4267C234.433 87.2897 238.555 84.2407 241.289 79.8487C241.351 79.7547 241.51 79.8287 241.473 79.9377C241.34 80.3907 241.159 80.9007 240.993 81.3487C239.578 84.5707 236.733 87.0177 233.575 88.4597C232.368 89.0037 231.111 89.4327 229.798 89.6257C229.682 89.6427 229.63 89.4687 229.745 89.4267Z" fill="#231F20"/>
<path d="M145.119 139.444C143.946 127.282 136.823 127.282 136.823 127.282C136.823 127.282 138.647 127.716 139.342 129.019C139.342 129.019 136.345 126.934 132.262 128.889C132.262 128.889 135.954 127.847 137.778 129.801C137.778 129.801 126.585 125.588 126.035 140.399C126.035 140.399 127.483 136.012 133.651 135.143C139.819 134.274 141.426 137.184 141.426 137.184C141.426 137.184 140.818 135.099 137.43 134.404C137.43 134.404 141.513 134.013 144.597 138.791L145.119 139.444Z" fill="white"/>
<path d="M145.08 139.348C144.294 135.576 143.468 131.478 140.343 128.919C139.33 128.113 138.12 127.499 136.822 127.339L136.835 127.227C137.857 127.463 138.918 128.017 139.398 128.993C139.428 129.051 139.355 129.11 139.304 129.072C137.117 127.962 134.529 128.04 132.276 128.923L132.25 128.855C134.051 128.25 136.546 128.111 137.825 129.775C137.86 129.82 137.804 129.882 137.756 129.855C136.991 129.661 136.205 129.547 135.425 129.503C128.67 129.042 126.513 134.641 126.076 140.402C126.076 140.402 125.99 140.388 125.993 140.386C126.482 138.932 127.501 137.681 128.746 136.774C131.613 134.654 136.537 133.988 139.769 135.616C140.443 135.987 141.083 136.482 141.463 137.165C141.463 137.165 141.381 137.202 141.383 137.197C140.587 135.703 138.97 134.936 137.42 134.451C137.369 134.445 137.369 134.368 137.419 134.362C140.762 133.978 143.716 136.552 145.08 139.348ZM145.157 139.539C144.939 139.341 144.659 139.119 144.466 138.877C142.818 136.573 140.351 134.636 137.435 134.45L137.44 134.36C138.294 134.461 139.136 134.713 139.87 135.175C140.595 135.637 141.254 136.314 141.468 137.17C141.478 137.192 141.467 137.218 141.445 137.227C141.422 137.235 141.401 137.224 141.389 137.205C140.937 136.62 140.293 136.205 139.624 135.914C136.484 134.629 131.811 135.266 128.994 137.12C127.763 137.934 126.709 139.066 126.077 140.41C126.067 140.457 125.987 140.445 125.993 140.396C125.948 136.495 126.853 131.754 130.664 129.795C132.871 128.677 135.576 128.819 137.798 129.747L137.738 129.837C136.187 128.628 134.141 128.653 132.273 128.922C132.232 128.941 132.202 128.869 132.247 128.854C133.872 127.914 135.882 127.585 137.693 128.138C138.295 128.322 138.876 128.578 139.379 128.966L139.287 129.048C139.013 128.617 138.636 128.266 138.206 127.989C137.775 127.713 137.299 127.496 136.811 127.336C136.78 127.33 136.76 127.301 136.766 127.27C136.771 127.242 136.797 127.223 136.824 127.224C138.189 127.238 139.492 127.802 140.594 128.596C143.88 131.123 145.063 135.578 145.157 139.539Z" fill="#231F20"/>
<path d="M179.112 139.444C180.285 127.282 187.408 127.282 187.408 127.282C187.408 127.282 185.584 127.716 184.889 129.019C184.889 129.019 187.886 126.934 191.969 128.889C191.969 128.889 188.277 127.847 186.453 129.801C186.453 129.801 197.646 125.588 198.196 140.399C198.196 140.399 196.747 136.012 190.58 135.143C184.412 134.274 182.805 137.184 182.805 137.184C182.805 137.184 183.413 135.099 186.801 134.404C186.801 134.404 182.718 134.013 179.634 138.791L179.112 139.444Z" fill="white"/>
<path d="M179.073 139.539C179.167 135.578 180.35 131.123 183.638 128.596C184.74 127.802 186.043 127.238 187.408 127.224C187.44 127.223 187.467 127.248 187.467 127.28C187.467 127.308 187.447 127.331 187.421 127.336C186.932 127.496 186.457 127.713 186.026 127.989C185.596 128.266 185.218 128.617 184.945 129.048L184.853 128.966C185.355 128.578 185.936 128.323 186.539 128.138C188.351 127.585 190.36 127.915 191.985 128.854C192.026 128.873 192.005 128.936 191.959 128.922C190.091 128.653 188.045 128.629 186.494 129.837L186.434 129.747C188.656 128.819 191.361 128.677 193.568 129.795C197.379 131.756 198.284 136.493 198.239 140.396C198.243 140.445 198.167 140.459 198.155 140.41C197.523 139.066 196.469 137.934 195.238 137.12C192.426 135.268 187.747 134.628 184.608 135.913C183.936 136.205 183.288 136.622 182.836 137.212C182.809 137.25 182.741 137.214 182.764 137.169C183.106 135.882 184.329 135.026 185.537 134.629C185.945 134.495 186.367 134.41 186.792 134.359L186.797 134.449C183.881 134.634 181.414 136.572 179.766 138.876C179.571 139.119 179.291 139.342 179.073 139.539ZM179.15 139.348C180.236 137.183 182.13 135.184 184.583 134.543C185.308 134.349 186.064 134.252 186.809 134.361C186.834 134.365 186.851 134.387 186.847 134.412C185.324 134.959 183.639 135.661 182.846 137.196C182.848 137.201 182.766 137.164 182.766 137.164C183.145 136.481 183.786 135.987 184.459 135.615C187.693 133.988 192.611 134.651 195.483 136.773C196.728 137.68 197.747 138.931 198.236 140.385C198.239 140.387 198.153 140.401 198.153 140.401C197.574 132.991 194.478 128.082 186.4 129.832C187.209 128.5 189.116 128.316 190.542 128.512C191.033 128.577 191.516 128.684 191.98 128.854L191.954 128.922C190.809 128.507 189.625 128.215 188.408 128.241C187.208 128.262 186.003 128.532 184.926 129.071C184.876 129.113 184.802 129.047 184.832 128.993C185.065 128.504 185.468 128.113 185.922 127.827C186.378 127.546 186.873 127.338 187.395 127.226L187.408 127.338C186.11 127.499 184.9 128.113 183.887 128.919C180.762 131.479 179.938 135.575 179.15 139.348Z" fill="#231F20"/>
<path d="M160.405 180.512C160.603 182.17 160.716 183.788 160.801 185.457C160.846 187.284 160.079 189.087 158.729 190.341C156.064 192.684 152.101 193.459 148.792 192.137C146.637 191.28 144.816 189.86 143.36 188.193C143.304 188.128 143.31 188.03 143.375 187.974C143.431 187.925 143.513 187.924 143.57 187.967C145.326 189.269 147.192 190.382 149.18 190.99C151.28 191.595 153.511 191.505 155.507 190.618C157.209 189.892 158.784 188.708 159.385 186.879C159.748 185.896 159.717 184.845 159.796 183.8C159.88 182.704 159.959 181.608 160.097 180.513C160.112 180.338 160.39 180.334 160.405 180.512Z" fill="#231F20"/>
<path d="M160.477 180.512C160.681 182.139 160.771 183.803 160.883 185.429C160.992 186.894 161.703 188.32 162.81 189.263C165.181 191.202 168.448 191.88 171.394 190.99C173.381 190.381 175.248 189.268 177.004 187.967C177.073 187.916 177.17 187.93 177.221 187.999C177.265 188.059 177.26 188.14 177.214 188.194C175.758 189.86 173.936 191.281 171.782 192.138C169.459 193.047 166.764 192.988 164.472 191.988C162.409 191.11 160.52 189.491 159.986 187.245C159.665 186.119 159.799 184.936 159.869 183.801C159.953 182.705 160.032 181.609 160.17 180.514C160.188 180.338 160.459 180.334 160.477 180.512Z" fill="#231F20"/>
<path d="M157.001 178.78C157.001 178.78 158.92 182.621 160.19 182.621C161.46 182.621 162.531 179.209 163.563 178.931C164.595 178.653 167.134 180.002 168.722 175.955C170.309 171.907 161.54 171.233 159.357 171.431C157.175 171.629 152.095 172.423 152.413 175.121C152.729 177.82 154.342 179.018 157.001 178.78Z" fill="white"/>
<path d="M157.035 178.719C157.772 179.846 158.475 181.093 159.471 182.01C159.761 182.251 160.086 182.496 160.45 182.313C161.155 181.9 161.663 181.016 162.141 180.327C163.441 178.181 163.529 178.888 165.655 178.637C166.975 178.404 167.806 177.342 168.409 176.165C168.865 175.398 168.89 174.446 168.242 173.796C167.637 173.176 166.771 172.86 165.927 172.612C163.362 171.921 160.585 171.582 157.932 171.964C156.164 172.246 152.741 172.688 152.583 174.91C152.654 177.071 154.22 178.443 156.316 178.618C156.533 178.649 156.815 178.677 157.035 178.719ZM156.966 178.842C155.018 179.541 152.887 178.356 152.461 176.323C152.209 175.409 152.013 174.296 152.707 173.518C154.029 172.066 156.003 171.663 157.822 171.267C160.912 170.674 166.325 171.042 168.524 173.553C169.203 174.306 169.181 175.458 168.79 176.33C168.456 177.227 167.977 178.131 167.137 178.672C166.108 179.426 164.803 179.087 163.662 179.08C163.054 179.248 162.726 179.97 162.384 180.479C161.116 182.832 160.145 184.015 158.261 181.255C157.761 180.507 157.331 179.716 156.972 178.893L156.955 178.853C156.958 178.846 156.92 178.805 156.966 178.842Z" fill="#231F20"/>
<path d="M155.489 177.967C156.382 177.721 157.083 178.518 157.478 179.223C157.524 179.297 157.501 179.393 157.428 179.439C157.339 179.497 157.213 179.443 157.192 179.339C157.073 178.761 156.614 178.348 156.052 178.228C155.87 178.185 155.701 178.158 155.489 178.15C155.439 178.148 155.4 178.106 155.402 178.056C155.404 178.007 155.444 177.974 155.489 177.967Z" fill="#231F20"/>
<path d="M162.593 179.628C163.096 178.607 164.126 177.991 165.261 178.274C165.347 178.286 165.406 178.365 165.394 178.45C165.381 178.556 165.261 178.616 165.167 178.568C164.216 178.072 163.091 178.723 162.884 179.734C162.831 179.964 162.486 179.839 162.593 179.628Z" fill="#231F20"/>
<path d="M80 185.667C84.438 182.103 89.709 179.7 95.102 177.96C108.734 173.685 123.546 174.588 137.116 178.648C139.525 179.344 142.786 180.546 145.155 181.432C145.208 181.452 145.235 181.511 145.216 181.564C145.196 181.618 145.136 181.645 145.082 181.624C139.769 179.676 134.305 178.146 128.753 177.115C112.291 173.943 93.808 176.058 80 185.667Z" fill="#231F20"/>
<path d="M90.2275 204.898C99.5035 192.605 113.823 183.952 129.177 182.13C134.296 181.543 139.487 181.701 144.558 182.52C144.614 182.529 144.652 182.582 144.643 182.638C144.634 182.693 144.582 182.731 144.527 182.724C139.452 182.053 134.303 181.977 129.235 182.607C113.964 184.487 99.8735 193.308 90.2275 204.898Z" fill="#231F20"/>
<path d="M116.02 201.243C122.375 193.142 133.657 182.937 144.544 183.209C144.601 183.211 144.645 183.259 144.643 183.316C144.641 183.371 144.595 183.415 144.541 183.415C133.52 183.825 123.222 193.835 116.02 201.243Z" fill="#231F20"/>
<path d="M240.598 185.724C236.069 182.352 230.777 180.076 225.398 178.44C214.577 175.177 202.958 175.045 191.895 177.114C186.343 178.146 180.879 179.675 175.566 181.623C175.512 181.644 175.452 181.617 175.432 181.563C175.412 181.51 175.44 181.451 175.493 181.431C177.885 180.524 181.125 179.359 183.532 178.647C197.102 174.587 211.915 173.684 225.546 177.959C229.607 179.251 233.551 180.957 237.174 183.207C238.378 183.958 239.555 184.756 240.647 185.666C240.686 185.697 240.635 185.756 240.598 185.724Z" fill="#231F20"/>
<path d="M230.373 204.931C220.705 193.101 206.656 184.563 191.412 182.606C186.344 181.976 181.195 182.052 176.12 182.723C176.064 182.731 176.012 182.692 176.004 182.635C175.996 182.58 176.035 182.528 176.09 182.519C181.161 181.7 186.352 181.543 191.471 182.129C201.728 183.318 211.501 187.626 219.616 193.956C222.647 196.343 225.483 198.979 228.017 201.888C228.86 202.857 229.678 203.849 230.42 204.898C230.441 204.927 230.394 204.961 230.373 204.931Z" fill="#231F20"/>
<path d="M204.593 201.273C197.501 193.748 186.937 183.803 176.107 183.417C176.049 183.417 176.003 183.369 176.005 183.311C176.007 183.256 176.051 183.213 176.104 183.211C186.726 182.838 198.623 193.312 204.593 201.273Z" fill="#231F20"/>
<path d="M149.626 170.898C149.626 170.898 153.322 154.893 142.057 146.955C130.919 139.107 118.915 152.995 122.044 163.62C125.173 174.245 136.599 173.808 141.912 172.062C147.225 170.316 149.626 170.898 149.626 170.898Z" fill="white"/>
<path d="M149.626 170.898C149.626 170.898 153.322 154.893 142.057 146.955C130.919 139.107 118.915 152.995 122.044 163.62C125.173 174.245 136.599 173.808 141.912 172.062C147.225 170.316 149.626 170.898 149.626 170.898Z" fill="black"/>
<path d="M147.705 167.4C151.381 161.473 149.586 153.707 143.697 150.056C137.808 146.404 130.055 148.249 126.38 154.177C122.704 160.104 124.499 167.869 130.387 171.521C136.276 175.172 144.03 173.328 147.705 167.4Z" fill="white"/>
<path d="M147.187 154.375C147.156 155.84 145.948 157.009 144.487 156.987C143.027 156.965 141.868 155.759 141.898 154.295C141.929 152.83 143.137 151.661 144.598 151.683C146.059 151.705 147.218 152.91 147.187 154.375Z" fill="white"/>
<path d="M132.505 168.779C132.486 169.665 131.755 170.373 130.871 170.36C129.987 170.347 129.286 169.617 129.304 168.731C129.323 167.845 130.054 167.137 130.938 167.15C131.822 167.163 132.523 167.893 132.505 168.779Z" fill="white"/>
<path d="M149.943 160.984C149.926 165.635 147.202 170.548 142.19 172.745C138.864 174.254 134.659 174.17 131.41 172.552C121.462 167.739 121.906 153.513 132.052 149.107C141.621 145.223 150.128 152.897 149.943 160.984ZM149.268 160.973C149.441 156.509 147.046 151.754 142.369 149.485C139.286 147.963 135.33 147.901 132.193 149.341C122.483 153.654 122.342 167.332 131.875 171.835C140.805 175.791 149.131 168.624 149.268 160.973Z" fill="#231F20"/>
<path d="M136.984 170.881C136.932 170.881 136.88 170.881 136.829 170.88C134.132 170.839 131.619 169.748 129.754 167.809C127.894 165.874 126.901 163.326 126.957 160.633C127.073 155.119 131.606 150.691 137.095 150.691C137.147 150.691 137.199 150.691 137.251 150.692C142.811 150.777 147.239 155.374 147.123 160.939C147.007 166.453 142.474 170.881 136.984 170.881ZM137.094 150.906C131.741 150.906 127.321 155.24 127.208 160.636C127.153 163.278 128.126 165.777 129.948 167.672C131.765 169.562 134.21 170.625 136.832 170.665C136.882 170.666 136.933 170.666 136.983 170.666C142.336 170.666 146.756 166.332 146.869 160.936C146.983 155.489 142.665 150.99 137.245 150.907C137.195 150.906 137.145 150.906 137.094 150.906Z" fill="#231F20"/>
<path d="M144.197 160.896C144.114 164.861 140.842 168.026 136.889 167.966C132.936 167.906 129.799 164.643 129.882 160.678C129.965 156.713 133.237 153.548 137.189 153.608C141.142 153.669 144.28 156.931 144.197 160.896Z" fill="#231F20"/>
<path d="M149.545 170.767C149.518 170.77 149.491 170.795 149.487 170.816C149.504 170.751 149.534 170.586 149.55 170.516C151.279 161.574 148.847 150.396 139.812 146.403C129.866 142.063 119.91 154.382 122.769 163.807C124.726 170.851 131.534 173.347 138.286 172.436C142.03 171.997 145.627 169.941 149.474 170.697L149.566 170.72L149.613 170.733C149.613 170.733 149.647 170.739 149.611 170.737C149.587 170.738 149.56 170.75 149.545 170.767ZM149.707 171.03C149.65 171.059 149.573 171.049 149.509 171.042C147.651 170.978 145.815 171.389 144.021 171.842C142.166 172.366 140.326 173.065 138.388 173.257C129.787 174.386 122.08 170.375 120.899 161.245C119.7 151.12 130.218 139.77 140.389 145.206C148.532 149.76 151.123 159.301 150.191 168.063C150.109 168.945 149.975 169.881 149.813 170.753C149.791 170.842 149.785 170.968 149.707 171.03Z" fill="#231F20"/>
<path d="M173.664 170.898C173.664 170.898 169.968 154.893 181.233 146.955C192.371 139.107 204.375 152.995 201.246 163.62C198.117 174.245 186.691 173.808 181.379 172.062C176.066 170.316 173.664 170.898 173.664 170.898Z" fill="white"/>
<path d="M173.664 170.898C173.664 170.898 169.968 154.893 181.233 146.955C192.371 139.107 204.375 152.995 201.246 163.62C198.117 174.245 186.691 173.808 181.379 172.062C176.066 170.316 173.664 170.898 173.664 170.898Z" fill="black"/>
<path d="M192.908 171.515C198.796 167.862 200.589 160.097 196.913 154.17C193.237 148.244 185.483 146.4 179.595 150.052C173.707 153.704 171.914 161.47 175.59 167.396C179.266 173.323 187.019 175.167 192.908 171.515Z" fill="white"/>
<path d="M176.104 154.375C176.135 155.84 177.343 157.009 178.804 156.987C180.264 156.965 181.423 155.759 181.393 154.295C181.362 152.83 180.154 151.661 178.693 151.683C177.232 151.705 176.073 152.91 176.104 154.375Z" fill="white"/>
<path d="M190.786 168.779C190.805 169.665 191.536 170.373 192.42 170.36C193.304 170.347 194.005 169.617 193.987 168.731C193.968 167.845 193.237 167.137 192.353 167.15C191.469 167.163 190.768 167.893 190.786 168.779Z" fill="white"/>
<path d="M173.348 160.984C173.365 165.635 176.089 170.548 181.101 172.745C184.427 174.254 188.632 174.17 191.881 172.552C201.829 167.739 201.385 153.513 191.239 149.107C181.669 145.223 173.163 152.897 173.348 160.984ZM174.023 160.973C173.85 156.509 176.245 151.754 180.922 149.485C184.005 147.963 187.961 147.901 191.098 149.341C200.808 153.654 200.949 167.332 191.416 171.835C182.485 175.791 174.16 168.624 174.023 160.973Z" fill="#231F20"/>
<path d="M186.307 170.881C186.359 170.881 186.411 170.881 186.462 170.88C189.159 170.839 191.672 169.748 193.537 167.809C195.397 165.874 196.39 163.326 196.334 160.633C196.218 155.119 191.685 150.691 186.196 150.691C186.144 150.691 186.092 150.691 186.041 150.692C180.481 150.777 176.053 155.374 176.169 160.939C176.284 166.453 180.817 170.881 186.307 170.881ZM186.196 150.906C191.549 150.906 195.969 155.24 196.082 160.636C196.137 163.278 195.164 165.777 193.342 167.672C191.525 169.562 189.08 170.625 186.458 170.665C186.408 170.666 186.357 170.666 186.307 170.666C180.954 170.666 176.534 166.332 176.421 160.936C176.307 155.489 180.625 150.99 186.045 150.907C186.095 150.906 186.146 150.906 186.196 150.906Z" fill="#231F20"/>
<path d="M179.094 160.896C179.177 164.861 182.448 168.026 186.401 167.966C190.354 167.906 193.491 164.643 193.408 160.678C193.325 156.713 190.054 153.548 186.101 153.608C182.148 153.669 179.011 156.931 179.094 160.896Z" fill="#231F20"/>
<path d="M173.583 171.029C173.509 170.965 173.495 170.844 173.477 170.752C173.316 169.878 173.182 168.944 173.099 168.062C172.167 159.302 174.76 149.756 182.901 145.205C193.07 139.769 203.59 151.117 202.39 161.244C201.206 170.377 193.505 174.384 184.901 173.256C182.963 173.063 181.123 172.365 179.268 171.841C177.474 171.388 175.638 170.977 173.78 171.041C173.72 171.045 173.638 171.06 173.583 171.029ZM173.745 170.766C173.73 170.749 173.703 170.737 173.68 170.736C173.644 170.738 173.678 170.732 173.678 170.732L173.725 170.719L173.817 170.696C177.666 169.94 181.261 171.996 185.006 172.435C191.752 173.348 198.57 170.848 200.522 163.806C203.381 154.381 193.425 142.061 183.479 146.402C174.443 150.397 172.012 161.57 173.741 170.515L173.777 170.69L173.796 170.777L173.804 170.815C173.8 170.794 173.773 170.769 173.745 170.766Z" fill="#231F20"/>
</svg>
