<svg width="340" height="460" viewBox="0 0 340 460" fill="none" xmlns="http://www.w3.org/2000/svg">
<path d="M165.067 280.094C162.786 276.928 159.076 275.512 155.312 275.056C152.958 274.771 150.571 274.88 148.228 275.21C146.02 275.521 143.818 276.009 141.7 276.71C139.88 277.313 138.145 278.119 136.518 279.102C136.566 279.047 136.574 278.987 136.556 278.939C136.16 279.188 135.758 279.427 135.34 279.634C135.312 279.655 135.285 279.676 135.257 279.698C134.211 280.152 133.202 280.713 132.246 281.272C130.398 282.353 128.67 283.644 127.06 285.053C123.939 287.786 121.273 291.109 119.174 294.684C118.135 296.454 117.251 298.316 116.545 300.243C115.77 302.359 115.327 304.57 115.062 306.804C114.526 311.32 114.74 315.831 116.111 320.189C116.805 322.395 117.759 324.545 118.867 326.574C119.083 326.97 119.31 327.365 119.544 327.757C121.235 331.184 123.651 334.22 126.978 336.24C129.763 337.932 132.901 338.674 136.072 338.682C135.959 339.755 135.725 340.789 135.364 341.809C135.179 342.331 134.982 342.848 134.79 343.368C134.648 343.752 134.488 344.145 134.381 344.545C133.314 344.226 132.124 344.345 131.027 344.843C130.88 344.91 130.74 344.99 130.598 345.067C129.976 344.741 129.158 344.671 128.495 344.673C127.636 344.676 126.782 344.826 125.968 345.097C124.332 345.641 122.835 346.707 121.906 348.174C119.954 351.253 120.725 355.71 123.656 357.884C124.485 358.499 125.435 358.85 126.405 359.174C127.194 359.438 128.45 359.884 129.242 359.39C129.889 359.603 130.576 359.692 131.258 359.684C132.043 359.674 133.108 359.549 133.689 358.934C133.961 359.127 134.27 359.288 134.619 359.408C135.473 359.7 136.401 359.777 137.292 359.888C138.412 360.027 139.541 360.104 140.67 360.095C142.889 360.078 145.113 359.73 147.184 358.917C149.031 358.193 150.678 357.077 152.081 355.679C153.636 354.13 154.888 352.279 155.898 350.336C156.495 349.186 157.005 347.993 157.484 346.79C157.6 346.499 157.715 346.207 157.819 345.912C158.17 345.141 158.444 344.335 158.657 343.515C159.121 341.734 159.426 339.812 159.412 337.967C159.398 336.066 158.446 334.378 156.999 333.178C156.397 332.679 155.692 332.32 155.042 331.891C154.401 331.469 153.696 330.947 153.486 330.167C153.233 329.229 153.647 328.181 154.012 327.328C154.424 326.366 154.918 325.432 155.391 324.499C156.524 322.261 157.72 320.056 158.92 317.853C160.105 315.676 161.294 313.5 162.429 311.297C163.549 309.123 164.655 306.938 165.446 304.619C166.201 302.409 166.744 300.131 167.205 297.844C167.668 295.546 167.98 293.207 168.004 290.861C168.046 287.16 167.27 283.152 165.067 280.094Z" fill="black"/>
<path d="M126.773 358.587C125.999 358.328 125.231 358.062 124.539 357.619C123.167 356.74 122.189 355.36 121.769 353.79C121.346 352.209 121.455 350.396 122.17 348.911C122.858 347.483 124.144 346.419 125.594 345.825C126.413 345.49 127.296 345.3 128.181 345.283C128.785 345.271 129.362 345.372 129.944 345.465C128.571 346.393 127.462 347.755 126.738 349.216C125.287 352.146 125.065 357.001 128.245 358.933C127.752 358.885 127.27 358.754 126.773 358.587Z" fill="white"/>
<path d="M165.336 302.646C164.018 307.251 161.655 311.442 159.381 315.63C158.223 317.762 157.052 319.887 155.921 322.033C155.355 323.105 154.8 324.183 154.261 325.269C153.846 326.105 153.406 326.937 153.077 327.812C152.774 328.617 152.517 329.543 152.705 330.406C152.858 331.107 153.355 331.654 153.902 332.088C154.526 332.583 155.238 332.95 155.897 333.394C156.62 333.881 157.241 334.512 157.727 335.235C158.242 336.002 158.558 336.884 158.618 337.808C158.675 338.696 158.554 339.617 158.454 340.499C158.389 341.069 158.309 341.641 158.211 342.208C158.16 342.595 158.078 342.977 157.977 343.356C157.951 343.467 157.929 343.579 157.901 343.689C157.881 343.726 157.867 343.766 157.85 343.804C157.835 343.856 157.821 343.908 157.806 343.96C157.57 344.752 157.364 345.557 157.058 346.325C156.759 347.078 156.395 347.795 156.01 348.502C156.025 348.494 156.04 348.488 156.054 348.476C156.019 348.553 155.985 348.63 155.95 348.706C155.167 350.449 154.216 352.132 153.044 353.644C151.956 355.047 150.664 356.3 149.155 357.244C147.47 358.298 145.528 358.907 143.57 359.192C141.524 359.49 139.435 359.418 137.389 359.153C135.76 358.942 133.87 358.749 133.22 356.971C132.643 355.391 133.147 353.578 133.721 352.072C134.33 350.474 135.197 349.014 136.464 347.847C138.687 345.799 143.211 344.449 145.388 347.291C145.504 347.442 145.842 347.25 145.77 347.075C145.178 345.658 143.632 345.18 142.203 345.144C140.637 345.104 139.044 345.518 137.683 346.286C136.027 347.22 134.681 348.66 133.776 350.325C132.956 351.834 132.296 353.595 132.191 355.321C132.115 356.575 132.456 357.761 133.27 358.575C132.707 358.999 131.906 359.044 131.224 359.024C130.442 359.001 129.653 358.846 128.962 358.465C127.603 357.715 126.871 356.297 126.586 354.817C125.926 351.391 127.501 347.628 130.462 345.753C130.563 345.689 130.666 345.629 130.771 345.571C130.821 345.567 130.874 345.538 130.915 345.497C131.616 345.134 132.394 344.911 133.187 344.933C134.243 344.963 135.24 345.474 136.091 346.066C136.2 346.142 136.444 345.967 136.345 345.847C135.932 345.349 135.445 344.983 134.914 344.739C135.106 344.225 135.251 343.688 135.438 343.17C135.626 342.651 135.823 342.135 135.984 341.607C136.272 340.662 136.519 339.664 136.354 338.679C138.553 338.655 140.763 338.284 142.877 337.623C143.526 337.42 144.164 337.192 144.793 336.934C145.138 336.792 145.078 336.306 144.67 336.454C139.588 338.29 133.939 338.845 128.943 336.41C127.967 335.934 127.062 335.366 126.217 334.729C125.161 334.042 124.245 333.141 123.435 332.183C122.561 331.149 121.827 330.013 121.135 328.851C121.032 328.702 120.926 328.554 120.826 328.403C120.657 328.1 120.496 327.791 120.34 327.481C119.715 326.372 119.122 325.245 118.579 324.096C118.083 323.048 117.583 321.989 117.16 320.906C117.191 321.044 117.221 321.182 117.254 321.32C115.731 317.245 115.181 312.89 115.532 308.559C115.714 306.309 116.013 304.055 116.634 301.88C117.201 299.896 118.027 297.969 118.992 296.148C120.856 292.63 123.317 289.328 126.164 286.546C127.846 284.902 129.693 283.422 131.673 282.152C132.328 281.732 132.998 281.334 133.681 280.962C133.491 281.121 133.308 281.289 133.121 281.451C133.198 281.402 133.273 281.35 133.35 281.301C134.913 280.322 136.565 279.47 138.284 278.792C138.705 278.575 139.131 278.367 139.566 278.176C141.494 277.332 143.516 276.763 145.572 276.329C147.831 275.852 150.134 275.552 152.446 275.568C156.329 275.596 160.648 276.49 163.432 279.404C165.876 281.963 166.98 285.715 167.203 289.176C167.496 293.694 166.573 298.322 165.336 302.646Z" fill="white"/>
<path d="M257.8 300.636C256.125 295.415 254.061 290.286 253.176 284.848C252.731 282.112 252.55 279.304 252.94 276.549C253.045 275.811 253.202 275.081 253.403 274.363C253.493 274.114 253.602 273.871 253.741 273.638C254.159 272.938 254.762 272.361 255.212 271.68C255.72 270.911 256.114 270.062 256.154 269.196C256.17 269.242 256.186 269.289 256.206 269.334C256.255 269.445 256.361 269.5 256.484 269.468C257.358 269.24 257.441 267.979 257.492 267.249C257.538 266.591 257.482 265.951 257.225 265.403C257.375 265.546 257.499 265.728 257.584 265.979C257.662 266.21 257.974 266.13 258.099 265.988C258.573 265.451 258.383 264.655 258.119 264.06C257.914 263.597 257.612 263.29 257.228 263.067C257.571 263.048 257.921 263.077 258.266 263.028C258.434 263.004 258.709 262.743 258.561 262.562C258.106 262.006 257.428 261.819 256.745 261.702C255.894 261.556 255.031 261.551 254.175 261.661C253.377 261.763 252.57 261.99 251.855 262.366C251.511 262.547 251.167 262.754 250.885 263.021C249.605 264.023 248.487 265.238 247.561 266.566C244.81 270.512 244.025 275.372 244.311 280.096C244.62 285.192 246.097 290.089 247.408 294.993C248.773 300.099 250.064 305.271 250.429 310.561C250.765 315.443 250.193 320.317 248.792 325.004C247.584 329.044 245.696 332.922 242.853 336.07C241.361 337.722 239.644 339.073 237.781 340.28C235.797 341.566 233.774 342.813 231.579 343.709C227.282 345.463 222.122 345.744 217.691 344.302C213.796 343.034 210.601 340.065 208.161 336.866C206.154 334.235 204.61 331.334 203.334 328.304C203.052 327.315 202.739 326.338 202.519 325.331C202.32 324.42 202.273 323.409 201.904 322.545C201.44 321.458 200.34 321.065 199.226 321.087C198.001 321.111 196.779 321.499 195.668 321.994C194.475 322.525 193.229 323.284 192.721 324.549C192.49 325.123 192.429 325.727 192.463 326.332C192.418 326.335 192.361 326.378 192.371 326.425C192.906 329.057 193.668 331.633 194.788 334.077C195.905 336.515 197.267 338.849 198.841 341.021C201.724 344.998 205.126 348.635 209.602 350.797C213.762 352.807 218.423 353.643 223.026 353.528C227.639 353.412 232.236 352.369 236.435 350.455C240.764 348.481 244.657 345.615 247.953 342.193C251.285 338.734 254.011 334.708 256.069 330.373C258.106 326.081 259.478 321.459 260.036 316.738C260.683 311.232 259.473 305.851 257.8 300.636Z" fill="black"/>
<path d="M257.196 325.94C255.625 330.425 253.339 334.661 250.436 338.424C247.544 342.173 244.013 345.448 239.975 347.93C236.033 350.352 231.622 351.933 227.042 352.581C222.475 353.227 217.73 352.954 213.327 351.539C211.157 350.841 209.081 349.861 207.185 348.595C205.153 347.238 203.437 345.538 201.835 343.703C198.338 339.698 195.548 335.143 193.666 330.169C193.463 329.277 193.175 328.409 192.979 327.515C192.801 326.705 192.648 325.804 192.912 324.994C193.325 323.727 194.476 322.967 195.628 322.435C197.199 321.709 200.522 320.559 201.461 322.779C201.637 323.194 201.689 323.656 201.792 324.093C201.842 324.304 201.897 324.514 201.952 324.724C201.785 324.248 201.624 323.77 201.474 323.289C201.466 323.263 201.425 323.287 201.429 323.309C202.126 327.263 203.749 331.037 205.854 334.444C207.976 337.879 210.715 341.094 214.19 343.217C217.971 345.527 222.605 346.025 226.934 345.408C229.258 345.076 231.481 344.304 233.569 343.242C235.639 342.189 237.665 340.94 239.548 339.579C242.95 337.12 245.573 333.77 247.382 329.998C249.26 326.083 250.386 321.733 250.857 317.423C251.429 312.18 250.79 306.906 249.683 301.775C248.577 296.645 246.942 291.647 245.83 286.521C244.761 281.593 244.248 276.334 245.772 271.442C246.617 268.73 248.196 266.068 250.345 264.097C250.721 263.879 251.059 263.521 251.416 263.328C252.058 262.98 252.723 262.617 253.436 262.442C254.151 262.266 254.894 262.226 255.628 262.231C256.029 262.234 256.421 262.271 256.816 262.343C256.923 262.363 257.025 262.385 257.126 262.402C257.248 262.441 257.368 262.485 257.48 262.541C257.096 262.56 256.719 262.6 256.353 262.801C256.206 262.882 255.977 263.192 256.257 263.273C256.818 263.436 257.242 263.698 257.5 264.243C257.591 264.436 257.724 264.78 257.771 265.101C257.4 264.758 256.902 264.596 256.368 264.432C256.18 264.374 255.835 264.677 256.057 264.832C256.829 265.372 256.894 266.353 256.845 267.206C256.824 267.558 256.791 267.913 256.717 268.258C256.688 268.393 256.652 268.531 256.608 268.664C256.551 268.523 256.493 268.382 256.403 268.255C256.243 268.029 256.044 267.834 255.826 267.664C255.828 268.138 255.76 268.604 255.644 269.061C255.605 269.858 255.207 270.668 254.742 271.366C254.702 271.449 254.661 271.533 254.621 271.616C254.596 271.666 254.557 271.688 254.516 271.691C254.377 271.882 254.237 272.064 254.102 272.229C253.97 272.391 253.837 272.558 253.708 272.728C253.704 272.712 253.7 272.697 253.696 272.681C253.538 272.941 253.382 273.201 253.235 273.468C252.891 274.095 252.636 274.757 252.442 275.439C252.132 276.893 251.995 278.387 251.993 279.868C251.985 285.289 253.561 290.522 255.284 295.608C257.027 300.755 258.969 305.947 259.413 311.407C259.808 316.317 258.815 321.318 257.196 325.94Z" fill="white"/>
<path d="M227.474 293.518C227.38 292.347 227.187 291.181 226.934 290.052C226.89 288.084 226.811 286.117 226.62 284.165C226.28 280.684 225.334 277.415 223.998 274.193C221.264 267.602 218.294 261.106 215.234 254.661C212.132 248.125 208.933 241.636 205.809 235.11C202.799 228.822 199.656 222.497 197.89 215.721C197.029 212.415 196.46 208.998 195.94 205.623C195.657 203.786 195.432 201.929 195.314 200.068C195.361 199.077 195.564 198.086 195.725 197.111C195.914 195.965 196.405 194.645 195.902 193.517C195.795 193.278 195.662 193.053 195.509 192.843C195.511 192.829 195.512 192.815 195.514 192.801C195.519 192.766 195.485 192.765 195.456 192.776C195.001 192.175 194.388 191.686 193.766 191.28C192.784 190.638 191.7 190.149 190.604 189.736C187.863 188.704 184.923 188.123 182.042 187.644C178.611 187.074 175.141 186.764 171.665 186.677C168.448 186.597 165.235 186.72 162.026 186.955C160.02 187.102 158.014 187.282 156.023 187.574C151.889 188.181 147.356 189.21 144.117 192.02C143.387 192.653 142.741 193.387 142.234 194.212C141.608 195.232 141.258 196.377 140.986 197.536C140.296 200.474 140.202 203.535 140.294 206.546C140.203 207.912 140.099 209.276 139.993 210.637C139.76 213.626 139.47 216.609 139.098 219.584C138.347 225.594 137.311 231.564 136.113 237.5C134.903 243.494 133.543 249.456 132.165 255.412C130.82 261.225 129.484 267.054 128.668 272.969C127.176 283.781 127.752 294.823 131.922 305.009C135.728 314.306 142.386 322.141 151.052 327.254C153.411 328.646 155.885 329.813 158.434 330.77C158.593 330.862 158.75 330.957 158.914 331.042C159.942 331.569 161.042 331.958 162.149 332.284C164.471 332.967 166.882 333.316 169.266 333.704C174.715 334.591 180.278 334.929 185.782 334.393C188.515 334.127 191.249 333.679 193.878 332.872C196.478 332.073 198.978 330.987 201.423 329.802C206.183 327.496 210.909 325.046 214.898 321.523C216.817 319.828 218.603 317.954 220.158 315.92C220.892 314.96 221.552 313.948 222.295 312.994C222.972 312.125 223.637 311.239 224.111 310.24C226.755 305.984 226.786 300.373 225.643 295.615C225.506 295.044 225.345 294.48 225.172 293.919C225.762 295.105 226.215 296.37 226.753 297.586C226.915 297.951 227.415 297.657 227.458 297.357C227.643 296.088 227.62 294.797 227.474 293.518Z" fill="black"/>
<path d="M226.852 295.473C226.842 295.78 226.813 296.091 226.793 296.401C226.671 295.832 226.488 295.279 226.249 294.749C225.623 293.364 224.69 292.156 223.885 290.874C223.857 290.873 223.827 290.876 223.798 290.881C223.967 291.433 224.156 291.98 224.344 292.526C224.615 293.313 224.88 294.105 225.051 294.921C225.218 295.715 225.308 296.526 225.358 297.335C225.373 297.571 225.376 297.807 225.384 298.043C225.891 301.316 225.751 304.673 224.629 307.794C224.558 307.992 224.482 308.187 224.402 308.381C224.37 308.387 224.336 308.4 224.303 308.413C224.166 308.759 224.023 309.103 223.865 309.441C222.973 311.355 221.75 313.099 220.316 314.644C220.274 314.689 220.23 314.732 220.188 314.777C218.83 316.69 217.255 318.428 215.566 320.055C213.725 321.828 211.703 323.383 209.547 324.753C207.357 326.145 205.04 327.317 202.724 328.482C200.346 329.679 197.932 330.819 195.425 331.721C192.898 332.629 190.282 333.199 187.623 333.556C186.559 333.699 185.491 333.802 184.42 333.878C182.558 334.237 180.686 334.171 178.804 334.046C178.269 334.01 177.734 333.973 177.199 333.935C177.155 333.933 177.111 333.932 177.068 333.929C177.081 333.929 177.094 333.928 177.106 333.928C174.594 333.746 172.085 333.516 169.602 333.09C168.731 332.94 167.864 332.762 167.004 332.556C164.41 332.065 161.858 331.363 159.38 330.455C158.265 330.255 157.204 329.771 156.251 329.136C156.281 329.163 156.311 329.19 156.341 329.217C155.529 328.853 154.724 328.475 153.935 328.064C145.103 323.474 137.966 316.173 133.685 307.182C129.041 297.429 127.865 286.529 128.985 275.869C129.608 269.942 130.821 264.098 132.132 258.291C133.42 252.585 134.76 246.892 135.939 241.162C137.141 235.323 138.222 229.455 139.062 223.552C139.715 218.962 140.306 214.301 140.544 209.647C140.554 209.638 140.562 209.626 140.562 209.613C140.772 206.411 140.706 203.196 141.139 200.01C141.465 197.612 142.001 195.089 143.652 193.232C144.96 191.762 146.71 190.766 148.516 190.036C150.49 189.237 152.577 188.739 154.671 188.373C156.672 188.024 158.693 187.807 160.717 187.644C163.464 187.423 166.215 187.268 168.972 187.257C172.375 187.243 175.781 187.427 179.158 187.858C182.358 188.266 185.584 188.858 188.675 189.794C189.706 190.106 190.725 190.481 191.697 190.946C192.697 191.425 193.715 192.003 194.49 192.809C194.779 193.11 195.045 193.457 195.218 193.842C194.845 195.964 194.737 198.109 194.808 200.257C194.809 200.448 194.817 200.637 194.833 200.825C195.024 204.908 195.815 208.999 196.578 212.967C197.885 219.762 200.744 226.087 203.682 232.307C206.786 238.877 210.001 245.393 213.143 251.945C216.294 258.515 219.318 265.135 222.207 271.825C223.57 274.98 224.931 278.141 225.56 281.539C225.906 283.409 226.055 285.297 226.139 287.19C225.794 286.165 225.378 285.159 224.878 284.201C225.312 285.657 225.614 287.146 225.85 288.646C225.92 288.895 225.989 289.144 226.051 289.395C226.373 290.711 226.62 292.042 226.754 293.391C226.824 294.082 226.874 294.78 226.852 295.473Z" fill="white"/>
<path d="M221.202 279.48C220.004 277.299 218.204 275.695 216.116 274.533C216.33 274.81 216.539 275.091 216.736 275.379C217.331 276.245 217.886 277.161 218.3 278.128C219.444 280.799 219.352 283.734 219.242 286.578C219.234 286.786 218.959 286.778 218.878 286.63C218.707 286.319 218.53 286.012 218.344 285.709C217.005 283.531 215.255 281.621 213.098 280.232C210.885 278.807 208.339 277.991 205.747 277.607C204.14 277.369 202.487 277.314 200.865 277.336C199.22 277.359 197.577 277.491 195.949 277.728C194.319 277.965 192.703 278.306 191.119 278.76C189.591 279.198 188.138 279.794 186.743 280.557C184.106 282 181.791 283.937 179.433 285.782C179.329 285.863 179.134 285.807 179.127 285.66C179.062 284.094 179.984 282.645 180.919 281.465C181.86 280.277 182.961 279.217 184.096 278.217C185.223 277.225 186.392 276.287 187.643 275.457C186.794 275.897 185.968 276.383 185.163 276.903C181.793 279.078 178.587 281.596 175.708 284.39C172.819 287.193 170.315 290.324 168.3 293.812C166.198 297.452 164.491 301.363 163.497 305.454C162.934 307.771 162.658 310.134 162.708 312.518C162.732 313.67 162.761 314.824 162.861 315.972C162.902 316.443 162.967 316.907 163.044 317.369C163.153 318.661 163.334 319.95 163.585 321.231C164.693 326.891 167.198 332.38 171.815 336.02C174.647 338.253 177.993 339.49 181.474 339.925C181.206 341.089 180.809 342.193 180.276 343.264C180.003 343.813 179.717 344.354 179.435 344.898C179.227 345.301 178.999 345.711 178.828 346.136C177.699 345.643 176.376 345.612 175.105 346.012C174.935 346.066 174.77 346.135 174.604 346.2C173.965 345.758 173.076 345.571 172.347 345.484C171.403 345.371 170.445 345.421 169.514 345.609C167.644 345.986 165.857 346.956 164.639 348.441C162.081 351.561 162.328 356.559 165.255 359.341C166.083 360.128 167.079 360.641 168.101 361.128C168.933 361.524 170.251 362.183 171.188 361.747C171.87 362.068 172.613 362.259 173.362 362.341C174.226 362.436 175.412 362.442 176.132 361.844C176.405 362.093 176.722 362.311 177.09 362.49C177.989 362.926 178.998 363.135 179.962 363.377C181.173 363.681 182.403 363.917 183.644 364.059C186.083 364.339 188.573 364.255 190.957 363.642C193.083 363.095 195.042 362.091 196.771 360.744C198.687 359.252 200.311 357.387 201.682 355.39C202.493 354.208 203.213 352.966 203.901 351.709C204.068 351.405 204.233 351.1 204.387 350.79C204.877 349.99 205.285 349.142 205.63 348.271C206.379 346.378 206.972 344.307 207.205 342.279C207.445 340.189 206.627 338.207 205.199 336.694C204.605 336.065 203.879 335.575 203.223 335.017C202.576 334.467 201.872 333.799 201.746 332.915C201.595 331.851 202.19 330.755 202.705 329.868C203.287 328.866 203.956 327.908 204.601 326.946C206.147 324.641 207.757 322.379 209.371 320.121C210.965 317.889 212.564 315.66 214.107 313.393C215.63 311.156 217.138 308.905 218.319 306.465C219.445 304.139 220.349 301.711 221.162 299.261C221.979 296.8 222.637 294.272 222.98 291.699C223.524 287.642 223.21 283.135 221.202 279.48Z" fill="black"/>
<path d="M168.582 360.536C167.766 360.147 166.959 359.752 166.259 359.172C164.87 358.022 163.982 356.375 163.731 354.594C163.479 352.8 163.843 350.824 164.827 349.29C165.774 347.814 167.33 346.819 169.003 346.362C169.947 346.104 170.943 346.015 171.918 346.115C172.583 346.183 173.203 346.372 173.829 346.552C172.196 347.387 170.795 348.733 169.803 350.241C167.815 353.264 166.918 358.566 170.151 361.116C169.618 360.995 169.106 360.786 168.582 360.536Z" fill="white"/>
<path d="M218.463 304.285C216.396 309.165 213.236 313.451 210.176 317.745C208.618 319.931 207.045 322.108 205.514 324.312C204.749 325.414 203.993 326.522 203.255 327.642C202.687 328.505 202.092 329.358 201.612 330.275C201.171 331.118 200.764 332.101 200.855 333.073C200.929 333.864 201.401 334.531 201.943 335.081C202.562 335.709 203.294 336.209 203.958 336.785C204.686 337.417 205.284 338.192 205.72 339.052C206.182 339.963 206.411 340.976 206.352 341.999C206.295 342.982 206.039 343.978 205.81 344.932C205.532 346.091 205.203 347.247 204.774 348.362C204.626 348.57 204.514 348.798 204.417 349.06C204.415 349.066 204.412 349.072 204.41 349.077C204.337 349.278 204.258 349.476 204.17 349.671C203.905 350.291 203.595 350.893 203.258 351.475C203.137 351.683 203.007 351.885 202.88 352.088C202.862 352.121 202.843 352.155 202.825 352.188C202.412 352.942 201.976 353.686 201.489 354.395C201.4 354.524 201.306 354.65 201.213 354.777C200.295 356.156 199.266 357.465 198.1 358.64C196.716 360.035 195.129 361.238 193.344 362.072C191.352 363.003 189.136 363.41 186.948 363.46C184.661 363.512 182.376 363.152 180.165 362.585C178.404 362.134 176.354 361.667 175.88 359.626C175.458 357.813 176.257 355.891 177.09 354.314C177.974 352.641 179.123 351.154 180.671 350.043C183.388 348.092 188.539 347.218 190.548 350.632C190.655 350.814 191.053 350.649 190.996 350.447C190.537 348.811 188.903 348.077 187.338 347.845C185.624 347.591 183.818 347.831 182.22 348.491C180.276 349.294 178.603 350.694 177.386 352.402C176.282 353.949 175.32 355.795 174.972 357.676C174.719 359.043 174.935 360.392 175.719 361.395C175.044 361.785 174.158 361.726 173.412 361.613C172.556 361.483 171.71 361.206 171.003 360.695C169.611 359.688 168.999 358.032 168.884 356.368C168.62 352.516 170.856 348.597 174.36 346.935C174.479 346.878 174.601 346.825 174.724 346.776C174.78 346.778 174.842 346.754 174.892 346.714C175.711 346.41 176.595 346.27 177.463 346.402C178.619 346.577 179.645 347.272 180.5 348.036C180.61 348.134 180.901 347.976 180.808 347.831C180.422 347.228 179.936 346.761 179.385 346.421C179.665 345.882 179.897 345.312 180.172 344.769C180.448 344.225 180.734 343.684 180.982 343.126C181.426 342.127 181.831 341.063 181.783 339.959C184.201 340.228 186.678 340.119 189.09 339.678C189.83 339.543 190.561 339.378 191.287 339.179C191.685 339.07 191.685 338.527 191.217 338.634C185.388 339.967 179.109 339.817 173.95 336.469C169.089 333.315 166.183 328.145 164.837 322.615C164.622 321.734 164.44 320.842 164.286 319.944C164.223 319.627 164.16 319.31 164.095 318.994C163.923 318.151 163.74 317.313 163.619 316.46C163.368 314.684 163.299 312.882 163.393 311.092C163.522 308.63 163.967 306.163 164.758 303.818C165.615 300.971 166.844 298.226 168.223 295.606C170.087 292.064 172.409 288.832 175.188 285.95C177.872 283.167 180.902 280.717 184.055 278.487C185.87 277.203 187.767 276.046 189.817 275.176C190.828 274.747 191.878 274.395 192.918 274.041C192.908 274.068 192.896 274.095 192.885 274.123C193.074 274.062 193.263 273.999 193.454 273.942C195.685 273.274 197.982 272.92 200.299 272.72C202.844 272.5 205.414 272.48 207.951 272.81C212.212 273.363 216.836 274.927 219.501 278.503C221.841 281.642 222.549 285.911 222.328 289.742C222.04 294.744 220.404 299.702 218.463 304.285Z" fill="white"/>
<path d="M143.877 198.528C143.877 198.528 130.774 193.849 123.287 201.603C123.287 201.603 126.732 199.492 130.213 200.456C130.213 200.456 123.573 199.688 119.878 206.498C119.878 206.498 124.644 206.775 128.179 204.419C128.179 204.419 125.341 206.882 123.038 206.882C123.038 206.882 127.108 207.15 130.375 204.204C130.375 204.204 124.217 208.113 123.038 217.645C121.86 227.177 124.163 233.711 120.575 240.833C116.987 247.955 112.864 254.435 109.757 255.453C106.651 256.471 93.4766 257.863 93.5846 268.466C93.6926 279.069 103.974 279.551 103.974 279.551C103.974 279.551 106.759 282.229 112.382 281.104C112.382 281.104 125.442 289.15 137.216 270.81C148.99 252.47 145.48 241.489 145.48 241.489C145.48 241.489 146.752 244.221 146.463 247.566C146.463 247.566 148.144 229.511 146.506 219.172C144.867 208.834 156.316 201.771 143.877 198.528Z" fill="white"/>
<path d="M112.381 281.104C112.381 281.104 108.159 277.786 108.159 272.74C108.159 267.694 111.929 264.273 115.524 263.983" fill="white"/>
<path d="M103.973 279.551C103.973 279.551 100.016 276.725 100.592 270.216C101.168 263.708 106.121 260.54 108.943 260.598" fill="white"/>
<path d="M143.794 198.797C137.073 196.717 128.783 196.593 123.343 201.656C123.342 201.659 123.248 201.539 123.248 201.539C124.267 200.871 125.422 200.441 126.616 200.199C127.812 199.968 129.076 199.995 130.236 200.379C130.279 200.387 130.308 200.429 130.299 200.472C130.291 200.518 130.248 200.541 130.205 200.536C129.168 200.504 128.118 200.642 127.115 200.905C124.036 201.664 121.555 203.862 119.936 206.529L119.883 206.433C120.6 206.443 121.322 206.402 122.037 206.328C123.464 206.165 124.884 205.865 126.219 205.329C126.889 205.067 127.522 204.725 128.134 204.35C128.173 204.325 128.224 204.336 128.249 204.375C128.271 204.41 128.264 204.455 128.235 204.482C127.138 205.443 125.887 206.263 124.493 206.715C124.023 206.858 123.534 206.949 123.04 206.938L123.044 206.826C124.358 206.787 125.673 206.538 126.909 206.091C128.158 205.659 129.304 204.983 130.334 204.157L130.411 204.259C128.85 205.516 127.549 207.086 126.5 208.786C123.171 213.94 122.915 220.247 122.912 226.214C122.901 230.262 123.094 234.423 121.827 238.338C121.185 240.279 120.208 242.081 119.273 243.893C117.332 247.486 115.367 251.1 112.486 254.068L111.91 254.602C111.709 254.773 111.494 254.931 111.286 255.096C110.018 256.062 108.322 256.207 106.86 256.609C104.904 257.083 102.969 257.634 101.148 258.45C98.4481 259.64 95.9261 261.527 94.7741 264.295C93.4031 267.86 94.0271 272.287 96.4691 275.241C98.3971 277.489 101.151 278.516 103.985 279.401C106.493 281.072 109.535 281.109 112.441 280.965C116.966 282.97 122.359 282.669 126.681 280.298C131.067 277.957 134.373 274.019 137.015 269.846C142.052 261.855 147.028 251.154 145.336 241.526C145.29 241.349 145.548 241.26 145.62 241.426C146.038 242.398 146.308 243.406 146.481 244.444C146.655 245.477 146.699 246.531 146.617 247.576C146.623 247.585 146.315 247.549 146.315 247.552C146.984 238.781 147.43 229.908 146.553 221.144L146.331 219.512C146.065 217.86 146.05 216.146 146.334 214.498C146.84 211.181 148.478 208.22 149.298 205.023C150.367 201.052 147.024 199.649 143.794 198.797ZM143.96 198.26C154.854 201.043 147.864 207.471 146.79 214.575C146.363 216.759 146.671 218.904 146.98 221.096C147.434 225.506 147.467 229.934 147.365 234.351C147.256 238.769 147.003 243.179 146.614 247.581C146.607 247.664 146.533 247.726 146.45 247.719C146.365 247.711 146.304 247.635 146.313 247.551C146.47 245.52 146.132 243.431 145.343 241.554C145.343 241.554 145.628 241.439 145.625 241.446C146.347 243.942 146.324 246.543 146.131 249.105C145.299 259.565 136.959 276.749 127.345 281.57C122.738 284.054 116.729 284.161 112.301 281.234L112.41 281.254L112.405 281.255C109.573 282.213 106.067 281.805 103.868 279.662L103.966 279.704L103.961 279.703C102.904 279.841 101.853 279.71 100.825 279.46C97.7171 278.668 94.9721 276.309 93.8791 273.269C92.8091 270.298 92.7881 266.894 94.0641 263.987C95.3621 261.089 98.0471 259.078 100.842 257.789C102.712 256.921 104.68 256.301 106.659 255.809C107.642 255.558 108.655 255.352 109.58 255.073C110.436 254.79 111.223 254.173 111.932 253.499C114.747 250.665 116.835 247.113 118.813 243.645C119.78 241.868 120.81 240.114 121.435 238.211C123.357 232.373 122.035 226.139 122.498 220.118C122.691 215.029 124.272 209.756 127.957 206.083C128.675 205.349 129.465 204.678 130.348 204.147C130.416 204.105 130.483 204.214 130.415 204.256C128.965 205.668 127.044 206.559 125.048 206.859C124.382 206.955 123.709 207 123.035 206.939C123.004 206.936 122.981 206.91 122.984 206.879C124.871 206.61 126.616 205.538 128.126 204.358C128.124 204.359 128.232 204.491 128.224 204.491C126.398 205.708 124.225 206.31 122.056 206.513C121.33 206.58 120.603 206.608 119.872 206.565C119.837 206.563 119.811 206.533 119.813 206.499C119.814 206.488 119.817 206.477 119.823 206.469L120.206 205.771C121.609 203.191 124.158 201.227 127.039 200.595C128.082 200.355 129.156 200.261 130.224 200.379L130.193 200.537C129.896 200.502 129.612 200.418 129.314 200.411C127.252 200.202 125.176 200.781 123.328 201.672C123.29 201.699 123.236 201.686 123.215 201.644C123.199 201.612 123.208 201.575 123.234 201.553C124.447 200.172 125.973 199.043 127.671 198.284C132.796 196.023 138.747 196.601 143.96 198.26Z" fill="#231F20"/>
<path d="M112.287 281.224C106.346 277.23 106.079 267.913 112.801 264.606C113.656 264.206 114.585 263.96 115.52 263.931C115.549 263.93 115.574 263.953 115.575 263.982C115.576 264.009 115.555 264.033 115.529 264.036C114.619 264.161 113.744 264.461 112.954 264.904C108.917 267.101 107.451 272.491 109.436 276.547C110.173 278.164 111.236 279.652 112.474 280.984C112.608 281.103 112.435 281.329 112.287 281.224Z" fill="#231F20"/>
<path d="M103.885 279.675C102.089 278.55 101.048 276.561 100.559 274.557C99.3797 269.59 101.253 263.653 106.005 261.291C106.908 260.869 108.005 260.455 108.978 260.6C108.007 260.724 106.985 260.984 106.118 261.505C101.702 263.981 100.035 269.657 101.226 274.39C101.731 276.276 102.726 278.003 104.062 279.429C104.204 279.539 104.039 279.778 103.885 279.675Z" fill="#231F20"/>
<path d="M157.492 252.82C155.488 255.514 153.706 257.537 152.11 258.06C149.005 259.077 135.833 260.469 135.94 271.071C136.047 281.673 146.327 282.154 146.327 282.154C146.327 282.154 149.111 284.831 154.733 283.707C154.733 283.707 167.791 291.752 179.563 273.415C181.266 270.762 182.649 268.264 183.769 265.93C183.769 265.93 187.705 259.755 191.922 257.691C196.14 255.627 204.575 248.538 206.459 243.692C206.459 243.692 205.113 248.448 202.152 250.871C202.152 250.871 209.869 248.161 210.228 231.03C210.228 231.03 209.779 235.615 208.433 237.5C208.433 237.5 213.099 221.437 201.434 204.746C201.434 204.746 204.485 206.451 207.267 210.669C207.267 210.669 207.267 207.887 205.203 203.759C205.203 203.759 207.446 203.31 209.869 206.451C209.869 206.451 206.459 196.319 189.05 197.975C171.641 199.631 171.653 209.323 173.083 215.873C174.513 222.423 178.641 229.782 174.154 235.525C174.154 235.525 177.455 232.319 177.854 227.651C177.854 227.651 178.451 234.008 172.172 238.903C165.894 243.798 162.438 246.169 157.492 252.82Z" fill="white"/>
<path d="M154.733 283.708C154.733 283.708 150.512 280.39 150.512 275.346C150.512 270.302 154.281 266.88 157.876 266.59" fill="white"/>
<path d="M146.327 282.155C146.327 282.155 142.37 279.329 142.946 272.822C143.522 266.315 148.474 263.148 151.296 263.205" fill="white"/>
<path d="M157.873 253.104C156.352 255.055 154.688 257.087 152.41 258.185C149.59 259.042 146.721 259.689 144.076 261.01C140.112 262.767 136.751 265.659 136.502 270.257C136.028 276.714 139.971 281.147 146.331 282.003C147.582 282.722 148.98 283.192 150.413 283.396C151.87 283.614 153.348 283.507 154.813 283.578C162.486 287.451 170.579 283.985 175.776 277.768C178.839 274.139 181.242 269.972 183.33 265.719C184.081 264.545 184.912 263.457 185.787 262.389C187.317 260.561 189.026 258.786 191.103 257.566C192.56 256.8 193.988 255.946 195.334 254.965C198.015 253.018 200.55 250.844 202.856 248.457C204.2 246.994 205.54 245.487 206.409 243.679C206.422 243.612 206.532 243.645 206.512 243.707C205.813 246.429 204.489 249.191 202.193 250.908L202.187 250.913L202.136 250.821C203.764 249.957 205.004 248.5 205.989 246.973C208.99 242.245 209.734 236.508 210.175 231.03L210.284 231.037C210.196 232.732 209.934 234.442 209.333 236.038C209.35 236.141 208.434 237.928 208.377 237.484C209.966 229.796 208.977 221.644 206.217 214.339C206.013 213.725 205.624 212.972 205.391 212.366C204.309 209.712 202.839 207.256 201.387 204.785C201.347 204.737 201.412 204.662 201.465 204.694C203.327 205.699 204.874 207.212 206.167 208.869C206.592 209.43 206.979 210.019 207.328 210.63L207.195 210.67C206.919 208.283 206.133 205.978 205.161 203.787C205.143 203.759 205.159 203.719 205.191 203.711C206.899 203.362 208.525 204.525 209.533 205.805C209.669 206.004 209.809 206.198 209.936 206.4L209.789 206.479C209.146 205.129 208.173 203.95 207.084 202.948C202.623 198.882 196.161 197.956 190.32 198.374C185.919 198.648 181.249 199.471 177.549 201.932C173.613 204.546 172.381 209.077 173.029 213.588C173.57 218.123 175.553 222.291 176.215 226.84C176.703 229.846 176.261 233.206 174.187 235.554L174.124 235.497C174.605 234.944 175.047 234.355 175.452 233.746C176.678 231.921 177.538 229.845 177.815 227.656C177.816 227.633 177.834 227.61 177.86 227.615C177.878 227.618 177.891 227.632 177.892 227.65C178.074 230.462 177.143 233.278 175.599 235.614C174.065 237.998 171.679 239.634 169.519 241.387C165.121 244.776 161.083 248.559 157.873 253.104ZM157.11 252.536C160.427 248.01 164.594 244.143 169.111 240.857C171.314 239.152 173.689 237.653 175.245 235.365C176.85 233.154 177.834 230.428 177.817 227.655H177.893L177.892 227.661C177.762 229.891 176.917 232.049 175.639 233.872C175.208 234.478 174.732 235.052 174.184 235.557C174.152 235.591 174.091 235.542 174.118 235.503L174.12 235.5L174.123 235.495C175.911 233 176.254 229.868 175.744 226.909C175.024 222.436 172.953 218.211 172.348 213.675C171.262 206.594 174.44 201.448 181.212 199.121C184.48 197.948 187.959 197.512 191.41 197.368C197.804 197.075 205.223 198.645 208.93 204.35C209.359 204.995 209.713 205.688 209.952 206.431C209.966 206.475 209.942 206.522 209.898 206.536C209.861 206.548 209.822 206.533 209.802 206.501C209.629 206.339 209.47 206.169 209.305 206.004C208.828 205.552 208.281 205.046 207.73 204.696C206.982 204.202 206.123 203.82 205.213 203.807L205.248 203.735C205.534 204.271 205.817 204.811 206.055 205.372C206.765 207.046 207.353 208.829 207.34 210.667C207.339 210.708 207.305 210.739 207.264 210.738C205.931 209.137 204.629 207.458 203.029 206.088C202.51 205.632 201.972 205.19 201.404 204.797L201.484 204.709C202.296 205.897 203.197 207.04 203.906 208.293C207.633 214.48 209.6 221.728 209.569 228.951C209.565 231.837 209.269 234.733 208.492 237.516L208.384 237.464L208.387 237.459C209.397 235.457 209.746 233.21 210.174 231.024C210.176 230.992 210.207 230.967 210.239 230.973C210.266 230.978 210.285 231.003 210.284 231.03C210.316 236.797 209.599 243.113 206.017 247.847C205.576 248.379 205.093 248.966 204.568 249.414C203.866 250.05 203.071 250.602 202.171 250.92C202.143 250.93 202.113 250.915 202.103 250.887C202.094 250.862 202.106 250.838 202.125 250.823C202.622 250.324 203.084 249.803 203.497 249.241C204.741 247.546 205.653 245.633 206.409 243.676L206.509 243.71C205.603 246.272 203.812 248.431 201.993 250.404C199.183 253.342 196.059 256.013 192.47 257.973C190.111 259.127 188.221 261.019 186.546 263.019C185.752 263.974 184.761 265.303 184.209 266.14C182.072 270.472 179.615 274.689 176.418 278.332C173.202 281.946 168.975 284.986 164.066 285.59C161.001 286.068 157.016 285.321 154.757 283.854C152.627 284.703 150.145 284.596 148.074 283.618C147.383 283.279 146.733 282.86 146.22 282.261C146.217 282.26 146.331 282.308 146.314 282.303C142.307 282.115 138.2 279.966 136.511 276.17C134.865 272.452 134.936 267.713 137.478 264.406C140.011 261.078 144.016 259.569 147.955 258.75L150.851 258.145C153.911 257.737 155.343 254.735 157.11 252.536Z" fill="#231F20"/>
<path d="M154.64 283.827C149.852 280.259 148.427 273.301 152.85 268.85C154.186 267.512 155.995 266.607 157.872 266.537C157.901 266.536 157.926 266.559 157.927 266.588C157.928 266.615 157.907 266.639 157.881 266.642C156.053 266.88 154.401 267.857 153.186 269.175C149.957 272.634 150.292 277.896 153.05 281.531C153.579 282.264 154.171 282.97 154.827 283.589C154.977 283.705 154.792 283.948 154.64 283.827Z" fill="#231F20"/>
<path d="M146.239 282.279C142.175 279.579 141.792 273.761 143.317 269.521C144.248 267.125 146.008 264.992 148.337 263.858C149.257 263.413 150.271 263.111 151.297 263.153C151.327 263.154 151.349 263.179 151.348 263.208C151.347 263.237 151.323 263.259 151.295 263.259C150.3 263.313 149.348 263.666 148.492 264.151C144.13 266.642 142.472 272.271 143.66 276.974C144.153 278.841 145.069 280.604 146.415 282.032C146.56 282.142 146.393 282.385 146.239 282.279Z" fill="#231F20"/>
<path d="M153.882 204.842C153.882 204.842 149.081 203.402 141.879 206.09C134.677 208.779 132.468 207.914 132.468 207.914C132.468 207.914 134.965 212.235 141.111 210.699C141.111 210.699 133.183 212.3 134.129 217.266C134.129 217.266 135.016 214.074 141.045 214.015C141.045 214.015 132.001 215.316 133.833 227.906C133.833 227.906 134.483 222.645 142.936 219.571C142.936 219.571 136.02 225.955 140.158 233.876C140.158 233.876 139.626 229.561 146.187 224.891C146.187 224.891 137.97 235.058 150.68 243.097C150.68 243.097 150.089 241.501 150.207 239.018C150.207 239.018 150.701 242.683 153.883 245.225C153.883 245.225 154.404 241.56 157.301 240.023C157.301 240.023 156.379 241.743 155.291 242.86C155.291 242.86 165.34 243.451 170.956 228.319C170.956 228.319 171.251 233.676 168.414 235.649C168.414 235.649 174.857 235.353 176.453 224.477C176.453 224.477 176.867 227.787 176.157 229.738C176.157 229.738 179.704 225.127 175.27 219.334C175.27 219.334 178.876 222.053 179.29 227.255C179.29 227.255 182.719 220.871 177.812 214.546C177.812 214.546 181.773 216.97 181.477 222.585C181.477 222.585 182.659 219.807 180.709 215.373C180.709 215.373 182.837 216.614 183.073 219.688C183.073 219.688 185.733 210.526 177.103 210.526C177.103 210.526 183.605 210.644 187.507 206.152C187.507 206.152 185.142 207.393 182.837 207.098C180.532 206.802 174.975 206.27 173.379 207.748C173.379 207.748 174.739 205.443 182.305 205.797C189.871 206.152 192.177 199.354 183.605 199.59C175.034 199.829 153.882 204.842 153.882 204.842Z" fill="white"/>
<path d="M153.879 204.945C150.289 204.292 146.615 204.872 143.175 205.963C140.678 206.874 137.867 207.841 135.216 208.108C134.294 208.181 133.348 208.248 132.451 207.959L132.509 207.891C134.604 210.579 137.888 211.163 141.085 210.599C141.086 210.598 141.131 210.8 141.131 210.8C139.458 211.303 137.809 211.966 136.409 212.959C134.995 213.938 133.986 215.492 134.178 217.256L134.08 217.252C134.457 215.885 135.737 214.968 137.014 214.515C138.271 214.024 139.701 213.916 141.042 213.958C141.112 213.955 141.116 214.061 141.052 214.071C134.509 215.884 133.436 221.936 133.876 227.894L133.877 227.9L133.79 227.901C134.184 225.169 136.247 222.955 138.473 221.48C139.355 220.874 140.385 220.41 141.361 219.988C141.875 219.812 142.386 219.634 142.902 219.475C142.955 219.455 143.014 219.483 143.034 219.536C143.05 219.577 143.036 219.619 143.007 219.648C142.143 220.596 141.389 221.662 140.766 222.784C139.52 225.015 138.84 227.587 139.154 230.142C139.294 231.425 139.686 232.662 140.197 233.85L140.2 233.856L140.113 233.883C139.85 230.972 141.77 228.333 143.824 226.466C144.561 225.871 145.373 225.209 146.227 224.854C146.25 224.873 146.241 224.904 146.226 224.923C145.227 226.398 144.515 228.06 144.12 229.774C142.775 235.447 146.328 239.899 150.731 243.009L150.736 243.012L150.584 243.135C149.988 241.853 149.932 240.39 150.164 239.018C150.153 238.966 150.236 238.95 150.247 239C150.399 239.594 150.602 240.175 150.84 240.736C151.54 242.418 152.619 243.904 153.948 245.146L153.782 245.212C153.906 244.12 154.285 243.077 154.848 242.136C155.407 241.189 156.249 240.387 157.254 239.934C157.303 239.906 157.366 239.924 157.393 239.973C157.412 240.005 157.409 240.043 157.393 240.074C157.145 240.606 156.847 241.109 156.518 241.593C156.187 242.079 155.816 242.545 155.367 242.934L155.299 242.759C157.139 242.635 158.96 242.015 160.574 241.137C163.229 239.733 165.432 237.502 167.199 235.094C167.425 234.731 168.11 233.711 168.355 233.336C168.833 232.531 169.256 231.693 169.719 230.874C170.116 230.02 170.503 229.159 170.917 228.305C170.932 228.262 170.999 228.276 171.002 228.318C171.199 230.921 170.836 234.163 168.481 235.731L168.476 235.735L168.413 235.548C172.689 234.538 174.974 230.22 175.985 226.266C176.123 225.669 176.257 225.069 176.407 224.469C176.415 224.415 176.503 224.421 176.507 224.473C176.751 226.224 176.873 228.072 176.26 229.77L176.258 229.776L176.08 229.678C177.602 227.108 177.675 223.808 176.292 221.166C176 220.548 175.611 219.934 175.247 219.358C175.219 219.327 175.268 219.283 175.296 219.309C175.905 219.774 176.447 220.318 176.927 220.915C178.38 222.697 179.297 224.94 179.397 227.244L179.398 227.249L179.205 227.208C180.452 224.146 180.671 220.593 179.388 217.505C179.006 216.473 178.392 215.492 177.78 214.578C177.744 214.539 177.803 214.477 177.844 214.506C179.173 215.327 180.199 216.599 180.837 218.017C181.493 219.443 181.706 221.038 181.529 222.589L181.44 222.568C181.891 220.791 181.692 218.909 181.232 217.153C181.131 216.628 180.823 215.913 180.667 215.395C180.644 215.352 180.701 215.304 180.74 215.33C182.234 216.232 183.112 217.962 183.181 219.682L182.98 219.661C183.193 218.604 183.3 217.515 183.255 216.445C183.183 212.639 180.818 210.683 177.117 210.575L177.109 210.574L177.11 210.482C180.881 210.023 184.728 208.858 187.479 206.124L187.534 206.194C187.014 206.517 186.455 206.772 185.873 206.966C184.113 207.685 182.236 207.245 180.425 207.102C179.23 207.019 178.031 206.958 176.839 207.003C175.694 207.079 174.4 207.126 173.455 207.825C173.404 207.87 173.333 207.866 173.294 207.811C173.27 207.775 173.273 207.73 173.296 207.697C173.665 207.187 174.177 206.896 174.695 206.63C176.265 205.872 178.033 205.676 179.747 205.562C181.98 205.478 184.314 205.847 186.409 204.913C187.377 204.495 188.367 203.821 188.739 202.813C189.449 200.335 185.946 199.804 184.157 199.807C180.753 199.86 177.372 200.396 174.01 200.93C167.319 202.039 160.506 203.477 153.879 204.945ZM153.885 204.74C160.492 203.153 167.243 201.68 173.942 200.548C176.191 200.164 178.449 199.827 180.723 199.592C183.324 199.401 187.195 198.766 188.998 201.129C190.056 202.943 188.181 204.732 186.592 205.354C184.982 206.063 183.171 206.095 181.454 206.003C179.222 205.961 176.895 206.028 174.808 206.886C174.308 207.108 173.79 207.396 173.467 207.803L173.308 207.675C174.267 206.827 175.598 206.709 176.807 206.589C179.218 206.336 181.637 206.834 184.024 206.89C185.19 206.83 186.36 206.534 187.484 206.115C187.529 206.092 187.574 206.158 187.534 206.191C185.738 208.544 182.911 209.96 180.026 210.449C179.058 210.607 178.074 210.669 177.098 210.574C177.036 210.567 177.05 210.474 177.11 210.482C182.811 210.137 184.675 214.842 183.17 219.719C183.14 219.825 182.975 219.804 182.969 219.698C182.783 218.053 182.044 216.412 180.681 215.419L180.754 215.354C181.027 215.914 181.278 216.487 181.464 217.083C182.016 218.848 182.251 220.857 181.518 222.604C181.501 222.648 181.43 222.633 181.429 222.588C181.379 221.449 181.273 220.3 180.926 219.208C180.39 217.399 179.285 215.742 177.784 214.588L177.848 214.516L177.85 214.519C178.523 215.41 179.216 216.353 179.637 217.394C180.821 219.98 180.97 223.04 180.065 225.738C180.017 225.902 179.354 227.786 179.183 227.257C178.819 224.279 177.51 221.372 175.246 219.361L175.295 219.312C175.579 219.684 175.872 220.054 176.139 220.443C177.442 222.416 178.075 224.913 177.47 227.24C177.244 228.169 176.839 229.052 176.235 229.8C176.199 229.844 176.134 229.851 176.09 229.815C176.052 229.785 176.044 229.738 176.058 229.696C176.424 228.437 176.457 227.106 176.447 225.802C176.438 225.363 176.428 224.921 176.398 224.483L176.499 224.484C176.426 225.097 176.336 225.709 176.251 226.324C175.675 229.359 174.449 232.488 171.927 234.431C170.907 235.181 169.697 235.725 168.414 235.752C168.357 235.753 168.31 235.708 168.309 235.651C168.307 235.614 168.326 235.587 168.351 235.565C168.848 235.133 169.254 234.624 169.574 234.057C170.529 232.319 170.807 230.285 170.908 228.322L170.993 228.335C170.513 229.672 170.064 231.034 169.407 232.301C167.598 236.163 164.726 239.756 160.852 241.69C159.117 242.514 157.218 243.077 155.281 242.964C155.223 242.964 155.174 242.919 155.178 242.859C155.873 241.926 156.586 240.98 157.206 239.975L157.345 240.115C156.012 240.974 155.057 242.28 154.468 243.741C154.27 244.23 154.1 244.74 153.978 245.251C153.965 245.306 153.91 245.34 153.855 245.327C152.291 244.271 151.162 242.617 150.558 240.841C150.36 240.252 150.211 239.646 150.16 239.025L150.25 239.022V239.028C150.37 240.4 150.533 241.734 150.779 243.082C150.8 243.167 150.687 243.237 150.619 243.182C145.649 240.58 142.053 235.416 143.691 229.668C144.169 227.907 145.007 226.259 146.149 224.861L146.215 224.931L146.21 224.935C143.612 227.397 140.495 230.06 140.203 233.871C140.206 233.899 140.184 233.926 140.156 233.924C140.136 233.923 140.12 233.91 140.113 233.892C138.728 231.636 138.256 228.819 138.862 226.228C139.472 223.643 140.901 221.272 142.865 219.497C142.863 219.499 142.982 219.674 142.966 219.671C139.242 221.388 135.146 223.747 133.876 227.912C133.873 227.962 133.792 227.963 133.789 227.913C132.763 223.708 133.454 218.554 137.04 215.733C138.203 214.817 139.581 214.176 141.036 213.959L141.045 214.072C141.044 214.072 140.043 214.166 140.041 214.167C137.826 214.433 135.283 215.166 134.177 217.28C134.165 217.329 134.087 217.325 134.079 217.276C133.179 214.358 136.06 212.14 138.504 211.296C138.542 211.236 141.737 210.21 141.135 210.8C138.789 211.587 136.011 211.383 134.039 209.796C133.384 209.288 132.815 208.668 132.427 207.939C132.406 207.902 132.447 207.856 132.486 207.872C135.187 208.156 137.858 207.103 140.4 206.302C144.627 204.66 149.406 203.505 153.885 204.74Z" fill="#231F20"/>
<path d="M227.635 149.229C251.519 109.653 239.288 83.4618 239.288 83.4618C242.288 80.3468 242.173 75.1538 242.173 75.1538C239.981 81.2688 220.827 87.0378 208.943 90.8458C197.059 94.6538 191.654 101.374 191.654 101.374C176.018 89.5538 160.68 94.4168 160.68 94.4168C167.638 92.3218 174.371 87.6088 174.371 87.6088C157.238 85.9628 149.532 94.1928 149.532 94.1928C153.722 87.3098 159.718 85.1718 159.718 85.1718C145.821 86.4538 133.633 99.4978 133.633 99.4978C133.633 99.4978 118.033 76.9848 83.8213 80.2088C83.8213 80.2088 88.3973 81.7688 91.8283 84.7838C91.8283 84.7838 84.9653 111.717 102.539 148.488C102.539 148.488 99.7363 151.767 93.6643 150.282C93.6643 150.282 95.2143 153.77 100.64 153.964C100.64 153.964 97.7333 159.648 86.5593 161.651C86.5593 161.651 89.6603 165.979 101.674 163.718C101.674 163.718 97.1533 166.237 91.6623 165.85C91.6623 165.85 96.7653 170.371 104.645 168.821C104.645 168.821 99.1553 172.761 91.1453 169.79C91.1453 169.79 96.3773 184.905 110.91 182.321C110.91 182.321 107.034 185.098 99.3483 183.161C99.3483 183.161 106.582 189.427 115.432 193.496C124.282 197.565 135.843 198.663 140.882 200.601C145.92 202.539 155.738 210.354 179.702 204.606C179.702 204.606 177.118 205.058 173.437 205.058C173.437 205.058 201.406 201.182 212.58 197.63C212.58 197.63 210.384 197.436 209.415 196.92C209.415 196.92 220.202 196.726 228.857 185.81C228.857 185.81 221.429 188.523 214.324 186.262C214.324 186.262 227.113 190.719 237.061 171.276C237.061 171.276 229.697 175.862 223.755 171.987C223.755 171.987 229.956 174.958 239.774 162.169C239.774 162.169 232.023 161.911 226.532 155.516C226.532 155.516 233.12 158.875 236.156 154.353C236.156 154.353 230.795 156.032 227.565 149.896L227.635 149.229Z" fill="white"/>
<path d="M227.489 149.18C229.628 143.899 232.279 138.725 234.438 133.445C238.733 122.945 241.687 111.758 241.632 100.356C241.561 94.6836 240.929 88.9326 239.149 83.5266C239.122 83.4676 239.133 83.3956 239.178 83.3526C240.705 81.7286 241.496 79.5446 241.836 77.3676C241.948 76.6366 242.019 75.8886 242.019 75.1566L242.319 75.2056C240.085 81.4296 223.448 86.7776 217.229 88.9766C213.283 90.3616 209.187 91.4666 205.325 93.0596C200.443 95.1936 195.822 97.9096 191.775 101.47C191.716 101.528 191.629 101.535 191.561 101.497C182.229 95.7816 171.688 92.5466 160.729 94.5626C160.724 94.5676 160.638 94.2676 160.636 94.2676C162.998 93.3106 165.32 92.3096 167.595 91.1656C169.865 90.0266 172.095 88.7896 174.281 87.4826C174.286 87.4726 174.355 87.7626 174.357 87.7616C172.77 87.7436 171.016 87.7316 169.426 87.8106C168.323 87.8176 166.869 87.9916 165.76 88.0806C165.022 88.1996 164.081 88.3316 163.341 88.4386C160.56 88.9766 157.772 89.7446 155.192 90.9196C153.226 91.8176 151.303 92.8976 149.648 94.2956C149.587 94.3566 149.487 94.3566 149.427 94.2946C149.378 94.2446 149.37 94.1696 149.402 94.1106C149.945 93.0846 150.56 92.0866 151.291 91.1736C153.453 88.4326 156.321 86.1286 159.665 85.0256C159.673 85.0156 159.731 85.3246 159.735 85.3236C158.492 85.5116 157.259 85.7366 156.05 86.0656C152.417 87.0356 148.978 88.6096 145.736 90.5076C142.494 92.4166 139.428 94.6406 136.558 97.0776C135.594 97.8846 134.656 98.7306 133.75 99.5976C133.697 99.6626 133.599 99.6706 133.536 99.6146C125.46 90.6526 114.486 84.4426 102.734 81.8656C96.5468 80.4856 90.1918 80.1136 83.8358 80.3596L83.8708 80.0596C85.3378 80.5916 86.7428 81.2496 88.0998 82.0076C89.4588 82.7636 90.7488 83.6436 91.9268 84.6616C91.9688 84.6916 91.9888 84.7426 91.9828 84.7906C91.6088 87.4956 91.4418 90.2286 91.3558 92.9486C91.2948 95.6466 91.2738 98.3996 91.4158 101.083C91.7578 109.16 92.9358 117.344 94.8998 125.195C95.4258 127.449 96.3678 130.798 97.0918 133.046L97.6848 134.999L98.3798 136.918C99.1688 139.192 100.349 142.381 101.252 144.569C101.745 145.846 102.233 147.127 102.683 148.43C102.702 148.485 102.69 148.543 102.657 148.586C102.141 149.248 101.469 149.729 100.742 150.108C98.5558 151.237 95.9218 151.201 93.6298 150.43C93.6238 150.431 93.8068 150.217 93.8068 150.217C94.5588 151.295 95.6318 152.131 96.8018 152.718C98.0078 153.308 99.3248 153.593 100.647 153.808C100.742 153.817 100.808 153.904 100.791 153.997C99.1938 157.173 95.8588 159.123 92.6488 160.358C90.7048 161.105 88.6498 161.541 86.5878 161.801L86.6858 161.559C87.1058 161.998 87.6668 162.354 88.2298 162.642C91.1558 164.071 94.5408 164.171 97.7358 163.995L99.6908 163.815L101.644 163.564C101.73 163.553 101.809 163.614 101.819 163.7C101.827 163.761 101.797 163.819 101.749 163.85C101.019 164.358 100.232 164.746 99.4158 165.074C96.9718 166.042 94.2538 166.463 91.6508 166.001L91.7638 165.731C92.6958 166.351 93.7048 166.873 94.7338 167.307C97.8428 168.655 101.264 169.003 104.615 168.666C104.772 168.641 104.857 168.851 104.735 168.943C102.824 170.409 100.425 171.11 98.0448 171.262C95.6668 171.404 93.2558 170.911 91.0908 169.931L91.2908 169.736C92.1878 171.639 93.3088 173.439 94.5948 175.078C98.6498 180.339 104.242 182.851 110.881 182.165C111.039 182.138 111.123 182.352 111.001 182.443C110.18 183.087 109.224 183.46 108.249 183.742C105.316 184.526 102.183 184.207 99.3158 183.308C99.3008 183.312 99.4548 183.042 99.4508 183.04C105.082 187.338 111.116 191.231 117.686 193.912C120.976 195.199 124.391 196.196 127.843 197.068C132.166 198.204 136.603 198.907 140.854 200.326C142.499 200.958 144.14 201.831 145.757 202.517C153.079 205.689 161.188 206.496 169.098 205.847C172.637 205.635 176.138 205.011 179.664 204.452C179.67 204.446 179.727 204.754 179.729 204.754C177.644 205.079 175.546 205.2 173.44 205.208C173.354 205.21 173.282 205.141 173.282 205.055C173.281 204.975 173.341 204.911 173.416 204.901C180.236 203.677 196.232 200.95 202.824 199.628C206.075 198.979 209.331 198.339 212.532 197.479C212.538 197.473 212.565 197.78 212.567 197.78C211.472 197.65 210.356 197.529 209.346 197.053C209.269 197.017 209.235 196.925 209.272 196.849C209.297 196.79 209.357 196.765 209.413 196.761C211.291 196.565 213.147 196.067 214.93 195.442C219.4 193.878 223.459 191.158 226.783 187.803C227.464 187.136 228.072 186.399 228.737 185.709L228.911 185.95C225.467 187.425 221.599 187.887 217.894 187.374C216.651 187.214 215.439 186.854 214.281 186.405C214.274 186.41 214.376 186.111 214.376 186.111C215.545 186.348 216.767 186.398 217.957 186.324C226.744 185.835 232.969 178.424 236.923 171.205C236.923 171.191 237.142 171.406 237.144 171.403C233.501 173.783 228.34 175.02 224.416 172.617C224.164 172.451 223.915 172.284 223.672 172.112C223.603 172.064 223.585 171.968 223.634 171.899C223.674 171.834 223.758 171.823 223.823 171.844C224.868 172.072 225.992 171.923 227.032 171.701C229.074 171.182 230.933 170.187 232.642 168.921C235.266 166.977 237.514 164.529 239.653 162.072L239.77 162.32C238.476 162.305 237.208 162.103 235.962 161.784C232.238 160.826 228.724 158.727 226.418 155.615C226.363 155.548 226.374 155.449 226.442 155.395C226.484 155.355 226.555 155.355 226.604 155.374C229.013 156.021 231.639 156.762 234.033 155.765C234.789 155.441 235.45 154.911 236.03 154.263L236.204 154.496C232.567 155.939 228.648 153.477 227.433 149.969C227.418 149.94 227.411 149.906 227.414 149.875L227.489 149.18ZM227.782 149.279L227.718 149.911L227.701 149.823C228.478 150.829 229.247 151.855 230.275 152.612C231.896 153.925 234.061 154.433 236.128 154.202C236.252 154.182 236.351 154.338 236.28 154.442C235.866 155.253 235.201 155.972 234.371 156.441C231.879 157.79 228.727 157.152 226.46 155.652C226.46 155.652 226.648 155.407 226.649 155.415C230.189 158.941 234.802 161.367 239.776 162.013C239.896 162.015 239.969 162.17 239.892 162.264C237.965 164.968 235.786 167.563 233.15 169.603C232.167 170.366 231.048 171.091 229.928 171.614L229.352 171.891L228.748 172.112C227.142 172.682 225.263 172.948 223.684 172.126C223.684 172.126 223.834 171.849 223.839 171.859C227.988 174.054 232.933 173.154 236.975 171.145C237.098 171.059 237.27 171.222 237.192 171.35C233.651 178.971 227.081 187.015 217.968 187.062C216.706 187.042 215.452 186.874 214.269 186.408C214.19 186.376 214.152 186.286 214.184 186.207C214.213 186.132 214.296 186.097 214.37 186.116C216.757 186.616 219.164 186.833 221.595 186.696C224.01 186.581 226.422 186.213 228.8 185.665C228.886 185.636 228.984 185.686 229.003 185.776C229.014 185.823 229.002 185.87 228.974 185.906C228.673 186.298 227.918 187.231 227.62 187.607C227.388 187.965 226.447 188.859 226.146 189.206C224.826 190.572 223.257 191.857 221.667 192.901C218.042 195.302 213.794 196.948 209.413 197.075L209.483 196.784C210.426 197.224 211.552 197.358 212.589 197.477C212.674 197.485 212.736 197.561 212.728 197.646C212.722 197.709 212.677 197.76 212.62 197.779C209.475 198.899 206.238 199.718 202.992 200.452C193.248 202.613 183.373 204.146 173.453 205.212C173.456 205.212 173.426 204.899 173.435 204.905C175.517 204.898 177.616 204.775 179.671 204.455C179.755 204.441 179.834 204.499 179.848 204.583C179.861 204.662 179.812 204.736 179.737 204.756C176.292 205.723 172.781 206.555 169.194 206.922C159.654 208.098 151.511 206.524 143.084 201.904C141.512 201.077 139.875 200.426 138.141 200.013C132.96 198.72 127.61 197.973 122.442 196.53C113.74 194.174 105.952 189.192 99.2428 183.279C99.1208 183.179 99.2388 182.968 99.3858 183.013C101.31 183.338 103.265 183.577 105.214 183.479C107.126 183.371 109.085 183.029 110.816 182.197L110.933 182.474C104.212 184.318 97.6788 181.301 93.8418 175.637C92.6078 173.852 91.6108 171.916 90.9948 169.842C90.9698 169.759 91.0178 169.671 91.1008 169.646C92.2618 169.86 93.3998 170.234 94.5808 170.339C97.9578 170.793 101.514 170.266 104.55 168.697L104.67 168.974C104.109 169.11 103.543 169.264 102.966 169.346C101.228 169.61 99.4458 169.54 97.7278 169.156C95.4478 168.634 93.2478 167.605 91.5548 165.967C91.4928 165.906 91.4928 165.806 91.5538 165.744C91.5888 165.711 91.6258 165.698 91.6698 165.697C93.3758 165.593 95.0528 165.421 96.7138 165.037C98.3648 164.68 99.9918 164.176 101.594 163.585C101.594 163.585 101.7 163.874 101.697 163.872C97.8338 164.684 93.6568 165.155 89.8298 163.914C88.5618 163.475 87.2988 162.859 86.4288 161.743C86.3588 161.654 86.4148 161.517 86.5268 161.501C89.1498 160.808 91.7808 160.034 94.2008 158.8C96.5708 157.585 98.8868 156.042 100.498 153.896C100.498 153.896 100.634 154.124 100.628 154.121C97.8368 154.318 94.6388 153.079 93.5178 150.348C93.4768 150.241 93.5688 150.12 93.6838 150.134C95.9528 150.456 98.3378 150.491 100.473 149.557C101.165 149.259 101.844 148.874 102.417 148.391C102.417 148.391 102.396 148.561 102.395 148.557C101.113 146.182 99.7898 143.668 98.7148 141.19L97.1698 137.368L96.4008 135.454L95.7338 133.503C94.9668 131.282 93.8328 127.9 93.2648 125.625C90.6748 116.373 89.3528 106.604 89.7748 96.9916C89.9828 92.8826 90.4808 88.7006 91.6738 84.7496L91.7218 84.9036C91.1378 84.4066 90.5378 83.9266 89.8998 83.4966C88.0018 82.2006 85.9208 81.1476 83.7668 80.3576C83.6858 80.3296 83.6438 80.2416 83.6718 80.1606C83.6928 80.1016 83.7478 80.0626 83.8058 80.0576C97.6878 77.9976 112.579 80.9596 123.97 89.3666C127.73 92.1706 131.214 95.4456 133.756 99.4126C133.759 99.4096 133.5 99.4006 133.519 99.3916C135.22 97.4986 137.103 95.7916 139.075 94.1886C144.009 90.2116 149.674 86.8966 155.915 85.5266C157.165 85.2726 158.431 85.0946 159.701 85.0206C159.787 85.0156 159.86 85.0806 159.865 85.1666C159.869 85.2366 159.826 85.2976 159.764 85.3216C156.22 87.1226 153.15 89.7916 150.7 92.9096C150.339 93.3516 150.021 93.8256 149.661 94.2756L149.416 94.0896C150.939 92.4246 152.835 91.1866 154.82 90.1586C159.311 87.8886 164.401 86.9066 169.413 87.0236C171.027 87.0366 172.798 87.2336 174.383 87.4576C174.47 87.4646 174.535 87.5436 174.523 87.6316C172.556 89.3106 170.211 90.5966 167.926 91.8286C165.643 93.0116 163.24 94.0146 160.721 94.5676C160.635 94.5946 160.543 94.5406 160.524 94.4526C160.506 94.3726 160.555 94.2936 160.632 94.2716C171.162 90.8066 183.663 93.7156 191.743 101.254L191.529 101.281C192.208 100.243 193.043 99.3466 193.905 98.4726C198.278 94.1416 204.037 91.4756 209.86 89.7096C216.485 87.6566 223.928 85.3446 230.347 82.7816C234.059 81.1716 240.273 78.7796 242.024 75.1056C242.054 75.0206 242.15 74.9756 242.233 75.0136C242.29 75.0396 242.324 75.0956 242.324 75.1536C242.274 78.1576 241.484 81.3226 239.396 83.5716L239.425 83.3986C240.727 86.0116 241.534 88.8216 242.131 91.6646C244.88 105.998 242.198 121.01 236.505 134.315C234.25 139.677 231.489 144.749 227.782 149.279Z" fill="#231F20"/>
<path d="M126.035 110.48C115.377 86.2567 95.9024 84.5127 95.9024 84.5127C95.9024 84.5127 92.4924 120.776 108.861 132.388C108.861 132.388 113.897 127.142 115.227 125.183C115.227 125.183 112.219 124.903 109.771 121.685C109.771 121.685 113.199 117.628 118.235 117.908C118.235 117.908 113.618 117.278 110.26 113.221C110.26 113.221 113.758 115.39 119.983 114.9C119.983 114.9 115.996 113.431 114.107 111.053C114.107 111.053 121.172 109.794 124.39 112.802C124.39 112.802 121.382 106.017 114.527 103.009C114.527 103.009 120.893 102.519 125.02 109.655L126.035 110.48Z" fill="white"/>
<path d="M125.973 110.398C124.547 107.778 123.168 105.131 121.492 102.659C119.331 99.4577 116.796 96.5097 113.939 93.9257C108.826 89.3987 102.586 86.0467 95.8929 84.6147C95.8909 84.6147 96.0039 84.5217 96.0039 84.5217C95.9639 88.8097 96.0979 93.0877 96.4119 97.3387C97.3699 109.129 99.6409 124.067 108.92 132.304C108.92 132.304 108.781 132.319 108.787 132.316C110.966 129.983 113.233 127.689 115.141 125.126C115.139 125.126 115.223 125.291 115.214 125.286C112.933 125.102 110.897 123.62 109.678 121.735C109.653 121.698 109.659 121.649 109.69 121.62C110.124 120.914 110.703 120.327 111.336 119.806C113.246 118.279 115.798 117.412 118.239 117.806L118.219 118.011C116.195 117.903 114.339 116.952 112.714 115.81C111.754 115.095 110.893 114.246 110.18 113.289C110.11 113.202 110.218 113.079 110.313 113.135C112.975 114.247 115.874 114.52 118.725 114.696C119.138 114.722 119.553 114.743 119.974 114.799L119.946 114.998C117.709 114.223 115.496 113.017 114.025 111.118C113.973 111.06 114.011 110.962 114.088 110.952C115.858 110.564 117.683 110.442 119.489 110.624C121.286 110.804 123.195 111.357 124.459 112.727L124.295 112.844C122.929 110.255 121.072 107.926 118.887 105.981C117.566 104.836 116.068 103.838 114.508 103.044C114.473 103.03 114.485 102.97 114.523 102.97C115.618 102.886 116.719 103.049 117.773 103.357C119.232 103.768 120.582 104.52 121.773 105.454C122.261 105.871 122.827 106.406 123.253 106.893C123.409 107.054 123.646 107.343 123.775 107.531C124.266 108.158 124.728 108.911 125.108 109.605C125.263 109.711 125.715 110.134 125.973 110.398ZM126.098 110.562C125.732 110.303 125.282 110.03 124.929 109.703C124.41 108.944 123.835 108.147 123.24 107.444C121.734 105.747 119.856 104.351 117.687 103.632C116.674 103.289 115.607 103.064 114.53 103.047C114.533 103.048 114.539 102.964 114.546 102.973C118.972 104.745 122.513 108.454 124.485 112.759C124.527 112.86 124.398 112.95 124.318 112.874C121.373 110.832 117.561 110.917 114.126 111.153C114.128 111.155 114.187 110.978 114.19 110.99C115.778 112.726 117.917 113.809 120.019 114.803C120.111 114.841 120.092 114.991 119.991 115.002C117.509 115.597 114.871 115.28 112.477 114.455C111.681 114.159 110.903 113.812 110.205 113.308L110.339 113.155C112.456 115.463 115.274 116.922 118.248 117.805C118.355 117.832 118.339 118.004 118.228 118.01C117.437 118.096 116.662 118.165 115.917 118.392C113.632 118.983 111.728 120.322 109.848 121.751C109.847 121.753 109.851 121.623 109.851 121.623C110.594 122.424 111.385 123.164 112.294 123.764C113.193 124.353 114.191 124.834 115.238 125.081C115.313 125.086 115.354 125.182 115.31 125.241C113.39 127.823 111.124 130.112 108.934 132.46C108.902 132.5 108.84 132.506 108.8 132.473C106.923 131.384 105.262 129.91 103.838 128.244C94.7859 117.402 94.0069 97.9767 95.7979 84.5037C95.8059 84.4487 95.8559 84.4087 95.9099 84.4107C99.4049 84.6517 102.776 85.8187 105.901 87.3567C115.275 92.1307 122.385 100.807 126.098 110.562Z" fill="#231F20"/>
<path d="M95.9755 84.5845C93.8195 86.5455 90.4445 84.2865 88.7435 82.6795C88.6525 82.5975 88.7705 82.4475 88.8715 82.5185C90.8705 83.7245 93.4675 85.5785 95.8465 84.4295C95.9405 84.3675 96.0535 84.5035 95.9755 84.5845Z" fill="#231F20"/>
<path d="M213.083 126.62C216.79 130.963 224.099 135.094 224.099 135.094C243.482 113.38 235.75 87.3237 235.75 87.3237C207.363 96.3267 202.915 116.876 202.915 116.876C202.915 116.876 206.749 107.423 216.393 107.789C216.393 107.789 210.523 109.414 205.386 119.215C205.386 119.215 209.789 112.681 222.42 114.131C222.42 114.131 216.812 119.477 210.418 120.106C210.418 120.106 216.917 118.219 220.796 121.521C220.796 121.521 218.49 120.316 212.2 123.251C212.2 123.251 219.38 126.396 225.722 123.775C225.722 123.775 218.856 130.117 213.877 126.605L213.083 126.62Z" fill="white"/>
<path d="M213.176 126.662C213.645 127.04 214.013 127.345 214.437 127.729C217.467 130.434 220.969 132.485 224.149 135.004C224.151 135.005 224.022 135.025 224.022 135.025C232.021 124.658 236.704 113.172 236.843 99.9867C236.899 95.7607 236.58 91.4957 235.652 87.3527C235.652 87.3527 235.784 87.4217 235.781 87.4217C225.122 91.5047 214.854 97.2567 208.16 106.763C205.986 109.867 204.093 113.242 203.016 116.897L202.82 116.836C203.714 114.03 205.762 111.708 208.108 109.989C210.491 108.273 213.477 107.457 216.397 107.686C216.506 107.691 216.531 107.845 216.431 107.884C215.819 108.129 215.223 108.454 214.664 108.819C210.699 111.367 207.945 115.333 205.478 119.263L205.301 119.158C206.184 117.838 207.444 116.845 208.783 116.029C212.184 114.037 216.245 113.521 220.12 113.759C220.895 113.844 221.669 113.93 222.439 114.03C222.494 114.037 222.533 114.088 222.526 114.143C220.935 115.804 218.971 117.107 216.957 118.217C214.932 119.278 212.718 120.047 210.428 120.209C210.305 120.229 210.262 120.035 210.389 120.007C213.803 118.923 218.088 118.877 220.862 121.443C220.959 121.517 220.854 121.678 220.747 121.613C219.34 121.275 217.844 121.623 216.455 121.949C215.04 122.306 213.615 122.843 212.243 123.345L212.241 123.157C214.389 123.932 216.661 124.413 218.939 124.565C220.922 124.705 222.96 124.523 224.863 123.945L225.68 123.681C225.778 123.635 225.873 123.779 225.791 123.851C222.822 126.713 217.613 129.758 213.82 126.693C213.803 126.685 213.88 126.71 213.878 126.709C213.645 126.717 213.432 126.688 213.176 126.662ZM212.989 126.578C213.279 126.557 213.637 126.463 213.94 126.523C217.915 128.705 222.425 126.149 225.652 123.699L225.761 123.87C223.62 124.808 221.24 125.14 218.913 124.983C216.589 124.818 214.29 124.295 212.158 123.345C212.081 123.312 212.077 123.198 212.151 123.16C212.481 122.976 212.819 122.809 213.154 122.633C215.448 121.607 218.357 120.448 220.843 121.429L220.728 121.599C219.992 121.096 219.218 120.68 218.37 120.4C215.814 119.603 213.056 119.734 210.446 120.204L210.407 120.002C210.96 119.886 211.52 119.833 212.06 119.667C214.792 118.996 217.323 117.657 219.648 116.092C220.579 115.459 221.488 114.781 222.348 114.056C222.349 114.052 222.408 114.232 222.408 114.232C217.156 113.878 211.466 114.485 207.145 117.739C206.543 118.196 205.959 118.7 205.471 119.272C205.405 119.37 205.236 119.274 205.294 119.166C206.965 115.457 209.427 111.997 212.727 109.57C213.839 108.776 215.027 108.062 216.364 107.689C216.364 107.689 216.389 107.892 216.387 107.891C210.13 107.847 205.966 111.771 203.01 116.912C202.976 117.032 202.778 116.974 202.813 116.853C203.706 113.091 205.488 109.594 207.629 106.395C214.159 96.8287 224.537 90.0337 235.717 87.2247C235.771 87.2037 235.834 87.2357 235.848 87.2937C236.487 89.3437 236.882 91.4527 237.187 93.5727C239.272 108.365 235.092 124.614 224.174 135.161C224.139 135.195 224.087 135.201 224.046 135.182C221.846 134.326 219.901 132.998 218.025 131.591C216.184 130.137 214.276 128.557 212.989 126.578Z" fill="#231F20"/>
<path d="M229.745 89.4267C234.433 87.2897 238.555 84.2407 241.289 79.8487C241.351 79.7547 241.51 79.8287 241.473 79.9377C241.34 80.3907 241.159 80.9007 240.993 81.3487C239.578 84.5707 236.733 87.0177 233.575 88.4597C232.368 89.0037 231.111 89.4327 229.798 89.6257C229.682 89.6427 229.63 89.4687 229.745 89.4267Z" fill="#231F20"/>
<path d="M145.119 139.444C143.946 127.282 136.823 127.282 136.823 127.282C136.823 127.282 138.647 127.716 139.342 129.019C139.342 129.019 136.345 126.934 132.262 128.889C132.262 128.889 135.954 127.847 137.778 129.801C137.778 129.801 126.585 125.588 126.035 140.399C126.035 140.399 127.483 136.012 133.651 135.143C139.819 134.274 141.426 137.184 141.426 137.184C141.426 137.184 140.818 135.099 137.43 134.404C137.43 134.404 141.513 134.013 144.597 138.791L145.119 139.444Z" fill="white"/>
<path d="M145.08 139.348C144.294 135.576 143.468 131.478 140.343 128.919C139.33 128.113 138.12 127.499 136.822 127.339L136.835 127.227C137.857 127.463 138.918 128.017 139.398 128.993C139.428 129.051 139.355 129.11 139.304 129.072C137.117 127.962 134.529 128.04 132.276 128.923L132.25 128.855C134.051 128.25 136.546 128.111 137.825 129.775C137.86 129.82 137.804 129.882 137.756 129.855C136.991 129.661 136.205 129.547 135.425 129.503C128.67 129.042 126.513 134.641 126.076 140.402C126.076 140.402 125.99 140.388 125.993 140.386C126.482 138.932 127.501 137.681 128.746 136.774C131.613 134.654 136.537 133.988 139.769 135.616C140.443 135.987 141.083 136.482 141.463 137.165C141.463 137.165 141.381 137.202 141.383 137.197C140.587 135.703 138.97 134.936 137.42 134.451C137.369 134.445 137.369 134.368 137.419 134.362C140.762 133.978 143.716 136.552 145.08 139.348ZM145.157 139.539C144.939 139.341 144.659 139.119 144.466 138.877C142.818 136.573 140.351 134.636 137.435 134.45L137.44 134.36C138.294 134.461 139.136 134.713 139.87 135.175C140.595 135.637 141.254 136.314 141.468 137.17C141.478 137.192 141.467 137.218 141.445 137.227C141.422 137.235 141.401 137.224 141.389 137.205C140.937 136.62 140.293 136.205 139.624 135.914C136.484 134.629 131.811 135.266 128.994 137.12C127.763 137.934 126.709 139.066 126.077 140.41C126.067 140.457 125.987 140.445 125.993 140.396C125.948 136.495 126.853 131.754 130.664 129.795C132.871 128.677 135.576 128.819 137.798 129.747L137.738 129.837C136.187 128.628 134.141 128.653 132.273 128.922C132.232 128.941 132.202 128.869 132.247 128.854C133.872 127.914 135.882 127.585 137.693 128.138C138.295 128.322 138.876 128.578 139.379 128.966L139.287 129.048C139.013 128.617 138.636 128.266 138.206 127.989C137.775 127.713 137.299 127.496 136.811 127.336C136.78 127.33 136.76 127.301 136.766 127.27C136.771 127.242 136.797 127.223 136.824 127.224C138.189 127.238 139.492 127.802 140.594 128.596C143.88 131.123 145.063 135.578 145.157 139.539Z" fill="#231F20"/>
<path d="M179.112 139.444C180.285 127.282 187.408 127.282 187.408 127.282C187.408 127.282 185.584 127.716 184.889 129.019C184.889 129.019 187.886 126.934 191.969 128.889C191.969 128.889 188.277 127.847 186.453 129.801C186.453 129.801 197.646 125.588 198.196 140.399C198.196 140.399 196.747 136.012 190.58 135.143C184.412 134.274 182.805 137.184 182.805 137.184C182.805 137.184 183.413 135.099 186.801 134.404C186.801 134.404 182.718 134.013 179.634 138.791L179.112 139.444Z" fill="white"/>
<path d="M179.073 139.539C179.167 135.578 180.35 131.123 183.638 128.596C184.74 127.802 186.043 127.238 187.408 127.224C187.44 127.223 187.467 127.248 187.467 127.28C187.467 127.308 187.447 127.331 187.421 127.336C186.932 127.496 186.457 127.713 186.026 127.989C185.596 128.266 185.218 128.617 184.945 129.048L184.853 128.966C185.355 128.578 185.936 128.323 186.539 128.138C188.351 127.585 190.36 127.915 191.985 128.854C192.026 128.873 192.005 128.936 191.959 128.922C190.091 128.653 188.045 128.629 186.494 129.837L186.434 129.747C188.656 128.819 191.361 128.677 193.568 129.795C197.379 131.756 198.284 136.493 198.239 140.396C198.243 140.445 198.167 140.459 198.155 140.41C197.523 139.066 196.469 137.934 195.238 137.12C192.426 135.268 187.747 134.628 184.608 135.913C183.936 136.205 183.288 136.622 182.836 137.212C182.809 137.25 182.741 137.214 182.764 137.169C183.106 135.882 184.329 135.026 185.537 134.629C185.945 134.495 186.367 134.41 186.792 134.359L186.797 134.449C183.881 134.634 181.414 136.572 179.766 138.876C179.571 139.119 179.291 139.342 179.073 139.539ZM179.15 139.348C180.236 137.183 182.13 135.184 184.583 134.543C185.308 134.349 186.064 134.252 186.809 134.361C186.834 134.365 186.851 134.387 186.847 134.412C185.324 134.959 183.639 135.661 182.846 137.196C182.848 137.201 182.766 137.164 182.766 137.164C183.145 136.481 183.786 135.987 184.459 135.615C187.693 133.988 192.611 134.651 195.483 136.773C196.728 137.68 197.747 138.931 198.236 140.385C198.239 140.387 198.153 140.401 198.153 140.401C197.574 132.991 194.478 128.082 186.4 129.832C187.209 128.5 189.116 128.316 190.542 128.512C191.033 128.577 191.516 128.684 191.98 128.854L191.954 128.922C190.809 128.507 189.625 128.215 188.408 128.241C187.208 128.262 186.003 128.532 184.926 129.071C184.876 129.113 184.802 129.047 184.832 128.993C185.065 128.504 185.468 128.113 185.922 127.827C186.378 127.546 186.873 127.338 187.395 127.226L187.408 127.338C186.11 127.499 184.9 128.113 183.887 128.919C180.762 131.479 179.938 135.575 179.15 139.348Z" fill="#231F20"/>
<path d="M160.405 180.512C160.603 182.17 160.716 183.788 160.801 185.457C160.846 187.284 160.079 189.087 158.729 190.341C156.064 192.684 152.101 193.459 148.792 192.137C146.637 191.28 144.816 189.86 143.36 188.193C143.304 188.128 143.31 188.03 143.375 187.974C143.431 187.925 143.513 187.924 143.57 187.967C145.326 189.269 147.192 190.382 149.18 190.99C151.28 191.595 153.511 191.505 155.507 190.618C157.209 189.892 158.784 188.708 159.385 186.879C159.748 185.896 159.717 184.845 159.796 183.8C159.88 182.704 159.959 181.608 160.097 180.513C160.112 180.338 160.39 180.334 160.405 180.512Z" fill="#231F20"/>
<path d="M160.477 180.512C160.681 182.139 160.771 183.803 160.883 185.429C160.992 186.894 161.703 188.32 162.81 189.263C165.181 191.202 168.448 191.88 171.394 190.99C173.381 190.381 175.248 189.268 177.004 187.967C177.073 187.916 177.17 187.93 177.221 187.999C177.265 188.059 177.26 188.14 177.214 188.194C175.758 189.86 173.936 191.281 171.782 192.138C169.459 193.047 166.764 192.988 164.472 191.988C162.409 191.11 160.52 189.491 159.986 187.245C159.665 186.119 159.799 184.936 159.869 183.801C159.953 182.705 160.032 181.609 160.17 180.514C160.188 180.338 160.459 180.334 160.477 180.512Z" fill="#231F20"/>
<path d="M157.001 178.78C157.001 178.78 158.92 182.621 160.19 182.621C161.46 182.621 162.531 179.209 163.563 178.931C164.595 178.653 167.134 180.002 168.722 175.955C170.309 171.907 161.54 171.233 159.357 171.431C157.175 171.629 152.095 172.423 152.413 175.121C152.729 177.82 154.342 179.018 157.001 178.78Z" fill="white"/>
<path d="M157.035 178.719C157.772 179.846 158.475 181.093 159.471 182.01C159.761 182.251 160.086 182.496 160.45 182.313C161.155 181.9 161.663 181.016 162.141 180.327C163.441 178.181 163.529 178.888 165.655 178.637C166.975 178.404 167.806 177.342 168.409 176.165C168.865 175.398 168.89 174.446 168.242 173.796C167.637 173.176 166.771 172.86 165.927 172.612C163.362 171.921 160.585 171.582 157.932 171.964C156.164 172.246 152.741 172.688 152.583 174.91C152.654 177.071 154.22 178.443 156.316 178.618C156.533 178.649 156.815 178.677 157.035 178.719ZM156.966 178.842C155.018 179.541 152.887 178.356 152.461 176.323C152.209 175.409 152.013 174.296 152.707 173.518C154.029 172.066 156.003 171.663 157.822 171.267C160.912 170.674 166.325 171.042 168.524 173.553C169.203 174.306 169.181 175.458 168.79 176.33C168.456 177.227 167.977 178.131 167.137 178.672C166.108 179.426 164.803 179.087 163.662 179.08C163.054 179.248 162.726 179.97 162.384 180.479C161.116 182.832 160.145 184.015 158.261 181.255C157.761 180.507 157.331 179.716 156.972 178.893L156.955 178.853C156.958 178.846 156.92 178.805 156.966 178.842Z" fill="#231F20"/>
<path d="M155.489 177.967C156.382 177.721 157.083 178.518 157.478 179.223C157.524 179.297 157.501 179.393 157.428 179.439C157.339 179.497 157.213 179.443 157.192 179.339C157.073 178.761 156.614 178.348 156.052 178.228C155.87 178.185 155.701 178.158 155.489 178.15C155.439 178.148 155.4 178.106 155.402 178.056C155.404 178.007 155.444 177.974 155.489 177.967Z" fill="#231F20"/>
<path d="M162.593 179.628C163.096 178.607 164.126 177.991 165.261 178.274C165.347 178.286 165.406 178.365 165.394 178.45C165.381 178.556 165.261 178.616 165.167 178.568C164.216 178.072 163.091 178.723 162.884 179.734C162.831 179.964 162.486 179.839 162.593 179.628Z" fill="#231F20"/>
<path d="M80 185.667C84.438 182.103 89.709 179.7 95.102 177.96C108.734 173.685 123.546 174.588 137.116 178.648C139.525 179.344 142.786 180.546 145.155 181.432C145.208 181.452 145.235 181.511 145.216 181.564C145.196 181.618 145.136 181.645 145.082 181.624C139.769 179.676 134.305 178.146 128.753 177.115C112.291 173.943 93.808 176.058 80 185.667Z" fill="#231F20"/>
<path d="M90.2275 204.898C99.5035 192.605 113.823 183.952 129.177 182.13C134.296 181.543 139.487 181.701 144.558 182.52C144.614 182.529 144.652 182.582 144.643 182.638C144.634 182.693 144.582 182.731 144.527 182.724C139.452 182.053 134.303 181.977 129.235 182.607C113.964 184.487 99.8735 193.308 90.2275 204.898Z" fill="#231F20"/>
<path d="M116.02 201.243C122.375 193.142 133.657 182.937 144.544 183.209C144.601 183.211 144.645 183.259 144.643 183.316C144.641 183.371 144.595 183.415 144.541 183.415C133.52 183.825 123.222 193.835 116.02 201.243Z" fill="#231F20"/>
<path d="M240.598 185.724C236.069 182.352 230.777 180.076 225.398 178.44C214.577 175.177 202.958 175.045 191.895 177.114C186.343 178.146 180.879 179.675 175.566 181.623C175.512 181.644 175.452 181.617 175.432 181.563C175.412 181.51 175.44 181.451 175.493 181.431C177.885 180.524 181.125 179.359 183.532 178.647C197.102 174.587 211.915 173.684 225.546 177.959C229.607 179.251 233.551 180.957 237.174 183.207C238.378 183.958 239.555 184.756 240.647 185.666C240.686 185.697 240.635 185.756 240.598 185.724Z" fill="#231F20"/>
<path d="M230.373 204.931C220.705 193.101 206.656 184.563 191.412 182.606C186.344 181.976 181.195 182.052 176.12 182.723C176.064 182.731 176.012 182.692 176.004 182.635C175.996 182.58 176.035 182.528 176.09 182.519C181.161 181.7 186.352 181.543 191.471 182.129C201.728 183.318 211.501 187.626 219.616 193.956C222.647 196.343 225.483 198.979 228.017 201.888C228.86 202.857 229.678 203.849 230.42 204.898C230.441 204.927 230.394 204.961 230.373 204.931Z" fill="#231F20"/>
<path d="M204.593 201.273C197.501 193.748 186.937 183.803 176.107 183.417C176.049 183.417 176.003 183.369 176.005 183.311C176.007 183.256 176.051 183.213 176.104 183.211C186.726 182.838 198.623 193.312 204.593 201.273Z" fill="#231F20"/>
<path d="M149.626 170.898C149.626 170.898 153.322 154.893 142.057 146.955C130.919 139.107 118.915 152.995 122.044 163.62C125.173 174.245 136.599 173.808 141.912 172.062C147.225 170.316 149.626 170.898 149.626 170.898Z" fill="white"/>
<path d="M149.626 170.898C149.626 170.898 153.322 154.893 142.057 146.955C130.919 139.107 118.915 152.995 122.044 163.62C125.173 174.245 136.599 173.808 141.912 172.062C147.225 170.316 149.626 170.898 149.626 170.898Z" fill="black"/>
<path d="M147.705 167.4C151.381 161.473 149.586 153.707 143.697 150.056C137.808 146.404 130.055 148.249 126.38 154.177C122.704 160.104 124.499 167.869 130.387 171.521C136.276 175.172 144.03 173.328 147.705 167.4Z" fill="white"/>
<path d="M147.187 154.375C147.156 155.84 145.948 157.009 144.487 156.987C143.027 156.965 141.868 155.759 141.898 154.295C141.929 152.83 143.137 151.661 144.598 151.683C146.059 151.705 147.218 152.91 147.187 154.375Z" fill="white"/>
<path d="M132.505 168.779C132.486 169.665 131.755 170.373 130.871 170.36C129.987 170.347 129.286 169.617 129.304 168.731C129.323 167.845 130.054 167.137 130.938 167.15C131.822 167.163 132.523 167.893 132.505 168.779Z" fill="white"/>
<path d="M149.943 160.984C149.926 165.635 147.202 170.548 142.19 172.745C138.864 174.254 134.659 174.17 131.41 172.552C121.462 167.739 121.906 153.513 132.052 149.107C141.621 145.223 150.128 152.897 149.943 160.984ZM149.268 160.973C149.441 156.509 147.046 151.754 142.369 149.485C139.286 147.963 135.33 147.901 132.193 149.341C122.483 153.654 122.342 167.332 131.875 171.835C140.805 175.791 149.131 168.624 149.268 160.973Z" fill="#231F20"/>
<path d="M136.984 170.881C136.932 170.881 136.88 170.881 136.829 170.88C134.132 170.839 131.619 169.748 129.754 167.809C127.894 165.874 126.901 163.326 126.957 160.633C127.073 155.119 131.606 150.691 137.095 150.691C137.147 150.691 137.199 150.691 137.251 150.692C142.811 150.777 147.239 155.374 147.123 160.939C147.007 166.453 142.474 170.881 136.984 170.881ZM137.094 150.906C131.741 150.906 127.321 155.24 127.208 160.636C127.153 163.278 128.126 165.777 129.948 167.672C131.765 169.562 134.21 170.625 136.832 170.665C136.882 170.666 136.933 170.666 136.983 170.666C142.336 170.666 146.756 166.332 146.869 160.936C146.983 155.489 142.665 150.99 137.245 150.907C137.195 150.906 137.145 150.906 137.094 150.906Z" fill="#231F20"/>
<path d="M144.197 160.896C144.114 164.861 140.842 168.026 136.889 167.966C132.936 167.906 129.799 164.643 129.882 160.678C129.965 156.713 133.237 153.548 137.189 153.608C141.142 153.669 144.28 156.931 144.197 160.896Z" fill="#231F20"/>
<path d="M149.545 170.767C149.518 170.77 149.491 170.795 149.487 170.816C149.504 170.751 149.534 170.586 149.55 170.516C151.279 161.574 148.847 150.396 139.812 146.403C129.866 142.063 119.91 154.382 122.769 163.807C124.726 170.851 131.534 173.347 138.286 172.436C142.03 171.997 145.627 169.941 149.474 170.697L149.566 170.72L149.613 170.733C149.613 170.733 149.647 170.739 149.611 170.737C149.587 170.738 149.56 170.75 149.545 170.767ZM149.707 171.03C149.65 171.059 149.573 171.049 149.509 171.042C147.651 170.978 145.815 171.389 144.021 171.842C142.166 172.366 140.326 173.065 138.388 173.257C129.787 174.386 122.08 170.375 120.899 161.245C119.7 151.12 130.218 139.77 140.389 145.206C148.532 149.76 151.123 159.301 150.191 168.063C150.109 168.945 149.975 169.881 149.813 170.753C149.791 170.842 149.785 170.968 149.707 171.03Z" fill="#231F20"/>
<path d="M173.664 170.898C173.664 170.898 169.968 154.893 181.233 146.955C192.371 139.107 204.375 152.995 201.246 163.62C198.117 174.245 186.691 173.808 181.379 172.062C176.066 170.316 173.664 170.898 173.664 170.898Z" fill="white"/>
<path d="M173.664 170.898C173.664 170.898 169.968 154.893 181.233 146.955C192.371 139.107 204.375 152.995 201.246 163.62C198.117 174.245 186.691 173.808 181.379 172.062C176.066 170.316 173.664 170.898 173.664 170.898Z" fill="black"/>
<path d="M192.908 171.515C198.796 167.862 200.589 160.097 196.913 154.17C193.237 148.244 185.483 146.4 179.595 150.052C173.707 153.704 171.914 161.47 175.59 167.396C179.266 173.323 187.019 175.167 192.908 171.515Z" fill="white"/>
<path d="M176.104 154.375C176.135 155.84 177.343 157.009 178.804 156.987C180.264 156.965 181.423 155.759 181.393 154.295C181.362 152.83 180.154 151.661 178.693 151.683C177.232 151.705 176.073 152.91 176.104 154.375Z" fill="white"/>
<path d="M190.786 168.779C190.805 169.665 191.536 170.373 192.42 170.36C193.304 170.347 194.005 169.617 193.987 168.731C193.968 167.845 193.237 167.137 192.353 167.15C191.469 167.163 190.768 167.893 190.786 168.779Z" fill="white"/>
<path d="M173.348 160.984C173.365 165.635 176.089 170.548 181.101 172.745C184.427 174.254 188.632 174.17 191.881 172.552C201.829 167.739 201.385 153.513 191.239 149.107C181.669 145.223 173.163 152.897 173.348 160.984ZM174.023 160.973C173.85 156.509 176.245 151.754 180.922 149.485C184.005 147.963 187.961 147.901 191.098 149.341C200.808 153.654 200.949 167.332 191.416 171.835C182.485 175.791 174.16 168.624 174.023 160.973Z" fill="#231F20"/>
<path d="M186.307 170.881C186.359 170.881 186.411 170.881 186.462 170.88C189.159 170.839 191.672 169.748 193.537 167.809C195.397 165.874 196.39 163.326 196.334 160.633C196.218 155.119 191.685 150.691 186.196 150.691C186.144 150.691 186.092 150.691 186.041 150.692C180.481 150.777 176.053 155.374 176.169 160.939C176.284 166.453 180.817 170.881 186.307 170.881ZM186.196 150.906C191.549 150.906 195.969 155.24 196.082 160.636C196.137 163.278 195.164 165.777 193.342 167.672C191.525 169.562 189.08 170.625 186.458 170.665C186.408 170.666 186.357 170.666 186.307 170.666C180.954 170.666 176.534 166.332 176.421 160.936C176.307 155.489 180.625 150.99 186.045 150.907C186.095 150.906 186.146 150.906 186.196 150.906Z" fill="#231F20"/>
<path d="M179.094 160.896C179.177 164.861 182.448 168.026 186.401 167.966C190.354 167.906 193.491 164.643 193.408 160.678C193.325 156.713 190.054 153.548 186.101 153.608C182.148 153.669 179.011 156.931 179.094 160.896Z" fill="#231F20"/>
<path d="M173.583 171.029C173.509 170.965 173.495 170.844 173.477 170.752C173.316 169.878 173.182 168.944 173.099 168.062C172.167 159.302 174.76 149.756 182.901 145.205C193.07 139.769 203.59 151.117 202.39 161.244C201.206 170.377 193.505 174.384 184.901 173.256C182.963 173.063 181.123 172.365 179.268 171.841C177.474 171.388 175.638 170.977 173.78 171.041C173.72 171.045 173.638 171.06 173.583 171.029ZM173.745 170.766C173.73 170.749 173.703 170.737 173.68 170.736C173.644 170.738 173.678 170.732 173.678 170.732L173.725 170.719L173.817 170.696C177.666 169.94 181.261 171.996 185.006 172.435C191.752 173.348 198.57 170.848 200.522 163.806C203.381 154.381 193.425 142.061 183.479 146.402C174.443 150.397 172.012 161.57 173.741 170.515L173.777 170.69L173.796 170.777L173.804 170.815C173.8 170.794 173.773 170.769 173.745 170.766Z" fill="#231F20"/>
</svg>
