<svg width="340" height="460" viewBox="0 0 340 460" fill="none" xmlns="http://www.w3.org/2000/svg">
<path d="M227.635 149.229C251.519 109.653 239.288 83.4618 239.288 83.4618C242.288 80.3468 242.173 75.1538 242.173 75.1538C239.981 81.2688 220.827 87.0378 208.943 90.8458C197.059 94.6538 191.654 101.374 191.654 101.374C176.018 89.5538 160.68 94.4168 160.68 94.4168C167.638 92.3218 174.371 87.6088 174.371 87.6088C157.238 85.9628 149.532 94.1928 149.532 94.1928C153.722 87.3098 159.718 85.1718 159.718 85.1718C145.821 86.4538 133.633 99.4978 133.633 99.4978C133.633 99.4978 118.033 76.9848 83.8213 80.2088C83.8213 80.2088 88.3973 81.7688 91.8283 84.7838C91.8283 84.7838 84.9653 111.717 102.539 148.488C102.539 148.488 99.7363 151.767 93.6643 150.282C93.6643 150.282 95.2143 153.77 100.64 153.964C100.64 153.964 97.7333 159.648 86.5593 161.651C86.5593 161.651 89.6603 165.979 101.674 163.718C101.674 163.718 97.1533 166.237 91.6623 165.85C91.6623 165.85 96.7653 170.371 104.645 168.821C104.645 168.821 99.1553 172.761 91.1453 169.79C91.1453 169.79 96.3773 184.905 110.91 182.321C110.91 182.321 107.034 185.098 99.3483 183.161C99.3483 183.161 106.582 189.427 115.432 193.496C124.282 197.565 135.843 198.663 140.882 200.601C145.92 202.539 155.738 210.354 179.702 204.606C179.702 204.606 177.118 205.058 173.437 205.058C173.437 205.058 201.406 201.182 212.58 197.63C212.58 197.63 210.384 197.436 209.415 196.92C209.415 196.92 220.202 196.726 228.857 185.81C228.857 185.81 221.429 188.523 214.324 186.262C214.324 186.262 227.113 190.719 237.061 171.276C237.061 171.276 229.697 175.862 223.755 171.987C223.755 171.987 229.956 174.958 239.774 162.169C239.774 162.169 232.023 161.911 226.532 155.516C226.532 155.516 233.12 158.875 236.156 154.353C236.156 154.353 230.795 156.032 227.565 149.896L227.635 149.229Z" fill="white"/>
<path d="M227.489 149.18C229.628 143.899 232.279 138.725 234.438 133.445C238.733 122.945 241.687 111.758 241.632 100.356C241.561 94.6836 240.929 88.9326 239.149 83.5266C239.122 83.4676 239.133 83.3956 239.178 83.3526C240.705 81.7286 241.496 79.5446 241.836 77.3676C241.948 76.6366 242.019 75.8886 242.019 75.1566L242.319 75.2056C240.085 81.4296 223.448 86.7776 217.229 88.9766C213.283 90.3616 209.187 91.4666 205.325 93.0596C200.443 95.1936 195.822 97.9096 191.775 101.47C191.716 101.528 191.629 101.535 191.561 101.497C182.229 95.7816 171.688 92.5466 160.729 94.5626C160.724 94.5676 160.638 94.2676 160.636 94.2676C162.998 93.3106 165.32 92.3096 167.595 91.1656C169.865 90.0266 172.095 88.7896 174.281 87.4826C174.286 87.4726 174.355 87.7626 174.357 87.7616C172.77 87.7436 171.016 87.7316 169.426 87.8106C168.323 87.8176 166.869 87.9916 165.76 88.0806C165.022 88.1996 164.081 88.3316 163.341 88.4386C160.56 88.9766 157.772 89.7446 155.192 90.9196C153.226 91.8176 151.303 92.8976 149.648 94.2956C149.587 94.3566 149.487 94.3566 149.427 94.2946C149.378 94.2446 149.37 94.1696 149.402 94.1106C149.945 93.0846 150.56 92.0866 151.291 91.1736C153.453 88.4326 156.321 86.1286 159.665 85.0256C159.673 85.0156 159.731 85.3246 159.735 85.3236C158.492 85.5116 157.259 85.7366 156.05 86.0656C152.417 87.0356 148.978 88.6096 145.736 90.5076C142.494 92.4166 139.428 94.6406 136.558 97.0776C135.594 97.8846 134.656 98.7306 133.75 99.5976C133.697 99.6626 133.599 99.6706 133.536 99.6146C125.46 90.6526 114.486 84.4426 102.734 81.8656C96.5468 80.4856 90.1918 80.1136 83.8358 80.3596L83.8708 80.0596C85.3378 80.5916 86.7428 81.2496 88.0998 82.0076C89.4588 82.7636 90.7488 83.6436 91.9268 84.6616C91.9688 84.6916 91.9888 84.7426 91.9828 84.7906C91.6088 87.4956 91.4418 90.2286 91.3558 92.9486C91.2948 95.6466 91.2738 98.3996 91.4158 101.083C91.7578 109.16 92.9358 117.344 94.8998 125.195C95.4258 127.449 96.3678 130.798 97.0918 133.046L97.6848 134.999L98.3798 136.918C99.1688 139.192 100.349 142.381 101.252 144.569C101.745 145.846 102.233 147.127 102.683 148.43C102.702 148.485 102.69 148.543 102.657 148.586C102.141 149.248 101.469 149.729 100.742 150.108C98.5558 151.237 95.9218 151.201 93.6298 150.43C93.6238 150.431 93.8068 150.217 93.8068 150.217C94.5588 151.295 95.6318 152.131 96.8018 152.718C98.0078 153.308 99.3248 153.593 100.647 153.808C100.742 153.817 100.808 153.904 100.791 153.997C99.1938 157.173 95.8588 159.123 92.6488 160.358C90.7048 161.105 88.6498 161.541 86.5878 161.801L86.6858 161.559C87.1058 161.998 87.6668 162.354 88.2298 162.642C91.1558 164.071 94.5408 164.171 97.7358 163.995L99.6908 163.815L101.644 163.564C101.73 163.553 101.809 163.614 101.819 163.7C101.827 163.761 101.797 163.819 101.749 163.85C101.019 164.358 100.232 164.746 99.4158 165.074C96.9718 166.042 94.2538 166.463 91.6508 166.001L91.7638 165.731C92.6958 166.351 93.7048 166.873 94.7338 167.307C97.8428 168.655 101.264 169.003 104.615 168.666C104.772 168.641 104.857 168.851 104.735 168.943C102.824 170.409 100.425 171.11 98.0448 171.262C95.6668 171.404 93.2558 170.911 91.0908 169.931L91.2908 169.736C92.1878 171.639 93.3088 173.439 94.5948 175.078C98.6498 180.339 104.242 182.851 110.881 182.165C111.039 182.138 111.123 182.352 111.001 182.443C110.18 183.087 109.224 183.46 108.249 183.742C105.316 184.526 102.183 184.207 99.3158 183.308C99.3008 183.312 99.4548 183.042 99.4508 183.04C105.082 187.338 111.116 191.231 117.686 193.912C120.976 195.199 124.391 196.196 127.843 197.068C132.166 198.204 136.603 198.907 140.854 200.326C142.499 200.958 144.14 201.831 145.757 202.517C153.079 205.689 161.188 206.496 169.098 205.847C172.637 205.635 176.138 205.011 179.664 204.452C179.67 204.446 179.727 204.754 179.729 204.754C177.644 205.079 175.546 205.2 173.44 205.208C173.354 205.21 173.282 205.141 173.282 205.055C173.281 204.975 173.341 204.911 173.416 204.901C180.236 203.677 196.232 200.95 202.824 199.628C206.075 198.979 209.331 198.339 212.532 197.479C212.538 197.473 212.565 197.78 212.567 197.78C211.472 197.65 210.356 197.529 209.346 197.053C209.269 197.017 209.235 196.925 209.272 196.849C209.297 196.79 209.357 196.765 209.413 196.761C211.291 196.565 213.147 196.067 214.93 195.442C219.4 193.878 223.459 191.158 226.783 187.803C227.464 187.136 228.072 186.399 228.737 185.709L228.911 185.95C225.467 187.425 221.599 187.887 217.894 187.374C216.651 187.214 215.439 186.854 214.281 186.405C214.274 186.41 214.376 186.111 214.376 186.111C215.545 186.348 216.767 186.398 217.957 186.324C226.744 185.835 232.969 178.424 236.923 171.205C236.923 171.191 237.142 171.406 237.144 171.403C233.501 173.783 228.34 175.02 224.416 172.617C224.164 172.451 223.915 172.284 223.672 172.112C223.603 172.064 223.585 171.968 223.634 171.899C223.674 171.834 223.758 171.823 223.823 171.844C224.868 172.072 225.992 171.923 227.032 171.701C229.074 171.182 230.933 170.187 232.642 168.921C235.266 166.977 237.514 164.529 239.653 162.072L239.77 162.32C238.476 162.305 237.208 162.103 235.962 161.784C232.238 160.826 228.724 158.727 226.418 155.615C226.363 155.548 226.374 155.449 226.442 155.395C226.484 155.355 226.555 155.355 226.604 155.374C229.013 156.021 231.639 156.762 234.033 155.765C234.789 155.441 235.45 154.911 236.03 154.263L236.204 154.496C232.567 155.939 228.648 153.477 227.433 149.969C227.418 149.94 227.411 149.906 227.414 149.875L227.489 149.18ZM227.782 149.279L227.718 149.911L227.701 149.823C228.478 150.829 229.247 151.855 230.275 152.612C231.896 153.925 234.061 154.433 236.128 154.202C236.252 154.182 236.351 154.338 236.28 154.442C235.866 155.253 235.201 155.972 234.371 156.441C231.879 157.79 228.727 157.152 226.46 155.652C226.46 155.652 226.648 155.407 226.649 155.415C230.189 158.941 234.802 161.367 239.776 162.013C239.896 162.015 239.969 162.17 239.892 162.264C237.965 164.968 235.786 167.563 233.15 169.603C232.167 170.366 231.048 171.091 229.928 171.614L229.352 171.891L228.748 172.112C227.142 172.682 225.263 172.948 223.684 172.126C223.684 172.126 223.834 171.849 223.839 171.859C227.988 174.054 232.933 173.154 236.975 171.145C237.098 171.059 237.27 171.222 237.192 171.35C233.651 178.971 227.081 187.015 217.968 187.062C216.706 187.042 215.452 186.874 214.269 186.408C214.19 186.376 214.152 186.286 214.184 186.207C214.213 186.132 214.296 186.097 214.37 186.116C216.757 186.616 219.164 186.833 221.595 186.696C224.01 186.581 226.422 186.213 228.8 185.665C228.886 185.636 228.984 185.686 229.003 185.776C229.014 185.823 229.002 185.87 228.974 185.906C228.673 186.298 227.918 187.231 227.62 187.607C227.388 187.965 226.447 188.859 226.146 189.206C224.826 190.572 223.257 191.857 221.667 192.901C218.042 195.302 213.794 196.948 209.413 197.075L209.483 196.784C210.426 197.224 211.552 197.358 212.589 197.477C212.674 197.485 212.736 197.561 212.728 197.646C212.722 197.709 212.677 197.76 212.62 197.779C209.475 198.899 206.238 199.718 202.992 200.452C193.248 202.613 183.373 204.146 173.453 205.212C173.456 205.212 173.426 204.899 173.435 204.905C175.517 204.898 177.616 204.775 179.671 204.455C179.755 204.441 179.834 204.499 179.848 204.583C179.861 204.662 179.812 204.736 179.737 204.756C176.292 205.723 172.781 206.555 169.194 206.922C159.654 208.098 151.511 206.524 143.084 201.904C141.512 201.077 139.875 200.426 138.141 200.013C132.96 198.72 127.61 197.973 122.442 196.53C113.74 194.174 105.952 189.192 99.2428 183.279C99.1208 183.179 99.2388 182.968 99.3858 183.013C101.31 183.338 103.265 183.577 105.214 183.479C107.126 183.371 109.085 183.029 110.816 182.197L110.933 182.474C104.212 184.318 97.6788 181.301 93.8418 175.637C92.6078 173.852 91.6108 171.916 90.9948 169.842C90.9698 169.759 91.0178 169.671 91.1008 169.646C92.2618 169.86 93.3998 170.234 94.5808 170.339C97.9578 170.793 101.514 170.266 104.55 168.697L104.67 168.974C104.109 169.11 103.543 169.264 102.966 169.346C101.228 169.61 99.4458 169.54 97.7278 169.156C95.4478 168.634 93.2478 167.605 91.5548 165.967C91.4928 165.906 91.4928 165.806 91.5538 165.744C91.5888 165.711 91.6258 165.698 91.6698 165.697C93.3758 165.593 95.0528 165.421 96.7138 165.037C98.3648 164.68 99.9918 164.176 101.594 163.585C101.594 163.585 101.7 163.874 101.697 163.872C97.8338 164.684 93.6568 165.155 89.8298 163.914C88.5618 163.475 87.2988 162.859 86.4288 161.743C86.3588 161.654 86.4148 161.517 86.5268 161.501C89.1498 160.808 91.7808 160.034 94.2008 158.8C96.5708 157.585 98.8868 156.042 100.498 153.896C100.498 153.896 100.634 154.124 100.628 154.121C97.8368 154.318 94.6388 153.079 93.5178 150.348C93.4768 150.241 93.5688 150.12 93.6838 150.134C95.9528 150.456 98.3378 150.491 100.473 149.557C101.165 149.259 101.844 148.874 102.417 148.391C102.417 148.391 102.396 148.561 102.395 148.557C101.113 146.182 99.7898 143.668 98.7148 141.19L97.1698 137.368L96.4008 135.454L95.7338 133.503C94.9668 131.282 93.8328 127.9 93.2648 125.625C90.6748 116.373 89.3528 106.604 89.7748 96.9916C89.9828 92.8826 90.4808 88.7006 91.6738 84.7496L91.7218 84.9036C91.1378 84.4066 90.5378 83.9266 89.8998 83.4966C88.0018 82.2006 85.9208 81.1476 83.7668 80.3576C83.6858 80.3296 83.6438 80.2416 83.6718 80.1606C83.6928 80.1016 83.7478 80.0626 83.8058 80.0576C97.6878 77.9976 112.579 80.9596 123.97 89.3666C127.73 92.1706 131.214 95.4456 133.756 99.4126C133.759 99.4096 133.5 99.4006 133.519 99.3916C135.22 97.4986 137.103 95.7916 139.075 94.1886C144.009 90.2116 149.674 86.8966 155.915 85.5266C157.165 85.2726 158.431 85.0946 159.701 85.0206C159.787 85.0156 159.86 85.0806 159.865 85.1666C159.869 85.2366 159.826 85.2976 159.764 85.3216C156.22 87.1226 153.15 89.7916 150.7 92.9096C150.339 93.3516 150.021 93.8256 149.661 94.2756L149.416 94.0896C150.939 92.4246 152.835 91.1866 154.82 90.1586C159.311 87.8886 164.401 86.9066 169.413 87.0236C171.027 87.0366 172.798 87.2336 174.383 87.4576C174.47 87.4646 174.535 87.5436 174.523 87.6316C172.556 89.3106 170.211 90.5966 167.926 91.8286C165.643 93.0116 163.24 94.0146 160.721 94.5676C160.635 94.5946 160.543 94.5406 160.524 94.4526C160.506 94.3726 160.555 94.2936 160.632 94.2716C171.162 90.8066 183.663 93.7156 191.743 101.254L191.529 101.281C192.208 100.243 193.043 99.3466 193.905 98.4726C198.278 94.1416 204.037 91.4756 209.86 89.7096C216.485 87.6566 223.928 85.3446 230.347 82.7816C234.059 81.1716 240.273 78.7796 242.024 75.1056C242.054 75.0206 242.15 74.9756 242.233 75.0136C242.29 75.0396 242.324 75.0956 242.324 75.1536C242.274 78.1576 241.484 81.3226 239.396 83.5716L239.425 83.3986C240.727 86.0116 241.534 88.8216 242.131 91.6646C244.88 105.998 242.198 121.01 236.505 134.315C234.25 139.677 231.489 144.749 227.782 149.279Z" fill="#231F20"/>
<path d="M126.035 110.48C115.377 86.2567 95.9024 84.5127 95.9024 84.5127C95.9024 84.5127 92.4924 120.776 108.861 132.388C108.861 132.388 113.897 127.142 115.227 125.183C115.227 125.183 112.219 124.903 109.771 121.685C109.771 121.685 113.199 117.628 118.235 117.908C118.235 117.908 113.618 117.278 110.26 113.221C110.26 113.221 113.758 115.39 119.983 114.9C119.983 114.9 115.996 113.431 114.107 111.053C114.107 111.053 121.172 109.794 124.39 112.802C124.39 112.802 121.382 106.017 114.527 103.009C114.527 103.009 120.893 102.519 125.02 109.655L126.035 110.48Z" fill="white"/>
<path d="M125.973 110.398C124.547 107.778 123.168 105.131 121.492 102.659C119.331 99.4577 116.796 96.5097 113.939 93.9257C108.826 89.3987 102.586 86.0467 95.8929 84.6147C95.8909 84.6147 96.0039 84.5217 96.0039 84.5217C95.9639 88.8097 96.0979 93.0877 96.4119 97.3387C97.3699 109.129 99.6409 124.067 108.92 132.304C108.92 132.304 108.781 132.319 108.787 132.316C110.966 129.983 113.233 127.689 115.141 125.126C115.139 125.126 115.223 125.291 115.214 125.286C112.933 125.102 110.897 123.62 109.678 121.735C109.653 121.698 109.659 121.649 109.69 121.62C110.124 120.914 110.703 120.327 111.336 119.806C113.246 118.279 115.798 117.412 118.239 117.806L118.219 118.011C116.195 117.903 114.339 116.952 112.714 115.81C111.754 115.095 110.893 114.246 110.18 113.289C110.11 113.202 110.218 113.079 110.313 113.135C112.975 114.247 115.874 114.52 118.725 114.696C119.138 114.722 119.553 114.743 119.974 114.799L119.946 114.998C117.709 114.223 115.496 113.017 114.025 111.118C113.973 111.06 114.011 110.962 114.088 110.952C115.858 110.564 117.683 110.442 119.489 110.624C121.286 110.804 123.195 111.357 124.459 112.727L124.295 112.844C122.929 110.255 121.072 107.926 118.887 105.981C117.566 104.836 116.068 103.838 114.508 103.044C114.473 103.03 114.485 102.97 114.523 102.97C115.618 102.886 116.719 103.049 117.773 103.357C119.232 103.768 120.582 104.52 121.773 105.454C122.261 105.871 122.827 106.406 123.253 106.893C123.409 107.054 123.646 107.343 123.775 107.531C124.266 108.158 124.728 108.911 125.108 109.605C125.263 109.711 125.715 110.134 125.973 110.398ZM126.098 110.562C125.732 110.303 125.282 110.03 124.929 109.703C124.41 108.944 123.835 108.147 123.24 107.444C121.734 105.747 119.856 104.351 117.687 103.632C116.674 103.289 115.607 103.064 114.53 103.047C114.533 103.048 114.539 102.964 114.546 102.973C118.972 104.745 122.513 108.454 124.485 112.759C124.527 112.86 124.398 112.95 124.318 112.874C121.373 110.832 117.561 110.917 114.126 111.153C114.128 111.155 114.187 110.978 114.19 110.99C115.778 112.726 117.917 113.809 120.019 114.803C120.111 114.841 120.092 114.991 119.991 115.002C117.509 115.597 114.871 115.28 112.477 114.455C111.681 114.159 110.903 113.812 110.205 113.308L110.339 113.155C112.456 115.463 115.274 116.922 118.248 117.805C118.355 117.832 118.339 118.004 118.228 118.01C117.437 118.096 116.662 118.165 115.917 118.392C113.632 118.983 111.728 120.322 109.848 121.751C109.847 121.753 109.851 121.623 109.851 121.623C110.594 122.424 111.385 123.164 112.294 123.764C113.193 124.353 114.191 124.834 115.238 125.081C115.313 125.086 115.354 125.182 115.31 125.241C113.39 127.823 111.124 130.112 108.934 132.46C108.902 132.5 108.84 132.506 108.8 132.473C106.923 131.384 105.262 129.91 103.838 128.244C94.7859 117.402 94.0069 97.9767 95.7979 84.5037C95.8059 84.4487 95.8559 84.4087 95.9099 84.4107C99.4049 84.6517 102.776 85.8187 105.901 87.3567C115.275 92.1307 122.385 100.807 126.098 110.562Z" fill="#231F20"/>
<path d="M95.9755 84.5845C93.8195 86.5455 90.4445 84.2865 88.7435 82.6795C88.6525 82.5975 88.7705 82.4475 88.8715 82.5185C90.8705 83.7245 93.4675 85.5785 95.8465 84.4295C95.9405 84.3675 96.0535 84.5035 95.9755 84.5845Z" fill="#231F20"/>
<path d="M213.083 126.62C216.79 130.963 224.099 135.094 224.099 135.094C243.482 113.38 235.75 87.3237 235.75 87.3237C207.363 96.3267 202.915 116.876 202.915 116.876C202.915 116.876 206.749 107.423 216.393 107.789C216.393 107.789 210.523 109.414 205.386 119.215C205.386 119.215 209.789 112.681 222.42 114.131C222.42 114.131 216.812 119.477 210.418 120.106C210.418 120.106 216.917 118.219 220.796 121.521C220.796 121.521 218.49 120.316 212.2 123.251C212.2 123.251 219.38 126.396 225.722 123.775C225.722 123.775 218.856 130.117 213.877 126.605L213.083 126.62Z" fill="white"/>
<path d="M213.176 126.662C213.645 127.04 214.013 127.345 214.437 127.729C217.467 130.434 220.969 132.485 224.149 135.004C224.151 135.005 224.022 135.025 224.022 135.025C232.021 124.658 236.704 113.172 236.843 99.9867C236.899 95.7607 236.58 91.4957 235.652 87.3527C235.652 87.3527 235.784 87.4217 235.781 87.4217C225.122 91.5047 214.854 97.2567 208.16 106.763C205.986 109.867 204.093 113.242 203.016 116.897L202.82 116.836C203.714 114.03 205.762 111.708 208.108 109.989C210.491 108.273 213.477 107.457 216.397 107.686C216.506 107.691 216.531 107.845 216.431 107.884C215.819 108.129 215.223 108.454 214.664 108.819C210.699 111.367 207.945 115.333 205.478 119.263L205.301 119.158C206.184 117.838 207.444 116.845 208.783 116.029C212.184 114.037 216.245 113.521 220.12 113.759C220.895 113.844 221.669 113.93 222.439 114.03C222.494 114.037 222.533 114.088 222.526 114.143C220.935 115.804 218.971 117.107 216.957 118.217C214.932 119.278 212.718 120.047 210.428 120.209C210.305 120.229 210.262 120.035 210.389 120.007C213.803 118.923 218.088 118.877 220.862 121.443C220.959 121.517 220.854 121.678 220.747 121.613C219.34 121.275 217.844 121.623 216.455 121.949C215.04 122.306 213.615 122.843 212.243 123.345L212.241 123.157C214.389 123.932 216.661 124.413 218.939 124.565C220.922 124.705 222.96 124.523 224.863 123.945L225.68 123.681C225.778 123.635 225.873 123.779 225.791 123.851C222.822 126.713 217.613 129.758 213.82 126.693C213.803 126.685 213.88 126.71 213.878 126.709C213.645 126.717 213.432 126.688 213.176 126.662ZM212.989 126.578C213.279 126.557 213.637 126.463 213.94 126.523C217.915 128.705 222.425 126.149 225.652 123.699L225.761 123.87C223.62 124.808 221.24 125.14 218.913 124.983C216.589 124.818 214.29 124.295 212.158 123.345C212.081 123.312 212.077 123.198 212.151 123.16C212.481 122.976 212.819 122.809 213.154 122.633C215.448 121.607 218.357 120.448 220.843 121.429L220.728 121.599C219.992 121.096 219.218 120.68 218.37 120.4C215.814 119.603 213.056 119.734 210.446 120.204L210.407 120.002C210.96 119.886 211.52 119.833 212.06 119.667C214.792 118.996 217.323 117.657 219.648 116.092C220.579 115.459 221.488 114.781 222.348 114.056C222.349 114.052 222.408 114.232 222.408 114.232C217.156 113.878 211.466 114.485 207.145 117.739C206.543 118.196 205.959 118.7 205.471 119.272C205.405 119.37 205.236 119.274 205.294 119.166C206.965 115.457 209.427 111.997 212.727 109.57C213.839 108.776 215.027 108.062 216.364 107.689C216.364 107.689 216.389 107.892 216.387 107.891C210.13 107.847 205.966 111.771 203.01 116.912C202.976 117.032 202.778 116.974 202.813 116.853C203.706 113.091 205.488 109.594 207.629 106.395C214.159 96.8287 224.537 90.0337 235.717 87.2247C235.771 87.2037 235.834 87.2357 235.848 87.2937C236.487 89.3437 236.882 91.4527 237.187 93.5727C239.272 108.365 235.092 124.614 224.174 135.161C224.139 135.195 224.087 135.201 224.046 135.182C221.846 134.326 219.901 132.998 218.025 131.591C216.184 130.137 214.276 128.557 212.989 126.578Z" fill="#231F20"/>
<path d="M229.745 89.4267C234.433 87.2897 238.555 84.2407 241.289 79.8487C241.351 79.7547 241.51 79.8287 241.473 79.9377C241.34 80.3907 241.159 80.9007 240.993 81.3487C239.578 84.5707 236.733 87.0177 233.575 88.4597C232.368 89.0037 231.111 89.4327 229.798 89.6257C229.682 89.6427 229.63 89.4687 229.745 89.4267Z" fill="#231F20"/>
<path d="M145.119 139.444C143.946 127.282 136.823 127.282 136.823 127.282C136.823 127.282 138.647 127.716 139.342 129.019C139.342 129.019 136.345 126.934 132.262 128.889C132.262 128.889 135.954 127.847 137.778 129.801C137.778 129.801 126.585 125.588 126.035 140.399C126.035 140.399 127.483 136.012 133.651 135.143C139.819 134.274 141.426 137.184 141.426 137.184C141.426 137.184 140.818 135.099 137.43 134.404C137.43 134.404 141.513 134.013 144.597 138.791L145.119 139.444Z" fill="white"/>
<path d="M145.08 139.348C144.294 135.576 143.468 131.478 140.343 128.919C139.33 128.113 138.12 127.499 136.822 127.339L136.835 127.227C137.857 127.463 138.918 128.017 139.398 128.993C139.428 129.051 139.355 129.11 139.304 129.072C137.117 127.962 134.529 128.04 132.276 128.923L132.25 128.855C134.051 128.25 136.546 128.111 137.825 129.775C137.86 129.82 137.804 129.882 137.756 129.855C136.991 129.661 136.205 129.547 135.425 129.503C128.67 129.042 126.513 134.641 126.076 140.402C126.076 140.402 125.99 140.388 125.993 140.386C126.482 138.932 127.501 137.681 128.746 136.774C131.613 134.654 136.537 133.988 139.769 135.616C140.443 135.987 141.083 136.482 141.463 137.165C141.463 137.165 141.381 137.202 141.383 137.197C140.587 135.703 138.97 134.936 137.42 134.451C137.369 134.445 137.369 134.368 137.419 134.362C140.762 133.978 143.716 136.552 145.08 139.348ZM145.157 139.539C144.939 139.341 144.659 139.119 144.466 138.877C142.818 136.573 140.351 134.636 137.435 134.45L137.44 134.36C138.294 134.461 139.136 134.713 139.87 135.175C140.595 135.637 141.254 136.314 141.468 137.17C141.478 137.192 141.467 137.218 141.445 137.227C141.422 137.235 141.401 137.224 141.389 137.205C140.937 136.62 140.293 136.205 139.624 135.914C136.484 134.629 131.811 135.266 128.994 137.12C127.763 137.934 126.709 139.066 126.077 140.41C126.067 140.457 125.987 140.445 125.993 140.396C125.948 136.495 126.853 131.754 130.664 129.795C132.871 128.677 135.576 128.819 137.798 129.747L137.738 129.837C136.187 128.628 134.141 128.653 132.273 128.922C132.232 128.941 132.202 128.869 132.247 128.854C133.872 127.914 135.882 127.585 137.693 128.138C138.295 128.322 138.876 128.578 139.379 128.966L139.287 129.048C139.013 128.617 138.636 128.266 138.206 127.989C137.775 127.713 137.299 127.496 136.811 127.336C136.78 127.33 136.76 127.301 136.766 127.27C136.771 127.242 136.797 127.223 136.824 127.224C138.189 127.238 139.492 127.802 140.594 128.596C143.88 131.123 145.063 135.578 145.157 139.539Z" fill="#231F20"/>
<path d="M179.112 139.444C180.285 127.282 187.408 127.282 187.408 127.282C187.408 127.282 185.584 127.716 184.889 129.019C184.889 129.019 187.886 126.934 191.969 128.889C191.969 128.889 188.277 127.847 186.453 129.801C186.453 129.801 197.646 125.588 198.196 140.399C198.196 140.399 196.747 136.012 190.58 135.143C184.412 134.274 182.805 137.184 182.805 137.184C182.805 137.184 183.413 135.099 186.801 134.404C186.801 134.404 182.718 134.013 179.634 138.791L179.112 139.444Z" fill="white"/>
<path d="M179.073 139.539C179.167 135.578 180.35 131.123 183.638 128.596C184.74 127.802 186.043 127.238 187.408 127.224C187.44 127.223 187.467 127.248 187.467 127.28C187.467 127.308 187.447 127.331 187.421 127.336C186.932 127.496 186.457 127.713 186.026 127.989C185.596 128.266 185.218 128.617 184.945 129.048L184.853 128.966C185.355 128.578 185.936 128.323 186.539 128.138C188.351 127.585 190.36 127.915 191.985 128.854C192.026 128.873 192.005 128.936 191.959 128.922C190.091 128.653 188.045 128.629 186.494 129.837L186.434 129.747C188.656 128.819 191.361 128.677 193.568 129.795C197.379 131.756 198.284 136.493 198.239 140.396C198.243 140.445 198.167 140.459 198.155 140.41C197.523 139.066 196.469 137.934 195.238 137.12C192.426 135.268 187.747 134.628 184.608 135.913C183.936 136.205 183.288 136.622 182.836 137.212C182.809 137.25 182.741 137.214 182.764 137.169C183.106 135.882 184.329 135.026 185.537 134.629C185.945 134.495 186.367 134.41 186.792 134.359L186.797 134.449C183.881 134.634 181.414 136.572 179.766 138.876C179.571 139.119 179.291 139.342 179.073 139.539ZM179.15 139.348C180.236 137.183 182.13 135.184 184.583 134.543C185.308 134.349 186.064 134.252 186.809 134.361C186.834 134.365 186.851 134.387 186.847 134.412C185.324 134.959 183.639 135.661 182.846 137.196C182.848 137.201 182.766 137.164 182.766 137.164C183.145 136.481 183.786 135.987 184.459 135.615C187.693 133.988 192.611 134.651 195.483 136.773C196.728 137.68 197.747 138.931 198.236 140.385C198.239 140.387 198.153 140.401 198.153 140.401C197.574 132.991 194.478 128.082 186.4 129.832C187.209 128.5 189.116 128.316 190.542 128.512C191.033 128.577 191.516 128.684 191.98 128.854L191.954 128.922C190.809 128.507 189.625 128.215 188.408 128.241C187.208 128.262 186.003 128.532 184.926 129.071C184.876 129.113 184.802 129.047 184.832 128.993C185.065 128.504 185.468 128.113 185.922 127.827C186.378 127.546 186.873 127.338 187.395 127.226L187.408 127.338C186.11 127.499 184.9 128.113 183.887 128.919C180.762 131.479 179.938 135.575 179.15 139.348Z" fill="#231F20"/>
<path d="M160.405 180.512C160.603 182.17 160.716 183.788 160.801 185.457C160.846 187.284 160.079 189.087 158.729 190.341C156.064 192.684 152.101 193.459 148.792 192.137C146.637 191.28 144.816 189.86 143.36 188.193C143.304 188.128 143.31 188.03 143.375 187.974C143.431 187.925 143.513 187.924 143.57 187.967C145.326 189.269 147.192 190.382 149.18 190.99C151.28 191.595 153.511 191.505 155.507 190.618C157.209 189.892 158.784 188.708 159.385 186.879C159.748 185.896 159.717 184.845 159.796 183.8C159.88 182.704 159.959 181.608 160.097 180.513C160.112 180.338 160.39 180.334 160.405 180.512Z" fill="#231F20"/>
<path d="M160.477 180.512C160.681 182.139 160.771 183.803 160.883 185.429C160.992 186.894 161.703 188.32 162.81 189.263C165.181 191.202 168.448 191.88 171.394 190.99C173.381 190.381 175.248 189.268 177.004 187.967C177.073 187.916 177.17 187.93 177.221 187.999C177.265 188.059 177.26 188.14 177.214 188.194C175.758 189.86 173.936 191.281 171.782 192.138C169.459 193.047 166.764 192.988 164.472 191.988C162.409 191.11 160.52 189.491 159.986 187.245C159.665 186.119 159.799 184.936 159.869 183.801C159.953 182.705 160.032 181.609 160.17 180.514C160.188 180.338 160.459 180.334 160.477 180.512Z" fill="#231F20"/>
<path d="M157.001 178.78C157.001 178.78 158.92 182.621 160.19 182.621C161.46 182.621 162.531 179.209 163.563 178.931C164.595 178.653 167.134 180.002 168.722 175.955C170.309 171.907 161.54 171.233 159.357 171.431C157.175 171.629 152.095 172.423 152.413 175.121C152.729 177.82 154.342 179.018 157.001 178.78Z" fill="white"/>
<path d="M157.035 178.719C157.772 179.846 158.475 181.093 159.471 182.01C159.761 182.251 160.086 182.496 160.45 182.313C161.155 181.9 161.663 181.016 162.141 180.327C163.441 178.181 163.529 178.888 165.655 178.637C166.975 178.404 167.806 177.342 168.409 176.165C168.865 175.398 168.89 174.446 168.242 173.796C167.637 173.176 166.771 172.86 165.927 172.612C163.362 171.921 160.585 171.582 157.932 171.964C156.164 172.246 152.741 172.688 152.583 174.91C152.654 177.071 154.22 178.443 156.316 178.618C156.533 178.649 156.815 178.677 157.035 178.719ZM156.966 178.842C155.018 179.541 152.887 178.356 152.461 176.323C152.209 175.409 152.013 174.296 152.707 173.518C154.029 172.066 156.003 171.663 157.822 171.267C160.912 170.674 166.325 171.042 168.524 173.553C169.203 174.306 169.181 175.458 168.79 176.33C168.456 177.227 167.977 178.131 167.137 178.672C166.108 179.426 164.803 179.087 163.662 179.08C163.054 179.248 162.726 179.97 162.384 180.479C161.116 182.832 160.145 184.015 158.261 181.255C157.761 180.507 157.331 179.716 156.972 178.893L156.955 178.853C156.958 178.846 156.92 178.805 156.966 178.842Z" fill="#231F20"/>
<path d="M155.489 177.967C156.382 177.721 157.083 178.518 157.478 179.223C157.524 179.297 157.501 179.393 157.428 179.439C157.339 179.497 157.213 179.443 157.192 179.339C157.073 178.761 156.614 178.348 156.052 178.228C155.87 178.185 155.701 178.158 155.489 178.15C155.439 178.148 155.4 178.106 155.402 178.056C155.404 178.007 155.444 177.974 155.489 177.967Z" fill="#231F20"/>
<path d="M162.593 179.628C163.096 178.607 164.126 177.991 165.261 178.274C165.347 178.286 165.406 178.365 165.394 178.45C165.381 178.556 165.261 178.616 165.167 178.568C164.216 178.072 163.091 178.723 162.884 179.734C162.831 179.964 162.486 179.839 162.593 179.628Z" fill="#231F20"/>
<path d="M80 185.667C84.438 182.103 89.709 179.7 95.102 177.96C108.734 173.685 123.546 174.588 137.116 178.648C139.525 179.344 142.786 180.546 145.155 181.432C145.208 181.452 145.235 181.511 145.216 181.564C145.196 181.618 145.136 181.645 145.082 181.624C139.769 179.676 134.305 178.146 128.753 177.115C112.291 173.943 93.808 176.058 80 185.667Z" fill="#231F20"/>
<path d="M90.2275 204.898C99.5035 192.605 113.823 183.952 129.177 182.13C134.296 181.543 139.487 181.701 144.558 182.52C144.614 182.529 144.652 182.582 144.643 182.638C144.634 182.693 144.582 182.731 144.527 182.724C139.452 182.053 134.303 181.977 129.235 182.607C113.964 184.487 99.8735 193.308 90.2275 204.898Z" fill="#231F20"/>
<path d="M116.02 201.243C122.375 193.142 133.657 182.937 144.544 183.209C144.601 183.211 144.645 183.259 144.643 183.316C144.641 183.371 144.595 183.415 144.541 183.415C133.52 183.825 123.222 193.835 116.02 201.243Z" fill="#231F20"/>
<path d="M240.598 185.724C236.069 182.352 230.777 180.076 225.398 178.44C214.577 175.177 202.958 175.045 191.895 177.114C186.343 178.146 180.879 179.675 175.566 181.623C175.512 181.644 175.452 181.617 175.432 181.563C175.412 181.51 175.44 181.451 175.493 181.431C177.885 180.524 181.125 179.359 183.532 178.647C197.102 174.587 211.915 173.684 225.546 177.959C229.607 179.251 233.551 180.957 237.174 183.207C238.378 183.958 239.555 184.756 240.647 185.666C240.686 185.697 240.635 185.756 240.598 185.724Z" fill="#231F20"/>
<path d="M230.373 204.931C220.705 193.101 206.656 184.563 191.412 182.606C186.344 181.976 181.195 182.052 176.12 182.723C176.064 182.731 176.012 182.692 176.004 182.635C175.996 182.58 176.035 182.528 176.09 182.519C181.161 181.7 186.352 181.543 191.471 182.129C201.728 183.318 211.501 187.626 219.616 193.956C222.647 196.343 225.483 198.979 228.017 201.888C228.86 202.857 229.678 203.849 230.42 204.898C230.441 204.927 230.394 204.961 230.373 204.931Z" fill="#231F20"/>
<path d="M204.593 201.273C197.501 193.748 186.937 183.803 176.107 183.417C176.049 183.417 176.003 183.369 176.005 183.311C176.007 183.256 176.051 183.213 176.104 183.211C186.726 182.838 198.623 193.312 204.593 201.273Z" fill="#231F20"/>
<path d="M149.626 170.898C149.626 170.898 153.322 154.893 142.057 146.955C130.919 139.107 118.915 152.995 122.044 163.62C125.173 174.245 136.599 173.808 141.912 172.062C147.225 170.316 149.626 170.898 149.626 170.898Z" fill="white"/>
<path d="M149.626 170.898C149.626 170.898 153.322 154.893 142.057 146.955C130.919 139.107 118.915 152.995 122.044 163.62C125.173 174.245 136.599 173.808 141.912 172.062C147.225 170.316 149.626 170.898 149.626 170.898Z" fill="black"/>
<path d="M147.705 167.4C151.381 161.473 149.586 153.707 143.697 150.056C137.808 146.404 130.055 148.249 126.38 154.177C122.704 160.104 124.499 167.869 130.387 171.521C136.276 175.172 144.03 173.328 147.705 167.4Z" fill="white"/>
<path d="M147.187 154.375C147.156 155.84 145.948 157.009 144.487 156.987C143.027 156.965 141.868 155.759 141.898 154.295C141.929 152.83 143.137 151.661 144.598 151.683C146.059 151.705 147.218 152.91 147.187 154.375Z" fill="white"/>
<path d="M132.505 168.779C132.486 169.665 131.755 170.373 130.871 170.36C129.987 170.347 129.286 169.617 129.304 168.731C129.323 167.845 130.054 167.137 130.938 167.15C131.822 167.163 132.523 167.893 132.505 168.779Z" fill="white"/>
<path d="M149.943 160.984C149.926 165.635 147.202 170.548 142.19 172.745C138.864 174.254 134.659 174.17 131.41 172.552C121.462 167.739 121.906 153.513 132.052 149.107C141.621 145.223 150.128 152.897 149.943 160.984ZM149.268 160.973C149.441 156.509 147.046 151.754 142.369 149.485C139.286 147.963 135.33 147.901 132.193 149.341C122.483 153.654 122.342 167.332 131.875 171.835C140.805 175.791 149.131 168.624 149.268 160.973Z" fill="#231F20"/>
<path d="M136.984 170.881C136.932 170.881 136.88 170.881 136.829 170.88C134.132 170.839 131.619 169.748 129.754 167.809C127.894 165.874 126.901 163.326 126.957 160.633C127.073 155.119 131.606 150.691 137.095 150.691C137.147 150.691 137.199 150.691 137.251 150.692C142.811 150.777 147.239 155.374 147.123 160.939C147.007 166.453 142.474 170.881 136.984 170.881ZM137.094 150.906C131.741 150.906 127.321 155.24 127.208 160.636C127.153 163.278 128.126 165.777 129.948 167.672C131.765 169.562 134.21 170.625 136.832 170.665C136.882 170.666 136.933 170.666 136.983 170.666C142.336 170.666 146.756 166.332 146.869 160.936C146.983 155.489 142.665 150.99 137.245 150.907C137.195 150.906 137.145 150.906 137.094 150.906Z" fill="#231F20"/>
<path d="M144.197 160.896C144.114 164.861 140.842 168.026 136.889 167.966C132.936 167.906 129.799 164.643 129.882 160.678C129.965 156.713 133.237 153.548 137.189 153.608C141.142 153.669 144.28 156.931 144.197 160.896Z" fill="#231F20"/>
<path d="M149.545 170.767C149.518 170.77 149.491 170.795 149.487 170.816C149.504 170.751 149.534 170.586 149.55 170.516C151.279 161.574 148.847 150.396 139.812 146.403C129.866 142.063 119.91 154.382 122.769 163.807C124.726 170.851 131.534 173.347 138.286 172.436C142.03 171.997 145.627 169.941 149.474 170.697L149.566 170.72L149.613 170.733C149.613 170.733 149.647 170.739 149.611 170.737C149.587 170.738 149.56 170.75 149.545 170.767ZM149.707 171.03C149.65 171.059 149.573 171.049 149.509 171.042C147.651 170.978 145.815 171.389 144.021 171.842C142.166 172.366 140.326 173.065 138.388 173.257C129.787 174.386 122.08 170.375 120.899 161.245C119.7 151.12 130.218 139.77 140.389 145.206C148.532 149.76 151.123 159.301 150.191 168.063C150.109 168.945 149.975 169.881 149.813 170.753C149.791 170.842 149.785 170.968 149.707 171.03Z" fill="#231F20"/>
<path d="M173.664 170.898C173.664 170.898 169.968 154.893 181.233 146.955C192.371 139.107 204.375 152.995 201.246 163.62C198.117 174.245 186.691 173.808 181.379 172.062C176.066 170.316 173.664 170.898 173.664 170.898Z" fill="white"/>
<path d="M173.664 170.898C173.664 170.898 169.968 154.893 181.233 146.955C192.371 139.107 204.375 152.995 201.246 163.62C198.117 174.245 186.691 173.808 181.379 172.062C176.066 170.316 173.664 170.898 173.664 170.898Z" fill="black"/>
<path d="M192.908 171.515C198.796 167.862 200.589 160.097 196.913 154.17C193.237 148.244 185.483 146.4 179.595 150.052C173.707 153.704 171.914 161.47 175.59 167.396C179.266 173.323 187.019 175.167 192.908 171.515Z" fill="white"/>
<path d="M176.104 154.375C176.135 155.84 177.343 157.009 178.804 156.987C180.264 156.965 181.423 155.759 181.393 154.295C181.362 152.83 180.154 151.661 178.693 151.683C177.232 151.705 176.073 152.91 176.104 154.375Z" fill="white"/>
<path d="M190.786 168.779C190.805 169.665 191.536 170.373 192.42 170.36C193.304 170.347 194.005 169.617 193.987 168.731C193.968 167.845 193.237 167.137 192.353 167.15C191.469 167.163 190.768 167.893 190.786 168.779Z" fill="white"/>
<path d="M173.348 160.984C173.365 165.635 176.089 170.548 181.101 172.745C184.427 174.254 188.632 174.17 191.881 172.552C201.829 167.739 201.385 153.513 191.239 149.107C181.669 145.223 173.163 152.897 173.348 160.984ZM174.023 160.973C173.85 156.509 176.245 151.754 180.922 149.485C184.005 147.963 187.961 147.901 191.098 149.341C200.808 153.654 200.949 167.332 191.416 171.835C182.485 175.791 174.16 168.624 174.023 160.973Z" fill="#231F20"/>
<path d="M186.307 170.881C186.359 170.881 186.411 170.881 186.462 170.88C189.159 170.839 191.672 169.748 193.537 167.809C195.397 165.874 196.39 163.326 196.334 160.633C196.218 155.119 191.685 150.691 186.196 150.691C186.144 150.691 186.092 150.691 186.041 150.692C180.481 150.777 176.053 155.374 176.169 160.939C176.284 166.453 180.817 170.881 186.307 170.881ZM186.196 150.906C191.549 150.906 195.969 155.24 196.082 160.636C196.137 163.278 195.164 165.777 193.342 167.672C191.525 169.562 189.08 170.625 186.458 170.665C186.408 170.666 186.357 170.666 186.307 170.666C180.954 170.666 176.534 166.332 176.421 160.936C176.307 155.489 180.625 150.99 186.045 150.907C186.095 150.906 186.146 150.906 186.196 150.906Z" fill="#231F20"/>
<path d="M179.094 160.896C179.177 164.861 182.448 168.026 186.401 167.966C190.354 167.906 193.491 164.643 193.408 160.678C193.325 156.713 190.054 153.548 186.101 153.608C182.148 153.669 179.011 156.931 179.094 160.896Z" fill="#231F20"/>
<path d="M173.583 171.029C173.509 170.965 173.495 170.844 173.477 170.752C173.316 169.878 173.182 168.944 173.099 168.062C172.167 159.302 174.76 149.756 182.901 145.205C193.07 139.769 203.59 151.117 202.39 161.244C201.206 170.377 193.505 174.384 184.901 173.256C182.963 173.063 181.123 172.365 179.268 171.841C177.474 171.388 175.638 170.977 173.78 171.041C173.72 171.045 173.638 171.06 173.583 171.029ZM173.745 170.766C173.73 170.749 173.703 170.737 173.68 170.736C173.644 170.738 173.678 170.732 173.678 170.732L173.725 170.719L173.817 170.696C177.666 169.94 181.261 171.996 185.006 172.435C191.752 173.348 198.57 170.848 200.522 163.806C203.381 154.381 193.425 142.061 183.479 146.402C174.443 150.397 172.012 161.57 173.741 170.515L173.777 170.69L173.796 170.777L173.804 170.815C173.8 170.794 173.773 170.769 173.745 170.766Z" fill="#231F20"/>
</svg>
